<svg width="577" height="72" viewBox="0 0 577 72" fill="none" xmlns="http://www.w3.org/2000/svg">
<g>
<path d="M541.135 31.3794V21.8973L577.015 36.8437V44.5179L541.135 59.5044V49.9821L565.242 41.4242L567.853 40.6206L565.242 39.7768L541.135 31.3794Z" fill="#673C90"/>
<path d="M512.097 71.2365H503.339L526.481 7.71429H535.24L512.097 71.2365Z" fill="#A386BD"/>
<path d="M193.277 61.7143V13.7417H192.948L175.01 61.7143H170.731L152.875 13.7417H152.546V61.7143H147.938V5.10172H154.685L172.788 53.7326H173.199L191.384 5.10172H198.05V61.7143H193.277Z" fill="#3C7383"/>
<path d="M212.858 6.74742V0.575989H217.96V6.74742H212.858ZM213.105 61.7143V19.7486H217.713V61.7143H213.105Z" fill="#3C7383"/>
<path d="M254.969 61.3029C253.817 61.632 252.309 61.8789 250.444 62.0434C248.633 62.2629 246.878 62.3726 245.177 62.3726C240.679 62.3726 237.36 61.6594 235.221 60.2331C233.137 58.8069 231.765 56.6675 231.107 53.8149C230.504 50.9075 230.201 46.5737 230.201 40.8137C230.201 34.944 230.586 30.5006 231.353 27.4834C232.121 24.4662 233.548 22.3268 235.632 21.0651C237.716 19.7486 240.816 19.0903 244.931 19.0903C246.576 19.0903 248.304 19.2 250.115 19.4194C251.98 19.584 253.488 19.8035 254.64 20.0777V24.0274C251.623 23.424 248.716 23.1223 245.918 23.1223C242.627 23.1223 240.213 23.5886 238.677 24.5211C237.14 25.4537 236.099 27.0994 235.55 29.4583C235.056 31.8172 234.809 35.5474 234.809 40.6491C234.809 45.9154 235.056 49.7555 235.55 52.1691C236.099 54.528 237.14 56.1462 238.677 57.024C240.213 57.9018 242.682 58.3406 246.083 58.3406C247.508 58.3406 249.045 58.2583 250.691 58.0937C252.392 57.8742 253.817 57.6274 254.969 57.3531V61.3029Z" fill="#3C7383"/>
<path d="M266.019 19.7486H269.969L270.298 28.0594H270.627C271.45 24.6583 272.903 22.3268 274.988 21.0651C277.127 19.7486 279.897 19.0903 283.299 19.0903V23.7806C279.952 23.7806 277.346 24.4389 275.482 25.7554C273.671 27.0171 272.409 28.9097 271.697 31.4331C270.983 33.9017 270.627 37.1658 270.627 41.2251V61.7143H266.019V19.7486Z" fill="#3C7383"/>
<path d="M306.713 62.3726C301.665 62.3726 298.045 61.824 295.851 60.7269C293.657 59.5749 292.258 57.6 291.655 54.8023C291.05 51.9497 290.75 47.2869 290.75 40.8137C290.75 34.2858 291.05 29.6229 291.655 26.8251C292.258 23.9725 293.657 21.9703 295.851 20.8183C298.045 19.6663 301.665 19.0903 306.713 19.0903C311.815 19.0903 315.435 19.6663 317.575 20.8183C319.768 21.9703 321.167 23.9725 321.771 26.8251C322.43 29.6229 322.759 34.2858 322.759 40.8137C322.759 47.2869 322.43 51.9497 321.771 54.8023C321.167 57.6 319.768 59.5749 317.575 60.7269C315.435 61.824 311.815 62.3726 306.713 62.3726ZM306.713 58.3406C310.552 58.3406 313.241 57.9291 314.777 57.1063C316.312 56.2834 317.246 54.8023 317.575 52.6629C317.958 50.4685 318.151 46.5188 318.151 40.8137C318.151 35.1086 317.958 31.1589 317.575 28.9646C317.246 26.7702 316.312 25.2617 314.777 24.4389C313.241 23.5611 310.552 23.1223 306.713 23.1223C302.873 23.1223 300.184 23.5611 298.649 24.4389C297.168 25.2617 296.234 26.7702 295.851 28.9646C295.522 31.104 295.358 35.0537 295.358 40.8137C295.358 46.5188 295.522 50.4685 295.851 52.6629C296.234 54.8023 297.168 56.2834 298.649 57.1063C300.184 57.9291 302.873 58.3406 306.713 58.3406Z" fill="#3C7383"/>
<path d="M334.257 19.7486H341.498L341.827 27.3189H342.403C343.281 24.192 344.707 22.0526 346.682 20.9006C348.712 19.6937 351.372 19.0903 354.664 19.0903V27.072C351.428 27.072 348.904 27.6206 347.093 28.7177C345.283 29.8148 344.022 31.5154 343.308 33.8194C342.595 36.0685 342.239 39.168 342.239 43.1177V61.7143H334.257V19.7486Z" fill="#3C7383"/>
<path d="M393.256 43.3646H369.064C369.064 47.2046 369.257 49.92 369.64 51.5109C370.079 53.1017 371.039 54.1989 372.52 54.8023C374.056 55.4057 376.607 55.7074 380.172 55.7074C383.135 55.7074 387.03 55.4332 391.857 54.8846V61.1383C390.322 61.5223 388.292 61.824 385.769 62.0434C383.245 62.2629 380.804 62.3726 378.444 62.3726C373.233 62.3726 369.393 61.7143 366.924 60.3977C364.511 59.0262 362.921 56.8868 362.152 53.9794C361.384 51.072 361 46.6834 361 40.8137C361 35.0537 361.357 30.72 362.069 27.8126C362.783 24.8503 364.319 22.656 366.677 21.2297C369.037 19.8035 372.74 19.0903 377.786 19.0903C382.669 19.0903 386.179 19.8035 388.319 21.2297C390.513 22.6012 391.885 24.7131 392.433 27.5657C392.982 30.3634 393.256 34.752 393.256 40.7314V43.3646ZM377.621 25.7554C374.988 25.7554 373.096 26.0572 371.944 26.6606C370.847 27.264 370.106 28.3612 369.722 29.952C369.339 31.5428 369.119 34.1486 369.064 37.7691H385.521V37.3577C385.521 33.8468 385.302 31.296 384.863 29.7051C384.424 28.1143 383.657 27.072 382.56 26.5783C381.517 26.0297 379.871 25.7554 377.621 25.7554Z" fill="#3C7383"/>
<path d="M413.508 62.3726C409.449 62.3726 406.459 61.44 404.539 59.5749C402.674 57.7097 401.741 54.528 401.741 50.0297C401.741 46.7932 402.098 44.2697 402.811 42.4594C403.525 40.6491 404.731 39.3326 406.432 38.5097C408.133 37.6869 410.519 37.2754 413.591 37.2754C416.388 37.2754 420.42 37.3851 425.687 37.6046V35.3829C425.687 32.3109 425.44 30.144 424.946 28.8823C424.452 27.6206 423.52 26.7978 422.148 26.4137C420.776 26.0297 418.472 25.8377 415.236 25.8377C413.7 25.8377 411.78 25.92 409.476 26.0846C407.172 26.2491 405.389 26.4411 404.128 26.6606V20.2423C408.242 19.4743 412.795 19.0903 417.787 19.0903C422.34 19.0903 425.742 19.6114 427.991 20.6537C430.239 21.696 431.749 23.3691 432.516 25.6731C433.284 27.9222 433.668 31.2137 433.668 35.5474V61.7143H426.427L426.098 56.2834H425.604C424.562 58.6971 422.971 60.3154 420.832 61.1383C418.748 61.9611 416.306 62.3726 413.508 62.3726ZM416.882 55.7074C418.802 55.7074 420.365 55.488 421.572 55.0491C422.78 54.6103 423.712 53.7875 424.37 52.5806C425.248 50.8252 425.687 48.2468 425.687 44.8457V42.8709H415.565C413.864 42.8709 412.603 43.0354 411.78 43.3646C410.957 43.6388 410.381 44.2423 410.052 45.1749C409.723 46.0526 409.559 47.4515 409.559 49.3714C409.559 51.1817 409.723 52.5257 410.052 53.4034C410.437 54.2812 411.122 54.8846 412.109 55.2137C413.152 55.5429 414.743 55.7074 416.882 55.7074Z" fill="#3C7383"/>
<path d="M470.372 61.2206C469.055 61.5497 467.409 61.824 465.434 62.0434C463.515 62.2629 461.676 62.3726 459.921 62.3726C455.258 62.3726 451.802 61.632 449.553 60.1509C447.359 58.6697 445.933 56.4754 445.274 53.568C444.671 50.6606 444.369 46.3818 444.369 40.7314C444.369 35.1909 444.725 30.9394 445.439 27.9771C446.207 24.96 447.688 22.7382 449.882 21.312C452.077 19.8309 455.369 19.0903 459.757 19.0903C461.512 19.0903 463.35 19.2 465.27 19.4194C467.189 19.6389 468.781 19.9131 470.042 20.2423V26.5783C467.3 26.0846 464.529 25.8377 461.732 25.8377C458.934 25.8377 456.877 26.2218 455.56 26.9897C454.299 27.7577 453.448 29.1565 453.009 31.1863C452.625 33.1611 452.433 36.3429 452.433 40.7314C452.433 45.1749 452.653 48.4114 453.092 50.4411C453.53 52.4709 454.381 53.8422 455.642 54.5554C456.959 55.2686 459.043 55.6251 461.896 55.6251C464.858 55.6251 467.683 55.3783 470.372 54.8846V61.2206Z" fill="#3C7383"/>
<path d="M483.392 61.7143V26.496H476.232V19.7486H483.392V7.57028H491.374V19.7486H499.848V26.496H491.374V61.7143H483.392Z" fill="#3C7383"/>
<path d="M46.6291 61.7143V5.10172H51.4839V57.2709H74.8531V61.7143H46.6291Z" fill="#673C90"/>
<path d="M84.0678 6.74742V0.575989H89.1695V6.74742H84.0678ZM84.3146 61.7143V19.7486H88.9226V61.7143H84.3146Z" fill="#673C90"/>
<path d="M120.255 62.3726C117.073 62.3726 114.413 61.9062 112.273 60.9737C110.134 60.0412 108.598 58.2034 107.665 55.4606H107.336L107.007 61.7143H103.057V0.575989H107.665V25.2617H107.994C108.872 23.0674 110.326 21.5039 112.355 20.5714C114.385 19.584 117.046 19.0903 120.337 19.0903C124.342 19.0903 127.331 19.6937 129.306 20.9006C131.281 22.1075 132.625 24.2194 133.338 27.2366C134.106 30.2537 134.49 34.7519 134.49 40.7314C134.49 46.7109 134.106 51.2091 133.338 54.2263C132.571 57.2435 131.199 59.3554 129.224 60.5623C127.249 61.7692 124.259 62.3726 120.255 62.3726ZM118.691 58.176C122.147 58.176 124.616 57.792 126.097 57.024C127.578 56.2011 128.566 54.6377 129.059 52.3337C129.608 49.9748 129.882 46.1074 129.882 40.7314C129.882 35.3555 129.608 31.5154 129.059 29.2114C128.566 26.8525 127.578 25.2891 126.097 24.5211C124.616 23.6983 122.147 23.2868 118.691 23.2868C115.949 23.2868 113.754 23.7257 112.109 24.6034C110.518 25.4263 109.421 26.7702 108.817 28.6354C108.323 30.1166 107.994 31.7623 107.83 33.5726C107.72 35.3279 107.665 37.7142 107.665 40.7314C107.665 43.584 107.72 45.9154 107.83 47.7257C107.994 49.4811 108.296 51.0994 108.735 52.5806C109.338 54.5554 110.435 55.9817 112.026 56.8594C113.672 57.7372 115.894 58.176 118.691 58.176Z" fill="#673C90"/>
<path d="M11.9732 39.8571L9.36161 40.7813L11.9732 41.6651L34.7946 49.8615V59.5044L0 44.5179V36.8839L34.7946 21.9375V31.5401L11.9732 39.8571Z" fill="#673C90"/>
</g>
</svg>
