<svg xmlns="http://www.w3.org/2000/svg" width="1920" height="1080"><path d="M-213,-234L169,-231L778,-265Z" fill="#edecf5" stroke="#edecf5" stroke-width="1.51"/><path d="M169,-231L411,-223L778,-265Z" fill="#e5e4f0" stroke="#e5e4f0" stroke-width="1.51"/><path d="M746,1294L317,1293L1047,1306Z" fill="#8265ae" stroke="#8265ae" stroke-width="1.51"/><path d="M778,-265L909,-251L1206,-234Z" fill="#ccc8e2" stroke="#ccc8e2" stroke-width="1.51"/><path d="M1218,1304L1047,1306L1330,1312Z" fill="#684c9f" stroke="#684c9f" stroke-width="1.51"/><path d="M778,-265L1206,-234L1644,-245Z" fill="#bfbbdc" stroke="#bfbbdc" stroke-width="1.51"/><path d="M1206,-234L1446,-207L1644,-245Z" fill="#b6abd4" stroke="#b6abd4" stroke-width="1.51"/><path d="M1047,1306L317,1293L1752,1345Z" fill="#7052a2" stroke="#7052a2" stroke-width="1.51"/><path d="M1672,1326L1330,1312L1752,1345Z" fill="#563090" stroke="#563090" stroke-width="1.51"/><path d="M1330,1312L1047,1306L1752,1345Z" fill="#603f99" stroke="#603f99" stroke-width="1.51"/><path d="M778,-265L1644,-245L1909,-264Z" fill="#b7abd4" stroke="#b7abd4" stroke-width="1.51"/><path d="M1957,993L2030,1138L2047,962Z" fill="#562e90" stroke="#562e90" stroke-width="1.51"/><path d="M2047,962L2030,1138L2059,1286Z" fill="#4f218b" stroke="#4f218b" stroke-width="1.51"/><path d="M2031,224L1956,284L2069,405Z" fill="#876bb1" stroke="#876bb1" stroke-width="1.51"/><path d="M1956,884L2047,962L2076,784Z" fill="#5f3d98" stroke="#5f3d98" stroke-width="1.51"/><path d="M2047,962L2059,1286L2076,784Z" fill="#562d90" stroke="#562d90" stroke-width="1.51"/><path d="M1913,636L2036,729L2106,500Z" fill="#7054a3" stroke="#7054a3" stroke-width="1.51"/><path d="M1962,486L1913,636L2106,500Z" fill="#775aa8" stroke="#775aa8" stroke-width="1.51"/><path d="M2036,729L2076,784L2106,500Z" fill="#6a4ea0" stroke="#6a4ea0" stroke-width="1.51"/><path d="M2076,784L2059,1286L2106,500Z" fill="#5e3d98" stroke="#5e3d98" stroke-width="1.51"/><path d="M1894,75L2031,224L2112,50Z" fill="#9578b9" stroke="#9578b9" stroke-width="1.51"/><path d="M2042,-115L1940,-66L2112,50Z" fill="#9c7ebc" stroke="#9c7ebc" stroke-width="1.51"/><path d="M1940,-66L1894,75L2112,50Z" fill="#9b7dbc" stroke="#9b7dbc" stroke-width="1.51"/><path d="M2031,224L2069,405L2112,50Z" fill="#8c6eb3" stroke="#8c6eb3" stroke-width="1.51"/><path d="M2091,-188L2042,-115L2112,50Z" fill="#9d7dbb" stroke="#9d7dbb" stroke-width="1.51"/><path d="M2069,405L2106,500L2112,50Z" fill="#8467af" stroke="#8467af" stroke-width="1.51"/><path d="M1644,-245L1767,-228L1909,-264Z" fill="#ac92c8" stroke="#ac92c8" stroke-width="1.51"/><path d="M1956,284L1951,379L2069,405Z" fill="#8569b0" stroke="#8569b0" stroke-width="1.51"/><path d="M2069,405L1962,486L2106,500Z" fill="#7b5ea9" stroke="#7b5ea9" stroke-width="1.51"/><path d="M1909,-264L2042,-115L2091,-188Z" fill="#a283bf" stroke="#a283bf" stroke-width="1.51"/><path d="M2030,1138L1932,1155L2059,1286Z" fill="#4e1d89" stroke="#4e1d89" stroke-width="1.51"/><path d="M2036,729L1956,884L2076,784Z" fill="#64469c" stroke="#64469c" stroke-width="1.51"/><path d="M1951,379L1962,486L2069,405Z" fill="#8064ad" stroke="#8064ad" stroke-width="1.51"/><path d="M1932,1155L1925,1341L2059,1286Z" fill="#4b1987" stroke="#4b1987" stroke-width="1.51"/><path d="M1957,993L1932,1155L2030,1138Z" fill="#54298e" stroke="#54298e" stroke-width="1.51"/><path d="M1909,-264L1940,-66L2042,-115Z" fill="#a384c0" stroke="#a384c0" stroke-width="1.51"/><path d="M1956,884L1957,993L2047,962Z" fill="#5c3795" stroke="#5c3795" stroke-width="1.51"/><path d="M1894,75L1956,284L2031,224Z" fill="#9175b7" stroke="#9175b7" stroke-width="1.51"/><path d="M1913,636L1956,884L2036,729Z" fill="#684da1" stroke="#684da1" stroke-width="1.51"/><path d="M1837,634L1782,829L1913,636Z" fill="#6f57a7" stroke="#6f57a7" stroke-width="1.51"/><path d="M1816,491L1837,634L1913,636Z" fill="#775eaa" stroke="#775eaa" stroke-width="1.51"/><path d="M1752,1345L1925,1341L1932,1155Z" fill="#4e1d89" stroke="#4e1d89" stroke-width="1.51"/><path d="M1786,1121L1752,1345L1932,1155Z" fill="#53278e" stroke="#53278e" stroke-width="1.51"/><path d="M1840,65L1894,75L1940,-66Z" fill="#9d81be" stroke="#9d81be" stroke-width="1.51"/><path d="M1909,-264L1831,-114L1940,-66Z" fill="#a588c2" stroke="#a588c2" stroke-width="1.51"/><path d="M1913,636L1782,829L1956,884Z" fill="#684ea2" stroke="#684ea2" stroke-width="1.51"/><path d="M1791,240L1951,379L1956,284Z" fill="#8b72b6" stroke="#8b72b6" stroke-width="1.51"/><path d="M1894,75L1791,240L1956,284Z" fill="#9379ba" stroke="#9379ba" stroke-width="1.51"/><path d="M1786,1121L1932,1155L1957,993Z" fill="#572d91" stroke="#572d91" stroke-width="1.51"/><path d="M1799,935L1786,1121L1957,993Z" fill="#5d3797" stroke="#5d3797" stroke-width="1.51"/><path d="M1956,884L1799,935L1957,993Z" fill="#5f3c98" stroke="#5f3c98" stroke-width="1.51"/><path d="M1951,379L1816,491L1962,486Z" fill="#8066af" stroke="#8066af" stroke-width="1.51"/><path d="M1816,491L1913,636L1962,486Z" fill="#7a5fab" stroke="#7a5fab" stroke-width="1.51"/><path d="M1782,829L1799,935L1956,884Z" fill="#64459e" stroke="#64459e" stroke-width="1.51"/><path d="M1735,429L1816,491L1951,379Z" fill="#846bb2" stroke="#846bb2" stroke-width="1.51"/><path d="M1791,240L1735,429L1951,379Z" fill="#8a72b6" stroke="#8a72b6" stroke-width="1.51"/><path d="M1840,65L1791,240L1894,75Z" fill="#9a80be" stroke="#9a80be" stroke-width="1.51"/><path d="M1831,-114L1840,65L1940,-66Z" fill="#a185c1" stroke="#a185c1" stroke-width="1.51"/><path d="M1767,-228L1831,-114L1909,-264Z" fill="#a88dc6" stroke="#a88dc6" stroke-width="1.51"/><path d="M1672,1326L1752,1345L1786,1121Z" fill="#54298e" stroke="#54298e" stroke-width="1.51"/><path d="M1671,347L1735,429L1791,240Z" fill="#8e7aba" stroke="#8e7aba" stroke-width="1.51"/><path d="M1655,957L1786,1121L1799,935Z" fill="#61409b" stroke="#61409b" stroke-width="1.51"/><path d="M1608,-109L1664,72L1831,-114Z" fill="#a791c7" stroke="#a791c7" stroke-width="1.51"/><path d="M1816,491L1651,564L1837,634Z" fill="#7c66ae" stroke="#7c66ae" stroke-width="1.51"/><path d="M1651,564L1659,654L1837,634Z" fill="#7a65ae" stroke="#7a65ae" stroke-width="1.51"/><path d="M1659,654L1782,829L1837,634Z" fill="#725daa" stroke="#725daa" stroke-width="1.51"/><path d="M1831,-114L1664,72L1840,65Z" fill="#a289c3" stroke="#a289c3" stroke-width="1.51"/><path d="M1664,72L1791,240L1840,65Z" fill="#9c85c0" stroke="#9c85c0" stroke-width="1.51"/><path d="M1767,-228L1608,-109L1831,-114Z" fill="#aa92c7" stroke="#aa92c7" stroke-width="1.51"/><path d="M1627,1095L1672,1326L1786,1121Z" fill="#593293" stroke="#593293" stroke-width="1.51"/><path d="M1655,957L1627,1095L1786,1121Z" fill="#603e9a" stroke="#603e9a" stroke-width="1.51"/><path d="M1735,429L1651,564L1816,491Z" fill="#836db2" stroke="#836db2" stroke-width="1.51"/><path d="M1659,654L1634,835L1782,829Z" fill="#705ba8" stroke="#705ba8" stroke-width="1.51"/><path d="M1634,835L1655,957L1782,829Z" fill="#6a51a3" stroke="#6a51a3" stroke-width="1.51"/><path d="M1664,72L1587,241L1791,240Z" fill="#9b87c1" stroke="#9b87c1" stroke-width="1.51"/><path d="M1782,829L1655,957L1799,935Z" fill="#664aa0" stroke="#664aa0" stroke-width="1.51"/><path d="M1644,-245L1608,-109L1767,-228Z" fill="#ad98ca" stroke="#ad98ca" stroke-width="1.51"/><path d="M1587,241L1671,347L1791,240Z" fill="#9481be" stroke="#9481be" stroke-width="1.51"/><path d="M411,-223L539,-226L778,-265Z" fill="#dedeed" stroke="#dedeed" stroke-width="1.51"/><path d="M1671,347L1651,564L1735,429Z" fill="#8874b6" stroke="#8874b6" stroke-width="1.51"/><path d="M1443,1140L1441,1244L1627,1095Z" fill="#62419b" stroke="#62419b" stroke-width="1.51"/><path d="M1477,1006L1627,1095L1655,957Z" fill="#66499f" stroke="#66499f" stroke-width="1.51"/><path d="M1511,827L1634,835L1659,654Z" fill="#7261ab" stroke="#7261ab" stroke-width="1.51"/><path d="M1428,141L1587,241L1664,72Z" fill="#a192c6" stroke="#a192c6" stroke-width="1.51"/><path d="M1608,-109L1429,-85L1664,72Z" fill="#ab9acb" stroke="#ab9acb" stroke-width="1.51"/><path d="M1524,275L1445,363L1671,347Z" fill="#9587c0" stroke="#9587c0" stroke-width="1.51"/><path d="M1445,363L1472,505L1671,347Z" fill="#9082bd" stroke="#9082bd" stroke-width="1.51"/><path d="M1587,241L1524,275L1671,347Z" fill="#9686c0" stroke="#9686c0" stroke-width="1.51"/><path d="M1472,505L1651,564L1671,347Z" fill="#8878b8" stroke="#8878b8" stroke-width="1.51"/><path d="M1441,1244L1330,1312L1672,1326Z" fill="#5c3a96" stroke="#5c3a96" stroke-width="1.51"/><path d="M1627,1095L1441,1244L1672,1326Z" fill="#5c3795" stroke="#5c3795" stroke-width="1.51"/><path d="M1634,835L1511,827L1655,957Z" fill="#6d57a6" stroke="#6d57a6" stroke-width="1.51"/><path d="M1651,564L1428,666L1659,654Z" fill="#7e6db2" stroke="#7e6db2" stroke-width="1.51"/><path d="M1428,666L1511,827L1659,654Z" fill="#796bb0" stroke="#796bb0" stroke-width="1.51"/><path d="M1429,-85L1428,141L1664,72Z" fill="#a99bcb" stroke="#a99bcb" stroke-width="1.51"/><path d="M1472,505L1428,666L1651,564Z" fill="#8376b6" stroke="#8376b6" stroke-width="1.51"/><path d="M1511,827L1477,1006L1655,957Z" fill="#6c54a5" stroke="#6c54a5" stroke-width="1.51"/><path d="M1446,-207L1608,-109L1644,-245Z" fill="#b19fce" stroke="#b19fce" stroke-width="1.51"/><path d="M1477,1006L1443,1140L1627,1095Z" fill="#65489f" stroke="#65489f" stroke-width="1.51"/><path d="M1428,141L1524,275L1587,241Z" fill="#9e91c6" stroke="#9e91c6" stroke-width="1.51"/><path d="M1446,-207L1429,-85L1608,-109Z" fill="#b1a3cf" stroke="#b1a3cf" stroke-width="1.51"/><path d="M1359,121L1428,141L1429,-85Z" fill="#aca2cf" stroke="#aca2cf" stroke-width="1.51"/><path d="M1428,666L1362,790L1511,827Z" fill="#7a6eb3" stroke="#7a6eb3" stroke-width="1.51"/><path d="M1348,975L1477,1006L1511,827Z" fill="#705ba8" stroke="#705ba8" stroke-width="1.51"/><path d="M1362,790L1348,975L1511,827Z" fill="#7565ae" stroke="#7565ae" stroke-width="1.51"/><path d="M1346,190L1445,363L1524,275Z" fill="#9c93c6" stroke="#9c93c6" stroke-width="1.51"/><path d="M1428,141L1346,190L1524,275Z" fill="#a298c9" stroke="#a298c9" stroke-width="1.51"/><path d="M1206,-234L1343,-162L1446,-207Z" fill="#b9b1d8" stroke="#b9b1d8" stroke-width="1.51"/><path d="M1343,-162L1429,-85L1446,-207Z" fill="#b5abd3" stroke="#b5abd3" stroke-width="1.51"/><path d="M1445,363L1306,489L1472,505Z" fill="#9087c0" stroke="#9087c0" stroke-width="1.51"/><path d="M1306,489L1428,666L1472,505Z" fill="#8980bb" stroke="#8980bb" stroke-width="1.51"/><path d="M1348,975L1443,1140L1477,1006Z" fill="#6b53a4" stroke="#6b53a4" stroke-width="1.51"/><path d="M1346,690L1362,790L1428,666Z" fill="#7f76b7" stroke="#7f76b7" stroke-width="1.51"/><path d="M1329,-107L1359,121L1429,-85Z" fill="#b1a8d2" stroke="#b1a8d2" stroke-width="1.51"/><path d="M1348,975L1288,1116L1443,1140Z" fill="#6c53a5" stroke="#6c53a5" stroke-width="1.51"/><path d="M1306,489L1346,690L1428,666Z" fill="#867ebb" stroke="#867ebb" stroke-width="1.51"/><path d="M1288,1116L1330,1312L1441,1244Z" fill="#65489e" stroke="#65489e" stroke-width="1.51"/><path d="M1288,1116L1441,1244L1443,1140Z" fill="#66499f" stroke="#66499f" stroke-width="1.51"/><path d="M1346,190L1286,379L1445,363Z" fill="#9c96c8" stroke="#9c96c8" stroke-width="1.51"/><path d="M1286,379L1306,489L1445,363Z" fill="#968fc4" stroke="#968fc4" stroke-width="1.51"/><path d="M1343,-162L1329,-107L1429,-85Z" fill="#b5acd5" stroke="#b5acd5" stroke-width="1.51"/><path d="M1359,121L1346,190L1428,141Z" fill="#a8a0cd" stroke="#a8a0cd" stroke-width="1.51"/><path d="M1329,-107L1189,34L1359,121Z" fill="#b2acd4" stroke="#b2acd4" stroke-width="1.51"/><path d="M1288,1116L1218,1304L1330,1312Z" fill="#674ca0" stroke="#674ca0" stroke-width="1.51"/><path d="M1200,296L1286,379L1346,190Z" fill="#a19ecc" stroke="#a19ecc" stroke-width="1.51"/><path d="M1306,489L1174,556L1346,690Z" fill="#8c88bf" stroke="#8c88bf" stroke-width="1.51"/><path d="M1227,1021L1288,1116L1348,975Z" fill="#705daa" stroke="#705daa" stroke-width="1.51"/><path d="M1241,847L1348,975L1362,790Z" fill="#786bb1" stroke="#786bb1" stroke-width="1.51"/><path d="M1346,690L1241,847L1362,790Z" fill="#7d76b7" stroke="#7d76b7" stroke-width="1.51"/><path d="M1189,34L1346,190L1359,121Z" fill="#aca8d2" stroke="#aca8d2" stroke-width="1.51"/><path d="M1189,34L1200,296L1346,190Z" fill="#aba8d2" stroke="#aba8d2" stroke-width="1.51"/><path d="M1140,690L1241,847L1346,690Z" fill="#817eba" stroke="#817eba" stroke-width="1.51"/><path d="M1174,556L1140,690L1346,690Z" fill="#8a86bf" stroke="#8a86bf" stroke-width="1.51"/><path d="M1241,847L1227,1021L1348,975Z" fill="#7566ae" stroke="#7566ae" stroke-width="1.51"/><path d="M1149,-15L1189,34L1329,-107Z" fill="#b7b3d7" stroke="#b7b3d7" stroke-width="1.51"/><path d="M1206,-234L1329,-107L1343,-162Z" fill="#bab4d8" stroke="#bab4d8" stroke-width="1.51"/><path d="M1206,-234L1149,-15L1329,-107Z" fill="#bbb6d9" stroke="#bbb6d9" stroke-width="1.51"/><path d="M1088,441L1174,556L1191,340Z" fill="#9c98c8" stroke="#9c98c8" stroke-width="1.51"/><path d="M909,-251L1010,-198L1206,-234Z" fill="#c7c3df" stroke="#c7c3df" stroke-width="1.51"/><path d="M1200,296L1191,340L1286,379Z" fill="#9f9dcc" stroke="#9f9dcc" stroke-width="1.51"/><path d="M1191,340L1174,556L1286,379Z" fill="#9a97c8" stroke="#9a97c8" stroke-width="1.51"/><path d="M1227,1021L1206,1093L1288,1116Z" fill="#705ca9" stroke="#705ca9" stroke-width="1.51"/><path d="M1206,1093L1218,1304L1288,1116Z" fill="#6c53a4" stroke="#6c53a4" stroke-width="1.51"/><path d="M1286,379L1174,556L1306,489Z" fill="#9491c4" stroke="#9491c4" stroke-width="1.51"/><path d="M1189,34L1036,186L1200,296Z" fill="#b0add4" stroke="#b0add4" stroke-width="1.51"/><path d="M1206,1093L1087,1163L1218,1304Z" fill="#6f55a6" stroke="#6f55a6" stroke-width="1.51"/><path d="M1010,-198L1009,-77L1149,-15Z" fill="#c2bedd" stroke="#c2bedd" stroke-width="1.51"/><path d="M1080,57L1036,186L1189,34Z" fill="#b7b4d7" stroke="#b7b4d7" stroke-width="1.51"/><path d="M1010,-198L1149,-15L1206,-234Z" fill="#c0bddc" stroke="#c0bddc" stroke-width="1.51"/><path d="M1140,690L1009,834L1241,847Z" fill="#857ebb" stroke="#857ebb" stroke-width="1.51"/><path d="M1009,834L1041,941L1241,847Z" fill="#8277b7" stroke="#8277b7" stroke-width="1.51"/><path d="M1041,941L1227,1021L1241,847Z" fill="#7b6db2" stroke="#7b6db2" stroke-width="1.51"/><path d="M1087,1163L1047,1306L1218,1304Z" fill="#6e53a3" stroke="#6e53a3" stroke-width="1.51"/><path d="M1041,941L1206,1093L1227,1021Z" fill="#7765ae" stroke="#7765ae" stroke-width="1.51"/><path d="M1041,941L1087,1163L1206,1093Z" fill="#7763ad" stroke="#7763ad" stroke-width="1.51"/><path d="M1036,186L1191,340L1200,296Z" fill="#a9a6d0" stroke="#a9a6d0" stroke-width="1.51"/><path d="M1036,186L1088,441L1191,340Z" fill="#a7a5cf" stroke="#a7a5cf" stroke-width="1.51"/><path d="M1149,-15L1080,57L1189,34Z" fill="#b8b5d8" stroke="#b8b5d8" stroke-width="1.51"/><path d="M1088,441L1019,501L1174,556Z" fill="#9b97c7" stroke="#9b97c7" stroke-width="1.51"/><path d="M1005,675L1140,690L1174,556Z" fill="#908cc1" stroke="#908cc1" stroke-width="1.51"/><path d="M1019,501L1005,675L1174,556Z" fill="#9692c4" stroke="#9692c4" stroke-width="1.51"/><path d="M1005,675L1009,834L1140,690Z" fill="#8c88c0" stroke="#8c88c0" stroke-width="1.51"/><path d="M1009,-77L1080,57L1149,-15Z" fill="#bdbada" stroke="#bdbada" stroke-width="1.51"/><path d="M882,1252L746,1294L1047,1306Z" fill="#795ca8" stroke="#795ca8" stroke-width="1.51"/><path d="M1041,941L930,1127L1087,1163Z" fill="#7c66ae" stroke="#7c66ae" stroke-width="1.51"/><path d="M866,222L857,411L1036,186Z" fill="#b3b2d5" stroke="#b3b2d5" stroke-width="1.51"/><path d="M930,1127L882,1252L1047,1306Z" fill="#785ca9" stroke="#785ca9" stroke-width="1.51"/><path d="M930,1127L1047,1306L1087,1163Z" fill="#765ba9" stroke="#765ba9" stroke-width="1.51"/><path d="M1036,186L857,411L1088,441Z" fill="#aaa9d0" stroke="#aaa9d0" stroke-width="1.51"/><path d="M857,411L1019,501L1088,441Z" fill="#a3a0cc" stroke="#a3a0cc" stroke-width="1.51"/><path d="M865,1014L930,1127L1041,941Z" fill="#816eb3" stroke="#816eb3" stroke-width="1.51"/><path d="M843,44L1036,186L1080,57Z" fill="#bcb9da" stroke="#bcb9da" stroke-width="1.51"/><path d="M1009,-77L843,44L1080,57Z" fill="#c1bedc" stroke="#c1bedc" stroke-width="1.51"/><path d="M925,-112L1009,-77L1010,-198Z" fill="#c7c3df" stroke="#c7c3df" stroke-width="1.51"/><path d="M877,678L1005,675L1019,501Z" fill="#9894c6" stroke="#9894c6" stroke-width="1.51"/><path d="M843,44L866,222L1036,186Z" fill="#bcbbda" stroke="#bcbbda" stroke-width="1.51"/><path d="M1005,675L877,678L1009,834Z" fill="#918cc2" stroke="#918cc2" stroke-width="1.51"/><path d="M844,491L877,678L1019,501Z" fill="#a09bc9" stroke="#a09bc9" stroke-width="1.51"/><path d="M1009,834L865,1014L1041,941Z" fill="#8577b7" stroke="#8577b7" stroke-width="1.51"/><path d="M-43,1284L-125,1291L140,1292Z" fill="#9f7fbd" stroke="#9f7fbd" stroke-width="1.51"/><path d="M877,678L831,787L1009,834Z" fill="#918cc2" stroke="#918cc2" stroke-width="1.51"/><path d="M831,787L865,1014L1009,834Z" fill="#8b80bc" stroke="#8b80bc" stroke-width="1.51"/><path d="M925,-112L843,44L1009,-77Z" fill="#c6c3df" stroke="#c6c3df" stroke-width="1.51"/><path d="M857,411L844,491L1019,501Z" fill="#a6a3ce" stroke="#a6a3ce" stroke-width="1.51"/><path d="M563,1244L317,1293L746,1294Z" fill="#8b6eb3" stroke="#8b6eb3" stroke-width="1.51"/><path d="M909,-251L925,-112L1010,-198Z" fill="#cac7e1" stroke="#cac7e1" stroke-width="1.51"/><path d="M831,787L789,821L865,1014Z" fill="#8f85bf" stroke="#8f85bf" stroke-width="1.51"/><path d="M787,402L857,411L866,222Z" fill="#b2b1d5" stroke="#b2b1d5" stroke-width="1.51"/><path d="M844,491L781,572L877,678Z" fill="#a29ecb" stroke="#a29ecb" stroke-width="1.51"/><path d="M766,-84L843,44L925,-112Z" fill="#cbc8e2" stroke="#cbc8e2" stroke-width="1.51"/><path d="M909,-251L778,-265L925,-112Z" fill="#cfcce4" stroke="#cfcce4" stroke-width="1.51"/><path d="M778,-265L766,-84L925,-112Z" fill="#d0cde4" stroke="#d0cde4" stroke-width="1.51"/><path d="M762,1152L882,1252L930,1127Z" fill="#7f65ae" stroke="#7f65ae" stroke-width="1.51"/><path d="M865,1014L762,1152L930,1127Z" fill="#836cb2" stroke="#836cb2" stroke-width="1.51"/><path d="M843,44L749,59L866,222Z" fill="#c4c3de" stroke="#c4c3de" stroke-width="1.51"/><path d="M789,821L694,1009L865,1014Z" fill="#8e80bc" stroke="#8e80bc" stroke-width="1.51"/><path d="M749,59L696,209L866,222Z" fill="#c3c2df" stroke="#c3c2df" stroke-width="1.51"/><path d="M696,209L787,402L866,222Z" fill="#babada" stroke="#babada" stroke-width="1.51"/><path d="M711,708L831,787L877,678Z" fill="#9896c7" stroke="#9896c7" stroke-width="1.51"/><path d="M762,1152L746,1294L882,1252Z" fill="#8064ae" stroke="#8064ae" stroke-width="1.51"/><path d="M781,572L711,708L877,678Z" fill="#9f9cca" stroke="#9f9cca" stroke-width="1.51"/><path d="M787,402L844,491L857,411Z" fill="#acaad2" stroke="#acaad2" stroke-width="1.51"/><path d="M694,1009L762,1152L865,1014Z" fill="#8975b7" stroke="#8975b7" stroke-width="1.51"/><path d="M766,-84L749,59L843,44Z" fill="#cac9e2" stroke="#cac9e2" stroke-width="1.51"/><path d="M787,402L781,572L844,491Z" fill="#aaa7cf" stroke="#aaa7cf" stroke-width="1.51"/><path d="M711,708L789,821L831,787Z" fill="#9793c6" stroke="#9793c6" stroke-width="1.51"/><path d="M616,252L637,384L696,209Z" fill="#c1c1df" stroke="#c1c1df" stroke-width="1.51"/><path d="M635,48L749,59L766,-84Z" fill="#cecde4" stroke="#cecde4" stroke-width="1.51"/><path d="M539,-226L553,-89L766,-84Z" fill="#d9d9ea" stroke="#d9d9ea" stroke-width="1.51"/><path d="M539,-226L766,-84L778,-265Z" fill="#d7d7e9" stroke="#d7d7e9" stroke-width="1.51"/><path d="M603,535L781,572L787,402Z" fill="#acaad2" stroke="#acaad2" stroke-width="1.51"/><path d="M637,384L603,535L787,402Z" fill="#b3b3d6" stroke="#b3b3d6" stroke-width="1.51"/><path d="M696,209L637,384L787,402Z" fill="#babadb" stroke="#babadb" stroke-width="1.51"/><path d="M711,708L624,807L789,821Z" fill="#9a96c7" stroke="#9a96c7" stroke-width="1.51"/><path d="M624,807L694,1009L789,821Z" fill="#958cc2" stroke="#958cc2" stroke-width="1.51"/><path d="M603,535L711,708L781,572Z" fill="#a7a4ce" stroke="#a7a4ce" stroke-width="1.51"/><path d="M563,1244L746,1294L762,1152Z" fill="#866ab1" stroke="#866ab1" stroke-width="1.51"/><path d="M426,1241L317,1293L563,1244Z" fill="#9174b6" stroke="#9174b6" stroke-width="1.51"/><path d="M635,48L696,209L749,59Z" fill="#cacae3" stroke="#cacae3" stroke-width="1.51"/><path d="M694,1009L544,1138L762,1152Z" fill="#8d77b8" stroke="#8d77b8" stroke-width="1.51"/><path d="M553,-89L635,48L766,-84Z" fill="#d4d4e7" stroke="#d4d4e7" stroke-width="1.51"/><path d="M544,1138L563,1244L762,1152Z" fill="#8b72b6" stroke="#8b72b6" stroke-width="1.51"/><path d="M624,807L568,989L694,1009Z" fill="#9689c1" stroke="#9689c1" stroke-width="1.51"/><path d="M568,989L544,1138L694,1009Z" fill="#927fbd" stroke="#927fbd" stroke-width="1.51"/><path d="M635,48L616,252L696,209Z" fill="#c8c9e3" stroke="#c8c9e3" stroke-width="1.51"/><path d="M598,726L624,807L711,708Z" fill="#9f9dcc" stroke="#9f9dcc" stroke-width="1.51"/><path d="M603,535L598,726L711,708Z" fill="#a6a4ce" stroke="#a6a4ce" stroke-width="1.51"/><path d="M169,-231L307,-208L411,-223Z" fill="#ebeaf4" stroke="#ebeaf4" stroke-width="1.51"/><path d="M416,736L598,726L603,535Z" fill="#aaa8d0" stroke="#aaa8d0" stroke-width="1.51"/><path d="M426,511L416,736L603,535Z" fill="#b2b0d4" stroke="#b2b0d4" stroke-width="1.51"/><path d="M449,812L568,989L624,807Z" fill="#9d94c7" stroke="#9d94c7" stroke-width="1.51"/><path d="M399,80L457,185L635,48Z" fill="#d4d4e8" stroke="#d4d4e8" stroke-width="1.51"/><path d="M553,-89L485,-53L635,48Z" fill="#d8d8ea" stroke="#d8d8ea" stroke-width="1.51"/><path d="M457,185L616,252L635,48Z" fill="#cdcde5" stroke="#cdcde5" stroke-width="1.51"/><path d="M616,252L480,388L637,384Z" fill="#bfc0dd" stroke="#bfc0dd" stroke-width="1.51"/><path d="M480,388L603,535L637,384Z" fill="#b9b8d9" stroke="#b9b8d9" stroke-width="1.51"/><path d="M485,-53L399,80L635,48Z" fill="#d7d7ea" stroke="#d7d7ea" stroke-width="1.51"/><path d="M483,1041L544,1138L568,989Z" fill="#9581be" stroke="#9581be" stroke-width="1.51"/><path d="M598,726L449,812L624,807Z" fill="#a19dcc" stroke="#a19dcc" stroke-width="1.51"/><path d="M480,388L426,511L603,535Z" fill="#b9b8d9" stroke="#b9b8d9" stroke-width="1.51"/><path d="M457,185L480,388L616,252Z" fill="#c7c8e2" stroke="#c7c8e2" stroke-width="1.51"/><path d="M416,736L449,812L598,726Z" fill="#a6a3cf" stroke="#a6a3cf" stroke-width="1.51"/><path d="M411,-223L485,-53L539,-226Z" fill="#e1e0ef" stroke="#e1e0ef" stroke-width="1.51"/><path d="M421,1158L426,1241L544,1138Z" fill="#9378ba" stroke="#9378ba" stroke-width="1.51"/><path d="M539,-226L485,-53L553,-89Z" fill="#dddded" stroke="#dddded" stroke-width="1.51"/><path d="M544,1138L426,1241L563,1244Z" fill="#9074b7" stroke="#9074b7" stroke-width="1.51"/><path d="M449,812L483,1041L568,989Z" fill="#9c8dc4" stroke="#9c8dc4" stroke-width="1.51"/><path d="M483,1041L421,1158L544,1138Z" fill="#957ebd" stroke="#957ebd" stroke-width="1.51"/><path d="M299,701L416,736L426,511Z" fill="#b3b0d6" stroke="#b3b0d6" stroke-width="1.51"/><path d="M318,522L299,701L426,511Z" fill="#bab7d8" stroke="#bab7d8" stroke-width="1.51"/><path d="M276,863L270,935L449,812Z" fill="#a89ecc" stroke="#a89ecc" stroke-width="1.51"/><path d="M457,185L312,295L480,388Z" fill="#cbcbe3" stroke="#cbcbe3" stroke-width="1.51"/><path d="M449,812L270,935L483,1041Z" fill="#a294c8" stroke="#a294c8" stroke-width="1.51"/><path d="M230,-100L399,80L485,-53Z" fill="#e1e0ee" stroke="#e1e0ee" stroke-width="1.51"/><path d="M411,-223L307,-208L485,-53Z" fill="#e5e4f0" stroke="#e5e4f0" stroke-width="1.51"/><path d="M307,-208L230,-100L485,-53Z" fill="#e6e5f1" stroke="#e6e5f1" stroke-width="1.51"/><path d="M309,1148L421,1158L483,1041Z" fill="#9981be" stroke="#9981be" stroke-width="1.51"/><path d="M270,935L309,1148L483,1041Z" fill="#9f8bc2" stroke="#9f8bc2" stroke-width="1.51"/><path d="M312,295L240,381L318,522Z" fill="#c8c8e2" stroke="#c8c8e2" stroke-width="1.51"/><path d="M318,522L426,511L480,388Z" fill="#bebddb" stroke="#bebddb" stroke-width="1.51"/><path d="M312,295L318,522L480,388Z" fill="#c5c5e0" stroke="#c5c5e0" stroke-width="1.51"/><path d="M399,80L324,132L457,185Z" fill="#d8d8ea" stroke="#d8d8ea" stroke-width="1.51"/><path d="M324,132L312,295L457,185Z" fill="#d4d4e8" stroke="#d4d4e8" stroke-width="1.51"/><path d="M416,736L276,863L449,812Z" fill="#a9a3cf" stroke="#a9a3cf" stroke-width="1.51"/><path d="M299,701L276,863L416,736Z" fill="#ada9d2" stroke="#ada9d2" stroke-width="1.51"/><path d="M421,1158L309,1148L426,1241Z" fill="#977cbc" stroke="#977cbc" stroke-width="1.51"/><path d="M309,1148L317,1293L426,1241Z" fill="#977aba" stroke="#977aba" stroke-width="1.51"/><path d="M230,-100L324,132L399,80Z" fill="#e0dfed" stroke="#e0dfed" stroke-width="1.51"/><path d="M230,-100L180,92L324,132Z" fill="#e3e1ef" stroke="#e3e1ef" stroke-width="1.51"/><path d="M134,-45L180,92L230,-100Z" fill="#e8e6f2" stroke="#e8e6f2" stroke-width="1.51"/><path d="M120,1175L140,1292L309,1148Z" fill="#9d80be" stroke="#9d80be" stroke-width="1.51"/><path d="M270,935L110,1021L309,1148Z" fill="#a48fc5" stroke="#a48fc5" stroke-width="1.51"/><path d="M309,1148L140,1292L317,1293Z" fill="#997cbb" stroke="#997cbb" stroke-width="1.51"/><path d="M189,593L299,701L318,522Z" fill="#bab8d9" stroke="#bab8d9" stroke-width="1.51"/><path d="M187,231L312,295L324,132Z" fill="#d6d6e9" stroke="#d6d6e9" stroke-width="1.51"/><path d="M180,92L187,231L324,132Z" fill="#dcdcec" stroke="#dcdcec" stroke-width="1.51"/><path d="M104,833L276,863L299,701Z" fill="#afa8d2" stroke="#afa8d2" stroke-width="1.51"/><path d="M110,1021L120,1175L309,1148Z" fill="#a288c2" stroke="#a288c2" stroke-width="1.51"/><path d="M240,381L189,593L318,522Z" fill="#c3c1dd" stroke="#c3c1dd" stroke-width="1.51"/><path d="M187,231L240,381L312,295Z" fill="#d1d1e6" stroke="#d1d1e6" stroke-width="1.51"/><path d="M169,-231L230,-100L307,-208Z" fill="#ecebf4" stroke="#ecebf4" stroke-width="1.51"/><path d="M-213,-234L22,-174L169,-231Z" fill="#f4f3f8" stroke="#f4f3f8" stroke-width="1.51"/><path d="M189,593L93,645L299,701Z" fill="#bab6d9" stroke="#bab6d9" stroke-width="1.51"/><path d="M93,645L104,833L299,701Z" fill="#b6b2d6" stroke="#b6b2d6" stroke-width="1.51"/><path d="M187,231L117,334L240,381Z" fill="#d2d2e7" stroke="#d2d2e7" stroke-width="1.51"/><path d="M104,833L270,935L276,863Z" fill="#aba0cd" stroke="#aba0cd" stroke-width="1.51"/><path d="M38,550L189,593L240,381Z" fill="#c5c2de" stroke="#c5c2de" stroke-width="1.51"/><path d="M104,833L110,1021L270,935Z" fill="#ab9ccc" stroke="#ab9ccc" stroke-width="1.51"/><path d="M117,334L38,550L240,381Z" fill="#cccbe3" stroke="#cccbe3" stroke-width="1.51"/><path d="M169,-231L134,-45L230,-100Z" fill="#ecebf4" stroke="#ecebf4" stroke-width="1.51"/><path d="M22,-174L134,-45L169,-231Z" fill="#efeef5" stroke="#efeef5" stroke-width="1.51"/><path d="M-39,69L-24,252L180,92Z" fill="#e4e3f0" stroke="#e4e3f0" stroke-width="1.51"/><path d="M180,92L-24,252L187,231Z" fill="#deddec" stroke="#deddec" stroke-width="1.51"/><path d="M38,550L93,645L189,593Z" fill="#c1bddb" stroke="#c1bddb" stroke-width="1.51"/><path d="M134,-45L36,-52L180,92Z" fill="#e9e7f2" stroke="#e9e7f2" stroke-width="1.51"/><path d="M-24,252L117,334L187,231Z" fill="#d9d8ea" stroke="#d9d8ea" stroke-width="1.51"/><path d="M36,-52L-39,69L180,92Z" fill="#e9e7f2" stroke="#e9e7f2" stroke-width="1.51"/><path d="M-32,351L38,550L117,334Z" fill="#d0cfe5" stroke="#d0cfe5" stroke-width="1.51"/><path d="M22,-174L36,-52L134,-45Z" fill="#f0edf5" stroke="#f0edf5" stroke-width="1.51"/><path d="M93,645L-18,785L104,833Z" fill="#b7b2d7" stroke="#b7b2d7" stroke-width="1.51"/><path d="M104,833L-71,1039L110,1021Z" fill="#ad9ccc" stroke="#ad9ccc" stroke-width="1.51"/><path d="M110,1021L14,1143L120,1175Z" fill="#a58bc4" stroke="#a58bc4" stroke-width="1.51"/><path d="M14,1143L-43,1284L120,1175Z" fill="#a285c0" stroke="#a285c0" stroke-width="1.51"/><path d="M120,1175L-43,1284L140,1292Z" fill="#9f80be" stroke="#9f80be" stroke-width="1.51"/><path d="M-18,785L-71,1039L104,833Z" fill="#b1a5d0" stroke="#b1a5d0" stroke-width="1.51"/><path d="M-57,689L-18,785L93,645Z" fill="#bcb8da" stroke="#bcb8da" stroke-width="1.51"/><path d="M-24,252L-32,351L117,334Z" fill="#d8d7ea" stroke="#d8d7ea" stroke-width="1.51"/><path d="M-71,1039L14,1143L110,1021Z" fill="#a991c7" stroke="#a991c7" stroke-width="1.51"/><path d="M-155,875L-71,1039L-18,785Z" fill="#b3a5d1" stroke="#b3a5d1" stroke-width="1.51"/><path d="M38,550L-57,689L93,645Z" fill="#c1bddc" stroke="#c1bddc" stroke-width="1.51"/><path d="M22,-174L-130,-23L36,-52Z" fill="#f1eff6" stroke="#f1eff6" stroke-width="1.51"/><path d="M-130,-23L-39,69L36,-52Z" fill="#edecf4" stroke="#edecf4" stroke-width="1.51"/><path d="M-155,445L-197,532L38,550Z" fill="#ccc9e2" stroke="#ccc9e2" stroke-width="1.51"/><path d="M-173,640L-57,689L38,550Z" fill="#c3bfdd" stroke="#c3bfdd" stroke-width="1.51"/><path d="M-197,532L-173,640L38,550Z" fill="#c7c4e0" stroke="#c7c4e0" stroke-width="1.51"/><path d="M-32,351L-155,445L38,550Z" fill="#cfcde4" stroke="#cfcde4" stroke-width="1.51"/><path d="M-135,1163L-43,1284L14,1143Z" fill="#a487c2" stroke="#a487c2" stroke-width="1.51"/><path d="M-213,-234L-130,-23L22,-174Z" fill="#f5f3f9" stroke="#f5f3f9" stroke-width="1.51"/><path d="M-71,1039L-135,1163L14,1143Z" fill="#a88ec6" stroke="#a88ec6" stroke-width="1.51"/><path d="M-135,1163L-125,1291L-43,1284Z" fill="#a384c0" stroke="#a384c0" stroke-width="1.51"/><path d="M-210,76L-127,292L-39,69Z" fill="#e7e6f2" stroke="#e7e6f2" stroke-width="1.51"/><path d="M-127,292L-32,351L-24,252Z" fill="#dadaec" stroke="#dadaec" stroke-width="1.51"/><path d="M-39,69L-127,292L-24,252Z" fill="#e1e1ee" stroke="#e1e1ee" stroke-width="1.51"/><path d="M-57,689L-155,875L-18,785Z" fill="#b9b2d7" stroke="#b9b2d7" stroke-width="1.51"/><path d="M-155,875L-202,976L-71,1039Z" fill="#b19fce" stroke="#b19fce" stroke-width="1.51"/><path d="M-127,292L-155,445L-32,351Z" fill="#d7d6e9" stroke="#d7d6e9" stroke-width="1.51"/><path d="M-173,640L-155,875L-57,689Z" fill="#bdb9da" stroke="#bdb9da" stroke-width="1.51"/><path d="M-130,-23L-210,76L-39,69Z" fill="#edecf4" stroke="#edecf4" stroke-width="1.51"/><path d="M-202,976L-135,1163L-71,1039Z" fill="#ac95ca" stroke="#ac95ca" stroke-width="1.51"/><path d="M-213,-234L-210,76L-130,-23Z" fill="#f3f1f8" stroke="#f3f1f8" stroke-width="1.51"/><path d="M-135,1163L-202,976L-125,1291Z" fill="#a98dc5" stroke="#a98dc5" stroke-width="1.51"/><path d="M-210,76L-155,445L-127,292Z" fill="#dfdeee" stroke="#dfdeee" stroke-width="1.51"/><path d="M-210,76L-197,532L-155,445Z" fill="#d9d9eb" stroke="#d9d9eb" stroke-width="1.51"/><path d="M-173,640L-202,976L-155,875Z" fill="#b8afd6" stroke="#b8afd6" stroke-width="1.51"/><path d="M-197,532L-202,976L-173,640Z" fill="#bfbbdc" stroke="#bfbbdc" stroke-width="1.51"/><path d="M-210,76L-202,976L-197,532Z" fill="#cdc9e2" stroke="#cdc9e2" stroke-width="1.51"/></svg>