<?xml version="1.0" encoding="UTF-8" standalone="no"?>
<svg
   xmlns:dc="http://purl.org/dc/elements/1.1/"
   xmlns:cc="http://creativecommons.org/ns#"
   xmlns:rdf="http://www.w3.org/1999/02/22-rdf-syntax-ns#"
   xmlns:svg="http://www.w3.org/2000/svg"
   xmlns="http://www.w3.org/2000/svg"
   height="77.519958"
   width="238.56291"
   id="svg29"
   version="1.1"
   viewBox="0 0 238.56291 77.519958">
  <defs
     id="defs4">
    <style
       id="style2">.cls-1{fill:#c2ccd5;}.cls-2{fill:#a386bd;}.cls-3{fill:#937ab3;}.cls-4{fill:#683d90;}.cls-5{fill:#b25fa1;}</style>
  </defs>
  <title
     id="title6">SAIRA LOGOS SEP 2018</title>
  <g
     transform="translate(0.06468115,1.1589791e-5)"
     data-name="Layer 1"
     id="Layer_1">
    <path
       style="fill:#c2ccd5"
       id="path8"
       d="m 56.72,25 a 25.29,25.29 0 0 0 -4.19,0.34 26.33,26.33 0 0 1 -22,26.89 A 26.26,26.26 0 1 0 56.72,25"
       class="cls-1" />
    <path
       style="fill:#a386bd"
       id="path10"
       d="m 26.24,0 a 26.28,26.28 0 1 0 4.25,52.21 26.33,26.33 0 0 1 22,-26.89 A 26.28,26.28 0 0 0 26.24,0"
       class="cls-2" />
    <path
       style="fill:#937ab3"
       id="path12"
       d="m 52.53,25.32 a 26.33,26.33 0 0 0 -22,26.89 26.33,26.33 0 0 0 22,-26.89"
       class="cls-3" />
    <path
       style="fill:#683d90"
       id="path14"
       d="m 70.35,50.84 a 3.4,3.4 0 0 0 0,-0.45 v -0.38 c 0,-0.17 0,-0.33 -0.07,-0.5 a 5.07,5.07 0 0 0 -0.09,-0.54 c 0,-0.1 0,-0.2 -0.07,-0.3 -0.07,-0.1 0,-0.22 -0.07,-0.33 l -0.06,-0.21 c 0,-0.12 -0.06,-0.24 -0.1,-0.36 -0.04,-0.12 -0.07,-0.25 -0.11,-0.37 V 47.24 C 69.72,47.1 69.68,46.96 69.62,46.81 L 69.57,46.68 A 5,5 0 0 0 69.36,46.2 v -0.05 a 3.52,3.52 0 0 0 -0.18,-0.4 l -0.1,-0.2 -0.18,-0.34 -0.1,-0.19 -0.18,-0.29 c 0,-0.09 -0.1,-0.18 -0.16,-0.27 -0.06,-0.09 -0.11,-0.18 -0.18,-0.27 L 68,44 67.71,43.58 C 67.6,43.44 67.49,43.29 67.37,43.15 L 67.3,43.06 67,42.71 66.9,42.6 66.56,42.24 v 0 l -0.4,-0.39 C 66.03,41.72 65.88,41.6 65.74,41.47 H 65.68 C 65.55,41.35 65.4,41.23 65.26,41.12 L 64.79,40.77 H 64.74 L 64.28,40.46 63.77,40.15 63.23,39.86 62.69,39.59 C 62.44,39.47 62.17,39.36 61.91,39.26 L 61.55,39.13 61,38.88 60.37,38.71 H 60.23 L 59.67,38.59 59.06,38.48 H 59 a 26.24,26.24 0 0 1 -16.32,-9 v 0 a 26.4,26.4 0 0 1 -4.39,-7.22 c 0,-0.12 -0.09,-0.23 -0.13,-0.34 A 13.21,13.21 0 0 0 15.81,18.7 c -0.13,0.17 -0.26,0.34 -0.4,0.5 a 13.24,13.24 0 0 0 -1.78,12.44 v 0 c 0.08,0.2 0.17,0.39 0.24,0.59 v 0 a 13.19,13.19 0 0 0 10.25,7.85 v 0 A 26.52,26.52 0 0 1 30,41.64 c 0.4,0.16 0.8,0.32 1.2,0.5 v 0 l 1.12,0.53 v 0 0 0 a 26.52,26.52 0 0 1 12.46,13.38 v 0 q 0.15,0.33 0.27,0.66 c 0.1,0.23 0.21,0.46 0.32,0.68 l 0.3,0.56 0.1,0.17 v 0 c 0.1,0.17 0.2,0.33 0.31,0.49 0.11,0.16 0.25,0.37 0.38,0.55 l 0.16,0.23 v 0 l 0.36,0.46 c 0.16,0.19 0.32,0.37 0.49,0.55 v 0 c 0.17,0.18 0.34,0.36 0.52,0.53 0.18,0.17 0.36,0.34 0.56,0.5 0.2,0.16 0.38,0.32 0.58,0.48 l 0.39,0.28 c 0.21,0.15 0.44,0.3 0.67,0.44 l 0.54,0.31 0.41,0.22 0.66,0.31 c 0.22,0.1 0.45,0.19 0.68,0.27 l 0.71,0.25 0.44,0.13 0.35,0.08 0.25,0.06 a 2.71,2.71 0 0 0 0.41,0.09 l 0.61,0.11 h 0.06 c 0.21,0 0.41,0.06 0.62,0.07 a 13.19,13.19 0 0 0 14.31,-11.17 12.58,12.58 0 0 0 0.11,-2.52 z"
       class="cls-4" />
    <path
       style="fill:#b25fa1"
       id="path16"
       d="M 54.71,64.61 A 13.5,13.5 0 1 1 70.23,53.48 13.49,13.49 0 0 1 54.71,64.61 Z"
       class="cls-5" />
    <path
       style="fill:#683d90"
       id="path18"
       d="M 78.48,32.91 A 13.11,13.11 0 1 1 93.55,22.1 13.11,13.11 0 0 1 78.48,32.91 Z"
       class="cls-4" />
    <path
       style="fill:#683d90"
       id="path20"
       d="m 122.77,76.75 c -1.64,0.15 -3.21,0.23 -4.7,0.23 q -6.91,0 -10,-1.7 -3.09,-1.7 -4.28,-6.28 -1.08,-4.58 -1.09,-14.56 -0.01,-9.98 1.09,-14.44 1.09,-4.58 4.26,-6.3 3.17,-1.72 10,-1.73 a 45.75,45.75 0 0 1 4.7,0.26 29.21,29.21 0 0 1 4,0.64 V 37 a 49.32,49.32 0 0 0 -7.49,-0.58 c -3.71,0 -6.31,0.37 -7.81,1.09 -1.5,0.72 -2.47,2.26 -2.94,4.61 a 72.05,72.05 0 0 0 -0.71,12.29 72.14,72.14 0 0 0 0.71,12.29 c 0.47,2.34 1.45,3.88 2.94,4.6 1.49,0.72 4.1,1.09 7.81,1.09 a 43.81,43.81 0 0 0 7.68,-0.57 v 4.28 a 33.11,33.11 0 0 1 -4.17,0.65 z"
       class="cls-4" />
    <path
       style="fill:#683d90"
       id="path22"
       d="m 150.39,58.29 v -6.85 h 14 v 24.19 a 61.56,61.56 0 0 1 -6.4,1 62.07,62.07 0 0 1 -6.53,0.39 q -7.11,0 -10.63,-1.86 A 10,10 0 0 1 136,68.59 Q 134.7,63.93 134.69,54.45 134.68,44.97 136,40.4 a 10.1,10.1 0 0 1 4.92,-6.59 q 3.59,-1.89 10.76,-1.89 a 62.34,62.34 0 0 1 6.49,0.38 51.71,51.71 0 0 1 6,1 v 6.6 A 75.67,75.67 0 0 0 154.63,39 q -5.76,0 -8,0.77 -2.24,0.77 -3,3.84 c -0.53,2 -0.8,5.67 -0.8,10.88 a 64.45,64.45 0 0 0 0.58,10.3 q 0.57,3.14 2.37,4.26 1.8,1.12 5.82,1.12 a 33.31,33.31 0 0 0 4.87,-0.32 V 58.29 Z"
       class="cls-4" />
    <path
       style="fill:#683d90"
       id="path24"
       d="m 174.32,32.43 h 17.15 q 5,0 7.65,1.7 a 8.29,8.29 0 0 1 3.58,4.8 28.94,28.94 0 0 1 0.93,8.09 29.48,29.48 0 0 1 -0.89,7.91 8.75,8.75 0 0 1 -3.59,4.93 q -2.68,1.81 -7.81,1.82 h -8.89 v 14.78 h -8.13 z m 14.34,22.21 a 12.19,12.19 0 0 0 4.57,-0.61 3.05,3.05 0 0 0 1.77,-2.11 20.14,20.14 0 0 0 0.42,-4.9 20.1,20.1 0 0 0 -0.42,-4.89 3,3 0 0 0 -1.76,-2.08 12.24,12.24 0 0 0 -4.48,-0.58 h -6.33 v 15.17 z"
       class="cls-4" />
    <path
       style="fill:#683d90"
       id="path26"
       d="m 217.58,76.69 q -3.77,-0.28 -6.65,-0.74 v -6.72 q 7.17,0.7 11.39,0.71 a 24.47,24.47 0 0 0 4.48,-0.32 4.94,4.94 0 0 0 2.37,-1 2.76,2.76 0 0 0 1,-1.66 17,17 0 0 0 0.19,-3 14.13,14.13 0 0 0 -0.29,-3.39 2.38,2.38 0 0 0 -1.12,-1.5 8.75,8.75 0 0 0 -2.81,-0.8 L 218,57.14 c -3.07,-0.39 -5.19,-1.57 -6.34,-3.56 -1.15,-1.99 -1.73,-4.85 -1.73,-8.6 q 0,-5.38 1.76,-8.23 a 8.69,8.69 0 0 1 4.87,-3.84 26.46,26.46 0 0 1 7.9,-1 63.84,63.84 0 0 1 6.59,0.35 49.7,49.7 0 0 1 5.57,0.87 v 6.59 a 62.25,62.25 0 0 0 -10.2,-0.72 30.21,30.21 0 0 0 -4.45,0.26 6,6 0 0 0 -2.47,0.83 2.6,2.6 0 0 0 -1.15,1.57 12.87,12.87 0 0 0 -0.25,3 13.69,13.69 0 0 0 0.25,3.14 1.94,1.94 0 0 0 1,1.34 9,9 0 0 0 2.62,0.64 l 8.19,1.09 a 12,12 0 0 1 4.45,1.44 7.17,7.17 0 0 1 2.78,3.42 20.75,20.75 0 0 1 1.09,7.56 q 0,5.82 -1.63,8.83 a 8,8 0 0 1 -4.54,4 25.12,25.12 0 0 1 -7.65,1 q -3.3,-0.12 -7.08,-0.43 z"
       class="cls-4" />
  </g>
</svg>
