<?xml version="1.0" encoding="UTF-8" standalone="no"?>
<svg
   xmlns:dc="http://purl.org/dc/elements/1.1/"
   xmlns:cc="http://creativecommons.org/ns#"
   xmlns:rdf="http://www.w3.org/1999/02/22-rdf-syntax-ns#"
   xmlns:svg="http://www.w3.org/2000/svg"
   xmlns="http://www.w3.org/2000/svg"
   xmlns:xlink="http://www.w3.org/1999/xlink"
   id="svg70"
   version="1.1"
   viewBox="0 0 527.54199 113.94941"
   height="113.94941"
   width="527.54199">
  <metadata
     id="metadata74">
    <rdf:RDF>
      <cc:Work
         rdf:about="">
        <dc:format>image/svg+xml</dc:format>
        <dc:type
           rdf:resource="http://purl.org/dc/dcmitype/StillImage" />
        <dc:title>Pathogenwatch Saira Semicondensed</dc:title>
      </cc:Work>
    </rdf:RDF>
  </metadata>
  <title
     id="title2">Pathogenwatch Saira Semicondensed</title>
  <desc
     id="desc4">Created using Figma</desc>
  <g
     transform="translate(-3504.77,-5412.727)"
     id="Canvas">
    <clipPath
       style="clip-rule:evenodd"
       id="clip-0">
      <path
         style="fill:#ffffff"
         id="path6"
         d="m 3395,5358 h 739 v 221 h -739 z" />
    </clipPath>
    <g
       id="Group 2.1">
      <g
         id="Pathogenwatch">
        <use
           xlink:href="#path0_fill"
           transform="translate(3626,5419)"
           id="use11"
           style="fill:#673c90"
           x="0"
           y="0"
           width="100%"
           height="100%" />
      </g>
    </g>
    <g
       id="g54">
      <g
         id="WGSA.Icon.FINAL">
        <g
           id="Vector"
           style="opacity:0.93000022">
          <use
             xlink:href="#path1_fill"
             transform="matrix(0.989078,-0.125968,-0.125185,-0.988227,3587.54,5509.88)"
             id="use15"
             style="fill:#b15da0"
             x="0"
             y="0"
             width="100%"
             height="100%" />
        </g>
        <g
           id="g20"
           style="opacity:0.6">
          <use
             xlink:href="#path2_fill"
             transform="matrix(0.989078,-0.125968,-0.125185,-0.988227,3510.21,5531.5)"
             id="use18"
             style="fill:#663b8e"
             x="0"
             y="0"
             width="100%"
             height="100%" />
        </g>
        <g
           id="g24"
           style="opacity:0.52999998">
          <use
             xlink:href="#path3_fill"
             transform="matrix(0.989078,-0.125968,-0.125185,-0.988227,3555.66,5461.88)"
             id="use22"
             style="fill:#3c7384"
             x="0"
             y="0"
             width="100%"
             height="100%" />
        </g>
        <g
           id="Group"
           style="opacity:0.70999995">
          <g
             id="g28"
             style="opacity:0.26000001">
            <use
               xlink:href="#path4_fill"
               transform="matrix(0.989078,-0.125968,-0.125185,-0.988227,3553.22,5442.58)"
               id="use26"
               style="fill:#80569e"
               x="0"
               y="0"
               width="100%"
               height="100%" />
          </g>
          <g
             id="g32"
             style="opacity:0.26000001">
            <use
               xlink:href="#path5_fill"
               transform="matrix(0.989097,-0.125878,-0.125062,-0.988232,3506.19,5459.68)"
               id="use30"
               style="fill:#80569e"
               x="0"
               y="0"
               width="100%"
               height="100%" />
          </g>
        </g>
        <g
           id="g43"
           style="opacity:0.87999998">
          <g
             id="g37"
             style="opacity:0.36000001">
            <use
               xlink:href="#path6_fill"
               transform="matrix(0.989078,-0.125968,-0.125185,-0.988227,3504.77,5488.62)"
               id="use35"
               style="fill:#663b8e"
               x="0"
               y="0"
               width="100%"
               height="100%" />
          </g>
          <g
             id="g41"
             style="opacity:0.36000001">
            <use
               xlink:href="#path7_fill"
               transform="matrix(0.989097,-0.125878,-0.125062,-0.988232,3507.31,5508.66)"
               id="use39"
               style="fill:#663b8e"
               x="0"
               y="0"
               width="100%"
               height="100%" />
          </g>
        </g>
        <g
           id="g47"
           style="opacity:0.36000001">
          <use
             xlink:href="#path8_fill"
             transform="matrix(0.989078,-0.125968,-0.125185,-0.988227,3549.28,5529.46)"
             id="use45"
             style="fill:#663c8d"
             x="0"
             y="0"
             width="100%"
             height="100%" />
        </g>
        <g
           id="g51"
           style="opacity:0.63999999">
          <use
             xlink:href="#path9_fill"
             transform="matrix(0.989078,-0.125968,-0.125185,-0.988227,3549.28,5529.46)"
             id="use49"
             style="fill:#663b8e"
             x="0"
             y="0"
             width="100%"
             height="100%" />
        </g>
      </g>
    </g>
  </g>
  <defs
     id="defs68">
    <path
       d="m 5.888,28.968 h 15.808 c 3.2853,0 5.7387,0.576 7.36,1.728 1.664,1.152 2.7093,2.6667 3.136,4.544 0.4693,1.8773 0.704,4.3093 0.704,7.296 0,2.9013 -0.2347,5.312 -0.704,7.232 -0.4693,1.8773 -1.5147,3.4133 -3.136,4.608 -1.6213,1.152 -4.0747,1.728 -7.36,1.728 H 9.6 V 73 H 5.888 Z m 15.04,23.808 c 2.4747,0 4.288,-0.384 5.44,-1.152 1.1947,-0.768 1.9627,-1.8347 2.304,-3.2 0.3413,-1.408 0.512,-3.3707 0.512,-5.888 0,-2.56 -0.1707,-4.5227 -0.512,-5.888 -0.2987,-1.3653 -1.0453,-2.4107 -2.24,-3.136 C 25.2373,32.744 23.4027,32.36 20.928,32.36 H 9.6 v 20.416 z m 28.131,20.736 c -2.3893,0 -4.3093,-0.256 -5.76,-0.768 -1.4507,-0.5547 -2.5387,-1.5147 -3.264,-2.88 -0.6827,-1.3653 -1.024,-3.2853 -1.024,-5.76 0,-2.4747 0.256,-4.3733 0.768,-5.696 0.5547,-1.3653 1.472,-2.3467 2.752,-2.944 1.28,-0.5973 3.0933,-0.896 5.44,-0.896 1.1947,0 4.9493,0.1067 11.264,0.32 v -2.56 c 0,-2.944 -0.2347,-5.0347 -0.704,-6.272 -0.4267,-1.28 -1.2587,-2.112 -2.496,-2.496 -1.1947,-0.384 -3.2,-0.576 -6.016,-0.576 -1.2373,0 -2.7733,0.0853 -4.608,0.256 -1.8347,0.128 -3.3067,0.2987 -4.416,0.512 V 40.68 c 2.7733,-0.5547 6.1653,-0.832 10.176,-0.832 3.2853,0 5.7387,0.3627 7.36,1.088 1.664,0.6827 2.7947,1.8773 3.392,3.584 0.5973,1.7067 0.896,4.2453 0.896,7.616 V 73 h -3.072 l -0.256,-4.864 h -0.32 c -0.7253,2.176 -1.984,3.6267 -3.776,4.352 -1.792,0.6827 -3.904,1.024 -6.336,1.024 z m 0.832,-3.136 c 2.0907,0 3.7973,-0.2133 5.12,-0.64 1.3653,-0.4267 2.3467,-1.3013 2.944,-2.624 0.4693,-1.0667 0.7893,-2.1547 0.96,-3.264 0.2133,-1.152 0.32,-2.5387 0.32,-4.16 v -2.24 H 48.867 c -1.792,0 -3.1147,0.1707 -3.968,0.512 -0.8533,0.2987 -1.4507,0.896 -1.792,1.792 -0.3413,0.896 -0.512,2.2827 -0.512,4.16 0,1.792 0.192,3.136 0.576,4.032 0.384,0.896 1.088,1.536 2.112,1.92 1.024,0.3413 2.56,0.512 4.608,0.512 z M 75.049,73 V 43.496 H 69.225 V 40.36 h 5.824 v -9.472 h 3.584 v 9.472 h 6.848 v 3.136 H 78.633 V 73 Z m 37.229,-19.456 c 0,-3.2 -0.192,-5.504 -0.576,-6.912 -0.384,-1.408 -1.109,-2.3467 -2.175,-2.816 -1.025,-0.4693 -2.731,-0.704 -5.121,-0.704 -2.687,0 -4.6502,0.5333 -5.8875,1.6 -1.1947,1.024 -1.9413,2.3893 -2.24,4.096 -0.2987,1.664 -0.448,4.096 -0.448,7.296 V 73 h -3.584 V 25.448 h 3.584 v 19.264 h 0.256 c 0.5547,-1.4507 1.5573,-2.624 3.008,-3.52 1.4505,-0.896 3.6485,-1.344 6.5925,-1.344 2.901,0 5.077,0.4267 6.528,1.28 1.45,0.8107 2.41,2.0907 2.879,3.84 0.512,1.7493 0.768,4.224 0.768,7.424 V 73 h -3.584 z m 24.979,19.968 c -3.925,0 -6.741,-0.4267 -8.447,-1.28 -1.707,-0.896 -2.795,-2.432 -3.265,-4.608 -0.469,-2.2187 -0.703,-5.8453 -0.703,-10.88 0,-5.0773 0.234,-8.704 0.703,-10.88 0.47,-2.2187 1.558,-3.776 3.265,-4.672 1.706,-0.896 4.522,-1.344 8.447,-1.344 3.968,0 6.784,0.448 8.448,1.344 1.707,0.896 2.795,2.4533 3.264,4.672 0.512,2.176 0.768,5.8027 0.768,10.88 0,5.0347 -0.256,8.6613 -0.768,10.88 -0.469,2.176 -1.557,3.712 -3.264,4.608 -1.664,0.8533 -4.48,1.28 -8.448,1.28 z m 0,-3.136 c 2.987,0 5.078,-0.32 6.272,-0.96 1.195,-0.64 1.921,-1.792 2.176,-3.456 0.299,-1.7067 0.448,-4.7787 0.448,-9.216 0,-4.4373 -0.149,-7.5093 -0.448,-9.216 -0.255,-1.7067 -0.981,-2.88 -2.176,-3.52 -1.194,-0.6827 -3.285,-1.024 -6.272,-1.024 -2.986,0 -5.077,0.3413 -6.271,1.024 -1.153,0.64 -1.878,1.8133 -2.176,3.52 -0.256,1.664 -0.385,4.736 -0.385,9.216 0,4.4373 0.129,7.5093 0.385,9.216 0.298,1.664 1.023,2.816 2.176,3.456 1.194,0.64 3.285,0.96 6.271,0.96 z m 31.728,15.616 c -4.096,0 -7.509,-0.1707 -10.24,-0.512 v -3.072 c 3.072,0.256 6.272,0.384 9.6,0.384 3.029,0 5.227,-0.3627 6.592,-1.088 1.408,-0.7253 2.325,-1.984 2.752,-3.776 0.469,-1.792 0.704,-4.5867 0.704,-8.384 v -0.96 h -0.32 c -0.64,1.7493 -1.749,2.9867 -3.328,3.712 -1.536,0.7253 -3.605,1.088 -6.208,1.088 -3.115,0 -5.44,-0.448 -6.976,-1.344 -1.536,-0.9387 -2.603,-2.56 -3.2,-4.864 -0.555,-2.3467 -0.832,-5.8453 -0.832,-10.496 0,-4.6507 0.299,-8.1493 0.896,-10.496 0.597,-2.3467 1.664,-3.9893 3.2,-4.928 1.536,-0.9387 3.84,-1.408 6.912,-1.408 2.475,0 4.544,0.3627 6.208,1.088 1.707,0.7253 2.901,2.1547 3.584,4.288 h 0.32 l 0.192,-4.864 h 3.136 v 28.032 c 0,4.6933 -0.299,8.2347 -0.896,10.624 -0.597,2.432 -1.813,4.2027 -3.648,5.312 -1.835,1.1093 -4.651,1.664 -8.448,1.664 z m 0.768,-15.808 c 2.219,0 3.947,-0.3413 5.184,-1.024 1.28,-0.7253 2.155,-1.8773 2.624,-3.456 0.341,-1.1093 0.555,-2.3467 0.64,-3.712 0.128,-1.408 0.192,-3.1787 0.192,-5.312 0,-2.176 -0.043,-3.904 -0.128,-5.184 -0.085,-1.3227 -0.277,-2.4747 -0.576,-3.456 -0.512,-1.792 -1.408,-3.0507 -2.688,-3.776 -1.237,-0.768 -2.987,-1.152 -5.248,-1.152 -2.645,0 -4.544,0.2987 -5.696,0.896 -1.152,0.5973 -1.941,1.8133 -2.368,3.648 -0.384,1.8347 -0.576,4.8427 -0.576,9.024 0,4.1813 0.192,7.168 0.576,8.96 0.427,1.792 1.216,3.008 2.368,3.648 1.152,0.5973 3.051,0.896 5.696,0.896 z m 45.275,-12.288 h -20.353 c 0,3.712 0.192,6.4 0.577,8.064 0.426,1.6213 1.301,2.7733 2.623,3.456 1.323,0.64 3.499,0.96 6.528,0.96 1.451,0 3.051,-0.064 4.801,-0.192 1.792,-0.1707 3.37,-0.384 4.736,-0.64 v 3.072 c -1.11,0.256 -2.625,0.4693 -4.544,0.64 -1.921,0.1707 -3.798,0.256 -5.632,0.256 -3.798,0 -6.571,-0.4693 -8.321,-1.408 -1.749,-0.9813 -2.922,-2.6027 -3.519,-4.864 -0.555,-2.2613 -0.832,-5.76 -0.832,-10.496 0,-4.736 0.234,-8.2133 0.703,-10.432 0.47,-2.2187 1.579,-3.84 3.328,-4.864 1.75,-1.0667 4.608,-1.6 8.576,-1.6 3.542,0 6.102,0.512 7.68,1.536 1.579,0.9813 2.582,2.5813 3.009,4.8 0.426,2.176 0.64,5.6533 0.64,10.432 z M 203.572,42.984 c -2.774,0 -4.758,0.2987 -5.952,0.896 -1.195,0.5547 -1.984,1.6427 -2.368,3.264 -0.385,1.5787 -0.577,4.2027 -0.577,7.872 h 16.832 v -0.96 c 0,-3.3707 -0.234,-5.8027 -0.704,-7.296 -0.426,-1.536 -1.173,-2.5387 -2.24,-3.008 -1.066,-0.512 -2.73,-0.768 -4.991,-0.768 z m 40.581,10.56 c 0,-3.2 -0.192,-5.504 -0.576,-6.912 -0.384,-1.408 -1.109,-2.3467 -2.175,-2.816 -1.025,-0.4693 -2.731,-0.704 -5.121,-0.704 -2.687,0 -4.65,0.5333 -5.887,1.6 -1.195,1.024 -1.942,2.3893 -2.241,4.096 -0.298,1.664 -0.448,4.096 -0.448,7.296 V 73 h -3.583 V 40.36 h 3.071 l 0.257,4.864 h 0.255 c 0.598,-1.7067 1.622,-3.0293 3.073,-3.968 1.493,-0.9387 3.754,-1.408 6.784,-1.408 2.901,0 5.077,0.4267 6.528,1.28 1.45,0.8107 2.41,2.0907 2.879,3.84 0.512,1.7493 0.768,4.2453 0.768,7.488 V 73 h -3.584 z M 281.74,73 276.236,50.792 h -0.448 L 270.285,73 h -7.552 l -8.448,-32.64 h 6.336 l 5.888,25.152 h 0.448 l 6.144,-25.152 h 6.016 l 6.208,25.152 h 0.447 l 5.761,-25.152 h 6.208 L 289.229,73 Z m 28.599,0.512 c -3.158,0 -5.483,-0.7253 -6.976,-2.176 -1.451,-1.4507 -2.176,-3.9253 -2.176,-7.424 0,-2.5173 0.277,-4.48 0.832,-5.888 0.554,-1.408 1.493,-2.432 2.815,-3.072 1.323,-0.64 3.179,-0.96 5.569,-0.96 2.176,0 5.311,0.0853 9.407,0.256 V 52.52 c 0,-2.3893 -0.192,-4.0747 -0.575,-5.056 -0.384,-0.9813 -1.11,-1.6213 -2.176,-1.92 -1.067,-0.2987 -2.859,-0.448 -5.377,-0.448 -1.194,0 -2.687,0.064 -4.479,0.192 -1.792,0.128 -3.179,0.2773 -4.16,0.448 v -4.992 c 3.199,-0.5973 6.741,-0.896 10.624,-0.896 3.541,0 6.186,0.4053 7.936,1.216 1.749,0.8107 2.922,2.112 3.519,3.904 0.598,1.7493 0.896,4.3093 0.896,7.68 V 73 h -5.632 l -0.255,-4.224 h -0.384 c -0.811,1.8773 -2.048,3.136 -3.712,3.776 -1.622,0.64 -3.521,0.96 -5.696,0.96 z m 2.623,-5.184 c 1.494,0 2.71,-0.1707 3.649,-0.512 0.938,-0.3413 1.663,-0.9813 2.176,-1.92 0.682,-1.3653 1.023,-3.3707 1.023,-6.016 v -1.536 h -7.871 c -1.323,0 -2.304,0.128 -2.944,0.384 -0.64,0.2133 -1.088,0.6827 -1.344,1.408 -0.256,0.6827 -0.384,1.7707 -0.384,3.264 0,1.408 0.128,2.4533 0.384,3.136 0.298,0.6827 0.832,1.152 1.599,1.408 0.811,0.256 2.049,0.384 3.712,0.384 z M 337.037,73 V 45.608 h -5.568 V 40.36 h 5.568 v -9.472 h 6.208 v 9.472 h 6.592 v 5.248 h -6.592 V 73 Z m 37.389,-0.384 c -1.024,0.256 -2.304,0.4693 -3.84,0.64 -1.494,0.1707 -2.923,0.256 -4.289,0.256 -3.626,0 -6.314,-0.576 -8.063,-1.728 -1.707,-1.152 -2.816,-2.8587 -3.329,-5.12 -0.469,-2.2613 -0.704,-5.5893 -0.704,-9.984 0,-4.3093 0.278,-7.616 0.833,-9.92 0.597,-2.3467 1.749,-4.0747 3.456,-5.184 1.706,-1.152 4.266,-1.728 7.68,-1.728 1.365,0 2.794,0.0853 4.288,0.256 1.493,0.1707 2.73,0.384 3.712,0.64 v 4.928 c -2.134,-0.384 -4.289,-0.576 -6.465,-0.576 -2.176,0 -3.776,0.2987 -4.799,0.896 -0.982,0.5973 -1.643,1.6853 -1.984,3.264 -0.299,1.536 -0.448,4.0107 -0.448,7.424 0,3.456 0.17,5.9733 0.512,7.552 0.341,1.5787 1.002,2.6453 1.983,3.2 1.024,0.5547 2.646,0.832 4.864,0.832 2.304,0 4.502,-0.192 6.593,-0.576 z m 25.678,-17.792 c 0,-2.9867 -0.149,-5.0987 -0.448,-6.336 -0.256,-1.28 -0.768,-2.112 -1.536,-2.496 -0.768,-0.384 -2.091,-0.576 -3.968,-0.576 -1.963,0 -3.413,0.384 -4.352,1.152 -0.939,0.768 -1.536,1.8773 -1.792,3.328 -0.256,1.4507 -0.384,3.52 -0.384,6.208 V 73 h -6.208 V 25.448 h 6.208 v 18.88 h 0.384 c 0.683,-1.4507 1.728,-2.5387 3.136,-3.264 1.408,-0.768 3.307,-1.152 5.696,-1.152 2.645,0 4.651,0.448 6.016,1.344 1.365,0.8533 2.283,2.1547 2.752,3.904 0.469,1.7493 0.704,4.16 0.704,7.232 V 73 h -6.208 z"
       id="path0_fill" />
    <path
       d="M 36.0971,55.2131 C 24.6636,50.5487 19.2767,37.6404 24.004,26.4676 c 1.5391,-3.6881 4.0676,-6.7254 7.0359,-9.0034 L 17.4078,-1.32414e-5 C 13.6699,2.8203 10.2618,6.29146 7.51342,10.305 c -1.64906,2.3864 -3.07823,4.9898 -4.1776,7.7016 -1.20931,2.7119 -1.97888,5.5322 -2.52857,8.3525 -1.86893,9.5457 -0.439722,19.3083 3.73789,27.7692 2.63849,5.2068 6.26636,9.8711 10.77386,13.7762 3.5179,3.0372 7.6956,5.6406 12.3129,7.4846 z"
       id="path1_fill" />
    <path
       d="M 43.4251,13.5592 C 41.3363,9.32873 39.9071,4.66436 39.2475,0 c 0.5497,3.6881 0,7.59314 -1.5391,11.2812 C 32.9811,22.454 19.8986,27.7692 8.57508,23.1049 L 6.71002e-6,43.3894 C 4.61736,45.2335 9.34464,46.3182 14.0719,46.6436 20.0085,47.0775 25.9451,46.2097 31.5519,44.3657 40.5668,41.3284 48.5922,35.4709 54.089,27.3354 49.5816,23.4303 45.9537,18.7659 43.4251,13.5592 Z"
       id="path2_fill" />
    <path
       d="M 61.7606,3.36425 C 57.1433,1.5202 52.416,0.435463 47.6887,0.110043 41.6421,-0.323852 35.7056,0.54391 30.2087,2.38796 21.1939,5.42522 13.1685,11.2828 7.56168,19.4183 5.91262,21.8048 4.48342,24.4081 3.38405,27.12 2.17474,29.8318 1.4052,32.6521 0.855512,35.4724 -0.133922,40.2453 -0.243852,45.0181 0.41577,49.6825 L 22.5131,46.8621 c -0.5497,-3.6881 0,-7.5931 1.5391,-11.2812 4.7273,-11.1728 17.8098,-16.488 29.1333,-11.8236 z"
       id="path3_fill" />
    <path
       d="m 0.855512,15.9456 c -0.989434,4.7728 -1.099364,9.5457 -0.439742,14.21 L 22.5131,27.3353 C 21.8535,22.5625 20.4243,18.0066 18.3355,13.7761 15.697,8.5694 12.0691,3.90505 7.56168,6.6207e-6 5.91262,2.38643 4.48342,4.9898 3.38405,7.70164 2.28468,10.305 1.4052,13.1253 0.855512,15.9456 Z"
       id="path4_fill" />
    <path
       d="M 44.3046,3.36424 C 39.6873,1.52019 34.96,0.43545 30.2327,0.110029 24.1862,-0.323865 18.2495,0.54393 12.7527,2.38798 8.13533,3.90661 3.84781,6.18454 1.34201e-5,9.11333 L 13.6322,26.5776 c 6.1565,-4.5559 14.5117,-5.9661 22.0974,-2.8203 7.6956,3.1457 12.6427,9.9795 13.6322,17.4642 -0.6597,-4.6643 -0.5497,-9.4372 0.4397,-14.21 0.5497,-2.8203 1.4292,-5.6406 2.5285,-8.3525 1.2093,-2.7118 2.5286,-5.3152 4.1777,-7.7016 C 52.9897,7.81166 48.922,5.31676 44.3046,3.36424 Z"
       id="path5_fill" />
    <path
       d="M 35.2898,28.854 C 37.2687,19.1998 35.7295,9.43719 31.5519,0.976255 26.0551,2.82031 20.1185,3.6881 14.0719,3.25421 9.34465,2.92879 4.61737,1.95252 6.71003e-6,0 11.4335,4.66436 16.8204,17.4642 12.0931,28.7455 10.554,32.4336 8.02542,35.4708 5.05712,37.7488 5.16706,37.6403 5.16704,37.6403 5.27697,37.5319 5.16704,37.6403 5.16706,37.6403 5.05712,37.7488 L 18.6893,55.213 c 0,0 7.5857,-7.5931 9.8944,-10.305 1.7589,-2.2779 3.0782,-4.9897 4.1776,-7.7016 1.0993,-2.8203 1.9788,-5.6406 2.5285,-8.3524 z"
       id="path6_fill" />
    <path
       d="m 14.0719,23.5388 c 5.9366,0.4339 11.8732,-0.4339 17.48,-2.278 C 28.9134,16.0541 25.3955,11.3897 20.8881,7.48469 17.3701,4.44743 13.1924,1.84404 8.57509,-1.32414e-5 L 6.71003e-6,20.2846 C 4.61737,22.1286 9.34465,23.2133 14.0719,23.5388 Z"
       id="path7_fill" />
    <path
       d="M 21.6576,14.21 C 22.647,9.43719 22.8669,4.66435 22.2073,-1.32414e-5 L 1.342e-5,2.82031 C 0.659636,7.59314 2.0888,12.149 4.17761,16.3795 c 2.52855,5.2067 6.15649,9.8711 10.66389,13.7762 1.6491,-2.3865 2.9683,-4.8814 4.1776,-7.7017 1.2093,-2.6033 2.0888,-5.4237 2.6385,-8.244 z"
       id="path8_fill" />
    <path
       d="m 41.4463,41.003 c 5.8266,0.4339 11.7633,-0.3254 17.37,-2.2779 4.5075,-1.5187 8.795,-3.6881 12.7527,-6.7254 L 57.9368,14.5355 c 0,0 -0.1099,-1e-4 -0.1099,0.1084 -6.1565,4.5559 -14.4018,5.8576 -21.9874,2.8203 C 28.2538,14.3185 23.3067,7.59314 22.2073,-1.32414e-5 h -0.11 L 1.34201e-5,2.82031 C 0.659636,7.59314 2.0888,12.149 4.17761,16.3795 c 2.52855,5.2067 6.15649,9.8711 10.66389,13.7762 3.6279,3.0372 7.6956,5.6406 12.3129,7.5931 4.7273,1.8441 9.4546,2.9288 14.2919,3.2542 z m 10.2241,-20.61 c -0.1099,0.1085 -0.2199,0.217 -0.3298,0.3254 0.1099,-0.1084 0.2199,-0.2169 0.3298,-0.3254 z"
       id="path9_fill" />
  </defs>
</svg>
