<svg width="113" height="115" viewBox="0 0 113 115" version="1.1" xmlns="http://www.w3.org/2000/svg" xmlns:xlink="http://www.w3.org/1999/xlink">
<title>Group</title>
<desc>Created using Figma</desc>
<g id="Canvas" transform="translate(-2168 -5564)">
<g id="Group">
<g id="WGSA.Icon.FINAL">
<g id="Vector" opacity="0.93">
<use xlink:href="#path0_fill" transform="matrix(0.989078 -0.125968 -0.125185 -0.988227 2251.54 5661.88)" fill="#B15DA0"/>
</g>
<g id="Vector" opacity="0.6">
<use xlink:href="#path1_fill" transform="matrix(0.989078 -0.125968 -0.125185 -0.988227 2174.21 5683.5)" fill="#663B8E"/>
</g>
<g id="Vector" opacity="0.53">
<use xlink:href="#path2_fill" transform="matrix(0.989078 -0.125968 -0.125185 -0.988227 2219.66 5613.88)" fill="#3C7384"/>
</g>
<g id="Group" opacity="0.71">
<g id="Vector" opacity="0.26">
<use xlink:href="#path3_fill" transform="matrix(0.989078 -0.125968 -0.125185 -0.988227 2217.22 5594.58)" fill="#80569E"/>
</g>
<g id="Vector" opacity="0.26">
<use xlink:href="#path4_fill" transform="matrix(0.989097 -0.125878 -0.125062 -0.988232 2170.19 5611.68)" fill="#80569E"/>
</g>
</g>
<g id="Group" opacity="0.88">
<g id="Vector" opacity="0.36">
<use xlink:href="#path5_fill" transform="matrix(0.989078 -0.125968 -0.125185 -0.988227 2168.77 5640.62)" fill="#663B8E"/>
</g>
<g id="Vector" opacity="0.36">
<use xlink:href="#path6_fill" transform="matrix(0.989097 -0.125878 -0.125062 -0.988232 2171.31 5660.66)" fill="#663B8E"/>
</g>
</g>
<g id="Vector" opacity="0.36">
<use xlink:href="#path7_fill" transform="matrix(0.989078 -0.125968 -0.125185 -0.988227 2213.28 5681.46)" fill="#663C8D"/>
</g>
<g id="Vector" opacity="0.64">
<use xlink:href="#path8_fill" transform="matrix(0.989078 -0.125968 -0.125185 -0.988227 2213.28 5681.46)" fill="#663B8E"/>
</g>
</g>
</g>
</g>
<defs>
<path id="path0_fill" d="M 36.0971 55.2131C 24.6636 50.5487 19.2767 37.6404 24.004 26.4676C 25.5431 22.7795 28.0716 19.7422 31.0399 17.4642L 17.4078 -1.32414e-05C 13.6699 2.8203 10.2618 6.29146 7.51342 10.305C 5.86436 12.6914 4.43519 15.2948 3.33582 18.0066C 2.12651 20.7185 1.35694 23.5388 0.80725 26.3591C -1.06168 35.9048 0.367528 45.6674 4.54514 54.1283C 7.18363 59.3351 10.8115 63.9994 15.319 67.9045C 18.8369 70.9417 23.0146 73.5451 27.6319 75.3891L 36.0971 55.2131Z"/>
<path id="path1_fill" d="M 43.4251 13.5592C 41.3363 9.32873 39.9071 4.66436 39.2475 0C 39.7972 3.6881 39.2475 7.59314 37.7084 11.2812C 32.9811 22.454 19.8986 27.7692 8.57508 23.1049L 6.71002e-06 43.3894C 4.61736 45.2335 9.34464 46.3182 14.0719 46.6436C 20.0085 47.0775 25.9451 46.2097 31.5519 44.3657C 40.5668 41.3284 48.5922 35.4709 54.089 27.3354C 49.5816 23.4303 45.9537 18.7659 43.4251 13.5592Z"/>
<path id="path2_fill" d="M 61.7606 3.36425C 57.1433 1.5202 52.416 0.435463 47.6887 0.110043C 41.6422 -0.323852 35.7056 0.54391 30.2087 2.38796C 21.1939 5.42522 13.1685 11.2828 7.56168 19.4183C 5.91262 21.8048 4.48342 24.4081 3.38405 27.12C 2.17474 29.8318 1.4052 32.6521 0.855511 35.4724C -0.133922 40.2453 -0.243852 45.0181 0.41577 49.6825L 22.5131 46.8621C 21.9634 43.174 22.5131 39.269 24.0522 35.5809C 28.7795 24.4081 41.862 19.0929 53.1855 23.7573L 61.7606 3.36425Z"/>
<path id="path3_fill" d="M 0.855512 15.9456C -0.133922 20.7184 -0.243852 25.4913 0.41577 30.1556L 22.5131 27.3353C 21.8535 22.5625 20.4243 18.0066 18.3355 13.7761C 15.697 8.5694 12.0691 3.90505 7.56168 6.6207e-06C 5.91262 2.38643 4.48342 4.9898 3.38405 7.70164C 2.28468 10.305 1.4052 13.1253 0.855512 15.9456Z"/>
<path id="path4_fill" d="M 44.3046 3.36424C 39.6873 1.52019 34.96 0.43545 30.2327 0.110029C 24.1862 -0.323865 18.2495 0.54393 12.7527 2.38798C 8.13533 3.90661 3.84781 6.18454 1.34201e-05 9.11333L 13.6322 26.5776C 19.7887 22.0217 28.1439 20.6115 35.7296 23.7573C 43.4252 26.903 48.3723 33.7368 49.3618 41.2215C 48.7021 36.5572 48.8121 31.7843 49.8015 27.0115C 50.3512 24.1912 51.2307 21.3709 52.33 18.659C 53.5393 15.9472 54.8586 13.3438 56.5077 10.9574C 52.9897 7.81166 48.922 5.31676 44.3046 3.36424Z"/>
<path id="path5_fill" d="M 35.2898 28.854C 37.2687 19.1998 35.7295 9.43719 31.5519 0.976255C 26.0551 2.82031 20.1185 3.6881 14.0719 3.25421C 9.34465 2.92879 4.61736 1.95252 6.71003e-06 -6.16601e-14C 11.4335 4.66436 16.8204 17.4642 12.0931 28.7455C 10.554 32.4336 8.02542 35.4708 5.05712 37.7488C 5.16706 37.6403 5.16704 37.6403 5.27697 37.5319C 5.16704 37.6403 5.16706 37.6403 5.05712 37.7488L 18.6893 55.213C 18.6893 55.213 26.275 47.6199 28.5837 44.908C 30.3426 42.6301 31.6619 39.9183 32.7612 37.2064C 33.8606 34.3861 34.7401 31.5658 35.2898 28.854Z"/>
<path id="path6_fill" d="M 14.0719 23.5388C 20.0085 23.9727 25.9451 23.1049 31.5519 21.2608C 28.9134 16.0541 25.3955 11.3897 20.8881 7.48469C 17.3701 4.44743 13.1924 1.84404 8.57509 -1.32414e-05L 6.71003e-06 20.2846C 4.61736 22.1286 9.34465 23.2133 14.0719 23.5388Z"/>
<path id="path7_fill" d="M 21.6576 14.21C 22.647 9.43719 22.8669 4.66435 22.2073 -1.32414e-05L 1.342e-05 2.82031C 0.659636 7.59314 2.0888 12.149 4.17761 16.3795C 6.70616 21.5862 10.3341 26.2506 14.8415 30.1557C 16.4906 27.7692 17.8098 25.2743 19.0191 22.454C 20.2284 19.8507 21.1079 17.0303 21.6576 14.21Z"/>
<path id="path8_fill" d="M 41.4463 41.003C 47.2729 41.4369 53.2096 40.6776 58.8163 38.7251C 63.3238 37.2064 67.6113 35.037 71.569 31.9997L 57.9368 14.5355C 57.9368 14.5355 57.8269 14.5354 57.8269 14.6439C 51.6704 19.1998 43.4251 20.5015 35.8395 17.4642C 28.2538 14.3185 23.3067 7.59314 22.2073 -1.32414e-05L 22.0973 -1.32414e-05L 1.34201e-05 2.82031C 0.659636 7.59314 2.0888 12.149 4.17761 16.3795C 6.70616 21.5862 10.3341 26.2506 14.8415 30.1557C 18.4694 33.1929 22.5371 35.7963 27.1544 37.7488C 31.8817 39.5929 36.609 40.6776 41.4463 41.003ZM 51.6704 20.393C 51.5605 20.5015 51.4505 20.61 51.3406 20.7184C 51.4505 20.61 51.5605 20.5015 51.6704 20.393Z"/>
</defs>
</svg>
