<?xml version="1.0" encoding="UTF-8" standalone="no"?>
<svg
   xmlns:dc="http://purl.org/dc/elements/1.1/"
   xmlns:cc="http://creativecommons.org/ns#"
   xmlns:rdf="http://www.w3.org/1999/02/22-rdf-syntax-ns#"
   xmlns:svg="http://www.w3.org/2000/svg"
   xmlns="http://www.w3.org/2000/svg"
   xmlns:xlink="http://www.w3.org/1999/xlink"
   id="svg103"
   version="1.1"
   viewBox="0 0 490.49701 88.199529"
   height="88.199532"
   width="490.49701">
  <metadata
     id="metadata107">
    <rdf:RDF>
      <cc:Work
         rdf:about="">
        <dc:format>image/svg+xml</dc:format>
        <dc:type
           rdf:resource="http://purl.org/dc/dcmitype/StillImage" />
        <dc:title>Pathogen.watch Saira Caps</dc:title>
      </cc:Work>
    </rdf:RDF>
  </metadata>
  <title
     id="title2">Pathogen.watch Saira Caps</title>
  <desc
     id="desc4">Created using Figma</desc>
  <g
     transform="translate(-1219.1,-6371.4826)"
     id="Canvas">
    <clipPath
       style="clip-rule:evenodd"
       id="clip-0">
      <path
         style="fill:#ffffff"
         id="path6"
         d="m 1174,6350 h 585 v 132.9 h -585 z" />
    </clipPath>
    <g
       id="PATHOGEN WATCH">
      <use
         xlink:href="#path0_fill"
         transform="translate(1219.1,6400.44)"
         id="use11"
         style="fill:#673c90"
         x="0"
         y="0"
         width="100%"
         height="100%" />
      <use
         xlink:href="#path1_fill"
         transform="translate(1219.1,6400.44)"
         id="use13"
         style="fill:#673c90"
         x="0"
         y="0"
         width="100%"
         height="100%" />
      <use
         xlink:href="#path2_fill"
         transform="translate(1219.1,6400.44)"
         id="use15"
         style="fill:#673c90"
         x="0"
         y="0"
         width="100%"
         height="100%" />
      <use
         xlink:href="#path3_fill"
         transform="translate(1219.1,6400.44)"
         id="use17"
         style="fill:#673c90"
         x="0"
         y="0"
         width="100%"
         height="100%" />
      <use
         xlink:href="#path4_fill"
         transform="translate(1219.1,6400.44)"
         id="use19"
         style="fill:#673c90"
         x="0"
         y="0"
         width="100%"
         height="100%" />
      <use
         xlink:href="#path5_fill"
         transform="translate(1219.1,6400.44)"
         id="use21"
         style="fill:#673c90"
         x="0"
         y="0"
         width="100%"
         height="100%" />
      <use
         xlink:href="#path6_fill"
         transform="translate(1219.1,6400.44)"
         id="use23"
         style="fill:#673c90"
         x="0"
         y="0"
         width="100%"
         height="100%" />
      <use
         xlink:href="#path7_fill"
         transform="translate(1219.1,6400.44)"
         id="use25"
         style="fill:#673c90"
         x="0"
         y="0"
         width="100%"
         height="100%" />
      <use
         xlink:href="#path8_fill"
         transform="translate(1219.1,6400.44)"
         id="use27"
         style="fill:#673c90"
         x="0"
         y="0"
         width="100%"
         height="100%" />
      <use
         xlink:href="#path9_fill"
         transform="translate(1219.1,6400.44)"
         id="use29"
         style="fill:#673c90"
         x="0"
         y="0"
         width="100%"
         height="100%" />
      <use
         xlink:href="#path10_fill"
         transform="translate(1219.1,6400.44)"
         id="use31"
         style="fill:#673c90"
         x="0"
         y="0"
         width="100%"
         height="100%" />
      <use
         xlink:href="#path11_fill"
         transform="translate(1219.1,6400.44)"
         id="use33"
         style="fill:#673c90"
         x="0"
         y="0"
         width="100%"
         height="100%" />
      <use
         xlink:href="#path12_fill"
         transform="translate(1219.1,6400.44)"
         id="use35"
         style="fill:#673c90"
         x="0"
         y="0"
         width="100%"
         height="100%" />
    </g>
    <g
       id="WGSA.Icon.FINAL">
      <g
         id="Vector"
         style="opacity:0.93000034">
        <use
           xlink:href="#path13_fill"
           transform="matrix(0.990265,-0.139173,-0.139173,-0.990265,1525.24,6446.32)"
           id="use38"
           style="fill:#b15da0"
           x="0"
           y="0"
           width="100%"
           height="100%" />
      </g>
      <g
         id="g43"
         style="opacity:0.6">
        <use
           xlink:href="#path14_fill"
           transform="matrix(0.990265,-0.139173,-0.139173,-0.990265,1465.61,6463.8)"
           id="use41"
           style="fill:#663b8e"
           x="0"
           y="0"
           width="100%"
           height="100%" />
      </g>
      <g
         id="g47"
         style="opacity:0.52999998">
        <use
           xlink:href="#path15_fill"
           transform="matrix(0.990265,-0.139173,-0.139173,-0.990265,1500.08,6409.59)"
           id="use45"
           style="fill:#3c7384"
           x="0"
           y="0"
           width="100%"
           height="100%" />
      </g>
      <g
         id="Group"
         style="opacity:0.70999995">
        <g
           id="g51"
           style="opacity:0.26000001">
          <use
             xlink:href="#path16_fill"
             transform="matrix(0.990265,-0.139173,-0.139172,-0.990265,1497.99,6394.72)"
             id="use49"
             style="fill:#80569e"
             x="0"
             y="0"
             width="100%"
             height="100%" />
        </g>
        <g
           id="g55"
           style="opacity:0.26000001">
          <use
             xlink:href="#path17_fill"
             transform="matrix(0.990265,-0.139173,-0.139173,-0.990265,1461.76,6408.41)"
             id="use53"
             style="fill:#80569e"
             x="0"
             y="0"
             width="100%"
             height="100%" />
        </g>
      </g>
      <g
         id="g66"
         style="opacity:0.87999998">
        <g
           id="g60"
           style="opacity:0.36000001">
          <use
             xlink:href="#path18_fill"
             transform="matrix(0.990265,-0.139173,-0.139173,-0.990265,1460.96,6430.76)"
             id="use58"
             style="fill:#663b8e"
             x="0"
             y="0"
             width="100%"
             height="100%" />
        </g>
        <g
           id="g64"
           style="opacity:0.36000001">
          <use
             xlink:href="#path19_fill"
             transform="matrix(0.990265,-0.139173,-0.139173,-0.990265,1463.13,6446.2)"
             id="use62"
             style="fill:#663b8e"
             x="0"
             y="0"
             width="100%"
             height="100%" />
        </g>
      </g>
      <g
         id="g70"
         style="opacity:0.36000001">
        <use
           xlink:href="#path20_fill"
           transform="matrix(0.990265,-0.139173,-0.139172,-0.990265,1495.83,6461.83)"
           id="use68"
           style="fill:#663c8d"
           x="0"
           y="0"
           width="100%"
           height="100%" />
      </g>
      <g
         id="g74"
         style="opacity:0.63999999">
        <use
           xlink:href="#path21_fill"
           transform="matrix(0.990265,-0.139173,-0.139173,-0.990265,1495.83,6461.83)"
           id="use72"
           style="fill:#663b8e"
           x="0"
           y="0"
           width="100%"
           height="100%" />
      </g>
    </g>
  </g>
  <defs
     id="defs101">
    <path
       d="m 0,0.357705 h 13.8164 c 2.4742,0 4.367,0.402421 5.6786,1.207265 1.3414,0.80484 2.2357,1.92267 2.6828,3.3535 0.477,1.40102 0.7154,3.21936 0.7154,5.45503 0,2.1462 -0.2384,3.9348 -0.7154,5.3656 -0.4471,1.4308 -1.3414,2.5636 -2.6828,3.3982 -1.3414,0.8347 -3.2789,1.252 -5.8127,1.252 H 5.05261 V 31.1205 H 0 Z M 11.7596,15.8732 c 1.9078,0 3.279,-0.149 4.1136,-0.4471 0.8347,-0.3279 1.3713,-0.8495 1.6097,-1.565 0.2683,-0.7452 0.4025,-1.9077 0.4025,-3.4876 0,-1.57987 -0.1193,-2.72752 -0.3578,-3.44293 C 17.2892,6.21516 16.7526,5.70841 15.918,5.41032 15.1131,5.08242 13.7717,4.91847 11.8938,4.91847 H 5.05261 V 15.8732 Z"
       id="path0_fill" />
    <path
       d="M 47.7665,31.1205 45.0389,23.6981 H 32.0274 l -2.6381,7.4224 H 24.2919 L 35.3361,0.357705 H 41.909 L 52.9532,31.1205 Z M 38.6449,5.45503 H 38.4214 L 33.5029,19.182 h 10.0605 z"
       id="path1_fill" />
    <path
       d="M 61.979,31.1205 V 5.05261 H 52.6339 V 0.357705 H 76.3767 V 5.05261 H 67.0316 V 31.1205 Z"
       id="path2_fill" />
    <path
       d="M 100.972,31.1205 V 17.9748 H 86.6633 V 31.1205 H 81.6106 V 0.357705 h 5.0527 V 13.2799 H 100.972 V 0.357705 h 5.007 V 31.1205 Z"
       id="path3_fill" />
    <path
       d="m 125.989,31.4782 c -4.113,0 -7.049,-0.4173 -8.808,-1.252 -1.729,-0.8644 -2.832,-2.3102 -3.309,-4.3372 -0.477,-2.027 -0.715,-5.4103 -0.715,-10.1499 0,-4.7396 0.238,-8.12292 0.715,-10.14993 0.477,-2.02701 1.58,-3.45783 3.309,-4.29248 C 118.94,0.432229 121.876,0 125.989,0 c 4.114,0 7.05,0.432229 8.809,1.29669 1.759,0.83465 2.876,2.28038 3.353,4.33719 0.477,2.02701 0.716,5.39542 0.716,10.10522 0,4.7098 -0.239,8.0931 -0.716,10.1499 -0.477,2.027 -1.594,3.4728 -3.353,4.3372 -1.759,0.8347 -4.695,1.252 -8.809,1.252 z m 0,-4.5608 c 2.743,0 4.591,-0.1788 5.545,-0.5365 0.954,-0.3577 1.565,-1.2371 1.833,-2.6381 0.298,-1.401 0.447,-4.0689 0.447,-8.0037 0,-3.9348 -0.149,-6.60267 -0.447,-8.00369 -0.268,-1.40102 -0.879,-2.28038 -1.833,-2.63809 -0.954,-0.3577 -2.802,-0.53656 -5.545,-0.53656 -2.742,0 -4.59,0.17886 -5.544,0.53656 -0.924,0.35771 -1.535,1.23707 -1.833,2.63809 -0.269,1.40102 -0.403,4.06889 -0.403,8.00369 0,3.9348 0.134,6.6027 0.403,8.0037 0.298,1.401 0.909,2.2804 1.833,2.6381 0.954,0.3577 2.802,0.5365 5.544,0.5365 z"
       id="path4_fill" />
    <path
       d="m 157.507,18.3772 v -4.3819 h 10.91 v 16.4992 c -1.55,0.2981 -3.264,0.5366 -5.142,0.7154 -1.878,0.1789 -3.517,0.2683 -4.918,0.2683 -3.786,0 -6.603,-0.4322 -8.451,-1.2967 -1.848,-0.8644 -3.13,-2.3847 -3.845,-4.5607 -0.686,-2.2059 -1.029,-5.4998 -1.029,-9.8817 0,-4.3819 0.358,-7.66089 1.073,-9.83694 0.716,-2.20586 1.998,-3.74102 3.846,-4.60547 C 151.799,0.432229 154.601,0 158.357,0 c 1.49,0 3.16,0.0894265 5.008,0.268279 1.848,0.178853 3.473,0.417324 4.874,0.715413 V 5.23146 c -3.369,-0.44713 -5.947,-0.6707 -7.736,-0.6707 -3.368,0 -5.708,0.17886 -7.02,0.53656 -1.282,0.35771 -2.176,1.28179 -2.683,2.77223 -0.477,1.49045 -0.715,4.11365 -0.715,7.86955 0,3.4578 0.179,5.9469 0.537,7.4671 0.387,1.4905 1.147,2.504 2.28,3.0405 1.133,0.5366 2.996,0.8049 5.589,0.8049 2.206,0 3.89,-0.0894 5.053,-0.2683 v -8.4061 z"
       id="path5_fill" />
    <path
       d="M 176.146,31.1205 V 0.357705 H 196.67 V 4.91847 h -15.471 v 8.40613 h 13.369 v 4.5607 h -13.369 v 8.6744 h 15.471 v 4.5608 z"
       id="path6_fill" />
    <path
       d="M 222.846,31.1205 208.314,9.56866 h -0.179 V 31.1205 h -4.829 V 0.357705 h 5.232 L 222.667,21.1494 h 0.179 V 0.357705 h 4.829 V 31.1205 Z"
       id="path7_fill" />
    <path
       d="M 368.416,31.1205 361.843,8.27197 h -0.179 l -6.528,22.84853 h -6.215 L 340.962,0.357705 h 5.097 l 6.215,24.324095 h 0.224 L 359.25,0.357705 h 5.276 l 6.886,24.324095 h 0.223 l 5.902,-24.324095 h 5.053 L 374.586,31.1205 Z"
       id="path8_fill" />
    <path
       d="m 406.609,31.1205 -2.728,-7.4224 H 390.87 l -2.638,7.4224 h -5.098 L 394.178,0.357705 h 6.573 L 411.796,31.1205 Z M 397.487,5.45503 h -0.223 L 392.345,19.182 h 10.061 z"
       id="path9_fill" />
    <path
       d="M 420.821,31.1205 V 5.05261 h -9.345 V 0.357705 h 23.743 V 5.05261 h -9.345 V 31.1205 Z"
       id="path10_fill" />
    <path
       d="m 459.635,30.8075 c -0.984,0.2087 -2.191,0.3726 -3.622,0.4919 -1.401,0.1192 -2.712,0.1788 -3.935,0.1788 -3.726,0 -6.468,-0.4322 -8.227,-1.2967 -1.759,-0.8644 -2.936,-2.3698 -3.532,-4.516 -0.596,-2.1463 -0.894,-5.4551 -0.894,-9.9264 0,-4.4713 0.298,-7.78012 0.894,-9.92636 0.596,-2.14624 1.773,-3.6516 3.532,-4.51605 C 445.61,0.432229 448.352,0 452.078,0 c 1.252,0 2.564,0.0745222 3.935,0.223567 1.401,0.149044 2.549,0.327897 3.443,0.536558 V 5.0079 c -2.385,-0.29809 -4.426,-0.44714 -6.126,-0.44714 -2.921,0 -4.948,0.22357 -6.081,0.6707 -1.132,0.44714 -1.878,1.38612 -2.235,2.81695 -0.358,1.43082 -0.537,3.99439 -0.537,7.69069 0,3.6963 0.179,6.2599 0.537,7.6907 0.357,1.4308 1.103,2.3698 2.235,2.8169 1.133,0.4472 3.16,0.6707 6.081,0.6707 2.326,0 4.427,-0.149 6.305,-0.4471 z"
       id="path11_fill" />
    <path
       d="M 485.489,31.1205 V 17.9748 h -14.308 v 13.1457 h -5.053 V 0.357705 h 5.053 V 13.2799 h 14.308 V 0.357705 h 5.008 V 31.1205 Z"
       id="path12_fill" />
    <path
       d="M 27.8607,42.4633 C 19.036,38.8761 14.8783,28.9485 18.5269,20.3557 c 1.188,-2.8364 3.1396,-5.1724 5.4306,-6.9243 L 13.4358,-1.01837e-5 C 10.5508,2.16904 7.92037,4.83864 5.79906,7.92536 4.52628,9.76072 3.4232,11.7629 2.57468,13.8485 1.6413,15.9342 1.04732,18.1032 0.623057,20.2723 -0.819434,27.6137 0.283668,35.1219 3.50806,41.6291 c 2.03646,4.0044 4.83658,7.5916 8.31554,10.5949 2.7153,2.3359 5.9397,4.3381 9.5035,5.7564 z"
       id="path13_fill" />
    <path
       d="M 33.5159,10.4279 C 31.9037,7.17436 30.8007,3.58718 30.2916,0 c 0.4242,2.83638 0,5.83959 -1.1879,8.67597 C 25.4551,17.2685 15.3579,21.3562 6.61832,17.7691 L 5.17885e-6,33.3691 C 3.56372,34.7873 7.21227,35.6216 10.8608,35.8718 c 4.582,0.3337 9.1639,-0.3337 13.4912,-1.7519 6.9578,-2.3358 13.1518,-6.8406 17.3943,-13.0973 -3.4788,-3.0033 -6.2789,-6.5904 -8.2304,-10.5947 z"
       id="path14_fill" />
    <path
       d="M 47.6671,2.58732 C 44.1034,1.16913 40.4548,0.334899 36.8063,0.0846297 32.1396,-0.249063 27.5577,0.418302 23.3152,1.83649 16.3575,4.17234 10.1635,8.6772 5.83613,14.9339 4.56338,16.7692 3.46032,18.7714 2.61182,20.857 1.67847,22.9426 1.08454,25.1115 0.660287,27.2805 -0.103361,30.9512 -0.188206,34.6218 0.320893,38.209 L 17.3757,36.04 c -0.4242,-2.8364 0,-5.8396 1.1879,-8.676 3.6485,-8.5926 13.7457,-12.6803 22.4852,-9.0931 z"
       id="path15_fill" />
    <path
       d="M 0.660335,12.2637 C -0.103369,15.9345 -0.18822,19.6053 0.320916,23.1926 L 17.377,21.0235 C 16.8678,17.3528 15.7647,13.8488 14.1524,10.5952 12.1159,6.5907 9.31565,3.00337 5.83656,5.09196e-6 4.56372,1.83539 3.46057,3.83764 2.61201,5.92331 1.76345,7.92555 1.08462,10.0946 0.660335,12.2637 Z"
       id="path16_fill" />
    <path
       d="M 34.1956,2.58739 C 30.6318,1.16915 26.9832,0.334899 23.3345,0.084622 18.6676,-0.24908 14.0855,0.418329 9.8429,1.83656 6.27909,3.00452 2.96985,4.75644 1.0358e-5,7.00893 L 10.5217,20.4405 c 4.7518,-3.5039 11.2006,-4.5885 17.0554,-2.1691 5.9397,2.4193 9.7581,7.6751 10.5218,13.4315 -0.5092,-3.5873 -0.4243,-7.258 0.3394,-10.9287 0.4242,-2.1691 1.103,-4.3382 1.9516,-6.4238 0.9333,-2.0856 1.9516,-4.0879 3.2244,-5.92322 C 40.899,6.00784 37.7594,4.08905 34.1956,2.58739 Z"
       id="path17_fill" />
    <path
       d="M 27.2375,22.1909 C 28.7648,14.7662 27.5769,7.25793 24.3525,0.750816 20.1099,2.16903 15.5279,2.83644 10.861,2.50274 7.21241,2.25246 3.56378,1.50164 5.17895e-6,0 8.8246,3.58726 12.9823,13.4314 9.33371,22.1075 8.14579,24.944 6.1942,27.2798 3.9032,29.0317 3.98805,28.9483 3.98803,28.9483 4.07289,28.8649 3.98803,28.9483 3.98805,28.9483 3.9032,29.0317 l 10.5216,13.4314 c 0,0 5.8548,-5.8397 7.6367,-7.9253 1.3576,-1.7519 2.3758,-3.8376 3.2244,-5.9232 0.8485,-2.169 1.5273,-4.338 1.9516,-6.4237 z"
       id="path18_fill" />
    <path
       d="M 10.8614,18.1037 C 15.4435,18.4374 20.0257,17.77 24.3532,16.3517 22.3167,12.3472 19.6014,8.75986 16.1224,5.75649 13.407,3.42052 10.1825,1.41825 6.61865,-1.0184e-5 L 5.17911e-6,15.6009 C 3.56389,17.0191 7.21263,17.8534 10.8614,18.1037 Z"
       id="path19_fill" />
    <path
       d="M 16.7166,10.9289 C 17.4803,7.25813 17.65,3.58734 17.1409,-1.01839e-5 L 1.03584e-5,2.16909 C 0.509146,5.83987 1.61226,9.3438 3.22452,12.5974 c 1.95169,4.0045 4.75195,7.5919 8.23108,10.5953 1.2728,-1.8354 2.2911,-3.7542 3.2245,-5.9233 0.9334,-2.0023 1.6122,-4.1714 2.0365,-6.3405 z"
       id="path20_fill" />
    <path
       d="m 31.9877,31.5334 c 4.4969,0.3337 9.0788,-0.2502 13.406,-1.7518 3.4788,-1.1679 6.7878,-2.8364 9.8424,-5.1722 L 44.7149,11.1785 c 0,0 -0.0848,0 -0.0848,0.0834 -4.7515,3.5037 -11.1151,4.5048 -16.9697,2.169 C 21.8059,11.0117 17.9878,5.83951 17.1393,-1.01833e-5 H 17.0544 L 1.03574e-5,2.16896 C 0.509099,5.83952 1.61211,9.34323 3.22422,12.5967 c 1.95151,4.0042 4.7515,7.5914 8.23028,10.5945 2.8,2.3359 5.9393,4.338 9.503,5.8396 3.6484,1.4181 7.2969,2.2524 11.0302,2.5026 z m 7.8909,-15.8501 c -0.0849,0.0834 -0.1697,0.1668 -0.2546,0.2502 0.0849,-0.0834 0.1697,-0.1668 0.2546,-0.2502 z"
       id="path21_fill" />
  </defs>
</svg>
