<?xml version="1.0" encoding="utf-8"?>
<!-- Generator: Adobe Illustrator 19.1.0, SVG Export Plug-In . SVG Version: 6.00 Build 0)  -->
<svg version="1.1" id="Layer_1" xmlns="http://www.w3.org/2000/svg" xmlns:xlink="http://www.w3.org/1999/xlink" x="0px" y="0px"
	 viewBox="-440 340.5 113.3 119.3" style="enable-background:new -440 340.5 113.3 119.3;" xml:space="preserve">
<style type="text/css">
	.st0{opacity:0.93;fill:#B15DA0;}
	.st1{opacity:0.6;fill:#663B8E;}
	.st2{opacity:0.53;fill:#3C7384;}
	.st3{opacity:0.71;}
	.st4{opacity:0.26;fill:#80569E;}
	.st5{opacity:0.88;}
	.st6{opacity:0.36;fill:#663B8E;}
	.st7{opacity:0.36;fill:#663C8D;}
	.st8{opacity:0.64;fill:#663B8E;}
</style>
<path class="st0" d="M-330.6,410.7C-330.6,410.7-330.6,410.7-330.6,410.7c-10.4-4.3-15.3-16.2-11-26.5c1.4-3.4,3.7-6.2,6.4-8.3l0,0
	l-12.4-16.1c-3.4,2.6-6.5,5.8-9,9.5c-1.5,2.2-2.8,4.6-3.8,7.1c-1.1,2.5-1.8,5.1-2.3,7.7c-1.7,8.8-0.4,17.8,3.4,25.6
	c2.4,4.8,5.7,9.1,9.8,12.7c3.2,2.8,7,5.2,11.2,6.9l0,0L-330.6,410.7C-330.6,410.7-330.6,410.7-330.6,410.7z"/>
<path class="st1" d="M-396.4,361.5c-1.9-3.9-3.2-8.2-3.8-12.5l0,0c0.5,3.4,0,7-1.4,10.4c-4.3,10.3-16.2,15.2-26.5,10.9l0,0
	l-7.8,18.7c4.2,1.7,8.5,2.7,12.8,3c5.4,0.4,10.8-0.4,15.9-2.1c8.2-2.8,15.5-8.2,20.5-15.7C-390.8,370.6-394.1,366.3-396.4,361.5z"/>
<path class="st2" d="M-330.6,410.7C-330.6,410.7-330.6,410.7-330.6,410.7c-4.2-1.7-8.5-2.7-12.8-3c-5.5-0.4-10.9,0.4-15.9,2.1
	c-8.2,2.8-15.5,8.2-20.6,15.7c-1.5,2.2-2.8,4.6-3.8,7.1c-1.1,2.5-1.8,5.1-2.3,7.7c-0.9,4.4-1,8.8-0.4,13.1l20.1-2.6l0,0
	c-0.5-3.4,0-7,1.4-10.4c4.3-10.3,16.2-15.2,26.5-10.9c0,0,0,0,0,0L-330.6,410.7C-330.6,410.7-330.6,410.7-330.6,410.7z"/>
<g class="st3">
	<path class="st4" d="M-386,440.3c-0.9,4.4-1,8.8-0.4,13.1l20.1-2.6c-0.6-4.4-1.9-8.6-3.8-12.5c-2.4-4.8-5.7-9.1-9.8-12.7
		c-1.5,2.2-2.8,4.6-3.8,7.1C-384.7,435.1-385.5,437.7-386,440.3z"/>
	<path class="st4" d="M-391,418.5c-4.2-1.7-8.5-2.7-12.8-3c-5.5-0.4-10.9,0.4-15.9,2.1c-4.2,1.4-8.1,3.5-11.6,6.2l12.4,16.1l0,0
		c5.6-4.2,13.2-5.5,20.1-2.6c7,2.9,11.5,9.2,12.4,16.1l0,0c-0.6-4.3-0.5-8.7,0.4-13.1c0.5-2.6,1.3-5.2,2.3-7.7
		c1.1-2.5,2.3-4.9,3.8-7.1C-383.1,422.6-386.8,420.3-391,418.5z"/>
</g>
<g class="st5">
	<path class="st6" d="M-403.8,415.6L-403.8,415.6c1.8-8.9,0.4-17.9-3.4-25.7c-5,1.7-10.4,2.5-15.9,2.1c-4.3-0.3-8.6-1.2-12.8-3l0,0
		c10.4,4.3,15.3,16.1,11,26.5c-1.4,3.4-3.7,6.2-6.4,8.3l0,0c0.1-0.1,0.1-0.1,0.2-0.2c-0.1,0.1-0.1,0.1-0.2,0.2l12.4,16.1
		c0,0,6.9-7,9-9.5c1.6-2.1,2.8-4.6,3.8-7.1C-405.1,420.7-404.3,418.1-403.8,415.6z"/>
	<path class="st6" d="M-423.1,392c5.4,0.4,10.8-0.4,15.9-2.1c-2.4-4.8-5.6-9.1-9.7-12.7c-3.2-2.8-7-5.2-11.2-6.9l-7.8,18.7
		C-431.7,390.7-427.4,391.7-423.1,392z"/>
</g>
<path class="st7" d="M-380.6,359.4c0.9-4.4,1.1-8.8,0.5-13.1l-20.2,2.6c0.6,4.4,1.9,8.6,3.8,12.5c2.3,4.8,5.6,9.1,9.7,12.7
	c1.5-2.2,2.7-4.5,3.8-7.1C-381.9,364.6-381.1,362-380.6,359.4z"/>
<path class="st8" d="M-362.6,384.1c5.3,0.4,10.7-0.3,15.8-2.1c4.1-1.4,8-3.4,11.6-6.2l-12.4-16.1c0,0,0,0,0,0l0,0c0,0,0,0,0,0l0,0
	c0,0-0.1,0-0.1,0.1c-5.6,4.2-13.1,5.4-20,2.6c-6.9-2.9-11.4-9.1-12.4-16.1l-0.1,0l-20.1,2.6c0.6,4.4,1.9,8.6,3.8,12.5
	c2.3,4.8,5.6,9.1,9.7,12.7c3.3,2.8,7,5.2,11.2,7C-371.3,382.8-367,383.8-362.6,384.1 M-353.3,365.1c-0.1,0.1-0.2,0.2-0.3,0.3
	C-353.5,365.3-353.4,365.2-353.3,365.1z"/>
</svg>
