<?xml version="1.0" encoding="UTF-8" standalone="no"?>
<!-- Created with Inkscape (http://www.inkscape.org/) -->

<svg
   xmlns:dc="http://purl.org/dc/elements/1.1/"
   xmlns:cc="http://creativecommons.org/ns#"
   xmlns:rdf="http://www.w3.org/1999/02/22-rdf-syntax-ns#"
   xmlns:svg="http://www.w3.org/2000/svg"
   xmlns="http://www.w3.org/2000/svg"
   xmlns:sodipodi="http://sodipodi.sourceforge.net/DTD/sodipodi-0.dtd"
   xmlns:inkscape="http://www.inkscape.org/namespaces/inkscape"
   width="1920"
   height="720"
   id="svg2"
   version="1.1"
   inkscape:version="0.92.1 r15371"
   sodipodi:docname="worldmap.svg"
   viewBox="0 0 1799.9999 675.00002">
  <defs
     id="defs4">
    <inkscape:perspective
       sodipodi:type="inkscape:persp3d"
       inkscape:vp_x="0 : 526.18111 : 1"
       inkscape:vp_y="0 : 1000 : 0"
       inkscape:vp_z="744.09443 : 526.18111 : 1"
       inkscape:persp3d-origin="372.04722 : 350.7874 : 1"
       id="perspective10" />
    <inkscape:perspective
       id="perspective2824"
       inkscape:persp3d-origin="0.49999997 : 0.33333334 : 1"
       inkscape:vp_z="0.99999995 : 0.50000001 : 1"
       inkscape:vp_y="0 : 1000 : 0"
       inkscape:vp_x="0 : 0.50000001 : 1"
       sodipodi:type="inkscape:persp3d" />
  </defs>
  <sodipodi:namedview
     id="base"
     pagecolor="#ffffff"
     bordercolor="#666666"
     borderopacity="1.0"
     inkscape:pageopacity="0.0"
     inkscape:pageshadow="2"
     inkscape:zoom="0.49497475"
     inkscape:cx="672.11125"
     inkscape:cy="670.01322"
     inkscape:document-units="px"
     inkscape:current-layer="layer1"
     showgrid="false"
     inkscape:window-width="1920"
     inkscape:window-height="1176"
     inkscape:window-x="0"
     inkscape:window-y="24"
     inkscape:window-maximized="1" />
  <metadata
     id="metadata7">
    <rdf:RDF>
      <cc:Work
         rdf:about="">
        <dc:format>image/svg+xml</dc:format>
        <dc:type
           rdf:resource="http://purl.org/dc/dcmitype/StillImage" />
        <dc:title></dc:title>
      </cc:Work>
    </rdf:RDF>
  </metadata>
  <g
     inkscape:label="Ebene 1"
     inkscape:groupmode="layer"
     id="layer1"
     transform="translate(275.17606,-376.17143)">
    <ellipse
       style="opacity:1;fill:#efefef;fill-opacity:1;stroke:none;stroke-width:1.1144985"
       id="path4485"
       cx="624.82391"
       cy="882.42145"
       rx="2700"
       ry="506.25" />
    <path
       style="fill:#97b5be;stroke-width:0.71375811;fill-opacity:1"
       d="m 329.08746,966.05821 c -4.28228,-1.60255 -5.47997,-3.17179 -4.46286,-5.84717 0.47126,-1.23948 1.37642,-2.25348 2.0115,-2.25348 0.63502,0 3.41496,1.46082 6.17765,3.24644 2.76262,1.7856 6.14074,3.65247 7.50693,4.14847 l 2.48395,0.90214 -3.0559,0.0658 c -1.68075,0.0359 -4.14655,0.22474 -5.47952,0.41808 -1.33295,0.19331 -3.66476,-0.11306 -5.18175,-0.68089 z m -9.71931,-8.22596 c -0.80636,-0.45124 -2.15063,-0.60317 -2.98723,-0.33755 -1.05371,0.33424 -1.86727,-0.16388 -2.64697,-1.62064 -0.61924,-1.15699 -1.72888,-2.31099 -2.46604,-2.56457 -1.69121,-0.58163 -5.23651,-6.3255 -7.2099,-11.68109 -0.99658,-2.70477 -2.33694,-4.57458 -3.92805,-5.47957 -2.82336,-1.60589 -3.02546,-2.33439 -0.84026,-3.02791 2.50017,-0.79344 2.96535,-5.20084 0.86087,-8.15631 -1.00437,-1.41062 -1.53296,-3.06679 -1.2303,-3.85535 0.35706,-0.93054 -0.62847,-2.5635 -3.01504,-4.99519 -3.01229,-3.0693 -3.56936,-4.1851 -3.70406,-7.41912 -0.087,-2.09368 -0.59691,-4.33476 -1.13276,-4.98035 -0.67497,-0.8133 -0.81268,-3.73244 -0.44821,-9.50363 0.39491,-6.25454 0.16493,-10.11495 -0.92345,-15.49529 -1.61615,-7.9902 -2.44174,-22.87739 -2.02184,-36.45967 0.0886,-2.89786 -0.2859,-6.87638 -0.83454,-8.84109 -1.33606,-4.78455 -7.4832,-10.8239 -15.08055,-14.81621 -5.43389,-2.85534 -6.19798,-3.58741 -8.32218,-7.97321 -1.28641,-2.65618 -3.74486,-6.62573 -5.46338,-8.82152 -1.71839,-2.19567 -3.58667,-5.42014 -4.15184,-7.16543 -1.79351,-5.53965 -4.95527,-11.10549 -7.11055,-12.5178 -1.14694,-0.75153 -2.45509,-2.70566 -2.90701,-4.34267 -0.73137,-2.64856 -0.53848,-3.38795 1.75052,-6.71527 2.48224,-3.60781 2.51153,-3.75482 0.8341,-4.19357 -4.12177,-1.0778 -2.38834,-6.58693 5.01009,-15.92296 4.9173,-6.20503 6.35782,-10.9321 4.99562,-16.39316 -0.51905,-2.08111 -0.98384,-4.25794 -1.03281,-4.83763 -0.0486,-0.57953 -0.41864,-1.05371 -0.82137,-1.05371 -0.40263,0 -0.32524,-0.76028 0.17223,-1.68964 0.7663,-1.43195 0.57263,-1.84076 -1.26891,-2.67981 -2.68402,-1.22288 -6.73675,-0.0122 -6.75238,2.01439 -0.0166,2.43229 -1.08843,2.61146 -4.61526,0.77319 -1.88887,-0.98458 -3.85094,-1.79014 -4.36008,-1.79014 -0.50904,0 -2.48895,-1.34683 -4.39973,-2.99277 -1.91082,-1.64608 -3.94839,-3.3681 -4.52786,-3.82665 -0.5796,-0.45874 -1.05383,-1.70866 -1.05383,-2.77759 0,-1.069 -0.74443,-2.61732 -1.65426,-3.44074 -0.9098,-0.82342 -2.08877,-2.81387 -2.61999,-4.42326 -0.6981,-2.11523 -1.22084,-2.67106 -1.88635,-2.00552 -1.38881,1.38877 -3.44506,1.12497 -8.43578,-1.08213 -2.60913,-1.15395 -5.32737,-3.12449 -6.41305,-4.64924 -1.03639,-1.45555 -3.01663,-3.23194 -4.40045,-3.9475 -2.28359,-1.18095 -2.85456,-1.17189 -6.18102,0.0984 l -3.66512,1.39968 -11.24471,-5.44884 c -6.91688,-3.35178 -12.28503,-6.54897 -13.94772,-8.30734 -2.57791,-2.72636 -2.66148,-3.02243 -1.80359,-6.40198 0.78588,-3.09602 0.65236,-4.05379 -1.05678,-7.58471 -1.0759,-2.22279 -3.42683,-5.63673 -5.22403,-7.5867 -1.79732,-1.94991 -3.0637,-3.87565 -2.81406,-4.27931 0.24941,-0.40374 -1.01658,-3.1247 -2.81347,-6.04658 -2.04122,-3.31939 -3.48196,-6.87499 -3.8398,-9.47707 -0.45885,-3.33569 -0.99339,-4.3562 -2.68556,-5.12739 -1.79392,-0.8171 -2.29554,-0.71303 -3.32264,0.6901 -1.4465,1.97616 -1.03528,4.06244 2.16322,10.9746 1.29982,2.80889 2.64307,6.97283 2.9851,9.25319 0.34196,2.28042 1.35202,5.57773 2.2446,7.32726 2.11407,4.14399 0.74903,4.07092 -2.58484,-0.13839 -1.96632,-2.48273 -2.4974,-3.8443 -2.10666,-5.40127 0.41727,-1.6624 0.006,-2.46298 -2.03724,-3.97416 -3.09951,-2.29167 -3.75552,-3.76996 -2.61696,-5.89735 0.66392,-1.24058 0.35954,-2.60108 -1.32659,-5.92847 -1.71232,-3.3792 -2.07056,-5.0162 -1.6466,-7.52543 0.69305,-4.10206 -1.14723,-7.81472 -4.57819,-9.23581 -1.98085,-0.82048 -2.66363,-1.73838 -3.06729,-4.12302 -0.28556,-1.68707 -0.8325,-4.29738 -1.2153,-5.8007 -0.39834,-1.56352 -0.36939,-2.93501 0.0674,-3.20509 0.4201,-0.25966 0.14527,-1.41629 -0.61082,-2.57019 -1.11361,-1.6995 -1.1898,-2.50382 -0.40145,-4.23422 0.53532,-1.17483 0.73735,-2.51796 0.44905,-2.98448 -0.28844,-0.4666 0.43023,-1.86068 1.59681,-3.09807 1.16673,-1.23733 2.71989,-3.70519 3.45156,-5.48392 0.73183,-1.77884 2.98658,-5.07628 5.01081,-7.32774 2.02434,-2.2515 4.5905,-6.19541 5.70286,-8.76414 1.54387,-3.56579 2.44884,-4.67401 3.82543,-4.685 0.99161,-0.007 1.75038,0.45979 1.68601,1.03933 -0.26838,2.41518 1.6412,1.67111 3.78631,-1.47525 1.26426,-1.85443 1.94643,-3.49845 1.51592,-3.65298 -0.43057,-0.15456 -0.78294,-0.85223 -0.78294,-1.55033 0,-0.69841 -1.74512,-2.96585 -3.87808,-5.03868 -3.53777,-3.43815 -3.76501,-3.89429 -2.58853,-5.19409 0.95298,-1.05303 1.06509,-1.82589 0.4295,-2.96163 -1.11697,-1.99596 0.64551,-6.46574 2.55666,-6.48374 0.78937,-0.007 1.01468,-0.27614 0.53,-0.63214 -1.08729,-0.79899 -1.57987,-2.61303 -1.42718,-5.25583 0.24397,-4.22116 -0.67971,-5.9868 -3.81799,-7.29807 -1.69277,-0.70723 -4.27563,-2.19966 -5.73987,-3.31646 -1.46412,-1.11674 -3.32172,-2.0305 -4.12806,-2.0305 -0.80633,0 -4.47132,-0.7674 -8.14444,-1.70511 -5.90544,-1.50788 -6.94632,-1.56736 -8.99196,-0.51457 -4.23945,2.1819 -8.73087,3.07127 -10.562,2.09132 -1.37343,-0.73517 -2.87223,-0.28121 -8.09897,2.45271 -3.527367,1.84505 -7.741147,3.64115 -9.363887,3.99105 -1.62293,0.35001 -4.72846,1.53221 -6.90141,2.6271 -6.16359,3.1058 -14.99302,6.23644 -17.43516,6.18217 -1.57623,-0.0345 -0.5107,-0.72619 3.68294,-2.38937 7.12716,-2.82632 14.45073,-6.50694 15.12813,-7.60303 0.83436,-1.34995 -0.97678,-1.83432 -3.15225,-0.84305 -1.60179,0.72976 -2.58879,0.66143 -4.43716,-0.30687 l -2.37718,-1.24562 2.58594,-1.33713 c 2.92309,-1.51163 3.84263,-3.2219 3.17097,-5.89784 -0.65047,-2.5916 2.93594,-4.49575 10.6619,-5.66101 4.1513,-0.62612 7.307097,-1.66813 9.431747,-3.11452 3.74685,-2.55059 3.10311,-4.47828 -0.93656,-2.80494 -1.912317,0.79215 -3.305227,0.80077 -6.137437,0.0377 -3.44166,-0.92671 -3.56433,-1.05897 -2.02477,-2.18466 2.57589,-1.88356 7.903337,-3.01652 11.403687,-2.42513 2.21489,0.37418 4.02928,0.11175 5.89125,-0.85076 l 2.69065,-1.39132 -1.77117,-1.88537 c -0.9742,-1.03698 -1.77127,-2.10828 -1.77127,-2.38084 0,-0.78211 5.0749,-2.3463 7.61243,-2.3463 1.26665,0 4.73874,-0.91692 7.71591,-2.03746 2.97713,-1.12062 9.84596,-2.65056 15.26395,-3.39985 8.78745,-1.21516 10.64816,-1.23005 17.23747,-0.1374 4.06272,0.67354 9.66283,1.47704 12.44474,1.7854 2.78188,0.30836 7.70577,1.28702 10.94199,2.17497 7.51627,2.06211 12.41173,2.03693 20.80868,-0.1068 3.70777,-0.94667 7.45541,-1.49473 8.32782,-1.21786 0.87243,0.27696 2.35591,0.091 3.2965,-0.41174 1.29608,-0.69359 2.30114,-0.60979 4.15036,0.34647 1.67068,0.86396 3.73292,1.11063 6.54076,0.78217 2.96241,-0.3466 5.55619,0.0109 9.34302,1.29275 2.88314,0.97488 6.08533,1.77247 7.11584,1.77247 1.82552,0 1.83166,0.0309 0.23733,1.20427 -1.5634,1.15046 -1.56784,1.23093 -0.0996,1.79965 0.84512,0.32754 3.77869,0.3611 6.51912,0.0745 4.94915,-0.5173 4.99195,-0.50273 6.37192,2.16599 l 1.38941,2.68677 1.8035,-2.26181 c 1.03638,-1.2998 3.49928,-2.77216 5.79031,-3.46162 3.46257,-1.04221 4.51342,-1.03863 7.99107,0.0258 2.45494,0.75177 5.39308,1.02565 7.59365,0.70795 2.80212,-0.40489 4.10314,-0.15284 5.93136,1.14897 2.30807,1.64355 2.37197,1.64439 4.41912,0.0568 1.14237,-0.88538 3.49322,-2.00434 5.22399,-2.48656 4.1436,-1.15444 5.5489,-3.61449 3.06054,-5.35723 -1.75969,-1.23281 -1.68276,-1.32678 2.94292,-3.59539 3.44969,-1.69176 5.00311,-2.07609 5.67561,-1.40369 0.67232,0.67234 0.66546,1.412 -0.0242,2.70229 -1.17688,2.1991 0.28814,5.52325 2.12383,4.81888 0.65989,-0.25321 1.75453,-0.24751 2.43257,0.0111 1.065,0.40853 1.04798,0.75514 -0.12528,2.54552 -3.24126,4.94692 4.02531,3.54539 8.94469,-1.72506 1.99995,-2.14277 5.09884,-2.79249 8.00333,-1.67801 1.87574,0.71992 1.69999,1.30929 -1.40631,4.71527 -3.70175,4.05908 -5.59612,4.88925 -11.15616,4.88925 -2.6873,0 -5.8596,0.58207 -7.33781,1.3465 -2.04617,1.05809 -3.04395,1.14587 -4.65778,0.41074 -3.00879,-1.37109 -4.05627,-0.22986 -1.898,2.06761 l 1.84233,1.96087 -3.6756,1.04333 c -2.02165,0.57394 -5.38271,1.09874 -7.46922,1.16655 -3.02568,0.0974 -3.79456,0.42678 -3.79923,1.62278 -0.004,1.02356 -1.47607,2.10055 -4.63652,3.39248 -10.24078,4.186 -18.92782,11.7336 -15.78269,13.71238 0.58932,0.37081 1.52487,1.70694 2.07884,2.96914 0.63801,1.45356 1.86785,2.46724 3.35422,2.76498 1.29081,0.25828 4.62309,1.59056 7.40491,2.96052 2.78192,1.36988 6.19606,2.73882 7.58707,3.0419 3.82936,0.83463 3.86287,0.92247 2.07936,5.44725 -1.52586,3.87116 -1.55664,4.42342 -0.37416,6.71013 0.70865,1.37043 1.75296,2.47823 2.3206,2.46189 2.76223,-0.0797 5.35228,-2.62921 6.96153,-6.85196 1.53405,-4.0248 2.23297,-4.77554 6.63549,-7.12694 6.49749,-3.47052 9.19943,-6.88856 8.47944,-10.72659 -0.46902,-2.50014 -0.22545,-3.08669 1.9145,-4.61032 1.34842,-0.96026 3.13387,-3.25838 3.96742,-5.10705 1.86337,-4.13213 4.85761,-5.56458 9.90666,-4.73915 4.47765,0.73201 9.77298,3.57493 10.41255,5.59013 0.2626,0.82725 0.0439,2.31298 -0.48455,3.30137 -0.80127,1.49736 -0.64995,2.12957 0.90651,3.78627 l 1.8684,1.98894 3.05105,-1.58168 c 1.67812,-0.86977 4.36763,-2.56667 5.97684,-3.7708 l 2.92579,-2.18919 0.68744,1.8582 c 0.37806,1.0219 0.48534,2.38448 0.23842,3.02775 -0.24683,0.64369 -0.0541,1.90623 0.42673,2.80612 0.5418,1.01231 0.5839,2.15744 0.11024,3.0033 -0.53375,0.95375 -0.17706,2.40235 1.17978,4.79102 1.94366,3.42196 1.94381,3.42477 0.23687,4.62019 -2.24597,1.57318 -0.8049,3.24153 1.66023,1.92232 2.4484,-1.31027 5.25089,-1.13989 6.97935,0.42433 2.55493,2.31228 0.4303,5.07851 -6.35148,8.26914 -7.3765,3.47045 -10.6642,4.1579 -20.29242,4.24305 -7.10962,0.0624 -8.05112,0.28959 -14.96325,3.6032 -4.05688,1.94479 -7.37619,3.86969 -7.37619,4.27752 0,1.73947 1.27834,1.58812 6.18287,-0.73208 2.88971,-1.36715 6.61448,-2.45934 8.38851,-2.45967 3.03022,-5.6e-4 3.14072,0.0924 2.19447,1.86124 -0.54803,1.02398 -1.73023,2.4561 -2.62702,3.18224 -1.40986,1.1417 -1.49247,1.62365 -0.60995,3.56069 1.32365,2.90499 4.78025,4.30267 8.91486,3.6051 l 3.26773,-0.5513 -2.51253,1.73342 c -1.38193,0.95335 -3.65794,1.98071 -5.05801,2.28307 -1.40001,0.30232 -4.27723,1.42221 -6.39399,2.4886 -2.14857,1.08241 -4.30727,1.65523 -4.88708,1.2969 -1.33412,-0.82458 0.0737,-2.06151 4.40848,-3.87259 3.85503,-1.61061 3.2388,-3.32177 -0.91568,-2.54243 -1.61824,0.30361 -6.86559,2.28017 -11.66083,4.39219 -7.48458,3.29688 -8.79033,4.16735 -9.22609,6.15141 -0.53555,2.43849 -2.3629,3.59194 -8.78745,5.54653 -2.04945,0.62348 -4.70489,2.13032 -5.90106,3.34853 -1.19609,1.21808 -3.48632,3.04196 -5.08944,4.05301 -1.60312,1.01099 -3.13797,2.78227 -3.41076,3.93622 -0.44971,1.90168 -0.55428,1.94671 -1.11725,0.48185 -1.05476,-2.74502 -2.64415,-0.0611 -2.7357,4.61905 -0.0928,4.79549 -2.52447,8.06664 -7.85579,10.57159 -5.46592,2.56814 -13.24364,8.63681 -14.81963,11.56307 -1.39121,2.58345 -1.44943,3.58984 -0.5923,10.2301 0.7996,6.19481 0.75192,7.74937 -0.30046,9.78438 -0.78586,1.51969 -1.70287,2.2461 -2.46572,1.95344 -1.80875,-0.69413 -4.02126,-8.13761 -3.40119,-11.44282 0.43063,-2.2957 0.14532,-3.16563 -1.56542,-4.77284 -1.37879,-1.29542 -2.65168,-1.78787 -3.73352,-1.44449 -0.90315,0.28661 -3.45639,-0.25706 -5.67689,-1.20885 -3.40204,-1.45825 -4.4876,-1.58062 -6.91657,-0.77881 -1.64671,0.5433 -3.28288,1.83229 -3.81866,3.00817 -0.79701,1.74944 -1.3249,1.97404 -3.52631,1.50051 -1.42399,-0.30628 -3.61344,-1.08023 -4.86547,-1.71985 -3.08361,-1.57552 -4.81044,-1.46565 -8.27427,0.52604 -1.61544,0.92895 -4.91217,2.70681 -7.32598,3.95092 -2.77393,1.42966 -4.67955,3.05687 -5.17921,4.42269 -0.43474,1.18847 -1.98914,5.82115 -3.45415,10.29491 l -2.66366,8.13415 1.36047,5.25033 c 2.49974,9.64689 5.97763,12.53468 13.22409,10.98065 5.46286,-1.1716 8.74356,-3.54552 9.94947,-7.19961 0.76585,-2.3207 1.59204,-3.08782 4.06494,-3.77469 3.72181,-1.03371 5.27621,-1.07183 6.70577,-0.16464 1.17956,0.74876 0.76486,1.98053 -4.51686,13.41586 -3.62397,7.84638 -3.36309,8.54826 2.8458,7.65255 5.65672,-0.81586 10.82748,-0.18975 11.43149,1.38425 0.23552,0.61359 -0.14748,4.75424 -0.85107,9.20135 -1.25867,7.95563 -1.24962,8.13352 0.56235,11.06532 1.01284,1.63886 2.91186,3.5332 4.21994,4.20967 2.0884,1.0799 2.74349,1.07739 5.37109,-0.0179 4.1753,-1.74447 6.44274,-1.56016 9.34253,0.76012 2.31869,1.85525 2.64659,1.90762 4.46879,0.71358 1.08156,-0.70862 2.55722,-2.465 3.27895,-3.90303 1.62763,-3.24247 4.37004,-5.52157 6.67375,-5.54635 0.96231,-0.009 2.64072,-0.96712 3.72966,-2.12619 2.21151,-2.35404 6.10551,-3.12086 4.2022,-0.82755 -1.59723,1.92446 -2.51046,8.1146 -1.48096,10.03818 0.85708,1.6016 0.926,1.59238 2.48575,-0.33387 1.11062,-1.37147 1.33458,-2.25095 0.72768,-2.85783 -1.44803,-1.44803 -1.01202,-2.65136 1.68222,-4.64321 2.7972,-2.06815 4.96112,-1.8557 7.37487,0.72342 1.76979,1.89111 11.21945,4.44739 13.92773,3.76761 4.1242,-1.03503 15.26791,5.74059 19.455,11.82915 1.99363,2.89911 8.36272,5.81653 11.16344,5.11365 5.76086,-1.4459 13.65927,4.32617 15.50634,11.33183 0.55,2.0865 1.37941,4.02982 1.84303,4.31862 1.22982,0.76615 -0.61249,3.7938 -4.63989,7.62506 -2.57313,2.44774 -3.18761,3.50153 -2.46362,4.22549 0.7239,0.72382 1.91375,0.089 4.77093,-2.54433 4.15555,-3.83054 5.5423,-4.21919 7.62416,-2.13737 1.26635,1.26635 1.22737,1.52429 -0.50832,3.37195 -1.0337,1.10036 -2.47727,2.02469 -3.2078,2.05405 -0.76991,0.0303 -0.4588,0.40065 0.74019,0.87937 1.64683,0.6576 2.50594,0.47248 4.21499,-0.90837 4.45078,-3.59618 5.49742,-3.76893 9.45111,-1.56012 2.5702,1.4359 3.59969,2.52926 3.47001,3.68541 -0.36035,3.21467 0.39781,3.92661 2.62654,2.46618 1.77131,-1.16068 2.9866,-1.21578 8.91324,-0.40435 6.30417,0.86321 7.1299,1.2073 10.15445,4.23184 2.24545,2.24546 4.77133,3.7222 7.94409,4.6446 4.26027,1.23846 4.72299,1.61617 5.49563,4.48553 1.1202,4.16016 -0.19232,8.7768 -3.74208,13.16209 -1.5164,1.87318 -3.37506,4.62319 -4.13036,6.1111 -0.75531,1.48789 -2.3615,3.69348 -3.56936,4.90139 -2.04462,2.04451 -2.15837,2.55598 -1.64872,7.41071 0.99586,9.4843 -3.64356,27.17863 -8.11813,30.96273 -1.4569,1.23203 -2.70354,1.52138 -5.01367,1.16365 -1.8989,-0.29406 -3.30461,-0.10368 -3.67566,0.49608 -0.33049,0.53467 -2.1713,1.66275 -4.09071,2.50664 -1.91939,0.84391 -4.77709,2.63385 -6.35038,3.97761 -2.72292,2.32584 -2.81417,2.58345 -1.89784,5.35989 1.05657,3.20133 0.34506,6.99181 -1.91927,10.2244 -0.73198,1.04519 -1.33096,2.82325 -1.33096,3.95139 0,1.12811 -0.87952,3.22496 -1.95453,4.65957 -1.07496,1.43478 -3.14854,4.71905 -4.60816,7.29824 -3.59075,6.34593 -5.74987,7.44518 -10.95645,5.57912 -4.51845,-1.61952 -6.9278,-1.81294 -6.9278,-0.55615 0,0.47349 0.90075,1.27142 2.00152,1.77297 1.10086,0.50156 2.81646,2.54349 3.81232,4.5376 1.48299,2.96936 1.63987,4.00051 0.86688,5.69697 -1.19734,2.62779 -5.77587,4.83428 -10.03158,4.83428 -3.76931,0 -4.70437,0.92196 -3.40247,3.35457 0.80365,1.50166 0.2631,3.91755 -1.29103,5.76983 -0.12593,0.15004 -1.4458,-0.3563 -2.93322,-1.1255 -3.55036,-1.83601 -4.80725,-0.66644 -3.01293,2.80356 0.72992,1.41137 2.1176,2.81703 3.0838,3.12362 1.66075,0.52712 1.6787,0.64392 0.32855,2.13589 -0.78645,0.86899 -1.19438,2.18781 -0.90786,2.93461 0.30799,0.80256 -0.37887,2.53553 -1.68211,4.24426 -2.11854,2.77746 -2.14871,2.9701 -0.79062,5.04281 0.77662,1.18527 1.98803,2.37599 2.69195,2.64611 2.53869,0.97421 2.95957,4.30278 1.02377,8.09734 -1.9394,3.80137 -2.23699,7.61264 -0.73573,9.42153 1.36454,1.64418 -3.22733,4.84763 -5.29219,3.69216 z M 257.24018,592.72108 c 2.25238,-4.7067 6.44377,-8.21205 9.81912,-8.21205 2.42958,0 2.45823,0.3942 0.23376,3.22217 l -1.74924,2.22369 1.79466,1.45328 c 1.44598,1.17085 2.19205,1.27206 3.84054,0.52094 1.1251,-0.51254 2.27851,-1.66534 2.56291,-2.56155 0.38702,-1.21943 1.0164,-1.50415 2.50061,-1.13159 1.37398,0.34469 2.23416,0.0492 2.79952,-0.9607 1.7129,-3.06073 -2.64612,-6.97517 -5.855,-5.25784 -2.29603,1.2288 -5.29579,-1.2159 -4.6555,-3.79412 0.23727,-0.95561 -0.25098,-2.61863 -1.09635,-3.73452 -1.74246,-2.29979 -4.39329,-2.5419 -10.19503,-0.93148 -2.08643,0.57927 -4.46547,1.02718 -5.28689,0.99541 -0.82149,-0.0313 -1.27332,0.29867 -1.00406,0.73422 0.26926,0.4356 0.18256,0.80045 -0.19252,0.81067 -0.37513,0.009 -1.62602,0.74416 -2.77977,1.63055 l -2.09772,1.61167 2.35594,0.89569 c 1.84142,0.70015 2.92709,0.6002 4.97275,-0.45759 2.40398,-1.24314 2.84929,-1.24245 5.47284,0.008 1.58042,0.75368 3.73805,1.1406 4.83081,0.86631 1.08606,-0.27256 2.20736,-0.11915 2.49176,0.34098 0.29062,0.47027 -0.89691,1.07549 -2.71197,1.38217 -4.93367,0.83354 -7.49674,2.88793 -11.07531,8.87679 -2.98897,5.0024 -3.16038,5.60569 -1.96895,6.92793 1.16892,1.29747 1.49171,1.31797 3.09526,0.19646 0.98472,-0.68875 2.73865,-3.2339 3.89783,-5.65619 z m 15.31585,5.20348 c 3.00092,-1.53102 3.28958,-1.91545 2.232,-2.97309 -1.05748,-1.05745 -1.72577,-0.9886 -5.16621,0.53328 -4.03966,1.78702 -5.32166,4.19832 -2.23208,4.19832 0.9458,0 3.27058,-0.79142 5.16629,-1.75851 z m 14.94725,-6.36994 c 1.75599,-1.22987 1.82099,-1.47121 0.58278,-2.16414 -1.82313,-1.02019 -7.24184,0.73767 -7.24184,2.34928 0,1.66061 4.19036,1.54409 6.65906,-0.18514 z m 63.30983,364.04263 c 0,-0.37093 0.45522,-1.12963 1.01155,-1.68617 0.5564,-0.55628 0.6931,-1.0115 0.30372,-1.0115 -0.38928,0 -1.16276,0.62204 -1.71881,1.38235 -0.79825,1.09173 -1.34967,1.1857 -2.62191,0.44727 -0.9093,-0.52789 -1.13041,-0.94655 -0.50749,-0.96101 0.60684,-0.0128 0.86899,-0.40507 0.58241,-0.86861 -0.55026,-0.89059 0.89629,-1.13314 5.05802,-0.84884 3.71441,0.25386 4.08788,0.79619 1.79203,2.60198 -2.1387,1.6823 -3.89952,2.10877 -3.89952,0.94453 z m 704.01539,-21.15701 c -2.4122,-1.52806 2.6102,-4.90224 15.0625,-10.11932 3.4767,-1.4569 8.7767,-4.50366 11.7756,-6.77073 5.0995,-3.855 5.5223,-4.02201 6.5328,-2.57922 1.5342,2.19036 0.6299,3.77571 -3.1167,5.46534 -1.7908,0.80732 -4.0423,2.37227 -5.0029,3.4777 -0.9608,1.10522 -2.5071,2.00971 -3.4369,2.00971 -0.9289,0 -3.1125,1.2775 -4.8525,2.83902 -5.9563,5.34504 -13.5005,7.87029 -16.9619,5.6775 z m -58.99727,-10.95132 c -0.876,-0.55499 -0.9254,-1.12653 -0.2102,-2.46069 0.5107,-0.95571 0.9294,-2.92633 0.9294,-4.37903 0,-2.37472 0.1916,-2.57388 1.8966,-1.97399 1.0434,0.36699 3.22457,0.71681 4.84717,0.77746 1.6231,0.0597 3.2442,0.16533 3.6018,0.23254 1.3977,0.26231 -2.3362,4.51314 -5.6919,6.47943 -3.99607,2.34197 -3.83127,2.30135 -5.37287,1.32428 z m 97.41197,-7.37178 c -0.2939,-0.2933 0.4001,-1.26843 1.5429,-2.16697 1.7206,-1.35307 1.9204,-1.9247 1.1694,-3.33015 -1.0885,-2.03347 0.528,-4.2156 4.2719,-5.76626 2.9001,-1.20126 3.6302,-3.63923 2.853,-9.52272 -0.5353,-4.04756 -0.4702,-4.30013 0.8338,-3.2214 1.0244,0.84696 1.2777,1.91394 0.9111,3.86011 -0.4005,2.13305 -0.036,3.24155 1.7385,5.35565 1.9223,2.28425 2.4932,2.53208 3.9889,1.73198 1.4894,-0.79744 1.6652,-0.72475 1.1951,0.49766 -0.3027,0.7873 -0.5503,1.5803 -0.5503,1.76232 0,0.18212 -1.2321,0.96221 -2.7396,1.73376 -1.5061,0.77164 -4.4459,2.81227 -6.5325,4.53495 -3.3931,2.8011 -6.8846,5.0645 -7.813,5.0645 -0.1846,0 -0.5765,-0.24004 -0.8692,-0.53343 z m -89.144,-10.88767 c -1.7751,-1.8895 -2.1031,-1.96233 -3.8092,-0.8448 -2.17257,1.42401 -6.25687,0.59187 -9.52927,-1.94206 -1.7466,-1.3517 -1.8678,-1.78733 -0.9676,-3.46986 0.7685,-1.4359 0.7935,-2.44243 0.093,-3.96487 -0.5113,-1.12231 -0.9298,-2.78134 -0.9298,-3.68694 0,-2.04255 -1.3259,-2.13985 -2.4239,-0.17795 -0.4519,0.80737 -1.063,1.22662 -1.3582,0.93133 -0.2957,-0.29508 0.6812,-1.92367 2.1693,-3.61896 3.6629,-4.17198 2.2335,-5.3045 -2.6047,-2.06401 -2.0847,1.39631 -3.926,2.92166 -4.0908,3.38981 -0.1656,0.46803 -1.1671,-0.97665 -2.2269,-3.21052 -1.1491,-2.4223 -3.1329,-4.85648 -4.9162,-6.03096 -2.6787,-1.76472 -3.5863,-1.91004 -8.7327,-1.39785 -7.5458,0.75104 -14.8263,2.6117 -19.5918,5.00713 -2.1661,1.08902 -6.3929,2.20368 -9.65263,2.54571 -3.18964,0.33472 -8.26226,1.53558 -11.27259,2.66865 -4.6037,1.73278 -5.91406,1.91477 -8.24655,1.14493 -3.12896,-1.03263 -4.42854,-3.16095 -2.40445,-3.93778 0.73289,-0.28122 2.06295,-2.21565 2.95593,-4.29871 1.42939,-3.33459 1.50838,-4.37283 0.66077,-8.6813 -0.70132,-3.56459 -0.72076,-6.93975 -0.0718,-12.42745 0.48995,-4.1436 0.67736,-8.34956 0.41668,-9.3468 -0.26072,-0.99717 0.14665,-3.4382 0.90525,-5.42463 1.33748,-3.50236 1.66153,-3.73126 10.70544,-7.56185 5.1293,-2.17249 10.37955,-3.95004 11.66745,-3.95004 3.4843,0 7.7992,-3.31513 10.1779,-7.82012 1.4701,-2.78421 2.4896,-3.84354 3.3718,-3.50268 2.4625,0.95164 2.9488,0.76473 2.759,-1.06065 -0.1219,-1.17417 0.3824,-2.02813 1.3861,-2.34672 0.8678,-0.27542 2.4716,-1.81048 3.5638,-3.41109 1.1184,-1.63867 3.4175,-3.48512 5.2618,-4.22557 3.0773,-1.23565 3.3841,-1.21724 5.0584,0.30435 3.0887,2.80741 5.2771,3.62703 6.3223,2.36736 0.5085,-0.61236 0.6833,-1.35463 0.389,-1.64924 -0.9651,-0.965 3.4499,-6.50516 5.6079,-7.03724 1.1595,-0.28573 3.5391,-1.23674 5.2884,-2.1133 2.7284,-1.36667 3.688,-1.4574 6.7439,-0.6368 6.59097,1.76947 6.80907,2.05893 4.35817,5.76323 -3.15317,4.76383 -2.31627,6.62672 5.4159,12.06962 3.5702,2.51279 6.9406,4.41907 7.4898,4.236 0.5493,-0.18299 2.2859,-2.10712 3.8585,-4.27572 2.1438,-2.95534 2.9757,-5.10428 3.3192,-8.57935 0.4875,-4.93654 2.8487,-11.80205 4.0592,-11.80205 0.4001,0 1.3178,2.03033 2.0391,4.51163 0.7212,2.48146 2.2332,5.37731 3.3597,6.4352 2.6313,2.47268 4.1606,9.38642 2.9793,13.47145 -0.7841,2.70667 -0.6325,3.14104 2.0513,5.90111 1.5927,1.63839 4.1131,5.63449 5.5995,8.88005 1.4868,3.24549 4.1675,7.83778 5.9567,10.20484 l 3.2539,4.30376 -0.9255,6.64947 c -0.6703,4.82394 -1.7091,8.03943 -3.7833,11.71314 -3.1779,5.62727 -7.9284,10.99698 -10.4322,11.79182 -0.9016,0.28572 -2.9868,2.39783 -4.6363,4.69357 -1.65,2.29574 -3.37,4.17392 -3.8245,4.17392 -0.453,0 -2.3809,1.97003 -4.284,4.37784 -3.175,4.01584 -3.7598,4.38353 -7.0666,4.44567 -2.5391,0.0471 -4.482,0.73614 -6.5663,2.32579 l -2.9605,2.25799 z M 593.03677,887.50523 c -1.78528,-1.78527 -2.08362,-2.69843 -1.68457,-5.15708 0.37546,-2.31388 0.0157,-3.6747 -1.58583,-6.03476 -1.13877,-1.67594 -2.07047,-3.45964 -2.07047,-3.96367 0,-0.50413 -1.49078,-2.91452 -3.31273,-5.35653 -2.81598,-3.77433 -3.39459,-5.28235 -3.85898,-10.05757 -0.81927,-8.42579 -3.50969,-17.54568 -7.1259,-24.15593 -1.77776,-3.24969 -3.48547,-7.46902 -3.795,-9.37641 -0.65863,-4.05841 0.98938,-10.09887 4.75207,-17.41747 l 2.50293,-4.86843 -1.40643,-4.23442 c -0.78673,-2.36874 -1.17115,-5.17167 -0.87241,-6.36197 0.3496,-1.393 -0.0252,-3.0524 -1.08839,-4.80668 -0.89235,-1.47344 -2.21746,-4.76558 -2.94473,-7.31557 -0.97141,-3.40612 -2.32557,-5.62079 -5.10307,-8.34584 -5.34275,-5.24187 -6.03736,-7.30551 -4.37921,-13.00942 3.37549,-11.61141 -0.2711,-18.38356 -9.17971,-17.04765 -3.46848,0.52011 -3.60112,0.4553 -4.09126,-1.99517 -0.3761,-1.88001 -1.39492,-2.98599 -3.95378,-4.29144 -3.32493,-1.6962 -4.74808,-1.70262 -8.83091,-0.0392 -0.92718,0.37765 -4.72078,1.68656 -8.42995,2.90853 -5.57729,1.83752 -7.25189,2.07467 -9.67977,1.37053 -2.2998,-0.66705 -4.23705,-0.49446 -8.94345,0.79678 -4.86324,1.33425 -6.62608,1.47745 -9.25382,0.75198 -5.48311,-1.51407 -14.9033,-10.0048 -16.24321,-14.64059 -1.03693,-3.58743 -7.48568,-11.94817 -9.68038,-12.55055 -1.39479,-0.3827 -1.56632,-0.67915 -0.71232,-1.23028 0.859,-0.55434 0.70938,-0.83488 -0.63223,-1.18564 -2.13043,-0.5571 -2.34239,-2.29827 -0.28199,-2.31631 1.2607,-0.01 1.29138,-0.13165 0.21071,-0.83007 -0.79642,-0.51472 -0.88492,-0.82189 -0.23913,-0.83018 0.66942,-0.007 0.41463,-1.04778 -0.73429,-2.99497 -1.61692,-2.74056 -1.65059,-3.10259 -0.41528,-4.46763 3.77151,-4.16744 4.59794,-13.14045 1.73083,-18.79386 -1.36865,-2.69882 -0.48854,-6.42687 2.43222,-10.30272 1.09972,-1.4592 3.24682,-5.00986 4.77126,-7.89043 2.66667,-5.03886 8.611,-12.04418 10.21981,-12.04418 1.78038,0 7.52452,-6.17542 7.52452,-8.08951 0,-4.32125 2.58374,-8.62984 6.79593,-11.33276 2.26341,-1.45242 4.91564,-3.93585 5.89391,-5.51875 2.00103,-3.23771 2.28437,-3.34329 4.6148,-1.71916 0.91456,0.63737 3.18708,1.41452 5.05002,1.72701 2.84132,0.47674 4.19977,0.13367 8.42995,-2.1287 7.27894,-3.89285 11.77716,-4.86502 20.1058,-4.34543 5.49317,0.34274 7.96584,0.12356 10.6286,-0.9417 3.92109,-1.569 7.311,-0.64054 6.39327,1.75101 -0.27577,0.71875 -0.10701,1.78154 0.37425,2.36183 0.60611,0.73025 0.60141,1.77656 -0.0134,3.3986 -0.7747,2.03759 -0.6028,2.64424 1.31659,4.6477 1.21419,1.26736 3.38823,2.54028 4.83125,2.82892 6.77486,1.35505 8.70134,2.23253 10.10039,4.60095 1.02482,1.73495 2.36863,2.62558 4.58989,3.04231 1.7275,0.32408 4.23588,1.15543 5.57428,1.84757 2.27282,1.1754 2.5673,1.13252 4.46275,-0.64807 1.27413,-1.19709 1.85216,-2.4645 1.55319,-3.40626 -0.26181,-0.82491 -0.0623,-2.27295 0.44339,-3.21764 1.30422,-2.4371 5.00722,-2.19796 10.78924,0.69666 6.29934,3.15374 18.24524,5.40393 22.4803,4.2346 2.03709,-0.56261 3.99549,-0.56994 5.77875,-0.0199 5.82492,1.79028 8.80788,0.38899 9.6031,-4.5112 0.26405,-1.62745 0.71505,-2.95907 1.00213,-2.95907 0.5448,0 0.83013,-2.44708 0.90895,-7.79776 0.0248,-1.7386 0.43656,-3.1612 0.91319,-3.1612 0.56781,0 0.53978,-0.61052 -0.0807,-1.77072 -1.03676,-1.93714 -3.13909,-1.89295 -8.17081,0.17198 -2.38627,0.97919 -3.05035,0.93756 -5.18806,-0.32512 -2.77178,-1.63746 -5.61656,-1.88301 -6.43687,-0.55583 -0.60984,0.98695 -4.92012,0.29518 -7.25799,-1.16482 -1.67959,-1.04894 -3.24898,-4.17091 -3.24898,-6.46332 0,-0.87923 -0.85352,-2.19982 -1.89671,-2.93458 -1.61458,-1.13731 -1.70866,-1.45919 -0.63223,-2.16367 0.69541,-0.45527 2.12605,-0.62498 3.17899,-0.37729 1.34307,0.316 2.57794,-0.2129 4.1371,-1.77214 1.46728,-1.46722 3.25169,-2.27715 5.25093,-2.38325 1.66569,-0.0877 4.07829,-0.8524 5.36148,-1.6981 2.78565,-1.83562 9.11012,-1.32549 14.01702,1.13052 6.61692,3.31203 12.4934,3.11743 14.85867,-0.4925 1.23049,-1.87804 1.23726,-2.27256 0.0691,-4.05474 -0.71151,-1.08584 -4.12925,-3.58761 -7.59489,-5.55938 l -6.30137,-3.58521 1.18063,-2.28305 c 0.64929,-1.25561 0.96802,-2.49554 0.70823,-2.75531 -0.25972,-0.25971 -0.16046,-0.97171 0.22072,-1.58191 0.38112,-0.61056 0.76719,-1.5998 0.85791,-2.19852 0.19357,-1.27681 -1.16599,-0.92446 -7.86993,2.04044 -3.89186,1.72109 -4.47013,2.2485 -3.60676,3.28873 0.56544,0.68135 1.83528,1.25563 2.82169,1.2761 1.3835,0.0279 1.05587,0.42643 -1.43354,1.73986 -3.02256,1.59472 -3.35993,1.61548 -5.3251,0.32792 -1.68044,-1.10113 -1.90025,-1.61331 -1.1039,-2.57294 0.79053,-0.95252 0.67261,-1.31911 -0.57573,-1.78817 -0.8636,-0.32456 -1.97716,-1.13227 -2.47432,-1.79493 -2.41467,-3.21842 -10.07537,5.24804 -12.30337,13.59738 -1.04578,3.91892 -1.01095,4.12283 0.95778,5.6079 l 2.04306,1.54106 -3.74823,0.77293 c -2.06149,0.42515 -4.83984,0.47477 -6.17408,0.11003 -2.46226,-0.67264 -5.58255,0.34104 -5.58255,1.81358 0,0.43272 -0.57388,0.56668 -1.27525,0.29749 -0.70138,-0.26912 -1.81488,-0.041 -2.47451,0.50601 -1.02294,0.84893 -0.90713,1.54449 0.78807,4.73282 1.83642,3.45381 1.89325,3.92627 0.74779,6.22241 -1.43525,2.87708 -2.77006,2.66308 -4.7976,-0.76915 -1.41347,-2.39286 -1.40402,-2.44788 0.46616,-2.71341 2.36021,-0.33499 2.51212,-1.83739 0.22279,-2.20346 -5.22295,-0.83506 -8.00844,-3.58735 -8.00844,-7.91291 0,-3.37535 -3.12903,-7.09636 -6.92344,-8.23319 -1.97179,-0.59079 -4.11539,-1.83118 -4.76351,-2.7565 -0.64811,-0.92539 -2.54516,-2.25347 -4.21565,-2.95154 -1.67051,-0.69791 -3.54012,-1.98684 -4.15472,-2.86436 -0.88214,-1.25934 -1.46197,-1.41095 -2.75353,-0.71972 -0.89985,0.48155 -1.63614,1.41821 -1.63614,2.08127 0,2.18877 10.74493,12.09071 15.99698,14.74188 5.5688,2.81121 6.4387,3.81496 2.56953,2.96522 -3.44937,-0.75767 -4.38898,7.9e-4 -3.2092,2.59025 0.82879,1.81893 0.69321,2.37226 -0.97395,3.97414 l -1.93683,1.86116 0.44074,-2.51135 c 0.69956,-3.98627 -4.5562,-9.71226 -8.91463,-9.71226 -1.59772,0 -7.73596,-5.95429 -9.344,-9.06381 -1.71818,-3.32275 -3.63014,-3.9646 -6.33863,-2.12815 -4.08013,2.76654 -7.1394,3.70186 -10.33961,3.1612 -4.25153,-0.71828 -6.9263,0.76417 -6.24883,3.46349 0.35369,1.40919 0.1568,2.03825 -0.63788,2.03825 -0.63221,0 -2.25163,0.94792 -3.59879,2.1065 -1.34712,1.15851 -2.73944,2.10691 -3.09401,2.10749 -1.04293,9.8e-4 -3.98527,5.3274 -3.9887,7.21955 -0.003,1.80964 -3.29993,5.37519 -6.48094,7.00941 -1.01273,0.52042 -3.37038,0.94602 -5.23911,0.94602 -2.57105,0 -3.62453,0.42375 -4.32984,1.74152 -0.92366,1.72592 -0.95168,1.72209 -3.11216,-0.43836 -2.02688,-2.02707 -3.19374,-2.53438 -7.28415,-3.16711 -2.14918,-0.33246 -2.51208,-5.19731 -0.90473,-12.12822 0.68717,-2.96293 1.02452,-6.28313 0.74962,-7.37823 -0.79883,-3.18274 1.70175,-5.0595 5.88495,-4.41697 9.65937,1.48386 15.30938,1.56573 16.63381,0.24143 1.81969,-1.8197 2.64054,-7.82135 1.53,-11.18646 -0.72437,-2.19465 -1.72054,-3.092 -4.69303,-4.22723 -4.37174,-1.66958 -4.46383,-3.28459 -0.18987,-3.32755 1.6284,-0.0143 3.97756,-0.69597 5.22036,-1.51026 1.24278,-0.81436 2.61703,-1.25964 3.05391,-0.98959 1.19176,0.73646 5.7043,-1.86451 7.20299,-4.1517 0.72422,-1.10537 2.15031,-2.22218 3.16913,-2.4819 1.01882,-0.25975 3.74912,-2.2389 6.06741,-4.39837 3.28653,-3.06161 5.01106,-4.02144 7.82922,-4.35789 3.49137,-0.4168 7.00234,-3.28788 5.35405,-4.37834 -1.02441,-0.67771 -1.88034,-4.75966 -1.30978,-6.24662 0.27035,-0.70454 1.46381,-1.91796 2.6521,-2.69659 l 2.16052,-1.41563 -0.55473,3.46872 c -0.4813,3.0106 -0.35857,3.43593 0.93,3.2206 0.81649,-0.13644 2.34377,-0.72014 3.39379,-1.29701 1.599,-0.87822 1.99111,-0.83565 2.41258,0.26279 0.72245,1.8827 -1.28609,4.09633 -2.67256,2.94553 -0.7659,-0.63561 -1.25178,-0.6126 -1.67956,0.0793 -0.44131,0.71399 -0.78651,0.67523 -1.29369,-0.14543 -0.38052,-0.61562 -0.88531,-0.92587 -1.12178,-0.68928 -0.23664,0.23645 0.43745,1.51792 1.49753,2.84749 1.78715,2.24132 2.12786,2.34763 4.67481,1.45974 2.18145,-0.76044 3.22909,-0.7086 5.08617,0.25184 2.09669,1.08422 2.80458,1.03259 6.83443,-0.49866 3.53076,-1.34153 4.92237,-1.51353 6.48504,-0.80155 1.4376,0.65496 2.50259,0.6415 3.8382,-0.0479 3.79181,-1.9593 4.84222,-3.43672 4.37148,-6.14856 -0.69777,-4.01959 0.58008,-5.3363 3.94606,-4.06567 2.29027,0.86453 2.95949,0.83007 3.99459,-0.20512 1.09595,-1.09599 1.00173,-1.5008 -0.79447,-3.41264 -1.72807,-1.83951 -1.84899,-2.29683 -0.79549,-3.00764 0.68334,-0.46094 3.24412,-0.62614 5.69065,-0.36704 4.47744,0.4742 10.05707,-1.2749 9.08484,-2.84781 -0.85137,-1.3777 -5.99051,-1.77576 -10.34441,-0.80134 -3.86129,0.86411 -4.8748,0.79416 -7.83421,-0.54031 -4.59647,-2.07266 -5.13793,-4.49781 -1.98521,-8.89171 4.05791,-5.65569 4.79998,-7.45801 3.64401,-8.8509 -1.71167,-2.06244 -3.39319,-1.38996 -7.30347,2.92037 -2.06613,2.27771 -4.88171,4.60726 -6.25677,5.17673 -1.37494,0.56965 -3.07584,2.1493 -3.77966,3.51005 -1.14614,2.21651 -1.14428,2.68097 0.0151,4.45386 0.71329,1.08864 2.06572,2.22335 3.00533,2.52155 2.58601,0.82071 2.07444,2.3613 -1.6245,4.89204 -1.1376,0.77848 -2.655,2.98059 -3.37195,4.89375 -0.89844,2.3972 -2.2644,4.03307 -4.39483,5.26308 -3.00345,1.73399 -3.13982,1.74078 -4.7995,0.23878 -0.93943,-0.85016 -1.93622,-2.5843 -2.21502,-3.85357 -0.27877,-1.26917 -1.54479,-3.55096 -2.81342,-5.07057 l -2.30659,-2.7629 -2.92459,1.78279 c -1.6085,0.98067 -3.68329,1.77591 -4.61063,1.76728 -2.6751,-0.0232 -5.77199,-2.91431 -5.97932,-5.57907 -0.10281,-1.32411 -0.44704,-3.05693 -0.76464,-3.85075 -0.75536,-1.88818 3.01977,-5.42927 6.94256,-6.51252 3.93712,-1.087 11.92251,-6.68351 13.28342,-9.30943 0.60536,-1.16813 2.65629,-3.51831 4.55756,-5.22329 1.90136,-1.70475 3.45691,-3.4754 3.45691,-3.93457 0,-0.45925 1.8019,-1.47706 4.00426,-2.26182 2.20237,-0.7848 5.90105,-2.2087 8.21924,-3.16447 2.84611,-1.17304 6.40519,-1.79333 10.95898,-1.90981 7.95694,-0.20351 13.16058,0.85118 17.45417,3.53762 2.15443,1.34793 3.85476,1.80789 5.48156,1.48254 2.91054,-0.58221 18.42561,4.22683 19.07201,5.91146 0.64982,1.69322 -3.79993,3.29156 -7.6286,2.7401 -1.75343,-0.25253 -5.37991,-0.92785 -8.05871,-1.50077 -3.60634,-0.77123 -5.11677,-0.79555 -5.81856,-0.0934 -0.70178,0.70181 -0.35103,1.21971 1.35114,1.99528 1.26445,0.57625 2.84741,2.10795 3.51758,3.40411 1.7067,3.30021 7.17257,5.9905 9.99277,4.91835 2.7095,-1.03016 2.69071,-1.35515 -0.16804,-2.90605 -2.64422,-1.43456 -1.42377,-1.74463 1.89698,-0.48202 2.65148,1.00807 5.6554,-0.2461 4.95589,-2.06903 -0.32764,-0.8539 0.59359,-1.47036 3.19258,-2.13629 5.56178,-1.4251 5.96897,-1.62882 5.50754,-2.75662 -1.74484,-4.26606 -1.76935,-4.14349 0.76949,-3.85361 1.35476,0.15461 2.34445,0.73427 2.23182,1.30644 -0.11095,0.56567 0.59467,1.45518 1.5689,1.97653 1.46323,0.78319 2.6176,0.50415 6.6413,-1.60492 5.90003,-3.09273 10.49333,-4.10111 12.20629,-2.67944 0.95512,0.79265 2.53864,0.79823 7.12268,0.0236 3.242,-0.54692 6.26278,-0.76657 6.71286,-0.48852 0.45004,0.27821 1.06687,0.1031 1.37058,-0.388 0.66435,-1.07481 -1.17275,-3.51359 -2.17852,-2.89219 -1.21407,0.75044 -5.20117,-0.59383 -4.33387,-1.46109 0.87331,-0.87335 24.33354,4.59332 25.73755,5.99731 0.94651,0.94651 3.94306,-0.31604 3.94306,-1.66135 0,-0.4533 -1.6731,-1.63716 -3.71798,-2.63059 -6.34046,-3.08033 -6.74751,-8.01394 -0.78475,-9.51051 3.46055,-0.86864 4.95714,0.13342 9.74362,6.52362 6.21423,8.29621 6.05582,7.87406 4.02546,10.72531 -1.50335,2.11138 -1.59392,2.60549 -0.55086,3.00592 1.97643,0.75821 6.20623,-1.89565 6.80159,-4.26742 0.6976,-2.77935 -0.6049,-5.14781 -3.71507,-6.75614 -2.44517,-1.26454 -4.21503,-3.58142 -4.21503,-5.51794 0,-0.66014 0.91715,-0.82472 2.73977,-0.49187 2.73267,0.49918 4.99323,-0.49188 11.18163,-4.90234 1.41527,-1.0086 3.8079,-1.6734 6.22034,-1.72807 4.89344,-0.11075 6.47727,-0.93247 5.06907,-2.62923 -0.55228,-0.66533 -0.82856,-1.38533 -0.61398,-1.59992 1.07652,-1.07656 14.95484,-3.01664 18.15127,-2.53729 3.07537,0.46128 4.02745,0.2117 6.55775,-1.71815 1.62804,-1.24178 2.96009,-2.59208 2.96009,-3.00073 0,-1.03045 -7.36671,-0.93836 -8.00843,0.0993 -0.88316,1.42879 -2.02782,0.93142 -1.70571,-0.7409 0.27196,-1.41223 -0.44146,-1.64197 -6.5817,-2.12007 -16.76697,-1.30544 -18.12983,-1.61182 -16.1183,-3.62332 1.76841,-1.76847 6.10605,-1.73415 9.73657,0.0762 1.48752,0.74212 3.95164,1.34924 5.47585,1.34924 1.5242,0 3.00573,0.37937 3.29226,0.84299 0.28656,0.46368 1.76308,0.84304 3.2811,0.84304 4.20453,0 12.33346,1.81611 11.82342,2.64144 -0.24838,0.40181 0.53799,0.73063 1.74758,0.73063 1.2095,0 3.41317,0.65324 4.89694,1.4517 1.99556,1.0738 4.78291,1.46008 10.70638,1.48375 6.36725,0.0241 8.48358,0.3526 10.32679,1.59573 1.27501,0.86009 2.31278,1.80452 2.30605,2.09899 -0.006,0.29439 -1.95218,1.6056 -4.32335,2.91386 -5.72648,3.15917 -4.51565,4.53617 2.41074,2.74129 4.48636,-1.16261 5.51729,-1.16998 9.23186,-0.0667 3.04748,0.90525 4.95042,1.02152 7.01724,0.42874 2.06328,-0.592 4.18116,-0.46477 7.77469,0.46642 3.74936,0.97153 5.69263,1.07028 8.06914,0.41037 5.42317,-1.50624 12.09499,-1.08083 15.96566,1.01792 1.92396,1.04317 5.47201,2.97342 7.88449,4.28945 4.27646,2.33276 4.46262,2.35844 7.42874,1.02875 2.48278,-1.11317 3.86787,-1.20617 7.52966,-0.50617 3.63978,0.69588 4.96458,0.61106 7.01435,-0.44884 2.0054,-1.03714 2.32806,-1.54685 1.56262,-2.46917 -1.48013,-1.78348 3.77162,-2.44632 10.22431,-1.2907 2.95535,0.52919 6.70112,1.0578 8.32395,1.17428 1.62273,0.11636 4.79329,1.04112 7.04563,2.05479 3.4348,1.54618 6.02676,1.89645 16.0769,2.17247 9.53611,0.26195 12.57178,0.64356 14.87199,1.86959 2.3353,1.24436 4.9967,1.56115 13.8494,1.64732 8.145,0.0797 11.7939,0.46559 14.2098,1.50408 3.9001,1.67619 5.46,1.06134 3.337,-1.31507 -1.5263,-1.70933 -1.5173,-1.71162 4.3714,-1.12683 9.8676,0.98041 21.7038,3.13972 25.71057,4.69048 2.0868,0.80761 6.063,1.74582 8.8371,2.08516 2.7738,0.33945 6.821,1.51792 8.9944,2.61908 3.2981,1.67147 4.3701,1.85602 6.4879,1.11779 2.8969,-1.00974 4.7757,-0.28265 9.1985,3.55917 l 2.7481,2.38721 -2.071,0.51985 c -2.0782,0.5216 -7.5981,-0.84473 -9.5001,-2.35198 -0.5593,-0.44305 -1.3434,-0.60375 -1.7427,-0.35705 -0.399,0.24688 -2.3708,-0.11822 -4.3808,-0.81094 -4.7094,-1.62239 -6.801,-1.01297 -4.6559,1.35682 1.4652,1.61846 1.4327,1.65249 -1.3603,1.45766 -5.2278,-0.3646 -3.7912,1.1791 3.8826,4.17245 4.1739,1.62761 7.7666,3.13226 7.9846,3.34376 0.7916,0.76584 -1.8167,1.71521 -3.7156,1.35236 -2.0827,-0.39828 -7.2186,1.83833 -7.2186,3.14442 0,0.43356 -0.8106,1.54432 -1.8032,2.46824 -1.6567,1.54343 -1.9992,1.57858 -4.2149,0.43271 -2.0739,-1.07232 -2.7366,-1.08349 -4.7299,-0.0794 -1.275,0.64228 -3.4541,1.44124 -4.84227,1.77539 -1.3889,0.33419 -2.9965,0.99963 -3.5738,1.4786 -1.6973,1.40813 1.2948,5.50641 5.50787,7.54591 2.2943,1.11087 3.9556,2.5992 4.4498,3.98623 0.4338,1.21769 1.3517,3.21727 2.042,4.44362 1.1239,1.99879 1.1147,2.28342 -0.085,2.74687 -0.8855,0.33973 -1.1464,1.02053 -0.7605,1.98523 0.3232,0.80731 0.6879,2.41651 0.8106,3.57558 0.1234,1.1592 0.4949,2.73726 0.8265,3.50658 0.431,1.00181 0.068,1.56633 -1.2543,1.98806 -1.4787,0.46953 -2.4755,-0.0956 -4.9081,-2.78494 -1.6787,-1.85575 -4.47787,-4.41072 -6.22187,-5.6777 -1.7435,-1.26697 -4.8676,-4.56156 -6.9414,-7.3213 -3.6601,-4.86812 -3.7346,-5.08993 -2.5208,-7.43833 0.6882,-1.33137 1.2651,-3.293 1.2816,-4.3592 0.015,-1.06628 0.5515,-2.88075 1.1886,-4.03234 1.217,-2.19929 0.7487,-3.95537 -1.8547,-6.94135 -1.7089,-1.9606 -4.7494,-0.49092 -3.9822,1.92507 0.7058,2.22582 -1.4618,2.94708 -3.9539,1.31574 -1.0806,-0.70732 -3.5686,-1.54201 -5.5289,-1.85482 -3.3652,-0.53712 -3.615,-0.43382 -4.4868,1.85418 -0.5078,1.33257 -0.7213,3.43927 -0.4734,4.68146 0.3853,1.93539 0.1175,2.3315 -1.8738,2.76873 -1.3549,0.2976 -3.675,-0.0536 -5.566,-0.84453 -2.077,-0.86788 -4.0333,-1.13021 -5.4412,-0.72986 -1.2096,0.34378 -5.2978,0.65591 -9.0854,0.6936 -5.9999,0.059 -7.1558,0.32162 -8.97958,2.03459 -1.15091,1.08132 -2.5339,3.73676 -3.0733,5.90101 -0.53931,2.16418 -1.52767,4.77931 -2.19625,5.81133 -1.15564,1.78381 -1.04395,1.96409 2.25955,3.64942 3.58575,1.82939 7.49558,2.31136 10.45878,1.28933 2.2864,-0.78842 9.2604,4.64889 11.4379,8.91709 0.8919,1.74833 2.366,3.57723 3.2761,4.06428 3.4432,1.84281 4.1427,13.93373 1.2635,21.83848 -1.9938,5.47297 -4.2249,7.26252 -7.5012,6.01687 -1.2517,-0.47603 -2.4026,-0.86536 -2.5574,-0.86536 -0.1549,0 -1.0926,1.55621 -2.0842,3.4583 -1.302,2.49769 -1.5556,3.756 -0.9136,4.52965 1.2284,1.48028 0.3189,3.40565 -2.1367,4.52467 -1.1342,0.51651 -2.0615,1.30652 -2.0615,1.75528 0,0.44903 2.6378,2.63132 5.861,4.84986 4.1013,2.82234 6.2922,4.9901 7.2971,7.21891 0.7905,1.75194 1.2827,3.3246 1.0943,3.49469 -0.1886,0.17008 -1.9118,1.1002 -3.8291,2.06688 l -3.4867,1.75764 -2.0974,-4.81527 c -2.3479,-5.38926 -4.3617,-7.55662 -7.9096,-8.51148 -1.7865,-0.48075 -2.4089,-1.16249 -2.4089,-2.63856 0,-1.35309 -0.87469,-2.50295 -2.7324,-3.59128 -2.70622,-1.58575 -2.76004,-1.58388 -5.64017,0.19613 -2.88251,1.78154 -2.91563,1.78268 -3.80079,0.12874 -0.49109,-0.91764 -0.89292,-2.2491 -0.89292,-2.95869 0,-0.70964 -0.70851,-1.66942 -1.57463,-2.13292 -1.28802,-0.68947 -2.10122,-0.27295 -4.46843,2.28853 -1.59163,1.72224 -3.63079,3.55031 -4.53138,4.0625 -1.39731,0.79461 -1.47189,1.13069 -0.5086,2.29153 0.62099,0.74797 2.7646,2.27432 4.76371,3.39167 3.17956,1.77704 3.78824,1.87792 4.8603,0.80587 1.01922,-1.01929 1.84856,-1.05654 4.925,-0.22149 l 3.69941,1.00415 -2.06163,1.37804 c -3.8239,2.55574 -5.02957,3.89747 -5.57542,6.20413 -0.44783,1.89298 -0.1807,2.46238 1.51877,3.23669 1.13424,0.51679 2.85853,2.57858 3.83168,4.58174 0.97314,2.00318 2.91707,4.32007 4.3198,5.14867 3.08525,1.8225 3.9802,3.7589 2.19822,4.75622 -1.66118,0.9296 -0.86777,2.31904 1.32422,2.31904 2.62536,0 2.64056,1.56608 0.10271,10.60534 -3.0731,10.94713 -5.84737,14.59968 -13.10589,17.25499 -2.85868,1.04579 -6.33567,1.96439 -7.7266,2.04142 -3.23324,0.17897 -5.74054,1.54805 -7.928,4.32896 l -1.73628,2.20731 -0.8098,-2.12992 c -1.05646,-2.77862 -3.47903,-3.4773 -6.95629,-2.00611 -3.18653,1.34813 -5.28736,3.49802 -6.13469,6.27796 -0.75834,2.4877 1.92665,6.86327 6.37192,10.38397 3.64962,2.89054 7.74409,10.14348 8.70571,15.42121 0.8363,4.59045 -0.64546,7.60356 -4.62067,9.39607 -1.81099,0.81663 -3.50561,2.15571 -3.7659,2.97584 -0.62497,1.96939 -4.36816,4.42136 -5.05441,3.31103 -0.28596,-0.46267 -0.29709,-1.54307 -0.0232,-2.40092 0.27228,-0.85786 0.2589,-2.17517 -0.0288,-2.92752 -0.41541,-1.08247 -0.87587,-1.18001 -2.20709,-0.4675 -1.38636,0.74186 -1.92109,0.55394 -3.04051,-1.06928 -2.7512,-3.98894 -10.72509,-10.39943 -12.93581,-10.39943 -0.77847,0 -1.07865,0.93651 -0.94576,2.95056 0.10691,1.62273 -0.2235,4.78656 -0.73459,7.03073 -0.83272,3.65638 -0.74731,4.32643 0.82177,6.4487 0.9631,1.30267 1.99034,3.32194 2.2829,4.48732 0.29705,1.18357 2.73525,3.88628 5.52331,6.1226 4.64692,3.72706 5.13674,4.46288 7.09248,10.65412 1.15553,3.65776 2.10089,7.01027 2.10089,7.44991 0,1.42993 -1.76103,0.8504 -5.4361,-1.78886 -3.79929,-2.72844 -6.22588,-7.04502 -8.24933,-14.67456 -0.87863,-3.31279 -1.84215,-4.73288 -4.57583,-6.74399 -3.3526,-2.46643 -3.45395,-2.68181 -3.18372,-6.76254 0.15349,-2.31822 0.53339,-5.6042 0.84431,-7.30207 0.43769,-2.39025 0.0756,-4.10291 -1.60344,-7.58703 -1.19283,-2.47494 -2.60334,-6.27596 -3.13454,-8.4468 -1.18648,-4.84958 -2.86223,-5.66174 -5.82487,-2.82331 -1.22501,1.17357 -2.46386,2.13386 -2.75305,2.13386 -1.34173,0 -3.18513,-2.8562 -2.74293,-4.24959 0.8031,-2.53041 -4.1356,-11.35091 -7.02573,-12.54809 -1.5813,-0.65501 -3.02706,-2.24353 -3.99459,-4.38918 -1.681,-3.72783 -3.56684,-5.15426 -5.4509,-4.1231 -0.68344,0.37406 -3.41971,1.12658 -6.0804,1.67226 -4.8777,1.00041 -6.62762,2.47752 -5.95997,5.03084 0.24592,0.94015 -0.60762,1.8483 -2.65439,2.82432 -1.65917,0.79128 -3.44686,2.38263 -3.97255,3.53631 -0.52562,1.15379 -1.68307,2.3285 -2.57197,2.61071 -0.88894,0.28212 -2.26041,1.57227 -3.04781,2.86699 -0.78732,1.29472 -3.13216,3.66083 -5.21057,5.25815 -2.84475,2.18618 -3.73254,3.40925 -3.59124,4.94704 0.82649,8.9896 -0.44175,16.51092 -3.53705,20.97741 -3.01916,4.3567 -3.23126,4.47812 -5.78574,3.31424 -1.40611,-0.64061 -2.27157,-1.89177 -2.62994,-3.8019 -0.29373,-1.56589 -1.99168,-5.97773 -3.77313,-9.804 -10.77906,-23.15149 -12.37286,-27.56882 -11.45462,-31.74956 0.62061,-2.82519 -0.86815,-7.08788 -2.3067,-6.60517 -0.57674,0.19353 -1.05858,0.88826 -1.07091,1.54377 -0.0712,3.84792 -4.39458,4.43861 -7.77117,1.062 l -2.23744,-2.23733 1.92484,-0.71207 c 2.16573,-0.80121 1.96698,-2.96184 -0.23604,-2.56579 -0.78279,0.14079 -2.57444,-0.71281 -3.98147,-1.89679 -1.40704,-1.18389 -2.88288,-2.15257 -3.27972,-2.15257 -0.3968,0 -0.9636,-0.76294 -1.25956,-1.69512 -0.77704,-2.44814 -5.24894,-4.57804 -7.49013,-3.56743 -2.0169,0.90945 -20.31526,0.71939 -23.37807,-0.24268 -1.10314,-0.34649 -3.14393,-1.93257 -4.53487,-3.5246 -2.51348,-2.87664 -2.55225,-2.88807 -6.32251,-1.87175 -3.57246,0.96301 -4.09157,0.87222 -8.90357,-1.55693 -4.15809,-2.09896 -5.40386,-3.23118 -6.68743,-6.07752 -1.63778,-3.63198 -5.27491,-6.26182 -7.48643,-5.41306 -0.69653,0.26729 -1.5101,1.59514 -1.80786,2.9508 -0.42763,1.94706 0.007,3.2122 2.07527,6.02283 1.43912,1.95696 3.0072,5.00849 3.48459,6.78126 1.02528,3.80754 3.04985,4.94028 4.72816,2.64506 1.01286,-1.38513 1.28625,-1.43341 1.9719,-0.3477 0.43788,0.69323 0.67395,1.63975 0.52479,2.10341 -0.4689,1.45728 4.3959,3.85513 6.66555,3.28555 1.14707,-0.28796 3.59801,-2.24167 5.44634,-4.34156 2.91238,-3.30859 3.92928,-3.53196 3.43147,-0.75342 -0.33508,1.8698 1.13634,4.06176 3.57175,5.32076 3.76179,1.94477 9.00251,6.27687 9.00251,7.4418 0,0.53702 -0.98527,1.89612 -2.18958,3.02008 -1.20421,1.12406 -2.93744,3.50242 -3.85151,5.28528 -2.22103,4.3318 -8.65865,10.66789 -10.83857,10.66789 -2.51927,0 -6.26738,2.12758 -7.7593,4.40453 -0.70696,1.0789 -2.56514,2.60043 -4.12937,3.38146 -8.01252,4.00001 -17.65952,8.05523 -20.37446,8.5645 -2.90265,0.54453 -3.13776,0.41283 -4.67558,-2.6198 -0.89052,-1.75613 -1.90088,-5.27957 -2.24516,-7.82967 -0.4478,-3.31664 -1.31628,-5.42478 -3.05069,-7.40556 -1.33364,-1.523 -2.42474,-3.13476 -2.42474,-3.58183 0,-0.44688 -1.5212,-2.38026 -3.3805,-4.29605 -2.3157,-2.38614 -3.81203,-4.97564 -4.75002,-8.22028 -0.75309,-2.60517 -2.28578,-5.87479 -3.40592,-7.26572 -7.73651,-9.60764 -10.02755,-12.99534 -11.18079,-16.53284 -1.52851,-4.68876 -2.82115,-5.44592 -3.41767,-2.00193 l -0.42345,2.44465 -2.85193,-3.60078 c -4.39421,-5.54824 -4.94801,-3.02607 -0.82267,3.74724 1.95218,3.20519 5.06409,8.86247 6.9154,12.57162 1.85124,3.70919 4.25124,7.91797 5.33325,9.35261 1.11412,1.47723 1.96734,3.78632 1.96734,5.32411 0,3.17673 0.94768,5.1592 4.67053,9.77039 1.49728,1.85453 2.97651,4.56227 3.28717,6.017 0.39829,1.86585 2.02563,3.81686 5.5238,6.62269 5.31635,4.26405 8.76107,8.7148 9.61611,12.42409 0.32116,1.39346 1.5377,2.82375 3.0806,3.62156 2.35102,1.21569 3.17844,1.18233 10.60795,-0.42729 4.43197,-0.96026 9.12683,-2.2985 10.43291,-2.97395 l 2.37489,-1.22803 0.56363,3.33675 c 0.51245,3.03243 -0.0386,4.49278 -6.04012,16.00291 -6.45268,12.37584 -6.75451,12.7849 -13.17036,17.84999 -3.61158,2.85111 -7.39086,6.34173 -8.39855,7.75678 -1.00756,1.41514 -4.23145,5.23707 -7.16405,8.4931 -8.55858,9.50256 -9.72196,17.85995 -4.04558,29.06165 1.44176,2.84523 2.00498,4.99912 1.66315,6.36074 -0.28411,1.13227 -0.10137,3.99246 0.40492,6.35592 0.798,3.72119 0.70777,4.71622 -0.67349,7.4226 -1.99329,3.90551 -3.57893,5.30935 -9.15074,8.10141 -2.43421,1.21975 -4.42577,2.57802 -4.42577,3.0184 0,0.4404 -1.70711,2.72279 -3.79353,5.07194 -2.0864,2.34926 -3.7935,4.65308 -3.7935,5.11973 0,0.46668 0.78219,2.38142 1.73796,4.25511 2.86575,5.61737 0.9401,9.68795 -5.92914,12.53325 -2.89589,1.19956 -3.84671,3.64861 -3.13036,8.06297 0.37528,2.31294 0.13659,3.08261 -1.1739,3.784 -0.90482,0.48425 -2.54059,2.28666 -3.63508,4.00545 -3.45566,5.42692 -13.38903,15.02967 -17.90177,17.30599 -3.76554,1.89947 -4.72878,2.06691 -7.49544,1.30294 -2.43919,-0.6735 -4.40777,-0.56675 -8.49736,0.46046 -6.62437,1.66405 -5.92161,1.73288 -8.48687,-0.83237 z M 704.07158,618.62869 c 2.17621,-1.12514 2.48715,-1.74481 2.48715,-4.95464 0,-2.30132 -0.492,-4.07706 -1.32008,-4.76427 -0.72598,-0.60255 -1.90238,-2.22169 -2.61419,-3.59817 -1.17742,-2.27689 -1.17241,-2.4557 0.055,-1.98457 1.62147,0.62238 3.87869,-0.12612 3.87869,-1.28594 0,-0.45843 -0.78431,-1.93488 -1.74281,-3.28103 -1.44383,-2.0277 -2.02239,-2.29803 -3.37198,-1.57569 -1.09126,0.58401 -1.62916,0.58945 -1.62916,0.0143 0,-0.47063 -1.50473,-1.62322 -3.34383,-2.56154 -4.06966,-2.07614 -5.51791,-4.37651 -4.24853,-6.74839 0.96073,-1.79503 4.39276,-3.05293 5.85841,-2.14714 1.97606,1.22135 2.55845,-0.57891 0.92805,-2.86863 -3.95375,-5.55264 -9.459,-5.18715 -16.28649,1.0812 -4.40584,4.04508 -4.78843,5.12 -2.29658,6.45354 0.92725,0.4964 1.68593,1.46647 1.68593,2.15593 0,0.68971 1.49952,2.88059 3.33222,4.86868 4.22088,4.57921 4.99494,6.67168 4.4728,12.091 l -0.42051,4.36311 5.79156,2.97156 c 3.18531,1.63453 5.90519,2.99049 6.04405,3.01334 0.13898,0.0207 1.37193,-0.53736 2.7397,-1.24473 z m -23.22435,235.4757 c -2.38029,-1.34978 -2.71843,-2.06242 -3.34013,-7.03823 -0.49671,-3.97624 -0.2894,-4.84044 2.08921,-8.70628 2.41748,-3.9289 2.59146,-4.68576 2.05834,-8.95351 -0.76996,-6.16195 0.54046,-9.40011 4.12184,-10.18566 3.37437,-0.74032 10.67514,-7.18574 12.42452,-10.96888 l 1.33685,-2.89099 0.92911,2.03944 c 2.33781,5.1309 2.09994,7.38482 -1.96731,18.63867 -2.17619,6.02158 -4.51096,13.22429 -5.18828,16.00629 -2.16781,8.90298 -3.39943,11.04967 -6.95008,12.11355 -3.7803,1.13261 -3.41439,1.13618 -5.51407,-0.0534 z M 1096.1091,839.4483 c -2.6901,-2.94294 -4.2999,-5.46821 -4.2999,-6.74401 0,-2.82866 0.4532,-2.58171 2.8864,1.56932 1.1639,1.9848 3.2656,4.7114 4.6726,6.0586 1.4069,1.34748 2.5572,2.75835 2.5572,3.13531 0,1.62138 -1.7948,0.38142 -5.8163,-4.01922 z m -376.06234,-1.19662 c 0,-0.4636 0.3793,-0.84297 0.84293,-0.84297 0.46377,0 0.84301,0.37937 0.84301,0.84297 0,0.46379 -0.37924,0.84307 -0.84301,0.84307 -0.46363,0 -0.84293,-0.37928 -0.84293,-0.84307 z m 443.93104,-1.53776 c -0.2982,-0.48105 -0.1306,-1.12861 0.3715,-1.43893 1.2535,-0.77429 1.6966,-0.15842 0.8602,1.19433 -0.4479,0.72483 -0.8829,0.81101 -1.2317,0.2446 z m -438.03006,-1.36299 c 0,-0.20444 0.37927,-0.60624 0.84297,-0.89275 0.46369,-0.28646 0.84305,-0.11933 0.84305,0.37172 0,0.49101 -0.37936,0.89287 -0.84305,0.89287 -0.4637,0 -0.84297,-0.1674 -0.84297,-0.37184 z m 416.10716,-8.55591 c -0.8206,-2.13968 0.2215,-2.88956 2.5462,-1.83092 2.0044,0.91374 2.0481,1.05375 0.6506,2.07572 -1.9555,1.42932 -2.5721,1.38209 -3.1968,-0.2448 z m 5.3415,-3.74882 c -1.6473,-1.01804 -0.5064,-1.83114 2.1146,-1.50711 2.0542,0.25373 2.1008,0.3463 0.6338,1.25059 -0.9381,0.57766 -2.0591,0.68242 -2.7484,0.25652 z m -39.3597,-3.09366 c -1.732,-3.72774 -1.1242,-5.15968 0.6658,-1.57158 1.8637,3.73416 1.8973,3.85631 1.0207,3.84721 -0.3478,-0.003 -1.1066,-1.02766 -1.6865,-2.27563 z m 3.2282,-0.59814 c -0.032,-0.88849 0.1624,-1.38646 0.4416,-1.10635 0.2812,0.28006 0.3116,1.00708 0.058,1.61573 -0.269,0.67247 -0.4692,0.47273 -0.5096,-0.50938 z m 68.628,-8.0938 c -0.7704,-1.24807 -0.035,-1.88596 1.7607,-1.5347 1.3176,0.2571 1.3301,0.39371 0.1422,1.38 -0.9487,0.78568 -1.4855,0.8294 -1.9029,0.1547 z m -498.20262,-4.19987 c -0.28654,-0.46365 -0.1193,-0.84289 0.3717,-0.84289 0.49101,0 0.89284,0.37924 0.89284,0.84289 0,0.46359 -0.16733,0.843 -0.3718,0.843 -0.20446,0 -0.60626,-0.37941 -0.89274,-0.843 z m 370.07582,-7.92002 c -5.334,-1.68224 -7.7529,-3.24497 -9.8526,-6.36553 -2.3985,-3.56479 -6.7875,-6.26337 -9.0295,-5.5517 -0.9061,0.28775 -2.432,1.85153 -3.3901,3.47535 -1.631,2.76411 -1.9437,2.91641 -4.9084,2.3895 -1.7417,-0.3096 -4.1733,-1.50216 -5.4054,-2.65004 -1.566,-1.45934 -2.7655,-1.92047 -3.9877,-1.53257 -0.9614,0.30505 -2.3548,0.21543 -3.0954,-0.19928 -1.1589,-0.64827 -1.0452,-0.95258 0.8089,-2.16688 2.1462,-1.4069 2.1497,-1.42566 0.7087,-4.44622 -1.1568,-2.42616 -2.7527,-3.69011 -7.9719,-6.31452 -3.5888,-1.80452 -7.64647,-3.28116 -9.01677,-3.28116 -3.1352,0 -4.4292,-2.88955 -2.0683,-4.61625 1.4052,-1.02714 1.1991,-1.28247 -2.4652,-3.0628 -3.8908,-1.89057 -3.9467,-1.97055 -2.088,-3.00266 1.0504,-0.58322 2.7411,-1.07391 3.7582,-1.09044 1.9754,-0.0312 4.4741,2.81781 4.4741,5.10213 0,0.76164 0.8195,2.42686 1.82167,3.70064 1.7953,2.28242 1.841,2.29177 3.161,0.64374 0.7365,-0.91977 3.0884,-2.67435 5.2254,-3.89917 l 3.8864,-2.22696 5.3875,2.43013 c 2.9625,1.33654 7.1681,3.07229 9.3454,3.85693 2.178,0.78482 6.5338,3.11746 9.6794,5.18381 6.0077,3.94603 8.6177,7.27289 7.121,9.07662 -1.22,1.47024 3.5725,8.16757 8.5344,11.92508 5.4537,4.13006 5.3619,4.51224 -0.6328,2.62225 z m 36.6895,-0.0679 c -0.6664,-0.80123 -0.7302,-1.28487 -0.1715,-1.28487 1.0189,0 2.2066,1.59932 1.622,2.18389 -0.2125,0.21219 -0.8649,-0.19235 -1.4505,-0.89903 z m -141.64307,-3.43159 c -1.2213,-0.67567 -1.575,-1.1728 -0.8419,-1.18258 1.5058,-0.0187 3.9132,1.38278 3.346,1.94992 -0.2187,0.21907 -1.3458,-0.12612 -2.5041,-0.76734 z m 14.2528,-1.11396 c 2.3903,-3.35731 6.1319,-4.79413 9.5911,-3.6834 2.5201,0.80941 2.5596,0.87697 0.5581,0.957 -1.1838,0.0465 -3.9473,1.22405 -6.1407,2.61503 -5.0051,3.17403 -6.2132,3.20757 -4.0085,0.11111 z m 122.31367,1.15311 c -1.1389,-1.37258 -0.8648,-1.54419 1.1962,-0.75269 0.7333,0.28123 1.3328,0.85035 1.3328,1.26434 0,1.16619 -1.3655,0.88974 -2.529,-0.51165 z m 3.9486,-0.74382 c -0.3172,-0.82584 -0.5517,-2.13443 -0.5226,-2.9079 0.032,-0.93139 0.3276,-0.71889 0.8665,0.629 0.4479,1.11939 0.6834,2.42792 0.5223,2.90786 -0.1596,0.48 -0.5498,0.19689 -0.8662,-0.62896 z m 65.1775,0.79364 c 0,-0.20448 0.3795,-0.60628 0.8433,-0.89285 0.4636,-0.28648 0.843,-0.11934 0.843,0.37169 0,0.4911 -0.3794,0.89287 -0.843,0.89287 -0.4638,0 -0.8433,-0.16729 -0.8433,-0.37171 z m -215.60202,-3.54077 c -0.58247,-0.2456 -0.84467,-0.79358 -0.58247,-1.21759 0.64379,-1.042 6.04672,-0.98393 6.69932,0.0717 0.2867,0.46369 0.023,0.84812 -0.5824,0.85449 -0.6071,0.006 -1.8622,0.17481 -2.7894,0.37468 -0.9273,0.19969 -2.16259,0.16212 -2.74505,-0.0831 z m 12.51505,-0.63275 c -1.5319,-1.84589 0.2335,-2.40749 4.205,-1.33814 4.0009,1.07731 3.9877,1.24559 -0.1595,1.99423 -2.1538,0.38876 -3.3378,0.19674 -4.0455,-0.65609 z m 126.57037,-0.51282 c -0.5837,-0.93399 -0.6873,-1.686 -0.2335,-1.686 0.4519,0 1.2272,0.75863 1.7234,1.686 0.496,0.92719 0.6007,1.68593 0.2323,1.68593 -0.3682,0 -1.1419,-0.75874 -1.7222,-1.68593 z m 5.2786,-0.84827 c -2.2544,-2.49036 -1.0468,-2.88183 1.2717,-0.41294 1.0869,1.15726 1.5922,2.10417 1.1175,2.10417 -0.4718,0 -1.5471,-0.76103 -2.3892,-1.69123 z m -158.05754,-0.14601 c -3.01372,-0.41786 -7.26285,-1.34487 -9.44267,-2.06016 -2.17962,-0.71511 -4.74778,-1.05121 -5.70712,-0.74669 -1.93,0.61255 -10.14024,-1.80097 -10.14024,-2.98091 0,-2.69464 7.55735,-2.89933 11.57324,-0.3134 1.49919,0.96537 2.68108,1.02992 5.85112,0.31951 3.51156,-0.78693 4.24312,-0.69007 6.3063,0.83536 1.28377,0.94913 2.71591,1.72567 3.18264,1.72567 1.66657,0 6.72634,2.81992 6.29942,3.51083 -0.23939,0.38725 -0.88703,0.65131 -1.43908,0.58676 -0.55245,-0.0641 -3.4699,-0.45926 -6.48361,-0.87697 z m 151.31824,-4.06368 c -0.8391,-0.92733 -1.146,-1.68596 -0.6826,-1.68596 0.4637,0 1.5295,0.75863 2.3687,1.68596 0.8397,0.92739 1.1458,1.68599 0.6825,1.68599 -0.4634,0 -1.5296,-0.7586 -2.3686,-1.68599 z m -5.3164,-1.06768 c -0.479,-0.57714 -1.115,-2.18515 -1.4124,-3.57354 -0.4809,-2.23634 -0.4271,-2.33192 0.4709,-0.83831 0.5582,0.92735 1.5545,2.31228 2.2158,3.07759 0.7012,0.81113 0.8669,1.5984 0.3985,1.88752 -0.441,0.27274 -1.1935,0.0226 -1.6728,-0.55326 z m -17.853,-2.68027 -2.0946,-1.15947 3.2469,-0.60912 c 1.7863,-0.33502 4.5303,-1.73586 6.0985,-3.11309 1.7131,-1.50334 2.8482,-2.04793 2.8408,-1.36291 -0.017,1.71422 -1.0577,3.03521 -4.209,5.3598 -3.291,2.42837 -3.1362,2.405 -5.8826,0.88479 z m -158.13387,-3.28263 c -3.09723,-1.76446 -8.68321,-8.59084 -10.50193,-12.83381 -0.98094,-2.2887 -3.22913,-6.05798 -4.99586,-8.37622 -1.76679,-2.31825 -3.79485,-5.35306 -4.50682,-6.74398 -0.71185,-1.39093 -2.87434,-4.04645 -4.80534,-5.90101 -4.07138,-3.9103 -6.57538,-8.01931 -4.86887,-7.98997 2.21174,0.038 7.9061,3.20412 10.34835,5.75368 6.73751,7.03354 8.11796,8.28523 11.29845,10.2448 3.06941,1.89116 4.52273,3.85928 4.66862,6.32253 0.0264,0.4635 0.90042,1.79136 1.93991,2.9504 1.03942,1.15918 3.00062,3.33919 4.35811,4.84464 1.35757,1.50527 2.71362,3.85392 3.01348,5.21928 0.98142,4.46867 -2.61729,8.40714 -5.9481,6.50966 z m -169.8058,-0.55657 c 0,-0.46365 0.37935,-0.84301 0.84293,-0.84301 0.4637,0 0.84304,0.37936 0.84304,0.84301 0,0.46369 -0.37934,0.843 -0.84304,0.843 -0.46358,0 -0.84293,-0.37931 -0.84293,-0.843 z m 222.9688,-0.007 c -0.2893,-0.46786 -0.2915,-1.58863 -0.01,-2.49059 0.2869,-0.90321 -0.059,-2.52855 -0.7752,-3.61756 -1.1736,-1.79181 -1.1628,-2.16716 0.119,-3.99716 0.7777,-1.1108 1.6959,-4.0936 2.0399,-6.62847 0.4245,-3.12752 1.2628,-5.24587 2.6078,-6.59089 1.8395,-1.83978 2.302,-1.92162 6.4381,-1.13716 3.551,0.67334 4.9482,0.59036 6.8812,-0.40927 3.2372,-1.674 3.4732,-1.59917 2.3983,0.76018 -1.3661,2.99909 -4.0967,3.95757 -6.9758,2.44893 -5.1407,-2.69347 -11.9616,1.3096 -8.3628,4.90819 1.3226,1.32282 2.0547,1.44294 4.5046,0.74028 4.1994,-1.20437 5.8552,-0.98314 3.2476,0.43372 -2.952,1.60394 -3.5121,3.38393 -1.9908,6.32575 0.6921,1.33864 1.2585,3.41433 1.2585,4.61286 0,1.91838 -0.202,2.07101 -1.6873,1.27589 -0.9281,-0.49671 -2.2671,-2.2902 -2.9754,-3.98557 -1.2782,-3.05903 -1.3005,-3.07 -2.9363,-1.43411 -1.435,1.43467 -1.5314,2.07192 -0.7466,4.91549 0.7098,2.56986 0.6618,3.41949 -0.2237,3.98068 -1.4887,0.94397 -2.1804,0.91674 -2.816,-0.11099 z m 115.65997,-4.4963 c -0.7952,-1.21285 -2.6148,-2.80999 -4.0451,-3.54924 -1.4287,-0.73931 -2.4096,-1.53397 -2.1774,-1.76568 1.3122,-1.31083 8.6257,4.6428 8.0027,6.51313 -0.1918,0.57453 -0.9562,0.0596 -1.7802,-1.19821 z m -132.38179,-2.80597 c -1.27168,-0.66624 -2.98518,-0.99788 -3.80766,-0.7368 -2.09697,0.66551 -10.42793,-1.0299 -11.25319,-2.29018 -0.65668,-1.00283 -2.58773,-7.17933 -3.62082,-11.58134 -0.28408,-1.21047 0,-2.78097 0.66346,-3.68945 0.96494,-1.31829 1.46376,-1.41841 2.99164,-0.60068 1.61277,0.86311 1.95487,0.71541 2.83919,-1.22537 0.55301,-1.21374 2.39383,-2.91505 4.09064,-3.78073 1.7971,-0.91678 3.52397,-2.63303 4.13606,-4.11075 0.7055,-1.70355 1.99425,-2.84815 3.92345,-3.48481 1.57991,-0.52147 3.86187,-2.24507 5.07095,-3.83015 1.20897,-1.58512 2.64775,-2.88205 3.19714,-2.88205 0.54966,0 2.21316,1.25235 3.69636,2.78278 l 2.6972,2.78294 -2.162,2.90737 c -2.4562,3.30295 -2.3274,6.14369 0.4556,10.05204 l 1.6851,2.36635 -2.0999,1.37562 c -1.1547,0.75668 -2.0976,1.84118 -2.0959,2.41002 0.01,1.93096 -5.39454,13.0603 -6.74859,13.90576 -0.94253,0.58872 -2.04001,0.47752 -3.65873,-0.37057 z m 48.97122,-0.0136 c -1.745,-0.45582 -1.987,-1.94784 -0.3168,-1.94784 0.6379,0 2.4222,0.25248 3.9651,0.56112 2.3758,0.47509 2.5532,0.65982 1.1592,1.20523 -1.8306,0.71609 -2.6443,0.74679 -4.8075,0.18151 z m 134.24757,-10.74966 c 0,-0.20444 0.3793,-0.60612 0.8433,-0.89275 0.4627,-0.28658 0.8423,-0.11929 0.8423,0.37178 0,0.49098 -0.3796,0.89276 -0.8423,0.89276 -0.464,0 -0.8433,-0.16724 -0.8433,-0.37179 z m -137.20067,-2.28649 c -0.6739,-0.674 -0.7138,-1.45513 -0.1299,-2.54644 0.4635,-0.86582 0.6176,-1.93789 0.3432,-2.38243 -0.7605,-1.23006 1.1439,-4.21497 2.6891,-4.21497 1.2393,0 1.2347,0.14474 -0.051,1.56811 -1.1144,1.23077 -1.2382,2.04509 -0.5762,3.78616 1.3384,3.51935 -0.1172,5.94556 -2.2729,3.78957 z m -423.39398,-2.77197 c 0,-0.20444 0.37937,-0.60625 0.84304,-0.89272 0.46359,-0.28659 0.84301,-0.1193 0.84301,0.37166 0,0.4911 -0.37942,0.89279 -0.84301,0.89279 -0.46367,0 -0.84304,-0.16733 -0.84304,-0.37173 z m 584.61995,-2.15736 c -0.287,-0.46362 -0.1202,-0.84295 0.3721,-0.84295 0.4904,0 0.8922,0.37933 0.8922,0.84295 0,0.46359 -0.1671,0.84301 -0.3714,0.84301 -0.2034,0 -0.6067,-0.37942 -0.8929,-0.84301 z m -579.56189,-7.95857 c 0,-0.20446 0.37935,-0.60615 0.84292,-0.8928 0.4637,-0.28656 0.84312,-0.11924 0.84312,0.3718 0,0.49103 -0.37942,0.8928 -0.84312,0.8928 -0.46357,0 -0.84292,-0.1673 -0.84292,-0.3718 z m 405.49102,-12.6749 c -1.6077,-3.75075 -1.8221,-3.91939 -4.2964,-3.37598 -2.4666,0.54178 -2.5531,0.47564 -1.6289,-1.25132 0.7654,-1.42999 1.4751,-1.71388 3.2886,-1.31554 1.7481,0.38399 2.8651,-0.004 4.5776,-1.5916 1.2464,-1.15481 2.2739,-2.78159 2.2843,-3.61507 0.024,-2.12775 3.1564,5.00787 3.871,8.82283 0.5424,2.89666 0.4747,3.05437 -0.8428,1.96309 -1.9557,-1.6199 -3.8378,0.0594 -2.2336,1.99387 0.6407,0.7714 0.7226,1.30025 0.2015,1.30025 -0.4821,0 -1.4736,0.22892 -2.2031,0.50872 -0.9783,0.37561 -1.7694,-0.52554 -3.0182,-3.43925 z m -153.70275,1.48948 c -0.94244,-1.53078 -1.47833,-8.4003 -0.79745,-10.22313 0.72191,-1.9331 0.77614,-1.90967 2.92387,1.26446 2.57404,3.80412 3.39791,6.24373 2.54858,7.54631 -0.81304,1.24689 -4.15527,2.25661 -4.675,1.41236 z m 188.25735,-4.36049 c 0,-0.46371 0.3793,-1.07753 0.8432,-1.36407 0.4635,-0.28647 0.8431,-0.14163 0.8431,0.32202 0,0.46368 -0.3796,1.07752 -0.8431,1.36403 -0.4639,0.28652 -0.8432,0.14165 -0.8432,-0.32198 z m 132.35017,-0.0992 c 0,-0.46351 0.1677,-0.84291 0.3724,-0.84291 0.2042,0 0.6055,0.3794 0.8929,0.84291 0.2859,0.46367 0.1195,0.84319 -0.3726,0.84319 -0.4904,0 -0.8927,-0.37952 -0.8927,-0.84319 z m -191.36017,-4.87054 c 0,-0.36047 1.6901,-2.54174 3.7555,-4.84726 3.027,-3.3783 3.7634,-3.85567 3.7937,-2.45992 0.019,0.95259 -1.2465,3.13386 -2.8157,4.84713 -2.6611,2.90549 -4.7335,3.98235 -4.7335,2.46005 z m 18.2584,-2.2494 c -0.3071,-0.80029 -0.2445,-2.0155 0.1388,-2.70053 0.5938,-1.06134 0.8412,-1.07146 1.6728,-0.0689 0.7455,0.8978 0.7126,1.53708 -0.1381,2.70054 -1.0448,1.4291 -1.1497,1.43341 -1.6735,0.0686 z m -645.56027,-3.28486 c 0.51633,-0.62227 0.68921,-1.38103 0.38422,-1.68609 -0.30507,-0.30502 0.23165,-0.55457 1.19288,-0.55457 1.33251,0 1.64278,0.40026 1.30662,1.68599 -0.25605,0.97903 -1.14983,1.686 -2.13178,1.686 -1.31901,0 -1.48446,-0.24889 -0.75194,-1.13133 z m 651.21707,-0.22339 c -0.314,-0.87783 -0.725,-1.88049 -0.9127,-2.22823 -0.1873,-0.34771 0.014,-0.6322 0.4533,-0.6322 0.8411,0 2.0258,3.46164 1.3987,4.08805 -0.2021,0.20253 -0.6251,-0.34988 -0.9393,-1.22762 z m -8.5422,-2.19944 c -1.1843,-1.42675 -0.029,-3.45737 1.7402,-3.06223 1.1102,0.24794 1.1511,0.59856 0.2599,2.24748 -0.8592,1.59126 -1.2304,1.74253 -2.0001,0.81475 z m 9.9666,-2.89718 c -0.9676,-1.22999 -1.6184,-2.37691 -1.4469,-2.54879 0.6852,-0.68513 3.0562,0.82434 4.3166,2.74827 1.9388,2.95875 -0.5201,2.78779 -2.8697,-0.19948 z m -13.8588,-3.26345 c -0.7507,-0.75058 -1.365,-1.80141 -1.365,-2.33496 0,-0.53363 0.8327,-0.13763 1.8499,0.87989 1.0177,1.01735 1.632,2.0682 1.3652,2.33494 -0.2669,0.26683 -1.0995,-0.12911 -1.8501,-0.87987 z m -661.71419,-0.12084 c -0.30912,-0.30904 -0.56196,-0.95392 -0.56196,-1.43311 0,-0.52819 0.39261,-0.47842 0.99749,0.12643 0.54868,0.54867 0.8016,1.19357 0.56201,1.43316 -0.23957,0.23953 -0.68841,0.18263 -0.99754,-0.12648 z m -4.77701,-1.12398 c 0,-0.46368 0.16733,-0.84309 0.37177,-0.84309 0.20446,0 0.60625,0.37941 0.89279,0.84309 0.28649,0.46363 0.11924,0.84289 -0.37179,0.84289 -0.49097,0 -0.89277,-0.37926 -0.89277,-0.84289 z m 39.62098,-1.68606 c 0,-0.46364 0.16729,-0.843 0.37176,-0.843 0.20441,0 0.60622,0.37936 0.89281,0.843 0.28648,0.46365 0.11926,0.84297 -0.37177,0.84297 -0.49101,0 -0.8928,-0.37932 -0.8928,-0.84297 z m 635.34982,-0.12841 c -0.845,-0.47674 -2.4475,-0.6381 -3.5606,-0.35873 -1.632,0.40968 -2.7575,-0.24693 -5.8129,-3.39076 -4.3167,-4.44131 -5.1558,-6.31379 -3.8894,-8.67982 0.489,-0.91424 0.8896,-2.80293 0.8896,-4.19703 0,-4.57598 3.0649,-4.39097 5.3114,0.32061 1.245,2.6101 1.2529,3.17053 0.08,5.97031 -1.2595,3.0141 -1.2347,3.1485 1.0117,5.49334 1.6228,1.69374 2.8399,2.26872 4.1226,1.94682 1.0839,-0.27199 2.2526,0.0648 2.8905,0.83369 1.518,1.82918 0.8556,3.1344 -1.0466,2.06157 z m -640.4078,-5.30134 c 0,-0.20439 0.37939,-0.60611 0.84301,-0.8928 0.4637,-0.28656 0.84298,-0.11927 0.84298,0.37179 0,0.49101 -0.37928,0.89281 -0.84298,0.89281 -0.46362,0 -0.84301,-0.16728 -0.84301,-0.3718 z m 132.35096,-3.00023 c 0,-0.46363 0.37925,-0.843 0.84289,-0.843 0.46367,0 0.84301,0.37937 0.84301,0.843 0,0.46363 -0.37934,0.84303 -0.84301,0.84303 -0.46364,0 -0.84289,-0.3794 -0.84289,-0.84303 z M 315.40714,695.8847 c 0,-0.46363 0.37944,-1.07736 0.84302,-1.36398 0.46367,-0.28661 0.84295,-0.14163 0.84295,0.322 0,0.46367 -0.37928,1.07745 -0.84295,1.36403 -0.46358,0.28659 -0.84302,0.14163 -0.84302,-0.32205 z m -7.15954,-3.46181 c -0.2953,-0.47782 0.0427,-0.61926 0.79329,-0.33129 1.46035,0.56042 1.72762,1.1646 0.51503,1.1646 -0.43633,0 -1.02507,-0.37488 -1.30832,-0.83331 z m 134.03092,-0.009 c -0.28656,-0.46359 -0.11927,-0.84297 0.37173,-0.84297 0.49099,0 0.89274,0.37938 0.89274,0.84297 0,0.46369 -0.16724,0.843 -0.37176,0.843 -0.20446,0 -0.60611,-0.37931 -0.89271,-0.843 z m -130.66494,-1.68635 c -0.28649,-0.46357 -0.11927,-0.843 0.37186,-0.843 0.49096,0 0.89265,0.37943 0.89265,0.843 0,0.46376 -0.16727,0.84302 -0.37166,0.84302 -0.2045,0 -0.60624,-0.37926 -0.89285,-0.84302 z m 3.79356,0 c 0,-0.46357 0.1673,-0.843 0.37182,-0.843 0.20433,0 0.60618,0.37943 0.89265,0.843 0.28657,0.46376 0.11934,0.84302 -0.37178,0.84302 -0.49096,0 -0.89269,-0.37926 -0.89269,-0.84302 z m -57.95618,-2.24439 c -0.57952,-0.23377 -1.05372,-0.77288 -1.05372,-1.1979 0,-1.21535 3.72121,-0.9025 5.52905,0.465 1.55463,1.1758 1.50995,1.23571 -0.89261,1.19791 -1.39092,-0.02 -3.00313,-0.23101 -3.58272,-0.46501 z m 21.33143,-0.47815 c -0.75604,-0.42308 -2.4263,-0.53831 -3.71167,-0.25601 -1.28543,0.28231 -3.26258,0.14322 -4.39364,-0.30925 -1.81846,-0.72739 -1.65751,-0.81328 1.39172,-0.74194 4.48194,0.10441 5.67841,-0.62515 4.533,-2.76541 -0.81299,-1.51915 -0.56857,-1.63477 3.45306,-1.63477 3.89023,0 9.50248,1.7841 10.45384,3.32324 0.63232,1.02329 -10.21664,3.22894 -11.72631,2.38414 z m 16.17027,0.53303 c -0.99907,-0.99901 0.24256,-2.02554 2.45,-2.02554 1.32553,0 1.9971,0.39744 1.78097,1.0538 -0.38864,1.18021 -3.34383,1.85897 -4.23097,0.97174 z m 609.89004,-1.34066 c -2.23218,-2.23216 -0.0208,-4.89977 4.05801,-4.89977 1.80903,0 1.81044,0.0129 0.25849,2.67202 -1.80914,3.09765 -2.88919,3.65505 -4.3165,2.22775 z m -602.92355,-0.17335 c 0,-0.18225 0.56896,-0.54971 1.26452,-0.81657 0.69539,-0.26688 1.26449,-0.11779 1.26449,0.33125 0,0.44919 -0.5691,0.81665 -1.26449,0.81665 -0.69556,0 -1.26452,-0.14914 -1.26452,-0.33133 z m -36.44102,-6.04289 c -0.26027,-0.26021 -2.03982,-0.49473 -3.95452,-0.52102 -2.64158,-0.0362 -3.27543,-0.29637 -2.62743,-1.07716 0.62627,-0.75476 -0.27304,-1.75933 -3.3721,-3.76756 -6.07655,-3.93739 -9.4694,-4.70683 -13.55167,-3.07347 -3.82803,1.53173 -4.12121,1.57509 -4.12121,0.61042 0,-1.76445 6.70925,-3.70497 11.54025,-3.33771 4.62035,0.35118 7.20719,1.33449 16.27877,6.18768 7.45657,3.98915 7.46471,3.99679 5.05795,4.68297 -2.73296,0.77927 -4.65823,0.88775 -5.25004,0.29585 z m 6.0931,-7.11385 c 1.63433,-1.05626 2.52902,-1.05626 2.52902,0 0,0.46362 -0.85361,0.83717 -1.89678,0.83005 -1.53389,-0.009 -1.65487,-0.16932 -0.63224,-0.83005 z m 671.3642,-1.49506 c -0.5101,-0.33685 -1.3872,-1.48523 -1.9492,-2.55203 -0.847,-1.60812 -0.7594,-2.38891 0.5138,-4.56888 1.9661,-3.36647 3.2938,-3.78669 3.9323,-1.24403 0.6711,2.67488 -1.2691,9.17562 -2.4969,8.36494 z m -665.82945,-1.12355 c 0.56286,-0.91064 3.7385,-1.01358 3.73769,-0.12125 -3.7e-4,0.34777 -0.94632,0.68684 -2.10196,0.75349 -1.15579,0.0667 -1.89181,-0.21784 -1.63573,-0.63224 z m -16.6699,-8.1241 c -1.34811,-1.54738 -1.15214,-3.58792 0.34472,-3.58792 0.47898,0 0.67741,0.74046 0.44071,1.64566 -0.23671,0.90497 0.003,1.80141 0.53385,1.99201 0.53034,0.19055 0.74072,0.59046 0.46742,0.88856 -0.27325,0.29813 -1.0773,-0.12407 -1.7867,-0.93831 z m 4.8969,-6.62274 c -0.29993,-0.78181 -0.3558,-1.61124 -0.12396,-1.84301 0.23181,-0.23184 0.66699,0.21819 0.96699,1.00004 0.29998,0.78182 0.35583,1.61115 0.12393,1.84302 -0.23175,0.23178 -0.66694,-0.21815 -0.96696,-1.00005 z m -5.28279,-0.75873 c 0,-0.69549 0.72259,-1.26443 1.60571,-1.26443 1.42737,0 1.46524,0.14046 0.34127,1.26443 -0.69544,0.69556 -1.41816,1.26455 -1.6058,1.26455 -0.18761,0 -0.34118,-0.56899 -0.34118,-1.26455 z m 706.99554,-18.48125 c 0,-0.65992 -0.9214,-2.29426 -2.0468,-3.63181 -2.6715,-3.17535 -1.7254,-5.29457 1.4383,-3.22134 2.2749,1.49022 3.4635,4.53506 2.6245,6.72141 -0.6361,1.65815 -2.016,1.74824 -2.016,0.13174 z m -654.16764,-5.07309 c 0,-0.20445 0.37944,-0.60615 0.84305,-0.89272 0.46368,-0.28659 0.84299,-0.11931 0.84299,0.37167 0,0.49108 -0.37931,0.89277 -0.84299,0.89277 -0.46361,0 -0.84305,-0.16724 -0.84305,-0.37172 z m 658.86564,-1.03609 c -0.5465,-1.42426 0.7437,-2.77056 2.678,-2.79413 1.3394,-0.0145 1.3649,1.86802 0.04,3.19039 -1.3738,1.37448 -2.0801,1.27182 -2.7197,-0.39626 z m 7.702,-3.07712 c -1.6366,-2.49801 -3.9488,-2.84088 -9.2415,-1.37092 -2.1525,0.59764 -3.6348,0.6044 -4.6364,0.0192 -0.8099,-0.47171 -1.0278,-0.86926 -0.484,-0.88338 0.544,-0.0123 2.1324,-0.98735 3.5289,-2.16279 1.8022,-1.51632 3.1231,-1.99076 4.547,-1.63337 1.5087,0.37866 3.1371,-0.34588 6.5628,-2.91976 6.6695,-5.01118 7.2721,-6.59127 4.5591,-11.94586 -2.6045,-5.13912 -1.879,-6.79364 1.98,-4.5143 2.8084,1.65907 5.455,6.41131 4.6862,8.41484 -0.2765,0.72115 0.136,2.98428 0.9168,5.0292 1.1054,2.89373 1.2099,4.11042 0.4731,5.48804 -1.083,2.02325 -4.0962,3.37532 -7.5216,3.37532 -1.9206,0 -2.4942,0.49266 -3.1216,2.68052 l -0.7688,2.68051 -1.48,-2.259 z m -341.50734,-2.87749 c -1.00615,-1.00615 -0.47083,-1.9107 1.13067,-1.9107 0.89997,0 1.87073,-0.37925 2.1572,-0.84294 0.78371,-1.26784 2.11998,-1.01336 1.61325,0.30725 -0.52011,1.35531 -4.17018,3.17727 -4.90112,2.44639 z m -28.74604,-1.45872 -2.52901,-1.15799 3.372,-0.0559 c 4.19978,-0.071 7.29364,0.71656 6.6847,1.70168 -0.67808,1.09732 -4.62545,0.84205 -7.52769,-0.48684 z m -34.05422,-8.40922 c -3.37388,-1.72732 -3.53263,-1.94279 -1.77143,-2.40348 2.10941,-0.55153 6.77826,0.1347 6.68287,0.98239 -0.032,0.28981 -0.31705,1.15499 -0.63217,1.92266 -0.51814,1.26198 -0.92829,1.21386 -4.27927,-0.50157 z m -16.89682,-9.1206 c -0.72952,-2.09279 -0.67208,-2.89394 0.27595,-3.8419 1.71393,-1.71388 3.04569,-0.50942 3.04569,2.75477 0,3.85531 -2.11528,4.54772 -3.32164,1.08713 z m -19.76773,0.70054 c 0.59798,-1.55838 3.16311,-1.82194 2.64701,-0.27194 -0.19304,0.57946 -0.98202,1.17605 -1.75333,1.32563 -0.97801,0.18967 -1.24847,-0.12916 -0.89368,-1.05369 z m 440.46925,-9.62207 c -1.5433,-2.16716 -1.5859,-2.56661 -0.4463,-4.19344 1.1194,-1.5983 1.1155,-2.07727 -0.036,-4.30693 -1.8964,-3.6673 -1.6298,-3.88915 1.6587,-1.38078 1.6258,1.24004 4.834,2.81233 7.1297,3.49391 4.7429,1.40858 5.888,2.51442 3.4148,3.29921 -0.9337,0.29646 -1.6985,1.08965 -1.6985,1.76276 0,0.91671 -0.5811,1.07508 -2.3182,0.63054 -4.4479,-1.13808 -5.7121,-0.8601 -5.4261,1.19327 0.3493,2.51608 -0.218,2.39162 -2.2761,-0.49854 z m -419.34694,0.99042 c -0.97779,-0.97787 -0.60933,-2.61161 0.70249,-3.11497 0.91358,-0.35055 1.26457,0.0919 1.26457,1.59582 0,2.02352 -0.82525,2.66092 -1.96706,1.51915 z m 413.99734,-17.77338 c -0.7155,-0.8114 -2.4389,-3.75204 -3.8305,-6.53479 -1.392,-2.78285 -5.0711,-7.89311 -8.1761,-11.35621 -3.4694,-3.86907 -5.2325,-6.43446 -4.5731,-6.65428 0.5903,-0.19671 1.8561,0.68482 2.8129,1.95887 2.3193,3.08852 5.175,5.77031 9.6818,9.09142 3.7355,2.75277 5.5827,5.3009 3.1724,4.37589 -2.7796,-1.0666 -2.0854,1.46514 1.511,5.51499 2.0973,2.3609 3.8126,4.46963 3.8126,4.68597 0,1.02521 -3.258,0.22612 -4.411,-1.08186 z m -616.87915,-1.47527 c 0,-0.69557 0.36746,-1.26442 0.81658,-1.26442 0.44905,0 0.59815,0.56885 0.33123,1.26442 -0.26681,0.69541 -0.63428,1.2645 -0.81644,1.2645 -0.18229,0 -0.33137,-0.56909 -0.33137,-1.2645 z m -4.405,-2.72035 -3.14052,-0.32947 5.90967,-5.85134 c 3.25035,-3.21819 6.33455,-5.85137 6.85393,-5.85137 0.54795,0 0.38377,0.61939 -0.39132,1.47579 -1.75496,1.93921 -0.55826,4.11783 2.64882,4.82226 1.40007,0.30745 2.79565,1.3805 3.33487,2.56406 0.86559,1.89973 0.71884,2.09326 -2.20181,2.90435 -3.06401,0.85109 -6.72169,0.9257 -13.01364,0.26572 z M 146.89645,570.2615 c -2.92017,-2.72791 -3.24585,-3.87707 -1.30945,-4.6201 1.73414,-0.66549 4.93508,1.50388 6.14835,4.16682 1.27306,2.79414 1.25058,2.89895 -0.62395,2.89895 -0.8782,0 -2.77496,-1.10056 -4.21495,-2.44567 z m 371.25194,-4.28301 c 0.92742,-0.45739 2.75211,-1.2163 4.05503,-1.6864 2.87085,-1.03588 2.39485,-2.13906 -1.23606,-2.86524 -2.49074,-0.49819 -2.57846,-0.62488 -1.15329,-1.66705 0.84835,-0.6204 1.29527,-1.52778 0.99314,-2.01658 -0.30862,-0.49934 0.55832,-1.27491 1.97871,-1.77002 1.39037,-0.48474 2.52805,-1.2557 2.52805,-1.71326 0,-1.94713 -1.75722,-5.22246 -2.73346,-5.09525 -2.25049,0.29361 -3.29306,-0.1031 -2.93025,-1.11522 0.20782,-0.57956 0.0363,-1.71764 -0.3809,-2.52902 -1.08512,-2.10977 1.40841,-6.47288 3.7263,-6.52026 0.34779,-0.006 0.53748,0.45225 0.42152,1.02087 -0.11592,0.56842 0.67962,1.16867 1.76776,1.33373 l 1.97864,0.30014 -1.89059,2.01234 -1.89052,2.01232 2.13114,0.81032 c 2.28744,0.86966 4.49209,3.70296 6.73722,8.65802 1.07568,2.37405 1.78285,2.99467 3.03836,2.66625 2.57617,-0.6737 2.88177,1.07218 0.46487,2.65581 -1.6374,1.0728 -1.94813,1.67733 -1.23103,2.39447 0.71723,0.71723 -0.69657,1.1985 -5.60005,1.90618 -3.60773,0.52081 -7.88727,1.1925 -9.51005,1.49316 -2.25713,0.4178 -2.55424,0.35081 -1.26454,-0.28531 z m -14.21618,-4.65674 c -0.2884,-0.75153 0.0401,-2.45882 0.73111,-3.79412 0.79222,-1.53206 0.94556,-2.61924 0.41554,-2.94681 -1.46091,-0.90286 -0.91314,-2.05513 1.23301,-2.59375 1.1401,-0.2862 2.51422,-1.05206 3.05363,-1.70206 1.12316,-1.35321 6.31609,-1.60222 7.09602,-0.34025 0.28609,0.4628 -0.0703,1.68543 -0.79319,2.71651 -0.72238,1.03131 -1.3134,2.88374 -1.3134,4.11654 0,1.87998 -0.57783,2.44207 -3.58275,3.48518 -1.97049,0.68401 -4.19764,1.50942 -4.9492,1.83431 -0.88131,0.38099 -1.55266,0.10533 -1.89077,-0.77555 z m 15.48072,-8.3753 c 0,-0.20446 0.37928,-0.60623 0.84303,-0.89277 0.46357,-0.28653 0.84293,-0.11921 0.84293,0.37179 0,0.49097 -0.37936,0.89272 -0.84293,0.89272 -0.46375,0 -0.84303,-0.16731 -0.84303,-0.37174 z M 145.2897,548.88458 c -0.82573,-0.99495 -0.77314,-1.45866 0.26307,-2.31872 1.71329,-1.42181 2.56297,-0.4572 1.56579,1.77743 -0.68766,1.54097 -0.93771,1.61496 -1.82886,0.54129 z m -1.31821,-6.33982 c -0.28468,-0.46074 0.0468,-1.30634 0.73757,-1.87922 1.37073,-1.13759 1.65687,-0.24548 0.50482,1.57279 -0.44033,0.69492 -0.92799,0.815 -1.24239,0.30643 z m -54.488117,-0.53771 c 0,-0.59297 2.55612,-1.63024 6.18232,-2.50871 1.37472,-0.33311 2.18747,-0.2527 1.91437,0.18919 -0.26102,0.42235 -1.52579,0.98014 -2.81039,1.23926 -1.28469,0.25919 -2.99973,0.72818 -3.81104,1.04209 -0.81141,0.31387 -1.47526,0.33099 -1.47526,0.0382 z M 590.43562,532.5278 c -1.55521,-0.62748 -1.27995,-1.59477 0.49171,-1.72836 0.85002,-0.0637 1.54555,0.42451 1.54555,1.08524 0,1.25512 -0.29212,1.34739 -2.03726,0.64312 z m -185.24905,-4.30865 c -5.33453,-2.90904 -7.88469,-7.37856 -6.33898,-11.11033 0.73166,-1.76608 0.75394,-2.8767 0.0827,-4.13005 -1.3959,-2.60827 0.42537,-5.66509 5.08306,-8.53095 2.21229,-1.36117 4.42115,-3.22015 4.90852,-4.13076 1.35033,-2.5231 0.14766,-6.84697 -2.2023,-7.91764 -1.18932,-0.54186 -1.83657,-1.3988 -1.57383,-2.08363 0.59847,-1.55955 -2.20821,-6.88591 -5.00353,-9.49563 -2.05743,-1.9206 -2.94249,-2.11198 -9.98732,-2.15807 -9.59326,-0.0621 -11.38025,-0.59623 -11.22166,-3.34879 0.0659,-1.14334 0.3195,-2.07903 0.56346,-2.07932 0.24398,-2.9e-4 3.65817,-0.39607 7.58703,-0.87947 5.01653,-0.61706 9.51398,-1.88962 15.10552,-4.27395 8.65724,-3.69189 9.31663,-3.764 29.97281,-3.27848 6.52263,0.15341 12.52332,-0.3294 20.23197,-1.6276 7.17868,-1.20891 12.46101,-1.66462 15.31328,-1.3212 2.42353,0.2919 5.93257,0.0984 7.9137,-0.43413 4.59741,-1.23792 16.54204,0.25127 21.2401,2.648 2.77742,1.41691 4.24694,1.60407 8.93354,1.13753 5.06236,-0.50405 5.44491,-0.43781 3.92333,0.67981 -0.92729,0.68102 -3.77244,1.51305 -6.32251,1.84865 -5.53356,0.72869 -10.61812,4.67275 -9.27041,7.19081 0.58135,1.08634 0.1645,2.01349 -1.71513,3.81415 -1.36562,1.30839 -2.6829,3.00874 -2.92724,3.77866 -0.58692,1.84899 -8.03959,5.29089 -11.73491,5.41915 -4.10425,0.14263 -4.53351,1.01488 -1.35942,2.7632 1.49938,0.82584 3.68811,2.23303 4.86384,3.12707 l 2.13773,1.62551 -1.93259,0.71497 c -1.4815,0.54808 -2.6833,0.19472 -5.14848,-1.5137 -3.34543,-2.31835 -6.94475,-2.32993 -5.02453,-0.0143 0.74888,0.90226 0.56862,1.25279 -0.83293,1.61929 -3.13271,0.8193 -0.91683,2.43927 2.53811,1.85548 2.19901,-0.37149 3.43565,-0.17573 4.12329,0.65286 0.81819,0.98575 -0.24906,1.44229 -6.3888,2.73272 -4.05402,0.85214 -9.45734,1.58053 -12.00749,1.61866 -4.73724,0.0699 -8.15123,1.43094 -13.17324,5.24763 -1.63756,1.24469 -5.11772,2.47815 -9.19004,3.25757 -8.51141,1.62824 -11.38768,3.51166 -16.51608,10.81427 -4.11928,5.86563 -6.60314,8.05171 -9.17158,8.0724 -0.69546,0.005 -3.16124,-1.02417 -5.47947,-2.28838 z m -59.77254,-5.63808 c -1.81041,-1.11236 -4.02888,-3.18686 -4.93007,-4.61011 -1.7592,-2.77865 -3.38126,-3.13157 -8.13061,-1.7695 -1.60789,0.46107 -3.41209,0.50552 -4.13348,0.10147 -2.49637,-1.39706 2.01253,-2.77101 7.03436,-2.14346 3.81927,0.4771 4.6678,0.34103 5.11319,-0.81951 0.8949,-2.3319 4.9903,-4.00301 7.26756,-2.96549 1.40178,0.63869 2.67616,0.62088 4.46651,-0.0616 2.40869,-0.91934 2.44213,-1.00242 0.86873,-2.15766 -0.90001,-0.66086 -1.92715,-1.20153 -2.2827,-1.20153 -0.3555,0 -1.63878,-1.69351 -2.85179,-3.76329 -1.21301,-2.06992 -3.48646,-4.55503 -5.05212,-5.52273 -2.66066,-1.64425 -3.01271,-1.67322 -5.3926,-0.4425 -2.08064,1.07586 -3.28263,1.15125 -6.57474,0.41212 -2.21579,-0.49765 -5.30941,-0.66515 -6.87487,-0.3724 -2.71571,0.5077 -7.69124,-0.82114 -7.69124,-2.05451 0,-2.26503 7.13948,-7.34894 11.38052,-8.10351 l 3.37197,-0.60018 -2.41039,2.56799 c -3.32495,3.54243 -2.07458,5.17267 1.53606,2.00265 1.53147,-1.34471 4.1786,-2.70649 5.88219,-3.02607 2.60322,-0.48844 3.71837,-0.16995 6.9872,1.99515 4.34901,2.88071 4.68413,2.95789 7.13674,1.64539 1.47694,-0.79045 2.02469,-0.57337 3.62857,1.43805 1.1094,1.39127 3.58687,2.90631 6.00278,3.67067 3.85043,1.21826 4.11377,1.48356 4.11377,4.13896 0,1.99133 0.57434,3.248 1.92646,4.21496 5.65739,4.04599 5.53411,3.8787 4.30984,5.83904 -1.6785,2.6875 -3.00378,2.88233 -6.71855,0.98722 -2.58424,-1.31843 -3.71325,-1.49918 -5.01418,-0.80297 -1.59192,0.85199 -1.60893,1.0341 -0.32732,3.51209 1.05162,2.03374 1.14758,3.06071 0.43305,4.62924 -0.88068,1.93288 -1.02091,1.96284 -3.41228,0.72632 -4.7009,-2.43109 -7.86649,-0.83141 -3.48119,1.75904 1.37388,0.81158 2.30661,1.78536 2.07261,2.16393 -0.81655,1.32106 -4.98741,0.62028 -8.25398,-1.38677 z m 173.15591,1.09159 c 0,-0.38619 0.56897,-0.70256 1.26446,-0.70256 0.69554,0 1.26449,0.31637 1.26449,0.70256 0,0.38639 -0.56895,0.70255 -1.26449,0.70255 -0.69549,0 -1.26446,-0.31616 -1.26446,-0.70255 z m -204.94101,-4.53372 c -1.6619,-0.87364 -2.95269,-0.94854 -5.28003,-0.30593 -3.95702,1.09259 -5.34083,0.29306 -3.33288,-1.92568 2.57055,-2.84055 4.31398,-3.39908 7.41452,-2.37588 3.48957,1.15165 5.03833,2.86346 4.09691,4.52814 -0.60008,1.0613 -1.00944,1.07253 -2.89852,0.0791 z m 167.42757,-0.38387 c -1.39103,-0.91452 -3.16146,-1.46259 -3.93442,-1.21839 -1.06454,0.33684 -1.30073,0.0439 -0.97393,-1.20504 0.50148,-1.91784 7.90838,-4.68602 10.41216,-3.89134 0.873,0.27706 3.10424,0.0483 4.95823,-0.50625 2.91061,-0.87199 3.68219,-0.80598 5.64983,0.48321 l 2.27892,1.49316 -2.02985,1.582 c -1.71343,1.33518 -4.89109,2.49367 -12.56753,4.58149 -0.69546,0.18936 -2.40251,-0.40423 -3.79341,-1.31884 z M 252.18223,503.01833 c -1.15916,-0.18319 -3.98282,-1.17468 -6.2748,-2.20339 l -4.16731,-1.87045 5.85327,-0.42144 c 3.21934,-0.23178 5.85329,-0.80087 5.85329,-1.26434 0,-0.46385 -2.27616,-1.04644 -5.05792,-1.29498 -3.67305,-0.32808 -4.36551,-0.55897 -2.52904,-0.84307 3.07493,-0.47552 3.29649,-1.80722 0.42151,-2.53339 -2.07035,-0.52285 -2.05523,-0.5548 0.85698,-1.80936 5.04704,-2.17465 10.42277,-2.59112 15.18564,-1.17694 3.91045,1.16141 4.52131,1.15644 6.36495,-0.0511 1.30389,-0.8542 2.07738,-0.99715 2.14476,-0.39624 0.0575,0.51698 0.15283,1.38253 0.21074,1.92344 0.19566,1.82635 1.87724,1.59001 3.88369,-0.54583 1.8574,-1.97714 5.07715,-2.92425 5.06997,-1.49139 -0.002,0.34765 -0.75167,1.85985 -1.66653,3.36041 l -1.66338,2.72815 2.72034,1.41917 2.72028,1.41932 -4.46659,2.03861 c -4.03048,1.83975 -4.85739,1.94485 -8.47017,1.07821 -3.50293,-0.84035 -4.50792,-0.74439 -8.03752,0.76855 -3.98655,1.70904 -4.82734,1.81853 -8.95216,1.16666 z m 33.80946,-0.59386 c -0.76139,-0.91747 -0.44699,-1.36904 1.52065,-2.18408 1.36967,-0.56723 3.33441,-0.75643 4.38719,-0.4223 1.82584,0.57957 1.78373,0.67061 -0.99164,2.14865 -3.54082,1.88585 -3.71727,1.90232 -4.9162,0.45773 z m 232.57825,-3.90142 c 1.63441,-1.05622 2.52895,-1.05622 2.52895,0 0,0.46379 -0.85349,0.83724 -1.89669,0.83008 -1.53376,-0.009 -1.65481,-0.16932 -0.63226,-0.83008 z m 154.69032,-2.33871 c -4.30995,-1.70256 -4.22143,-1.60941 -2.9674,-3.12049 0.58646,-0.7067 0.73541,-1.29691 0.33088,-1.31167 -0.40453,-0.0129 0.0207,-0.60003 0.95046,-1.30073 0.92743,-0.70068 1.69243,-1.54217 1.70023,-1.87 0.0284,-1.24688 3.46164,-4.53501 5.88688,-5.63996 1.39091,-0.63366 4.99469,-1.34796 8.00839,-1.58724 3.01379,-0.23929 7.05047,-0.67758 8.97058,-0.97413 2.04344,-0.31553 3.70884,-0.1864 4.01642,0.3112 0.59773,0.9672 -0.54295,1.37825 -7.08597,2.55372 -6.49257,1.16656 -10.3951,2.9841 -12.9656,6.03877 -2.70772,3.21813 -2.79841,5.24995 -0.31162,6.98468 l 1.89677,1.323 -2.52897,-0.037 c -1.39095,-0.0186 -4.04642,-0.63708 -5.90105,-1.3696 z m -441.51679,-2.44426 c -1.35952,-1.35956 -1.04951,-1.65567 5.47318,-5.22643 7.64234,-4.1838 11.48264,-4.73904 18.33753,-2.65196 l 3.7935,1.15498 -5.05802,1.00294 c -4.1366,0.82034 -12.90277,3.75164 -19.8254,6.62963 -0.70625,0.29362 -1.92537,-0.11395 -2.72079,-0.90916 z m 60.90264,-1.09109 c 0,-0.44895 -1.04314,-1.41492 -2.31823,-2.14677 l -2.31822,-1.33065 3.10404,0.48826 c 2.20546,0.34683 3.30352,0.14013 3.79347,-0.71393 0.58262,-1.01556 5.94798,-3.04778 8.08741,-3.06317 0.35963,-0.003 0.0657,1.13202 -0.65243,2.52138 -1.69225,3.2724 -9.69604,6.7763 -9.69604,4.24488 z m 13.12493,-2.46155 c -1.20768,-1.9541 7.04107,-4.97912 10.54502,-3.86704 2.55382,0.81052 0.84689,2.20326 -3.60739,2.94384 -1.99316,0.33141 -4.24959,0.86873 -5.01406,1.19433 -0.76435,0.32599 -1.63006,0.20389 -1.92357,-0.27113 z m 26.91756,-6.20737 c -5.56375,-0.44268 -10.21973,-0.90114 -10.34657,-1.01887 -0.75377,-0.69926 1.12623,-2.97589 3.14952,-3.81414 1.98938,-0.82398 2.90614,-0.71459 5.62975,0.67146 2.65453,1.35102 4.36568,1.57562 9.29719,1.22027 3.3241,-0.23959 7.11759,-0.16383 8.43003,0.16844 l 2.38609,0.60393 -2.95048,1.57662 c -1.62275,0.86704 -3.51957,1.53595 -4.215,1.48669 -0.69543,-0.0488 -5.81671,-0.45197 -11.38053,-0.8944 z m 242.59649,-3.44539 c -4.1411,-2.12008 -4.54065,-3.08155 -1.28802,-3.09955 1.27513,-0.006 2.88734,-0.42229 3.58281,-0.92254 1.09308,-0.78641 1.07847,-0.85074 -0.10769,-0.47447 -0.75483,0.2393 -1.81386,-0.006 -2.35333,-0.54563 -0.74577,-0.74564 -1.13426,-0.73265 -1.62103,0.0541 -0.45075,0.72926 -1.37621,0.81553 -3.12622,0.29151 -4.44535,-1.3312 -5.43637,-1.92227 -5.43637,-3.24212 0,-1.11806 1.11448,-1.22036 8.00853,-0.73579 5.25052,0.36902 8.00852,0.26666 8.00852,-0.29727 0,-1.6593 2.33892,-0.83995 2.95916,1.03689 l 0.62683,1.89676 0.3731,-1.89676 c 0.20522,-1.04324 0.91572,-1.89689 1.57896,-1.89689 0.66325,0 1.20594,-0.45508 1.20594,-1.01145 0,-0.78677 0.22476,-0.78677 1.01156,0 0.58841,0.58842 3.4094,1.01145 6.74393,1.01145 6.02702,0 7.44253,1.07768 3.42306,2.60592 -2.08906,0.79419 -5.72181,0.5695 -9.70342,-0.60003 -0.81129,-0.23832 -1.47273,-0.12314 -1.46986,0.25584 0.005,0.77779 4.74259,3.6394 6.02417,3.6394 0.45922,0 1.36709,0.53222 2.01764,1.18265 1.01472,1.01477 1.00618,1.25016 -0.0595,1.65947 -0.68359,0.26247 -1.24289,0.0668 -1.24289,-0.43328 0,-0.5888 -1.07215,-0.70918 -3.03345,-0.3414 -2.12396,0.39837 -2.86048,0.28904 -2.45645,-0.36466 0.31742,-0.51349 0.11862,-1.48606 -0.44166,-2.1612 -1.08103,-1.30247 -4.18442,-1.70131 -4.18442,-0.53786 0,0.37976 -1.23291,2.05329 -2.73975,3.71911 l -2.73977,3.02894 -3.55929,-1.82204 z m -223.62898,-1.85453 c -1.46145,-0.85805 -3.52884,-1.10647 -6.74404,-0.81058 -3.00514,0.2763 -5.3157,0.0378 -6.56694,-0.67747 -1.72495,-0.98643 -1.30338,-1.09894 3.9616,-1.05629 6.58357,0.0528 9.47495,-1.356 5.90954,-2.88043 -1.69381,-0.72411 -1.44676,-0.78992 1.45654,-0.38776 3.79031,0.52511 5.2638,-0.49053 3.19869,-2.20443 -2.20219,-1.82747 0.21916,-2.39497 8.05465,-1.88733 4.84866,0.31407 7.89556,0.13811 9.14103,-0.52854 2.38591,-1.27679 1.44976,-2.90247 -1.27749,-2.21791 -1.88482,0.47294 -14.96574,-0.30331 -14.41354,-0.85548 0.39456,-0.39457 18.92693,-2.11091 31.09552,-2.8799 6.31187,-0.39871 13.32976,-0.95527 15.59538,-1.23641 l 4.11952,-0.51121 -6.80033,3.2663 c -6.37573,3.0627 -16.74393,6.0483 -21.00342,6.0483 -1.03695,0 -4.01809,1.13811 -6.62464,2.52904 -2.60659,1.39084 -5.26199,2.52894 -5.90088,2.52894 -0.6388,0 -3.39635,1.13333 -6.12767,2.51839 -2.7313,1.38508 -4.96604,2.50963 -4.96604,2.49901 0,-0.009 -0.94839,-0.57585 -2.10748,-1.25624 z m -16.43844,-7.7018 c -4.08565,-0.90401 -4.23539,-1.24408 -1.23308,-2.80013 4.37628,-2.26814 8.5175,-2.84946 10.40029,-1.45998 1.49063,1.10012 1.4042,1.2702 -1.52348,2.99753 -3.05111,1.80028 -4.28951,2.00478 -7.64373,1.26258 z"
       id="path2830"
       inkscape:connector-curvature="0" />
  </g>
</svg>
