<?xml version="1.0" encoding="utf-8"?>
<!-- Generator: Adobe Illustrator 18.0.0, SVG Export Plug-In . SVG Version: 6.00 Build 0)  -->
<!DOCTYPE svg PUBLIC "-//W3C//DTD SVG 1.1//EN" "http://www.w3.org/Graphics/SVG/1.1/DTD/svg11.dtd">
<svg version="1.1" id="Layer_1" xmlns="http://www.w3.org/2000/svg" xmlns:xlink="http://www.w3.org/1999/xlink" x="0px" y="0px"
	 viewBox="0 0 550.6 97" enable-background="new 0 0 550.6 97" xml:space="preserve">
<g>
	<path fill="#673C90" d="M133.4,27.5c0-1.7,0.3-3.3,0.9-5c0.6-1.6,1.4-3.1,2.5-4.4c1.1-1.3,2.5-2.4,4.1-3.2c1.6-0.8,3.5-1.2,5.5-1.2
		c2.5,0,4.6,0.6,6.3,1.7s3,2.6,3.8,4.3l-1.6,0.9c-0.5-1-1-1.8-1.7-2.4c-0.7-0.6-1.4-1.2-2.1-1.6c-0.8-0.4-1.6-0.7-2.4-0.9
		c-0.8-0.2-1.6-0.3-2.4-0.3c-1.8,0-3.3,0.4-4.7,1.1c-1.3,0.7-2.5,1.6-3.4,2.8c-0.9,1.1-1.6,2.4-2.1,3.9c-0.5,1.4-0.7,2.9-0.7,4.3
		c0,1.6,0.3,3.2,0.9,4.7c0.6,1.5,1.3,2.8,2.3,3.9s2.1,2,3.5,2.7c1.3,0.7,2.8,1,4.4,1c0.8,0,1.7-0.1,2.5-0.3c0.9-0.2,1.7-0.5,2.5-1
		c0.8-0.4,1.6-1,2.3-1.7c0.7-0.7,1.3-1.5,1.7-2.4l1.7,0.8c-0.5,1-1.1,2-1.9,2.8c-0.8,0.8-1.7,1.5-2.7,2c-1,0.5-2,1-3.1,1.2
		c-1.1,0.3-2.2,0.4-3.2,0.4c-1.9,0-3.6-0.4-5.2-1.2c-1.6-0.8-2.9-1.9-4.1-3.2c-1.1-1.3-2-2.8-2.7-4.5
		C133.7,31,133.4,29.3,133.4,27.5z"/>
	<path fill="#673C90" d="M170.2,41.9c-1.4,0-2.7-0.3-4-0.8c-1.2-0.6-2.3-1.3-3.2-2.3s-1.6-2.1-2.1-3.4c-0.5-1.3-0.8-2.6-0.8-4.1
		c0-1.4,0.3-2.8,0.8-4c0.5-1.3,1.2-2.4,2.1-3.3c0.9-0.9,1.9-1.7,3.1-2.2c1.2-0.5,2.5-0.8,3.9-0.8c1.4,0,2.7,0.3,3.9,0.8
		c1.2,0.6,2.2,1.3,3.1,2.3c0.9,0.9,1.6,2,2.1,3.3c0.5,1.3,0.8,2.6,0.8,4c0,0.1,0,0.3,0,0.5c0,0.2,0,0.3,0,0.4h-17.8
		c0.1,1.2,0.3,2.2,0.8,3.2s1.1,1.9,1.8,2.6c0.7,0.7,1.5,1.3,2.5,1.7c0.9,0.4,1.9,0.6,3,0.6c0.7,0,1.4-0.1,2.1-0.3
		c0.7-0.2,1.3-0.5,1.9-0.8c0.6-0.3,1.1-0.7,1.6-1.2c0.5-0.5,0.8-1,1.1-1.6l1.7,0.5c-0.3,0.7-0.7,1.4-1.3,2c-0.6,0.6-1.2,1.1-1.9,1.6
		c-0.7,0.4-1.5,0.8-2.4,1C172,41.8,171.1,41.9,170.2,41.9z M178.1,30.6c-0.1-1.2-0.3-2.3-0.8-3.3c-0.5-1-1-1.8-1.7-2.5
		c-0.7-0.7-1.5-1.3-2.5-1.7c-0.9-0.4-1.9-0.6-3-0.6c-1.1,0-2.1,0.2-3,0.6c-0.9,0.4-1.8,1-2.5,1.7s-1.3,1.6-1.7,2.6
		c-0.4,1-0.7,2.1-0.8,3.2H178.1z"/>
	<path fill="#673C90" d="M200.7,41.5h-1.9V30.2c0-2.6-0.4-4.5-1.1-5.7s-1.9-1.8-3.6-1.8c-0.9,0-1.7,0.2-2.5,0.5
		c-0.8,0.3-1.6,0.8-2.3,1.3s-1.3,1.2-1.9,2c-0.5,0.8-0.9,1.6-1.2,2.5v12.5h-1.9V21.3h1.8v4.8c0.4-0.8,0.9-1.5,1.6-2.1
		c0.6-0.6,1.3-1.2,2.1-1.6c0.8-0.5,1.6-0.8,2.4-1c0.9-0.2,1.8-0.4,2.7-0.4c2.2,0,3.8,0.8,4.7,2.3c0.9,1.5,1.4,3.7,1.4,6.6V41.5z"/>
	<path fill="#673C90" d="M215.4,40.5c-0.1,0.1-0.3,0.1-0.5,0.3c-0.2,0.1-0.6,0.3-0.9,0.4c-0.4,0.1-0.8,0.2-1.3,0.3
		c-0.5,0.1-1,0.2-1.5,0.2s-1.1-0.1-1.5-0.2c-0.5-0.2-0.9-0.4-1.3-0.7c-0.4-0.3-0.7-0.7-0.9-1.1c-0.2-0.4-0.3-1-0.3-1.6V22.9h-2.8
		v-1.6h2.8v-6.9h1.9v6.9h4.7v1.6h-4.7v14.8c0,0.8,0.3,1.3,0.8,1.7c0.5,0.4,1.1,0.6,1.8,0.6c0.8,0,1.5-0.1,2.1-0.4s0.9-0.4,1.1-0.5
		L215.4,40.5z"/>
	<path fill="#673C90" d="M228.2,23c-1.8,0.1-3.4,0.6-4.8,1.6c-1.3,1-2.3,2.4-2.8,4.2v12.6h-1.9V21.3h1.8v5c0.7-1.4,1.6-2.6,2.8-3.5
		c1.2-0.9,2.4-1.4,3.7-1.5c0.3,0,0.5,0,0.7,0c0.2,0,0.4,0,0.5,0V23z"/>
	<path fill="#673C90" d="M240.6,41.9c-1.4,0-2.7-0.3-4-0.8c-1.2-0.6-2.3-1.3-3.2-2.3s-1.6-2.1-2.1-3.4c-0.5-1.3-0.8-2.6-0.8-4.1
		c0-1.4,0.3-2.8,0.8-4c0.5-1.3,1.2-2.4,2.1-3.3c0.9-0.9,1.9-1.7,3.1-2.2c1.2-0.5,2.5-0.8,3.9-0.8c1.4,0,2.7,0.3,3.9,0.8
		c1.2,0.6,2.2,1.3,3.1,2.3c0.9,0.9,1.6,2,2.1,3.3c0.5,1.3,0.8,2.6,0.8,4c0,0.1,0,0.3,0,0.5c0,0.2,0,0.3,0,0.4h-17.8
		c0.1,1.2,0.3,2.2,0.8,3.2s1.1,1.9,1.8,2.6c0.7,0.7,1.5,1.3,2.5,1.7c0.9,0.4,1.9,0.6,3,0.6c0.7,0,1.4-0.1,2.1-0.3
		c0.7-0.2,1.3-0.5,1.9-0.8c0.6-0.3,1.1-0.7,1.6-1.2c0.5-0.5,0.8-1,1.1-1.6l1.7,0.5c-0.3,0.7-0.7,1.4-1.3,2c-0.6,0.6-1.2,1.1-1.9,1.6
		c-0.7,0.4-1.5,0.8-2.4,1C242.4,41.8,241.5,41.9,240.6,41.9z M248.5,30.6c-0.1-1.2-0.3-2.3-0.8-3.3c-0.5-1-1-1.8-1.7-2.5
		c-0.7-0.7-1.5-1.3-2.5-1.7c-0.9-0.4-1.9-0.6-3-0.6c-1.1,0-2.1,0.2-3,0.6c-0.9,0.4-1.8,1-2.5,1.7s-1.3,1.6-1.7,2.6
		c-0.4,1-0.7,2.1-0.8,3.2H248.5z"/>
	<path fill="#673C90" d="M265.8,41.5V25.3h-2.8v-1.6h2.8v-3c0-2.5,0.5-4.4,1.5-5.8c1-1.4,2.4-2.1,4.2-2.1c0.8,0,1.5,0.1,2.2,0.3
		c0.7,0.2,1.3,0.5,1.8,0.9l-0.7,1.4c-0.4-0.3-0.8-0.5-1.3-0.7c-0.5-0.2-1.1-0.3-1.7-0.3c-1.3,0-2.3,0.5-3.1,1.6
		c-0.7,1-1.1,2.6-1.1,4.6v3.1h5.8v1.6h-5.8v16.2H265.8z"/>
	<path fill="#673C90" d="M286,41.9c-1.4,0-2.7-0.3-3.9-0.8c-1.2-0.6-2.2-1.3-3.1-2.3c-0.9-1-1.6-2.1-2.1-3.3c-0.5-1.3-0.7-2.6-0.7-4
		c0-1.4,0.3-2.8,0.8-4c0.5-1.3,1.2-2.4,2.1-3.3c0.9-1,1.9-1.7,3.1-2.3c1.2-0.6,2.5-0.8,3.9-0.8s2.7,0.3,3.9,0.8
		c1.2,0.6,2.3,1.3,3.1,2.3c0.9,1,1.6,2.1,2.1,3.3c0.5,1.3,0.8,2.6,0.8,4c0,1.4-0.3,2.7-0.8,4c-0.5,1.3-1.2,2.4-2.1,3.3
		c-0.9,1-1.9,1.7-3.1,2.3C288.7,41.6,287.4,41.9,286,41.9z M278.1,31.5c0,1.2,0.2,2.3,0.6,3.4c0.4,1,1,2,1.7,2.7
		c0.7,0.8,1.5,1.4,2.5,1.8c1,0.5,2,0.7,3.1,0.7s2.1-0.2,3.1-0.7c1-0.5,1.8-1.1,2.5-1.9c0.7-0.8,1.3-1.7,1.7-2.8
		c0.4-1,0.6-2.2,0.6-3.4c0-1.2-0.2-2.3-0.6-3.4c-0.4-1-1-2-1.7-2.8c-0.7-0.8-1.5-1.4-2.5-1.9c-1-0.5-2-0.7-3.1-0.7
		c-1.1,0-2.1,0.2-3,0.7c-1,0.5-1.8,1.1-2.5,1.9c-0.7,0.8-1.3,1.7-1.7,2.8C278.3,29.2,278.1,30.3,278.1,31.5z"/>
	<path fill="#673C90" d="M310.1,23c-1.8,0.1-3.4,0.6-4.8,1.6c-1.3,1-2.3,2.4-2.8,4.2v12.6h-1.9V21.3h1.8v5c0.7-1.4,1.6-2.6,2.8-3.5
		c1.2-0.9,2.4-1.4,3.7-1.5c0.3,0,0.5,0,0.7,0c0.2,0,0.4,0,0.5,0V23z"/>
	<path fill="#673C90" d="M342.7,38.1c-2.3,2.4-4.9,3.6-7.9,3.6c-1.8,0-3.5-0.4-5-1.2c-1.6-0.8-2.9-1.8-4.1-3.1
		c-1.2-1.3-2.1-2.8-2.7-4.5c-0.7-1.7-1-3.5-1-5.3c0-1.9,0.3-3.6,1-5.3c0.7-1.7,1.6-3.2,2.7-4.4c1.2-1.3,2.5-2.3,4.1-3
		c1.6-0.7,3.3-1.1,5.2-1.1c2.6,0,4.8,0.6,6.5,1.7c1.8,1.1,3.1,2.6,4,4.4l-3.3,2.4c-0.8-1.5-1.8-2.6-3.1-3.4
		c-1.3-0.8-2.7-1.1-4.3-1.1c-1.3,0-2.4,0.3-3.5,0.8c-1,0.6-1.9,1.3-2.7,2.2c-0.7,0.9-1.3,2-1.7,3.2c-0.4,1.2-0.6,2.5-0.6,3.8
		c0,1.4,0.2,2.7,0.7,3.9c0.4,1.2,1.1,2.3,1.8,3.2c0.8,0.9,1.7,1.6,2.8,2.2c1.1,0.5,2.2,0.8,3.5,0.8c2.8,0,5.3-1.4,7.5-4.1v-2.9h-5.8
		v-3.2h9.4v13.9h-3.7V38.1z"/>
	<path fill="#673C90" d="M360,41.9c-1.6,0-3-0.3-4.3-0.8c-1.3-0.6-2.4-1.3-3.3-2.3c-0.9-1-1.6-2.1-2.1-3.3c-0.5-1.3-0.8-2.6-0.8-4
		c0-1.4,0.3-2.8,0.8-4.1c0.5-1.3,1.2-2.4,2.1-3.4c0.9-1,2-1.7,3.3-2.3c1.3-0.6,2.7-0.8,4.4-0.8c1.6,0,3,0.3,4.3,0.9s2.4,1.3,3.3,2.3
		c0.9,0.9,1.6,2,2.1,3.3c0.5,1.3,0.7,2.6,0.7,3.9c0,0.3,0,0.6,0,0.9c0,0.3-0.1,0.5-0.1,0.7h-16.3c0.1,0.9,0.3,1.7,0.6,2.4
		c0.3,0.7,0.8,1.4,1.4,1.9c0.6,0.5,1.2,0.9,1.9,1.2c0.7,0.3,1.5,0.4,2.2,0.4c0.6,0,1.1-0.1,1.7-0.2c0.6-0.1,1.1-0.4,1.5-0.6
		s0.9-0.6,1.2-1c0.4-0.4,0.6-0.8,0.9-1.3l3.7,1c-0.7,1.5-1.9,2.8-3.5,3.7C364.1,41.4,362.2,41.9,360,41.9z M366.2,29.8
		c-0.1-0.9-0.3-1.6-0.6-2.4c-0.4-0.7-0.8-1.3-1.3-1.8c-0.5-0.5-1.2-0.9-1.9-1.2c-0.7-0.3-1.5-0.4-2.3-0.4c-0.8,0-1.6,0.1-2.3,0.4
		c-0.7,0.3-1.3,0.7-1.9,1.2c-0.5,0.5-1,1.1-1.3,1.8c-0.3,0.7-0.5,1.5-0.6,2.4H366.2z"/>
	<path fill="#673C90" d="M392.1,41.5h-4.3V30.1c0-1.9-0.3-3.3-0.9-4.2c-0.6-0.9-1.5-1.3-2.7-1.3c-0.6,0-1.2,0.1-1.9,0.4
		c-0.6,0.2-1.2,0.6-1.8,1c-0.5,0.4-1,0.9-1.5,1.5c-0.4,0.6-0.8,1.2-1,1.9v12.1h-4.3V21.2h3.9v4.1c0.8-1.4,1.9-2.5,3.4-3.2
		c1.5-0.8,3.1-1.2,4.9-1.2c1.2,0,2.2,0.2,3,0.7c0.8,0.4,1.4,1,1.9,1.8c0.5,0.8,0.8,1.6,1,2.6c0.2,1,0.3,2.1,0.3,3.2V41.5z"/>
	<path fill="#673C90" d="M406.2,41.9c-1.6,0-3.1-0.3-4.3-0.9s-2.4-1.3-3.3-2.3c-0.9-1-1.6-2.1-2.1-3.4c-0.5-1.3-0.7-2.6-0.7-4
		s0.2-2.7,0.7-4c0.5-1.3,1.2-2.4,2.1-3.4c0.9-1,2-1.7,3.3-2.3s2.7-0.9,4.3-0.9c1.6,0,3,0.3,4.3,0.9c1.3,0.6,2.4,1.3,3.3,2.3
		c0.9,1,1.6,2.1,2.1,3.4s0.7,2.6,0.7,4s-0.2,2.7-0.7,4s-1.2,2.4-2.1,3.4c-0.9,1-2,1.7-3.3,2.3C409.2,41.6,407.7,41.9,406.2,41.9z
		 M400.1,31.4c0,1,0.2,1.9,0.5,2.7c0.3,0.8,0.7,1.5,1.3,2.2c0.5,0.6,1.2,1.1,1.9,1.4c0.7,0.4,1.5,0.5,2.4,0.5s1.7-0.2,2.4-0.5
		c0.7-0.3,1.4-0.8,1.9-1.5c0.5-0.6,1-1.3,1.3-2.2c0.3-0.8,0.5-1.7,0.5-2.7c0-1-0.2-1.9-0.5-2.7c-0.3-0.8-0.7-1.6-1.3-2.2
		c-0.5-0.6-1.2-1.1-1.9-1.5c-0.7-0.3-1.5-0.5-2.4-0.5c-0.8,0-1.6,0.2-2.4,0.5c-0.7,0.4-1.4,0.9-1.9,1.5s-1,1.4-1.3,2.2
		C400.3,29.5,400.1,30.4,400.1,31.4z"/>
	<path fill="#673C90" d="M451.4,41.5h-4.3V30.1c0-1.9-0.3-3.3-1-4.2c-0.6-0.9-1.5-1.3-2.7-1.3c-1.2,0-2.3,0.4-3.3,1.3
		c-1,0.9-1.7,2.1-2.2,3.5v12h-4.3V30.1c0-1.9-0.3-3.3-0.9-4.2c-0.6-0.9-1.5-1.3-2.7-1.3c-1.2,0-2.3,0.4-3.3,1.3
		c-1,0.9-1.8,2-2.2,3.5v12.1h-4.3V21.2h3.9v4.1c0.8-1.4,1.9-2.5,3.2-3.3c1.3-0.8,2.8-1.1,4.5-1.1c1.7,0,3,0.4,4,1.3
		c1,0.9,1.6,2,1.8,3.3c0.9-1.5,1.9-2.6,3.2-3.4c1.3-0.8,2.8-1.2,4.4-1.2c1.2,0,2.2,0.2,3,0.7s1.4,1.1,1.9,1.8c0.5,0.8,0.8,1.6,1,2.6
		c0.2,1,0.3,2.1,0.3,3.2V41.5z"/>
	<path fill="#673C90" d="M456.2,17.8v-4.7h4.3v4.7H456.2z M456.2,41.5V21.2h4.3v20.3H456.2z"/>
	<path fill="#673C90" d="M464.2,31.3c0-1.4,0.2-2.8,0.7-4s1.2-2.4,2.1-3.3c0.9-1,2-1.7,3.3-2.3c1.3-0.6,2.7-0.8,4.4-0.8
		c2.1,0,3.9,0.5,5.4,1.4c1.5,0.9,2.6,2.1,3.4,3.7l-4.2,1.3c-0.5-0.9-1.2-1.5-2-2c-0.8-0.5-1.7-0.7-2.8-0.7c-0.9,0-1.7,0.2-2.4,0.5
		c-0.7,0.3-1.4,0.8-1.9,1.4c-0.5,0.6-1,1.3-1.3,2.2c-0.3,0.8-0.5,1.7-0.5,2.8c0,1,0.2,1.9,0.5,2.7c0.3,0.8,0.8,1.6,1.3,2.2
		c0.6,0.6,1.2,1.1,1.9,1.5c0.7,0.4,1.5,0.5,2.4,0.5c0.5,0,1-0.1,1.6-0.2c0.5-0.1,1-0.3,1.4-0.6c0.4-0.3,0.8-0.6,1.1-0.9
		c0.3-0.3,0.6-0.7,0.7-1.1l4.2,1.2c-0.7,1.5-1.8,2.8-3.4,3.7c-1.6,1-3.4,1.5-5.6,1.5c-1.6,0-3-0.3-4.3-0.9s-2.4-1.3-3.3-2.3
		c-0.9-1-1.6-2.1-2.1-3.4C464.5,34.1,464.2,32.7,464.2,31.3z"/>
	<path fill="#673C90" d="M134.7,81.7V54.1h11.6c1.2,0,2.4,0.3,3.4,0.8c1,0.5,1.9,1.2,2.7,2c0.8,0.8,1.3,1.8,1.8,2.9s0.6,2.2,0.6,3.3
		c0,1.2-0.2,2.3-0.6,3.4c-0.4,1.1-1,2-1.7,2.9c-0.7,0.8-1.6,1.5-2.6,2c-1,0.5-2.2,0.8-3.4,0.8H139v9.6H134.7z M139,68.2h7.2
		c0.6,0,1.2-0.1,1.7-0.4c0.5-0.3,0.9-0.6,1.3-1.1c0.4-0.5,0.6-1,0.9-1.6c0.2-0.6,0.3-1.3,0.3-2.1c0-0.8-0.1-1.5-0.3-2.1
		c-0.2-0.6-0.6-1.2-1-1.6c-0.4-0.5-0.9-0.8-1.4-1c-0.5-0.2-1.1-0.4-1.7-0.4h-7V68.2z"/>
	<path fill="#673C90" d="M163.3,82c-1,0-1.9-0.2-2.7-0.5c-0.8-0.3-1.6-0.8-2.2-1.3c-0.6-0.6-1.1-1.2-1.4-2c-0.3-0.8-0.5-1.6-0.5-2.5
		c0-1,0.2-1.8,0.6-2.6c0.4-0.8,1-1.5,1.8-2c0.8-0.6,1.7-1,2.7-1.3c1-0.3,2.2-0.5,3.5-0.5c1,0,1.9,0.1,2.8,0.3s1.8,0.4,2.5,0.7v-1.4
		c0-1.5-0.4-2.7-1.3-3.5c-0.9-0.8-2.1-1.3-3.7-1.3c-1.1,0-2.2,0.2-3.2,0.6c-1,0.4-2.1,1-3.2,1.7l-1.3-2.7c2.6-1.8,5.3-2.6,8.2-2.6
		c2.8,0,5,0.7,6.5,2.1c1.6,1.4,2.3,3.5,2.3,6.1v7.3c0,0.5,0.1,0.8,0.3,1c0.2,0.2,0.5,0.3,0.9,0.3v3.7c-0.4,0.1-0.8,0.1-1.1,0.2
		s-0.7,0-1,0c-0.8-0.1-1.5-0.3-1.9-0.7s-0.7-0.9-0.8-1.6l-0.1-1.3c-0.9,1.2-2,2.1-3.4,2.7C166.2,81.7,164.8,82,163.3,82z
		 M164.4,78.9c1,0,2-0.2,2.9-0.6c0.9-0.4,1.6-0.9,2.2-1.6c0.5-0.5,0.8-1,0.8-1.5v-2.7c-0.7-0.3-1.5-0.5-2.3-0.7
		c-0.8-0.2-1.6-0.2-2.4-0.2c-1.5,0-2.8,0.3-3.7,1s-1.5,1.5-1.5,2.6c0,1,0.4,1.9,1.1,2.5C162.3,78.6,163.3,78.9,164.4,78.9z"/>
	<path fill="#673C90" d="M190.9,80.6c-0.6,0.3-1.3,0.6-2.3,0.9c-0.9,0.3-2,0.5-3.1,0.5c-0.7,0-1.3-0.1-1.9-0.3
		c-0.6-0.2-1.1-0.5-1.6-0.8c-0.5-0.4-0.8-0.8-1.1-1.4c-0.3-0.6-0.4-1.3-0.4-2.1V64.6h-2.7v-3.3h2.7v-6.7h4.3v6.7h4.4v3.3h-4.4V76
		c0,0.7,0.2,1.2,0.6,1.6c0.4,0.3,0.9,0.5,1.5,0.5c0.6,0,1.2-0.1,1.7-0.3c0.5-0.2,0.9-0.4,1.2-0.5L190.9,80.6z"/>
	<path fill="#673C90" d="M211.9,81.7h-4.3V70.3c0-1.9-0.3-3.2-1-4.1c-0.7-0.9-1.6-1.3-2.9-1.3c-0.6,0-1.2,0.1-1.7,0.4
		c-0.6,0.2-1.2,0.6-1.7,1c-0.5,0.4-1,0.9-1.4,1.5c-0.4,0.6-0.7,1.2-1,1.9v12.1h-4.3V53.3h4.3v12.1c0.8-1.4,1.9-2.5,3.2-3.3
		c1.3-0.8,2.8-1.2,4.4-1.2c1.2,0,2.3,0.2,3.1,0.7c0.8,0.5,1.5,1.1,2,1.8c0.5,0.8,0.8,1.6,1,2.6c0.2,1,0.3,2.1,0.3,3.2V81.7z"/>
	<path fill="#673C90" d="M226,82c-1.6,0-3.1-0.3-4.3-0.9s-2.4-1.3-3.3-2.3c-0.9-1-1.6-2.1-2.1-3.4c-0.5-1.3-0.7-2.6-0.7-4
		s0.2-2.7,0.7-4c0.5-1.3,1.2-2.4,2.1-3.4c0.9-1,2-1.7,3.3-2.3s2.7-0.9,4.3-0.9c1.6,0,3,0.3,4.3,0.9s2.4,1.3,3.3,2.3
		c0.9,1,1.6,2.1,2.1,3.4c0.5,1.3,0.7,2.6,0.7,4s-0.2,2.7-0.7,4c-0.5,1.3-1.2,2.4-2.1,3.4c-0.9,1-2,1.7-3.3,2.3S227.5,82,226,82z
		 M219.9,71.5c0,1,0.2,1.9,0.5,2.7c0.3,0.8,0.7,1.5,1.3,2.2c0.5,0.6,1.2,1.1,1.9,1.4c0.7,0.4,1.5,0.5,2.4,0.5s1.7-0.2,2.4-0.5
		c0.7-0.3,1.4-0.8,1.9-1.5c0.5-0.6,1-1.3,1.3-2.2c0.3-0.8,0.5-1.7,0.5-2.7c0-1-0.2-1.9-0.5-2.7c-0.3-0.8-0.7-1.6-1.3-2.2
		c-0.5-0.6-1.2-1.1-1.9-1.5c-0.7-0.3-1.5-0.5-2.4-0.5c-0.8,0-1.6,0.2-2.4,0.5c-0.7,0.4-1.4,0.9-1.9,1.5s-1,1.4-1.3,2.2
		C220.1,69.7,219.9,70.6,219.9,71.5z"/>
	<path fill="#673C90" d="M248.2,81.8c-1.4,0-2.6-0.3-3.7-0.8c-1.1-0.6-2.1-1.3-2.9-2.3c-0.8-1-1.5-2.1-1.9-3.3
		c-0.5-1.2-0.7-2.6-0.7-3.9c0-1.5,0.2-2.8,0.7-4.1c0.5-1.3,1.1-2.4,1.9-3.3c0.8-0.9,1.8-1.7,3-2.3c1.2-0.6,2.4-0.8,3.8-0.8
		c1.7,0,3.1,0.4,4.3,1.2c1.2,0.8,2.2,1.8,3,3v-3.8h3.8v19.7c0,1.5-0.3,2.8-0.8,3.9c-0.5,1.1-1.3,2.1-2.3,2.9c-1,0.8-2.1,1.4-3.4,1.8
		c-1.3,0.4-2.7,0.6-4.3,0.6c-2.3,0-4.1-0.4-5.6-1.1c-1.5-0.8-2.7-1.8-3.8-3.2l2.4-2.3c0.8,1.1,1.8,1.9,3,2.5
		c1.2,0.6,2.5,0.9,3.9,0.9c0.9,0,1.7-0.1,2.5-0.3c0.8-0.2,1.5-0.6,2.1-1.1c0.6-0.5,1.1-1.1,1.4-1.9c0.3-0.8,0.5-1.6,0.5-2.7V78
		c-0.7,1.2-1.7,2.2-3,2.9C250.9,81.5,249.6,81.8,248.2,81.8z M249.6,78.4c0.6,0,1.3-0.1,1.9-0.3c0.6-0.2,1.1-0.5,1.7-0.9
		c0.5-0.4,0.9-0.8,1.3-1.3c0.4-0.5,0.6-1,0.8-1.5V69c-0.5-1.3-1.3-2.4-2.4-3.2s-2.3-1.2-3.5-1.2c-0.9,0-1.8,0.2-2.5,0.6
		c-0.7,0.4-1.4,0.9-1.9,1.6c-0.5,0.7-0.9,1.4-1.2,2.2c-0.3,0.8-0.4,1.7-0.4,2.6c0,0.9,0.2,1.8,0.5,2.6c0.3,0.8,0.8,1.5,1.3,2.1
		c0.6,0.6,1.2,1.1,2,1.5C247.8,78.2,248.7,78.4,249.6,78.4z"/>
	<path fill="#673C90" d="M273.7,82c-1.6,0-3-0.3-4.3-0.8c-1.3-0.6-2.4-1.3-3.3-2.3c-0.9-1-1.6-2.1-2.1-3.3c-0.5-1.3-0.8-2.6-0.8-4
		c0-1.4,0.3-2.8,0.8-4.1c0.5-1.3,1.2-2.4,2.1-3.4c0.9-1,2-1.7,3.3-2.3c1.3-0.6,2.7-0.8,4.4-0.8c1.6,0,3,0.3,4.3,0.9s2.4,1.3,3.3,2.3
		c0.9,0.9,1.6,2,2.1,3.3c0.5,1.3,0.7,2.6,0.7,3.9c0,0.3,0,0.6,0,0.9c0,0.3-0.1,0.5-0.1,0.7h-16.3c0.1,0.9,0.3,1.7,0.6,2.4
		c0.3,0.7,0.8,1.4,1.4,1.9c0.6,0.5,1.2,0.9,1.9,1.2c0.7,0.3,1.5,0.4,2.2,0.4c0.6,0,1.1-0.1,1.7-0.2c0.6-0.1,1.1-0.4,1.5-0.6
		s0.9-0.6,1.2-1c0.4-0.4,0.6-0.8,0.9-1.3l3.7,1c-0.7,1.5-1.9,2.8-3.5,3.7C277.8,81.6,275.9,82,273.7,82z M279.9,70
		c-0.1-0.9-0.3-1.6-0.6-2.4c-0.4-0.7-0.8-1.3-1.3-1.8c-0.5-0.5-1.2-0.9-1.9-1.2c-0.7-0.3-1.5-0.4-2.3-0.4c-0.8,0-1.6,0.1-2.3,0.4
		c-0.7,0.3-1.3,0.7-1.9,1.2c-0.5,0.5-1,1.1-1.3,1.8c-0.3,0.7-0.5,1.5-0.6,2.4H279.9z"/>
	<path fill="#673C90" d="M305.8,81.7h-4.3V70.3c0-1.9-0.3-3.3-0.9-4.2c-0.6-0.9-1.5-1.3-2.7-1.3c-0.6,0-1.2,0.1-1.9,0.4
		c-0.6,0.2-1.2,0.6-1.8,1c-0.5,0.4-1,0.9-1.5,1.5c-0.4,0.6-0.8,1.2-1,1.9v12.1h-4.3V61.3h3.9v4.1c0.8-1.4,1.9-2.5,3.4-3.2
		c1.5-0.8,3.1-1.2,4.9-1.2c1.2,0,2.2,0.2,3,0.7c0.8,0.4,1.4,1,1.9,1.8c0.5,0.8,0.8,1.6,1,2.6c0.2,1,0.3,2.1,0.3,3.2V81.7z"/>
	<path fill="#673C90" d="M337.2,60.6c-0.3-0.3-0.6-0.6-1.1-0.9c-0.5-0.3-1.1-0.6-1.7-0.9c-0.7-0.3-1.4-0.5-2.2-0.7
		c-0.8-0.2-1.7-0.3-2.6-0.3c-1.7,0-3,0.3-3.9,1c-0.9,0.7-1.3,1.6-1.3,2.8c0,0.7,0.1,1.2,0.4,1.7c0.3,0.4,0.7,0.8,1.3,1.1
		c0.6,0.3,1.3,0.6,2.1,0.8c0.9,0.2,1.9,0.5,3,0.8c1.3,0.4,2.6,0.7,3.7,1.1s2.1,0.9,2.9,1.5s1.4,1.3,1.8,2.2c0.4,0.9,0.7,1.9,0.7,3.2
		c0,1.5-0.3,2.7-0.8,3.7s-1.3,1.8-2.2,2.5c-0.9,0.6-2,1.1-3.2,1.4c-1.2,0.3-2.5,0.4-3.9,0.4c-2.1,0-4.1-0.3-6.1-1
		c-2-0.6-3.7-1.6-5.3-2.8l2-3.7c0.3,0.3,0.8,0.7,1.4,1.1c0.6,0.4,1.4,0.8,2.2,1.1c0.8,0.3,1.8,0.6,2.8,0.9c1,0.2,2.1,0.4,3.1,0.4
		c1.7,0,2.9-0.3,3.9-0.9c0.9-0.6,1.4-1.5,1.4-2.7c0-0.7-0.2-1.3-0.5-1.7c-0.3-0.5-0.8-0.9-1.5-1.2c-0.6-0.4-1.4-0.7-2.4-0.9
		s-2-0.6-3.2-0.9c-1.4-0.4-2.6-0.7-3.6-1.1c-1-0.4-1.9-0.9-2.5-1.5c-0.7-0.6-1.2-1.2-1.5-2c-0.3-0.8-0.5-1.7-0.5-2.8
		c0-1.3,0.3-2.5,0.8-3.6c0.5-1,1.2-1.9,2.1-2.6c0.9-0.7,1.9-1.2,3.2-1.6c1.2-0.4,2.5-0.5,3.9-0.5c1.9,0,3.7,0.3,5.2,0.9
		c1.6,0.6,2.9,1.3,4.1,2.2L337.2,60.6z"/>
	<path fill="#673C90" d="M350.1,82c-2.1,0-3.7-0.7-4.8-2.1c-1.1-1.4-1.6-3.5-1.6-6.2V61.3h4.3v11.6c0,3.7,1.3,5.5,3.8,5.5
		c1.2,0,2.4-0.4,3.5-1.1c1.1-0.8,1.9-1.8,2.5-3.3V61.3h4.3v15.3c0,0.5,0.1,0.8,0.3,1c0.2,0.2,0.5,0.3,1,0.3v3.7
		c-0.5,0.1-0.9,0.1-1.2,0.2c-0.3,0-0.6,0-0.9,0c-1.6-0.1-2.5-0.9-2.7-2.2l-0.1-2.1c-0.9,1.5-2.1,2.6-3.5,3.4
		C353.5,81.7,351.9,82,350.1,82z"/>
	<path fill="#673C90" d="M379.1,65c-1.7,0.1-3.1,0.4-4.4,1.1c-1.3,0.7-2.2,1.7-2.8,3.1v12.4h-4.3V61.3h4v4.5
		c0.7-1.4,1.7-2.5,2.8-3.4c1.1-0.9,2.3-1.3,3.6-1.3c0.3,0,0.5,0,0.6,0c0.2,0,0.3,0,0.4,0V65z"/>
	<path fill="#673C90" d="M387.9,81.7l-7.8-20.3h4.4l5.8,16.7l5.9-16.7h4l-7.8,20.3H387.9z"/>
	<path fill="#673C90" d="M412.4,82c-1.6,0-3-0.3-4.3-0.8c-1.3-0.6-2.4-1.3-3.3-2.3c-0.9-1-1.6-2.1-2.1-3.3c-0.5-1.3-0.8-2.6-0.8-4
		c0-1.4,0.3-2.8,0.8-4.1c0.5-1.3,1.2-2.4,2.1-3.4c0.9-1,2-1.7,3.3-2.3c1.3-0.6,2.7-0.8,4.4-0.8c1.6,0,3,0.3,4.3,0.9s2.4,1.3,3.3,2.3
		c0.9,0.9,1.6,2,2.1,3.3c0.5,1.3,0.7,2.6,0.7,3.9c0,0.3,0,0.6,0,0.9c0,0.3-0.1,0.5-0.1,0.7h-16.3c0.1,0.9,0.3,1.7,0.6,2.4
		c0.3,0.7,0.8,1.4,1.4,1.9c0.6,0.5,1.2,0.9,1.9,1.2c0.7,0.3,1.5,0.4,2.2,0.4c0.6,0,1.1-0.1,1.7-0.2c0.6-0.1,1.1-0.4,1.5-0.6
		c0.5-0.3,0.9-0.6,1.2-1c0.4-0.4,0.6-0.8,0.9-1.3l3.7,1c-0.7,1.5-1.9,2.8-3.5,3.7C416.5,81.6,414.6,82,412.4,82z M418.6,70
		c-0.1-0.9-0.3-1.6-0.6-2.4c-0.3-0.7-0.8-1.3-1.3-1.8c-0.5-0.5-1.2-0.9-1.9-1.2c-0.7-0.3-1.5-0.4-2.3-0.4c-0.8,0-1.6,0.1-2.3,0.4
		c-0.7,0.3-1.3,0.7-1.9,1.2c-0.5,0.5-1,1.1-1.3,1.8c-0.3,0.7-0.5,1.5-0.6,2.4H418.6z"/>
	<path fill="#673C90" d="M426.2,58v-4.7h4.3V58H426.2z M426.2,81.7V61.3h4.3v20.3H426.2z"/>
	<path fill="#673C90" d="M435.6,53.3h4.3v22.4c0,0.8,0.2,1.3,0.6,1.8c0.4,0.4,0.9,0.6,1.6,0.6c0.3,0,0.6,0,1-0.1s0.8-0.2,1.1-0.4
		l0.6,3.5c-0.6,0.3-1.4,0.5-2.2,0.7c-0.9,0.2-1.6,0.3-2.3,0.3c-1.5,0-2.6-0.4-3.5-1.2c-0.8-0.8-1.2-1.9-1.2-3.4V53.3z"/>
	<path fill="#673C90" d="M447.2,53.3h4.3v22.4c0,0.8,0.2,1.3,0.6,1.8c0.4,0.4,0.9,0.6,1.6,0.6c0.3,0,0.6,0,1-0.1s0.8-0.2,1.1-0.4
		l0.6,3.5c-0.6,0.3-1.4,0.5-2.2,0.7c-0.9,0.2-1.6,0.3-2.3,0.3c-1.5,0-2.6-0.4-3.5-1.2c-0.8-0.8-1.2-1.9-1.2-3.4V53.3z"/>
	<path fill="#673C90" d="M464.2,82c-1,0-1.9-0.2-2.7-0.5s-1.6-0.8-2.2-1.3s-1.1-1.2-1.4-2c-0.3-0.8-0.5-1.6-0.5-2.5
		c0-1,0.2-1.8,0.6-2.6c0.4-0.8,1-1.5,1.8-2c0.8-0.6,1.7-1,2.7-1.3c1-0.3,2.2-0.5,3.5-0.5c1,0,1.9,0.1,2.8,0.3
		c0.9,0.2,1.8,0.4,2.5,0.7v-1.4c0-1.5-0.4-2.7-1.3-3.5c-0.9-0.8-2.1-1.3-3.7-1.3c-1.1,0-2.2,0.2-3.2,0.6c-1,0.4-2.1,1-3.2,1.7
		l-1.3-2.7c2.6-1.8,5.3-2.6,8.2-2.6c2.8,0,5,0.7,6.5,2.1c1.6,1.4,2.3,3.5,2.3,6.1v7.3c0,0.5,0.1,0.8,0.3,1c0.2,0.2,0.5,0.3,0.9,0.3
		v3.7c-0.4,0.1-0.8,0.1-1.1,0.2s-0.7,0-1,0c-0.8-0.1-1.5-0.3-1.9-0.7c-0.4-0.4-0.7-0.9-0.8-1.6l-0.1-1.3c-0.9,1.2-2,2.1-3.4,2.7
		C467.1,81.7,465.7,82,464.2,82z M465.3,78.9c1,0,2-0.2,2.9-0.6c0.9-0.4,1.6-0.9,2.2-1.6c0.5-0.5,0.8-1,0.8-1.5v-2.7
		c-0.7-0.3-1.5-0.5-2.3-0.7c-0.8-0.2-1.6-0.2-2.4-0.2c-1.5,0-2.8,0.3-3.7,1s-1.5,1.5-1.5,2.6c0,1,0.4,1.9,1.1,2.5
		C463.2,78.6,464.2,78.9,465.3,78.9z"/>
	<path fill="#673C90" d="M499,81.7h-4.3V70.3c0-1.9-0.3-3.3-0.9-4.2c-0.6-0.9-1.5-1.3-2.7-1.3c-0.6,0-1.2,0.1-1.9,0.4
		c-0.6,0.2-1.2,0.6-1.8,1c-0.5,0.4-1,0.9-1.5,1.5c-0.4,0.6-0.8,1.2-1,1.9v12.1h-4.3V61.3h3.9v4.1c0.8-1.4,1.9-2.5,3.4-3.2
		c1.5-0.8,3.1-1.2,4.9-1.2c1.2,0,2.2,0.2,3,0.7c0.8,0.4,1.4,1,1.9,1.8c0.5,0.8,0.8,1.6,1,2.6c0.2,1,0.3,2.1,0.3,3.2V81.7z"/>
	<path fill="#673C90" d="M502.6,71.5c0-1.4,0.2-2.8,0.7-4s1.2-2.4,2.1-3.3c0.9-1,2-1.7,3.3-2.3c1.3-0.6,2.7-0.8,4.4-0.8
		c2.1,0,3.9,0.5,5.4,1.4c1.5,0.9,2.6,2.1,3.4,3.7l-4.2,1.3c-0.5-0.9-1.2-1.5-2-2c-0.8-0.5-1.7-0.7-2.8-0.7c-0.9,0-1.7,0.2-2.4,0.5
		c-0.7,0.3-1.4,0.8-1.9,1.4c-0.5,0.6-1,1.3-1.3,2.2c-0.3,0.8-0.5,1.7-0.5,2.8c0,1,0.2,1.9,0.5,2.7c0.3,0.8,0.8,1.6,1.3,2.2
		c0.6,0.6,1.2,1.1,1.9,1.5c0.7,0.4,1.5,0.5,2.4,0.5c0.5,0,1-0.1,1.6-0.2c0.5-0.1,1-0.3,1.4-0.6c0.4-0.3,0.8-0.6,1.1-0.9
		c0.3-0.3,0.6-0.7,0.7-1.1l4.2,1.2c-0.7,1.5-1.8,2.8-3.4,3.7c-1.6,1-3.4,1.5-5.6,1.5c-1.6,0-3-0.3-4.3-0.9s-2.4-1.3-3.3-2.3
		c-0.9-1-1.6-2.1-2.1-3.4C502.8,74.2,502.6,72.9,502.6,71.5z"/>
	<path fill="#673C90" d="M534.8,82c-1.6,0-3-0.3-4.3-0.8s-2.4-1.3-3.3-2.3c-0.9-1-1.6-2.1-2.1-3.3c-0.5-1.3-0.8-2.6-0.8-4
		c0-1.4,0.3-2.8,0.8-4.1s1.2-2.4,2.1-3.4c0.9-1,2-1.7,3.3-2.3c1.3-0.6,2.7-0.8,4.4-0.8c1.6,0,3,0.3,4.3,0.9s2.4,1.3,3.3,2.3
		c0.9,0.9,1.6,2,2.1,3.3c0.5,1.3,0.7,2.6,0.7,3.9c0,0.3,0,0.6,0,0.9c0,0.3-0.1,0.5-0.1,0.7h-16.3c0.1,0.9,0.3,1.7,0.6,2.4
		c0.3,0.7,0.8,1.4,1.4,1.9c0.6,0.5,1.2,0.9,1.9,1.2c0.7,0.3,1.5,0.4,2.2,0.4c0.6,0,1.1-0.1,1.7-0.2c0.6-0.1,1.1-0.4,1.5-0.6
		c0.5-0.3,0.9-0.6,1.2-1s0.6-0.8,0.9-1.3l3.7,1c-0.7,1.5-1.9,2.8-3.5,3.7C538.8,81.6,537,82,534.8,82z M541,70
		c-0.1-0.9-0.3-1.6-0.6-2.4c-0.3-0.7-0.8-1.3-1.3-1.8c-0.5-0.5-1.2-0.9-1.9-1.2c-0.7-0.3-1.5-0.4-2.3-0.4c-0.8,0-1.6,0.1-2.3,0.4
		c-0.7,0.3-1.3,0.7-1.9,1.2c-0.5,0.5-1,1.1-1.3,1.8c-0.3,0.7-0.5,1.5-0.6,2.4H541z"/>
</g>
<path fill="#C2CCD4" d="M70.3,32.7c-1.5,0-3.1,0.1-4.5,0.4c0.1,1.9-0.1,3.8-0.4,5.7c-2,12.4-11.8,21.6-23.5,23.5
	c0.5,13.3,10.2,24.8,23.9,27.1c1.6,0.3,3.1,0.4,4.7,0.4c13.7,0,25.8-9.9,28.1-23.9c2.6-15.5-8-30.2-23.5-32.7
	C73.4,32.8,71.8,32.7,70.3,32.7"/>
<path fill="#A386BD" d="M37.2,5.6c-13.7,0-25.8,9.9-28.1,23.9c-2.6,15.5,8,30.2,23.5,32.7c1.6,0.3,3.1,0.4,4.7,0.4
	c1.5,0,3.1-0.1,4.5-0.4c-0.1-1.9,0.1-3.8,0.4-5.7C44.3,44.2,54,35,65.8,33.1C65.3,19.8,55.5,8.2,41.9,6C40.3,5.7,38.8,5.6,37.2,5.6"
	/>
<path fill="#937AB2" d="M65.8,33.1C54,35,44.3,44.2,42.2,56.6c-0.3,1.9-0.4,3.8-0.4,5.7c11.7-1.9,21.5-11.1,23.5-23.5
	C65.7,36.8,65.8,34.9,65.8,33.1"/>
<path fill="#673C90" d="M85.1,60.8c0-0.2,0-0.3,0-0.5c0-0.1,0-0.3,0-0.4c0-0.2,0-0.4-0.1-0.5c0-0.2-0.1-0.4-0.1-0.6
	c0-0.1,0-0.2-0.1-0.3c0-0.1,0-0.2-0.1-0.4l-0.1-0.2c0-0.1-0.1-0.3-0.1-0.4c0-0.1-0.1-0.3-0.1-0.4l-0.1-0.2c-0.1-0.2-0.1-0.3-0.2-0.5
	l-0.1-0.1c-0.1-0.2-0.1-0.4-0.2-0.5l0-0.1c-0.1-0.1-0.1-0.3-0.2-0.4L83.6,55c-0.1-0.1-0.1-0.3-0.2-0.4l-0.1-0.2
	c-0.1-0.1-0.1-0.2-0.2-0.3C83,54,83,53.9,82.9,53.8c-0.1-0.1-0.1-0.2-0.2-0.3l-0.1-0.2c-0.1-0.2-0.2-0.3-0.3-0.5
	c-0.1-0.2-0.2-0.3-0.4-0.5l-0.1-0.1c-0.1-0.1-0.2-0.3-0.3-0.4l-0.1-0.1c-0.1-0.1-0.2-0.3-0.4-0.4l0,0c-0.1-0.1-0.3-0.3-0.4-0.4
	c-0.1-0.1-0.3-0.3-0.5-0.4l-0.1,0c-0.1-0.1-0.3-0.3-0.5-0.4c-0.2-0.1-0.3-0.3-0.5-0.4l0,0c-0.2-0.1-0.3-0.2-0.5-0.3
	c-0.2-0.1-0.4-0.2-0.6-0.3c-0.2-0.1-0.4-0.2-0.6-0.3c-0.2-0.1-0.4-0.2-0.6-0.3c-0.3-0.1-0.6-0.2-0.8-0.4c-0.1,0-0.3-0.1-0.4-0.1
	c-0.2-0.1-0.4-0.1-0.6-0.2c-0.2-0.1-0.5-0.1-0.7-0.2l-0.2,0c-0.2,0-0.4-0.1-0.6-0.1c-0.2,0-0.4-0.1-0.7-0.1l-0.1,0
	c-3.2-0.4-6.1-1.4-8.8-2.8c-3.4-1.7-6.4-4.1-8.9-7l0,0c-2-2.3-3.6-5-4.8-7.8c0-0.1-0.1-0.2-0.1-0.4c-1.9-4.4-6-7.8-11.2-8.5
	c-5.1-0.7-10,1.4-13.1,5.1c-0.1,0.2-0.3,0.4-0.4,0.5c-1.4,1.9-2.3,4.1-2.7,6.5c-0.3,2.4-0.1,4.8,0.7,7l0,0c0.1,0.2,0.2,0.4,0.3,0.6
	l0,0c1.9,4.4,6,7.8,11.1,8.5l0,0c2.2,0.3,4.3,0.9,6.3,1.6c0.4,0.2,0.9,0.3,1.3,0.5l0,0c0.4,0.2,0.8,0.4,1.2,0.6l0,0l0,0l0,0
	c3.4,1.7,6.4,4.1,8.9,7c1.9,2.2,3.5,4.8,4.6,7.5l0,0c0.1,0.2,0.2,0.5,0.3,0.7c0.1,0.2,0.2,0.5,0.3,0.7c0.1,0.2,0.2,0.4,0.3,0.6
	l0.1,0.2l0,0c0.1,0.2,0.2,0.4,0.3,0.5c0.1,0.2,0.3,0.4,0.4,0.6l0.2,0.2l0,0c0.1,0.2,0.3,0.3,0.4,0.5c0.2,0.2,0.3,0.4,0.5,0.6l0,0
	c0.2,0.2,0.4,0.4,0.6,0.6c0.2,0.2,0.4,0.4,0.6,0.5c0.2,0.2,0.4,0.3,0.6,0.5c0.1,0.1,0.3,0.2,0.4,0.3c0.2,0.2,0.5,0.3,0.7,0.5
	c0.2,0.1,0.4,0.2,0.6,0.3c0.1,0.1,0.3,0.2,0.4,0.2c0.2,0.1,0.5,0.2,0.7,0.3c0.2,0.1,0.5,0.2,0.7,0.3c0.3,0.1,0.5,0.2,0.8,0.3
	c0.2,0,0.3,0.1,0.5,0.1c0.1,0,0.3,0.1,0.4,0.1l0.3,0.1c0.1,0,0.3,0.1,0.4,0.1c0.2,0,0.4,0.1,0.7,0.1l0.1,0c0.2,0,0.4,0.1,0.7,0.1
	C77,76.4,83.9,71.1,85,63.5C85.1,62.6,85.1,61.7,85.1,60.8z"/>
<circle fill="#B25EA1" cx="70.5" cy="61.2" r="14.6"/>
<circle fill="#673C90" cx="96.2" cy="27.3" r="14.2"/>
</svg>
