<?xml version="1.0" encoding="UTF-8" standalone="no"?>
<!-- Generator: Adobe Illustrator 19.1.0, SVG Export Plug-In . SVG Version: 6.00 Build 0)  -->

<svg
   xmlns:dc="http://purl.org/dc/elements/1.1/"
   xmlns:cc="http://creativecommons.org/ns#"
   xmlns:rdf="http://www.w3.org/1999/02/22-rdf-syntax-ns#"
   xmlns:svg="http://www.w3.org/2000/svg"
   xmlns="http://www.w3.org/2000/svg"
   xmlns:sodipodi="http://sodipodi.sourceforge.net/DTD/sodipodi-0.dtd"
   xmlns:inkscape="http://www.inkscape.org/namespaces/inkscape"
   version="1.1"
   id="Layer_1"
   x="0px"
   y="0px"
   viewBox="-440 340.5 113.3 119.3"
   style="enable-background:new -440 340.5 113.3 119.3;"
   xml:space="preserve"
   inkscape:version="0.91 r13725"
   sodipodi:docname="WGSA.Icon.FINAL.reverse.svg"><metadata
     id="metadata31"><rdf:RDF><cc:Work
         rdf:about=""><dc:format>image/svg+xml</dc:format><dc:type
           rdf:resource="http://purl.org/dc/dcmitype/StillImage" /><dc:title></dc:title></cc:Work></rdf:RDF></metadata><defs
     id="defs29" /><sodipodi:namedview
     pagecolor="#ffffff"
     bordercolor="#666666"
     borderopacity="1"
     objecttolerance="10"
     gridtolerance="10"
     guidetolerance="10"
     inkscape:pageopacity="0"
     inkscape:pageshadow="2"
     inkscape:window-width="640"
     inkscape:window-height="480"
     id="namedview27"
     showgrid="false"
     inkscape:zoom="1.9782062"
     inkscape:cx="57.15551"
     inkscape:cy="57.122459"
     inkscape:window-x="285"
     inkscape:window-y="231"
     inkscape:window-maximized="0"
     inkscape:current-layer="Layer_1" /><style
     type="text/css"
     id="style3">
	.st0{opacity:0.93;fill:#B15DA0;}
	.st1{opacity:0.6;fill:#663B8E;}
	.st2{opacity:0.53;fill:#3C7384;}
	.st3{opacity:0.71;}
	.st4{opacity:0.26;fill:#80569E;}
	.st5{opacity:0.88;}
	.st6{opacity:0.36;fill:#663B8E;}
	.st7{opacity:0.36;fill:#663C8D;}
	.st8{opacity:0.64;fill:#663B8E;}
</style><path
     class="st0"
     d="m -435.9,410.7 c 0,0 0,0 0,0 10.4,-4.3 15.3,-16.2 11,-26.5 -1.4,-3.4 -3.7,-6.2 -6.4,-8.3 l 0,0 12.4,-16.1 c 3.4,2.6 6.5,5.8 9,9.5 1.5,2.2 2.8,4.6 3.8,7.1 1.1,2.5 1.8,5.1 2.3,7.7 1.7,8.8 0.4,17.8 -3.4,25.6 -2.4,4.8 -5.7,9.1 -9.8,12.7 -3.2,2.8 -7,5.2 -11.2,6.9 l 0,0 -7.7,-18.6 c 0,0 0,0 0,0 z"
     id="path5"
     inkscape:connector-curvature="0"
     style="opacity:0.93000028;fill:#b15da0" /><path
     class="st1"
     d="m -370.1,361.5 c 1.9,-3.9 3.2,-8.2 3.8,-12.5 l 0,0 c -0.5,3.4 0,7 1.4,10.4 4.3,10.3 16.2,15.2 26.5,10.9 l 0,0 7.8,18.7 c -4.2,1.7 -8.5,2.7 -12.8,3 -5.4,0.4 -10.8,-0.4 -15.9,-2.1 -8.2,-2.8 -15.5,-8.2 -20.5,-15.7 4.1,-3.6 7.4,-7.9 9.7,-12.7 z"
     id="path7"
     inkscape:connector-curvature="0"
     style="opacity:0.6;fill:#663b8e" /><path
     class="st2"
     d="m -435.9,410.7 c 0,0 0,0 0,0 4.2,-1.7 8.5,-2.7 12.8,-3 5.5,-0.4 10.9,0.4 15.9,2.1 8.2,2.8 15.5,8.2 20.6,15.7 1.5,2.2 2.8,4.6 3.8,7.1 1.1,2.5 1.8,5.1 2.3,7.7 0.9,4.4 1,8.8 0.4,13.1 l -20.1,-2.6 0,0 c 0.5,-3.4 0,-7 -1.4,-10.4 -4.3,-10.3 -16.2,-15.2 -26.5,-10.9 0,0 0,0 0,0 l -7.8,-18.8 c 0,0 0,0 0,0 z"
     id="path9"
     inkscape:connector-curvature="0"
     style="opacity:0.52999998;fill:#3c7384" /><g
     class="st3"
     id="g11"
     style="opacity:0.70999995"
     transform="matrix(-1,0,0,1,-766.5,0)"><path
       class="st4"
       d="m -386,440.3 c -0.9,4.4 -1,8.8 -0.4,13.1 l 20.1,-2.6 c -0.6,-4.4 -1.9,-8.6 -3.8,-12.5 -2.4,-4.8 -5.7,-9.1 -9.8,-12.7 -1.5,2.2 -2.8,4.6 -3.8,7.1 -1,2.4 -1.8,5 -2.3,7.6 z"
       id="path13"
       inkscape:connector-curvature="0"
       style="opacity:0.26000001;fill:#80569e" /><path
       class="st4"
       d="m -391,418.5 c -4.2,-1.7 -8.5,-2.7 -12.8,-3 -5.5,-0.4 -10.9,0.4 -15.9,2.1 -4.2,1.4 -8.1,3.5 -11.6,6.2 l 12.4,16.1 0,0 c 5.6,-4.2 13.2,-5.5 20.1,-2.6 7,2.9 11.5,9.2 12.4,16.1 l 0,0 c -0.6,-4.3 -0.5,-8.7 0.4,-13.1 0.5,-2.6 1.3,-5.2 2.3,-7.7 1.1,-2.5 2.3,-4.9 3.8,-7.1 -3.2,-2.9 -6.9,-5.2 -11.1,-7 z"
       id="path15"
       inkscape:connector-curvature="0"
       style="opacity:0.26000001;fill:#80569e" /></g><g
     class="st5"
     id="g17"
     style="opacity:0.87999998"
     transform="matrix(-1,0,0,1,-766.5,0)"><path
       class="st6"
       d="m -403.8,415.6 0,0 c 1.8,-8.9 0.4,-17.9 -3.4,-25.7 -5,1.7 -10.4,2.5 -15.9,2.1 -4.3,-0.3 -8.6,-1.2 -12.8,-3 l 0,0 c 10.4,4.3 15.3,16.1 11,26.5 -1.4,3.4 -3.7,6.2 -6.4,8.3 l 0,0 c 0.1,-0.1 0.1,-0.1 0.2,-0.2 -0.1,0.1 -0.1,0.1 -0.2,0.2 l 12.4,16.1 c 0,0 6.9,-7 9,-9.5 1.6,-2.1 2.8,-4.6 3.8,-7.1 1,-2.6 1.8,-5.2 2.3,-7.7 z"
       id="path19"
       inkscape:connector-curvature="0"
       style="opacity:0.36000001;fill:#663b8e" /><path
       class="st6"
       d="m -423.1,392 c 5.4,0.4 10.8,-0.4 15.9,-2.1 -2.4,-4.8 -5.6,-9.1 -9.7,-12.7 -3.2,-2.8 -7,-5.2 -11.2,-6.9 l -7.8,18.7 c 4.2,1.7 8.5,2.7 12.8,3 z"
       id="path21"
       inkscape:connector-curvature="0"
       style="opacity:0.36000001;fill:#663b8e" /></g><path
     class="st7"
     d="m -385.9,359.4 c -0.9,-4.4 -1.1,-8.8 -0.5,-13.1 l 20.2,2.6 c -0.6,4.4 -1.9,8.6 -3.8,12.5 -2.3,4.8 -5.6,9.1 -9.7,12.7 -1.5,-2.2 -2.7,-4.5 -3.8,-7.1 -1.1,-2.4 -1.9,-5 -2.4,-7.6 z"
     id="path23"
     inkscape:connector-curvature="0"
     style="opacity:0.36000001;fill:#663c8d" /><path
     class="st8"
     d="m -403.9,384.1 c -5.3,0.4 -10.7,-0.3 -15.8,-2.1 -4.1,-1.4 -8,-3.4 -11.6,-6.2 l 12.4,-16.1 c 0,0 0,0 0,0 l 0,0 c 0,0 0,0 0,0 l 0,0 c 0,0 0.1,0 0.1,0.1 5.6,4.2 13.1,5.4 20,2.6 6.9,-2.9 11.4,-9.1 12.4,-16.1 l 0.1,0 20.1,2.6 c -0.6,4.4 -1.9,8.6 -3.8,12.5 -2.3,4.8 -5.6,9.1 -9.7,12.7 -3.3,2.8 -7,5.2 -11.2,7 -4.3,1.7 -8.6,2.7 -13,3 m -9.3,-19 c 0.1,0.1 0.2,0.2 0.3,0.3 -0.1,-0.1 -0.2,-0.2 -0.3,-0.3 z"
     id="path25"
     inkscape:connector-curvature="0"
     style="opacity:0.63999999;fill:#663b8e" /></svg>