<?xml version="1.0" encoding="UTF-8"?>
<!DOCTYPE svg PUBLIC "-//W3C//DTD SVG 1.1//EN" "http://www.w3.org/Graphics/SVG/1.1/DTD/svg11.dtd">
<svg version="1.1" xmlns="http://www.w3.org/2000/svg" xmlns:xlink="http://www.w3.org/1999/xlink" x="0" y="0" width="516.858" height="611" viewBox="0, 0, 516.858, 611">
  <g id="Layer_1">
    <g>
      <path d="M123,118 L493,118 L493,589 L122,589 C122,589 124,118 123,118 z" fill="#FFFFFF"/>
      <path d="M470.858,99 C496.263,99 516.858,119.595 516.858,145 L516.858,565 C516.858,590.405 496.263,611 470.858,611 L146,611 C120.595,611 100,590.405 100,565 L100,145 C100,119.595 120.595,99 146,99 L470.858,99 z M470.858,131 L146,131 C138.268,131 132,137.268 132,145 L132,565 C132,572.732 138.268,579 146,579 L470.858,579 C478.59,579 484.858,572.732 484.858,565 L484.858,145 C484.858,137.268 478.59,131 470.858,131 z" fill="#673C90"/>
    </g>
    <g>
      <path d="M73,69 L443,69 L443,540 L72,540 C72,540 74,69 73,69 z" fill="#FFFFFF"/>
      <path d="M420.858,50 C446.264,50 466.858,70.595 466.858,96 L466.858,516 C466.858,541.405 446.264,562 420.858,562 L96,562 C70.595,562 50,541.405 50,516 L50,96 C50,70.595 70.595,50 96,50 L420.858,50 z M420.858,82 L96,82 C88.268,82 82,88.268 82,96 L82,516 C82,523.732 88.268,530 96,530 L420.858,530 C428.59,530 434.858,523.732 434.858,516 L434.858,96 C434.858,88.268 428.59,82 420.858,82 z" fill="#673C90"/>
    </g>
    <g>
      <path d="M32,18 C32,18 303,20 303,18 C303,16 409,124 409,124 C409,124 422,488 409,488 C396,488 32,488 32,488 L32,18 z" fill="#FFFFFF"/>
      <path d="M411.359,100.64 L315.359,4.64 C312.34,1.645 308.253,-0.024 304,0 L48,0 C21.49,0 0,21.49 0,48 L0,464 C0,490.51 21.49,512 48,512 L367.999,512 C394.509,512 415.999,490.51 415.999,464 L415.999,112 C416.024,107.747 414.354,103.66 411.359,100.64 z M383.999,464 C383.999,472.837 376.836,480 367.999,480 L48,480 C39.163,480 32,472.837 32,464 L32,48 C32,39.163 39.163,32 48,32 L288,32 L288,96 C288,113.673 302.327,128 319.999,128 L383.999,128 L383.999,464 z" fill="#673C90"/>
    </g>
    <text transform="matrix(1, 0, 0, 1, 245.4, 269)">
      <tspan x="-181.4" y="-131" font-family="RobotoMono-Regular" font-size="45" fill="#000000">&gt;Contig1</tspan>
      <tspan x="-181.4" y="-72" font-family="RobotoMono-Regular" font-size="45" fill="#000000">cactcgag...</tspan>
      <tspan x="-181.4" y="-13" font-family="RobotoMono-Regular" font-size="45" fill="#000000">&gt;Contig2</tspan>
      <tspan x="-181.4" y="46" font-family="RobotoMono-Regular" font-size="45" fill="#000000">aagtgcat...</tspan>
      <tspan x="-181.4" y="105" font-family="RobotoMono-Regular" font-size="45" fill="#000000">&gt;Contig3</tspan>
      <tspan x="-181.4" y="164" font-family="RobotoMono-Regular" font-size="45" fill="#000000">ggaatcga...</tspan>
    </text>
  </g>
</svg>
