<?xml version="1.0" encoding="UTF-8"?>
<!DOCTYPE svg PUBLIC "-//W3C//DTD SVG 1.1//EN" "http://www.w3.org/Graphics/SVG/1.1/DTD/svg11.dtd">
<svg version="1.1" xmlns="http://www.w3.org/2000/svg" xmlns:xlink="http://www.w3.org/1999/xlink" x="0" y="0" width="790.807" height="512" viewBox="0, 0, 790.807, 512">
  <g id="Layer_1">
    <g>
      <g>
        <path d="M467.256,70.561 L756.39,70.561 C775.4,70.561 790.811,85.972 790.811,104.982 L790.811,476.726 C790.811,495.736 775.4,511.146 756.39,511.146 L467.256,511.146 C448.246,511.146 432.835,495.736 432.835,476.726 L432.835,104.982 C432.835,85.972 448.246,70.561 467.256,70.561 z" fill="#FFFFFF"/>
        <path d="M756.39,70.561 C775.4,70.561 790.811,85.972 790.811,104.982 L790.811,476.726 C790.811,495.736 775.4,511.146 756.39,511.146 L467.256,511.146 C448.246,511.146 432.835,495.736 432.835,476.726 L432.835,104.982 C432.835,85.972 448.246,70.561 467.256,70.561 L756.39,70.561 z M756.39,97.237 L467.256,97.237 C462.979,97.237 459.511,100.705 459.511,104.982 L459.511,476.726 C459.511,481.003 462.979,484.47 467.256,484.47 L756.39,484.47 C760.668,484.47 764.135,481.003 764.135,476.726 L764.135,104.982 C764.135,100.705 760.668,97.237 756.39,97.237 z" fill="#673C90"/>
      </g>
      <g>
        <path d="M109.28,71.422 L398.415,71.422 C417.425,71.422 432.835,86.833 432.835,105.843 L432.835,477.586 C432.835,496.596 417.425,512.007 398.415,512.007 L109.28,512.007 C90.27,512.007 74.859,496.596 74.859,477.586 L74.859,105.843 C74.859,86.833 90.27,71.422 109.28,71.422 z" fill="#FFFFFF"/>
        <path d="M398.415,71.422 C417.425,71.422 432.835,86.833 432.835,105.843 L432.835,477.586 C432.835,496.596 417.425,512.007 398.415,512.007 L109.28,512.007 C90.27,512.007 74.859,496.596 74.859,477.586 L74.859,105.843 C74.859,86.833 90.27,71.422 109.28,71.422 L398.415,71.422 z M398.415,98.098 L109.28,98.098 C105.003,98.098 101.535,101.565 101.535,105.843 L101.535,477.586 C101.535,481.863 105.003,485.331 109.28,485.331 L398.415,485.331 C402.692,485.331 406.159,481.863 406.159,477.586 L406.159,105.843 C406.159,101.565 402.692,98.098 398.415,98.098 z" fill="#673C90"/>
      </g>
    </g>
    <g>
      <g>
        <path d="M429.393,34.42 L718.528,34.42 C737.538,34.42 752.948,49.83 752.948,68.84 L752.948,440.584 C752.948,459.594 737.538,475.005 718.528,475.005 L429.393,475.005 C410.383,475.005 394.973,459.594 394.973,440.584 L394.973,68.84 C394.973,49.83 410.383,34.42 429.393,34.42 z" fill="#FFFFFF"/>
        <path d="M718.528,34.42 C737.538,34.42 752.948,49.83 752.948,68.84 L752.948,440.584 C752.948,459.594 737.538,475.005 718.528,475.005 L429.393,475.005 C410.383,475.005 394.973,459.594 394.973,440.584 L394.973,68.84 C394.973,49.83 410.383,34.42 429.393,34.42 L718.528,34.42 z M718.528,61.096 L429.393,61.096 C425.116,61.096 421.649,64.563 421.648,68.84 L421.648,440.584 C421.649,444.861 425.116,448.329 429.393,448.329 L718.528,448.329 C722.805,448.329 726.272,444.861 726.272,440.584 L726.272,68.84 C726.272,64.563 722.805,61.096 718.528,61.096 z" fill="#673C90"/>
      </g>
      <g>
        <path d="M71.417,35.28 L360.552,35.28 C379.562,35.28 394.973,50.691 394.973,69.701 L394.973,441.444 C394.973,460.454 379.562,475.865 360.552,475.865 L71.417,475.865 C52.407,475.865 36.997,460.454 36.997,441.444 L36.997,69.701 C36.997,50.691 52.407,35.28 71.417,35.28 z" fill="#FFFFFF"/>
        <path d="M360.552,35.28 C379.562,35.28 394.973,50.691 394.973,69.701 L394.973,441.444 C394.973,460.454 379.562,475.865 360.552,475.865 L71.417,475.865 C52.407,475.865 36.997,460.454 36.997,441.444 L36.997,69.701 C36.997,50.691 52.407,35.28 71.417,35.28 L360.552,35.28 z M360.552,61.956 L71.417,61.956 C67.14,61.956 63.673,65.424 63.673,69.701 L63.673,441.444 C63.673,445.722 67.14,449.189 71.417,449.189 L360.552,449.189 C364.829,449.189 368.297,445.722 368.297,441.444 L368.297,69.701 C368.297,65.424 364.829,61.956 360.552,61.956 z" fill="#673C90"/>
      </g>
    </g>
    <g>
      <path d="M16.346,16.351 L259.872,16.351 L345.923,102.402 C345.923,102.402 348.505,417.351 345.923,417.351 C343.342,417.351 16.346,419.072 16.346,417.351 C16.346,415.63 16.346,16.351 16.346,16.351 z" fill="#FFFFFF"/>
      <path d="M353.977,86.603 L271.368,3.994 C268.77,1.416 265.252,-0.02 261.593,0.001 L41.301,0.001 C18.488,0.001 -0.004,18.493 -0.004,41.306 L-0.004,399.28 C-0.004,422.092 18.488,440.585 41.301,440.585 L316.665,440.585 C339.478,440.585 357.97,422.092 357.97,399.28 L357.97,96.379 C357.992,92.719 356.555,89.202 353.977,86.603 z M330.434,399.28 C330.434,406.884 324.27,413.048 316.665,413.048 L41.301,413.048 C33.696,413.048 27.532,406.884 27.532,399.28 L27.532,41.306 C27.532,33.701 33.696,27.537 41.301,27.537 L247.824,27.537 L247.824,82.61 C247.824,97.818 260.153,110.147 275.361,110.147 L330.434,110.147 L330.434,399.28 z" fill="#673C90"/>
    </g>
    <g>
      <path d="M379.483,16.35 L623.009,16.35 L709.061,102.402 C709.061,102.402 711.642,417.35 709.061,417.35 C706.479,417.35 379.483,419.071 379.483,417.35 C379.483,415.629 379.483,16.35 379.483,16.35 z" fill="#FFFFFF"/>
      <path d="M717.115,86.603 L634.506,3.993 C631.908,1.416 628.39,-0.02 624.73,0 L404.438,0 C381.626,0 363.134,18.493 363.134,41.305 L363.134,399.279 C363.134,422.092 381.626,440.584 404.438,440.584 L679.803,440.584 C702.615,440.584 721.108,422.092 721.108,399.279 L721.108,96.378 C721.129,92.718 719.692,89.201 717.115,86.603 z M693.571,399.279 C693.571,406.884 687.407,413.048 679.803,413.048 L404.438,413.048 C396.834,413.048 390.67,406.884 390.67,399.279 L390.67,41.305 C390.67,33.701 396.834,27.537 404.438,27.537 L610.962,27.537 L610.962,82.61 C610.962,97.818 623.29,110.146 638.498,110.146 L693.571,110.146 L693.571,399.279 z" fill="#673C90"/>
    </g>
    <text transform="matrix(1, 0, 0, 1, 559.544, 339.008)">
      <tspan x="-155.544" y="-251.982" font-family="RobotoMono-Regular" font-size="33" fill="#000000">@HX5_1:9/2</tspan>
      <tspan x="-155.544" y="-207.982" font-family="RobotoMono-Regular" font-size="33" fill="#000000">AGGAGAAAGA...</tspan>
      <tspan x="-155.544" y="-163.982" font-family="RobotoMono-Regular" font-size="33" fill="#000000">+</tspan>
      <tspan x="-155.544" y="-119.982" font-family="RobotoMono-Regular" font-size="33" fill="#000000">AAFAFJJJJJ...</tspan>
      <tspan x="-155.544" y="-75.982" font-family="RobotoMono-Regular" font-size="33" fill="#000000">@HX5_2:3/2</tspan>
      <tspan x="-155.544" y="-31.982" font-family="RobotoMono-Regular" font-size="33" fill="#000000">AGTTAAACGC...</tspan>
      <tspan x="-155.544" y="12.018" font-family="RobotoMono-Regular" font-size="33" fill="#000000">+</tspan>
      <tspan x="-155.544" y="56.018" font-family="RobotoMono-Regular" font-size="33" fill="#000000">&lt;-&lt;-AA&lt;---...</tspan>
    </text>
    <text transform="matrix(1, 0, 0, 1, 192.541, 339.008)">
      <tspan x="-155.544" y="-251.982" font-family="RobotoMono-Regular" font-size="33" fill="#000000">@HX5_1:9/1</tspan>
      <tspan x="-155.544" y="-207.982" font-family="RobotoMono-Regular" font-size="33" fill="#000000">TATCTGTTAGT...</tspan>
      <tspan x="-155.544" y="-163.982" font-family="RobotoMono-Regular" font-size="33" fill="#000000">+</tspan>
      <tspan x="-155.544" y="-119.982" font-family="RobotoMono-Regular" font-size="33" fill="#000000">AAAFAJJFJJJ...</tspan>
      <tspan x="-155.544" y="-75.982" font-family="RobotoMono-Regular" font-size="33" fill="#000000">@HX5_2:3/1</tspan>
      <tspan x="-155.544" y="-31.982" font-family="RobotoMono-Regular" font-size="33" fill="#000000">TAAGTGGATAA...</tspan>
      <tspan x="-155.544" y="12.018" font-family="RobotoMono-Regular" font-size="33" fill="#000000">+</tspan>
      <tspan x="-155.544" y="56.018" font-family="RobotoMono-Regular" font-size="33" fill="#000000">BAAA&lt;&lt;FA-&lt;&lt;...</tspan>
    </text>
  </g>
</svg>
