<?xml version="1.0" encoding="utf-8"?>
<!-- Generator: Adobe Illustrator 19.1.0, SVG Export Plug-In . SVG Version: 6.00 Build 0)  -->
<!DOCTYPE svg PUBLIC "-//W3C//DTD SVG 1.1//EN" "http://www.w3.org/Graphics/SVG/1.1/DTD/svg11.dtd" [
	<!ENTITY ns_extend "http://ns.adobe.com/Extensibility/1.0/">
	<!ENTITY ns_ai "http://ns.adobe.com/AdobeIllustrator/10.0/">
	<!ENTITY ns_graphs "http://ns.adobe.com/Graphs/1.0/">
	<!ENTITY ns_vars "http://ns.adobe.com/Variables/1.0/">
	<!ENTITY ns_imrep "http://ns.adobe.com/ImageReplacement/1.0/">
	<!ENTITY ns_sfw "http://ns.adobe.com/SaveForWeb/1.0/">
	<!ENTITY ns_custom "http://ns.adobe.com/GenericCustomNamespace/1.0/">
	<!ENTITY ns_adobe_xpath "http://ns.adobe.com/XPath/1.0/">
]>
<svg version="1.1" id="Layer_1" xmlns:x="&ns_extend;" xmlns:i="&ns_ai;" xmlns:graph="&ns_graphs;"
	 xmlns="http://www.w3.org/2000/svg" xmlns:xlink="http://www.w3.org/1999/xlink" x="0px" y="0px" viewBox="0 0 1201.1 211.1"
	 style="enable-background:new 0 0 1201.1 211.1;" xml:space="preserve">
<style type="text/css">
	.st0{fill:#C2CCD4;}
	.st1{fill:#A386BD;}
	.st2{fill:#937AB2;}
	.st3{fill:#673C90;}
	.st4{fill:#B25EA1;}
	.st5{fill:#673C90;stroke:#673C90;stroke-miterlimit:10;}
</style>
<switch>
	<g i:extraneous="self">
		<path class="st0" d="M145.3,66.8c-3.4,0-6.7,0.3-10,0.8c0.1,4.2-0.1,8.4-0.8,12.7c-4.5,27.7-26,48.3-52,52.5
			c1,29.7,22.6,55.5,52.7,60.5c3.5,0.6,6.9,0.9,10.3,0.9c30.3,0,56.9-22.2,62-53.4c5.6-34.7-17.6-67.5-51.9-73.2
			C152.1,67.1,148.7,66.8,145.3,66.8"/>
		<path class="st1" d="M72.3,6.2c-30.3,0-56.9,22.2-62,53.4c-5.6,34.7,17.6,67.5,51.9,73.2c3.5,0.6,6.9,0.9,10.3,0.9
			c3.4,0,6.7-0.3,10-0.8c-0.1-4.2,0.1-8.4,0.8-12.7c4.5-27.7,26-48.3,52-52.5c-1-29.7-22.6-55.5-52.7-60.5
			C79.1,6.5,75.7,6.2,72.3,6.2"/>
		<path class="st2" d="M135.2,67.6c-25.9,4.3-47.5,24.8-52,52.5c-0.7,4.3-1,8.5-0.8,12.7c25.9-4.3,47.5-24.8,52-52.5
			C135.1,76,135.4,71.8,135.2,67.6"/>
		<path class="st3" d="M177.9,129.5c0-0.4,0-0.7-0.1-1.1c0-0.3,0-0.6-0.1-0.9c0-0.4-0.1-0.8-0.2-1.2c-0.1-0.4-0.1-0.9-0.2-1.3
			c0-0.2-0.1-0.5-0.2-0.7c0-0.3-0.1-0.5-0.2-0.8l-0.1-0.5c-0.1-0.3-0.1-0.6-0.2-0.9c-0.1-0.3-0.2-0.6-0.3-0.9l-0.1-0.4
			c-0.1-0.3-0.2-0.7-0.4-1l-0.1-0.3c-0.1-0.4-0.3-0.8-0.5-1.2l-0.1-0.1c-0.1-0.3-0.3-0.7-0.4-1l-0.2-0.5c-0.1-0.3-0.3-0.6-0.4-0.8
			l-0.3-0.5c-0.1-0.2-0.3-0.5-0.4-0.7c-0.1-0.2-0.2-0.4-0.4-0.6c-0.1-0.2-0.3-0.4-0.4-0.7l-0.3-0.4c-0.2-0.3-0.5-0.7-0.7-1
			c-0.3-0.4-0.5-0.7-0.8-1l-0.2-0.2c-0.2-0.3-0.5-0.6-0.7-0.8l-0.2-0.3c-0.3-0.3-0.5-0.6-0.8-0.9l-0.1-0.1c-0.3-0.3-0.6-0.6-1-0.9
			c-0.3-0.3-0.7-0.6-1-0.9l-0.1-0.1c-0.3-0.3-0.7-0.6-1-0.8c-0.4-0.3-0.8-0.6-1.1-0.8l-0.1-0.1c-0.4-0.3-0.7-0.5-1.1-0.8
			c-0.4-0.3-0.8-0.5-1.2-0.8c-0.4-0.2-0.8-0.5-1.3-0.7c-0.4-0.2-0.9-0.4-1.3-0.6c-0.6-0.3-1.2-0.6-1.9-0.8c-0.3-0.1-0.6-0.2-0.9-0.3
			c-0.4-0.2-0.8-0.3-1.2-0.4c-0.5-0.1-1-0.3-1.5-0.4l-0.3-0.1c-0.4-0.1-0.9-0.2-1.3-0.3c-0.5-0.1-1-0.2-1.5-0.3l-0.1,0
			c-7-1-13.5-3.1-19.5-6.1c-7.6-3.9-14.2-9.2-19.6-15.6l-0.1-0.1c-4.4-5.2-8-11.1-10.5-17.5c-0.1-0.3-0.2-0.5-0.3-0.8
			c-4.2-9.9-13.3-17.5-24.6-19.1c-11.3-1.6-22.1,3-28.9,11.4c-0.3,0.4-0.6,0.8-0.9,1.2c-3,4.1-5.1,9.1-5.9,14.6
			c-0.8,5.4-0.1,10.8,1.6,15.6l0,0.1c0.2,0.5,0.4,0.9,0.6,1.4l0,0.1c4.2,9.9,13.3,17.4,24.5,19l0,0c4.9,0.7,9.5,1.9,13.9,3.7
			c1,0.4,1.9,0.8,2.9,1.2l0,0c0.9,0.4,1.8,0.8,2.7,1.3l0,0l0.1,0l0,0c7.6,3.9,14.2,9.2,19.6,15.6c4.2,5,7.7,10.7,10.2,16.8l0,0.1
			c0.2,0.5,0.4,1.1,0.6,1.6c0.2,0.6,0.5,1.1,0.8,1.7c0.2,0.5,0.5,0.9,0.7,1.4l0.2,0.4l0,0.1c0.2,0.4,0.5,0.8,0.7,1.2
			c0.3,0.5,0.6,0.9,0.9,1.3l0.4,0.5l0,0.1c0.3,0.4,0.6,0.8,0.9,1.1c0.4,0.5,0.8,0.9,1.2,1.3l0.1,0.1c0.4,0.4,0.8,0.9,1.2,1.3
			c0.4,0.4,0.9,0.8,1.3,1.2c0.5,0.4,0.9,0.8,1.4,1.1c0.3,0.2,0.6,0.5,0.9,0.7c0.5,0.4,1.1,0.7,1.6,1.1c0.4,0.3,0.9,0.5,1.3,0.8
			c0.3,0.2,0.6,0.4,1,0.5c0.5,0.3,1,0.5,1.6,0.8c0.5,0.2,1.1,0.5,1.6,0.7c0.6,0.2,1.1,0.4,1.7,0.6c0.3,0.1,0.7,0.2,1.1,0.3
			c0.3,0.1,0.6,0.1,0.8,0.2l0.6,0.1c0.3,0.1,0.7,0.2,1,0.2c0.5,0.1,1,0.2,1.5,0.3l0.1,0c0.5,0.1,1,0.1,1.5,0.2
			c16.6,1.5,31.8-10.4,34.1-27.4C177.9,133.5,178,131.5,177.9,129.5z"/>
		<path class="st4" d="M140.5,162.9c-17.6-2.9-29.6-19.8-26.7-37.6c2.9-17.8,19.5-29.9,37.2-27c17.6,2.9,29.6,19.8,26.7,37.6
			C174.7,153.7,158.1,165.8,140.5,162.9z"/>
		<path class="st3" d="M197.4,86c-17.1-2.9-28.7-19.2-25.9-36.5c2.8-17.3,19-29.1,36.1-26.2c17.1,2.9,28.7,19.2,25.9,36.5
			C230.7,77.1,214.5,88.9,197.4,86z"/>
		<path class="st3" d="M379.2,147.6v21.5c0,2,0.5,3.6,1.6,4.8c1.1,1.2,2.5,1.8,4.5,1.8c1.9,0,3.7-0.9,5.5-2.8l3.7,6.3
			c-3.1,2.8-6.6,4.2-10.4,4.2c-3.8,0-7-1.3-9.7-3.9c-2.7-2.6-4-6.2-4-10.7v-21.3h-5.3v-7.2h5.3v-13.3h8.9v13.3h11.1v7.2H379.2z"/>
		<path class="st3" d="M265.4,70.5c0-3.5,0.6-7,1.8-10.5c1.2-3.5,3-6.6,5.3-9.3c2.3-2.7,5.2-5,8.6-6.7c3.4-1.7,7.2-2.6,11.6-2.6
			c5.1,0,9.5,1.2,13.1,3.6c3.6,2.4,6.3,5.4,8,9.2l-3.4,2c-1-2-2.1-3.7-3.5-5.1c-1.4-1.4-2.9-2.5-4.5-3.3c-1.6-0.8-3.3-1.5-5-1.8
			c-1.7-0.4-3.4-0.6-5.1-0.6c-3.7,0-6.9,0.8-9.7,2.3c-2.8,1.5-5.2,3.5-7.1,5.9c-1.9,2.4-3.4,5.1-4.4,8.2c-1,3-1.5,6.1-1.5,9.2
			c0,3.4,0.6,6.7,1.8,9.9c1.2,3.1,2.8,5.9,4.9,8.3c2.1,2.4,4.5,4.3,7.3,5.7c2.8,1.4,5.8,2.1,9.1,2.1c1.7,0,3.5-0.2,5.3-0.7
			c1.8-0.4,3.6-1.1,5.3-2.1c1.7-0.9,3.3-2.1,4.7-3.6c1.5-1.4,2.7-3.2,3.6-5.1L315,87c-1,2.2-2.3,4.1-3.9,5.8
			c-1.6,1.7-3.5,3.1-5.6,4.3c-2.1,1.1-4.2,2-6.5,2.6c-2.3,0.6-4.6,0.9-6.8,0.9c-3.9,0-7.6-0.9-10.8-2.6c-3.3-1.8-6.1-4-8.5-6.9
			c-2.4-2.8-4.2-6-5.6-9.6C266,77.9,265.4,74.3,265.4,70.5z"/>
		<path class="st3" d="M345.6,100.9c-3,0-5.7-0.6-8.3-1.8c-2.5-1.2-4.7-2.8-6.6-4.8c-1.9-2.1-3.3-4.4-4.4-7.1
			c-1.1-2.7-1.6-5.6-1.6-8.6c0-3,0.5-5.8,1.6-8.5c1.1-2.7,2.5-5,4.3-7c1.8-2,4-3.6,6.6-4.7c2.5-1.1,5.3-1.7,8.2-1.7
			c3,0,5.7,0.6,8.2,1.8c2.5,1.2,4.7,2.8,6.5,4.8c1.8,2,3.3,4.3,4.3,7c1.1,2.7,1.6,5.5,1.6,8.4c0,0.3,0,0.6,0,1c0,0.4,0,0.7,0,0.8
			H329c0.2,2.5,0.7,4.7,1.7,6.9c1,2.1,2.2,3.9,3.7,5.5c1.5,1.5,3.2,2.7,5.2,3.6c1.9,0.9,4,1.3,6.2,1.3c1.5,0,2.9-0.2,4.3-0.6
			c1.4-0.4,2.8-1,4-1.7c1.2-0.7,2.3-1.6,3.2-2.6c0.9-1,1.7-2.1,2.2-3.3l3.6,1c-0.6,1.5-1.6,2.9-2.7,4.2c-1.2,1.3-2.5,2.4-4.1,3.3
			c-1.5,0.9-3.2,1.7-5.1,2.2C349.4,100.7,347.5,100.9,345.6,100.9z M362.1,77.1c-0.2-2.5-0.7-4.8-1.7-6.9c-0.9-2.1-2.2-3.9-3.6-5.4
			c-1.5-1.5-3.2-2.7-5.2-3.5c-1.9-0.8-4-1.3-6.2-1.3c-2.2,0-4.3,0.4-6.2,1.3c-1.9,0.8-3.7,2-5.1,3.5c-1.5,1.5-2.7,3.3-3.6,5.4
			c-0.9,2.1-1.4,4.4-1.6,6.9H362.1z"/>
		<path class="st3" d="M412.9,100.1h-4.1V76.3c0-5.5-0.8-9.6-2.3-12.1c-1.5-2.5-4-3.8-7.4-3.8c-1.8,0-3.6,0.3-5.3,1
			c-1.8,0.7-3.4,1.6-4.9,2.8c-1.5,1.2-2.8,2.6-3.9,4.2c-1.1,1.6-2,3.4-2.5,5.2v26.4h-4.1V57.4h3.7v10.2c0.9-1.6,1.9-3.1,3.2-4.5
			c1.3-1.3,2.7-2.5,4.3-3.4c1.6-1,3.3-1.7,5.1-2.2c1.8-0.5,3.7-0.8,5.6-0.8c4.6,0,7.8,1.6,9.7,4.9c1.9,3.3,2.8,7.9,2.8,14V100.1z"/>
		<path class="st3" d="M447.1,98c-0.2,0.1-0.6,0.3-1.1,0.6c-0.5,0.3-1.2,0.6-1.9,0.9c-0.8,0.3-1.7,0.5-2.6,0.7c-1,0.2-2,0.3-3.2,0.3
			c-1.1,0-2.2-0.2-3.2-0.5c-1-0.3-1.9-0.8-2.6-1.5c-0.8-0.7-1.4-1.4-1.8-2.4c-0.5-0.9-0.7-2-0.7-3.3V60.8h-5.9v-3.4h5.9V42.8h4.1
			v14.6h9.9v3.4h-9.9V92c0,1.6,0.5,2.8,1.6,3.6c1.1,0.8,2.3,1.2,3.7,1.2c1.7,0,3.1-0.3,4.3-0.9c1.2-0.6,2-0.9,2.2-1.1L447.1,98z"/>
		<path class="st3" d="M477.3,61.1c-3.8,0.1-7.2,1.2-10,3.4c-2.8,2.2-4.8,5.1-5.9,8.9v26.7h-4.1V57.4h3.8v10.5
			c1.5-3,3.4-5.5,5.8-7.3c2.4-1.9,5-3,7.7-3.2c0.5,0,1,0,1.5,0c0.4,0,0.8,0,1.1,0V61.1z"/>
		<path class="st3" d="M506.5,100.9c-3,0-5.7-0.6-8.3-1.8c-2.5-1.2-4.7-2.8-6.6-4.8c-1.9-2.1-3.3-4.4-4.4-7.1
			c-1.1-2.7-1.6-5.6-1.6-8.6c0-3,0.5-5.8,1.6-8.5c1.1-2.7,2.5-5,4.3-7c1.8-2,4-3.6,6.6-4.7c2.5-1.1,5.3-1.7,8.2-1.7
			c3,0,5.7,0.6,8.2,1.8c2.5,1.2,4.7,2.8,6.5,4.8c1.8,2,3.3,4.3,4.3,7c1.1,2.7,1.6,5.5,1.6,8.4c0,0.3,0,0.6,0,1c0,0.4,0,0.7,0,0.8
			h-37.1c0.2,2.5,0.7,4.7,1.7,6.9c1,2.1,2.2,3.9,3.7,5.5c1.5,1.5,3.2,2.7,5.2,3.6c1.9,0.9,4,1.3,6.2,1.3c1.5,0,2.9-0.2,4.3-0.6
			c1.4-0.4,2.8-1,4-1.7c1.2-0.7,2.3-1.6,3.2-2.6c0.9-1,1.7-2.1,2.2-3.3l3.6,1c-0.6,1.5-1.6,2.9-2.7,4.2c-1.2,1.3-2.5,2.4-4.1,3.3
			c-1.5,0.9-3.2,1.7-5.1,2.2C510.3,100.7,508.5,100.9,506.5,100.9z M523.1,77.1c-0.2-2.5-0.7-4.8-1.7-6.9c-0.9-2.1-2.2-3.9-3.6-5.4
			c-1.5-1.5-3.2-2.7-5.2-3.5c-1.9-0.8-4-1.3-6.2-1.3c-2.2,0-4.3,0.4-6.2,1.3c-1.9,0.8-3.7,2-5.1,3.5c-1.5,1.5-2.7,3.3-3.6,5.4
			c-0.9,2.1-1.4,4.4-1.6,6.9H523.1z"/>
		<path class="st3" d="M566.1,100.1V65.8h-5.9v-3.4h5.9V56c0-5.3,1.1-9.3,3.2-12.3c2.1-2.9,5.1-4.4,8.8-4.4c1.6,0,3.1,0.2,4.6,0.7
			c1.5,0.5,2.8,1.1,3.7,2l-1.5,3c-0.8-0.6-1.7-1.1-2.8-1.5c-1.1-0.4-2.3-0.6-3.4-0.6c-2.8,0-4.9,1.1-6.4,3.3
			c-1.5,2.2-2.2,5.4-2.2,9.6v6.5h12v3.4h-12v34.3H566.1z"/>
		<path class="st3" d="M611.8,100.9c-3.1,0-5.9-0.6-8.6-1.8c-2.6-1.2-4.9-2.8-6.8-4.8c-1.9-2-3.4-4.4-4.5-7.1
			c-1.1-2.7-1.6-5.5-1.6-8.5c0-3,0.5-5.9,1.6-8.5c1.1-2.7,2.6-5,4.6-7.1c1.9-2,4.2-3.6,6.8-4.8c2.6-1.2,5.4-1.8,8.4-1.8
			c3,0,5.9,0.6,8.5,1.8c2.6,1.2,4.9,2.8,6.8,4.8c1.9,2,3.5,4.4,4.6,7.1c1.1,2.7,1.6,5.5,1.6,8.5c0,3-0.5,5.8-1.6,8.5
			c-1.1,2.7-2.6,5-4.5,7.1c-1.9,2-4.2,3.6-6.8,4.8C617.7,100.3,614.8,100.9,611.8,100.9z M594.7,79c0,2.5,0.4,4.9,1.3,7.1
			c0.9,2.2,2.1,4.1,3.7,5.8c1.5,1.6,3.4,2.9,5.4,3.9c2.1,1,4.3,1.4,6.7,1.4c2.4,0,4.6-0.5,6.7-1.4c2.1-1,3.9-2.3,5.4-4
			c1.5-1.7,2.8-3.7,3.7-5.9c0.9-2.2,1.4-4.6,1.4-7.2c0-2.5-0.5-4.9-1.4-7.1c-0.9-2.2-2.2-4.2-3.7-5.8c-1.5-1.7-3.4-3-5.4-4
			c-2.1-1-4.3-1.5-6.7-1.5c-2.3,0-4.5,0.5-6.6,1.5c-2.1,1-3.9,2.3-5.5,4c-1.6,1.7-2.8,3.7-3.7,6C595.1,74.1,594.7,76.5,594.7,79z"/>
		<path class="st3" d="M665.6,61.1c-3.8,0.1-7.2,1.2-10,3.4c-2.8,2.2-4.8,5.1-5.9,8.9v26.7h-4.1V57.4h3.8v10.5
			c1.5-3,3.4-5.5,5.8-7.3c2.4-1.9,5-3,7.7-3.2c0.5,0,1,0,1.5,0c0.4,0,0.8,0,1.1,0V61.1z"/>
		<path class="st3" d="M780.7,100.9c-3.3,0-6.3-0.6-9-1.8c-2.7-1.2-5-2.8-6.9-4.8c-1.9-2-3.4-4.4-4.5-7.1c-1.1-2.7-1.6-5.5-1.6-8.5
			c0-3,0.5-5.9,1.6-8.6c1.1-2.7,2.5-5.1,4.5-7.1c1.9-2.1,4.2-3.7,6.9-4.8c2.7-1.2,5.7-1.8,9.1-1.8c3.3,0,6.3,0.6,9,1.8
			c2.7,1.2,5,2.8,6.9,4.8c1.9,2,3.3,4.3,4.3,7c1,2.7,1.5,5.4,1.5,8.3c0,0.7,0,1.3-0.1,1.8c-0.1,0.6-0.1,1.1-0.2,1.4h-34
			c0.2,1.9,0.6,3.6,1.3,5.2c0.7,1.5,1.7,2.9,2.8,4c1.2,1.1,2.5,2,4,2.6c1.5,0.6,3,0.9,4.7,0.9c1.2,0,2.4-0.2,3.5-0.5
			c1.2-0.3,2.2-0.7,3.2-1.3c1-0.6,1.8-1.3,2.6-2.1c0.8-0.8,1.4-1.7,1.8-2.7l7.6,2.2c-1.5,3.2-3.9,5.9-7.3,7.9
			C789.1,99.9,785.2,100.9,780.7,100.9z M793.6,75.4c-0.2-1.8-0.6-3.5-1.3-5c-0.7-1.5-1.7-2.8-2.8-3.9c-1.1-1.1-2.5-1.9-4-2.5
			c-1.5-0.6-3.1-0.9-4.8-0.9c-1.7,0-3.3,0.3-4.7,0.9c-1.5,0.6-2.8,1.4-3.9,2.5c-1.1,1.1-2.1,2.4-2.8,3.9c-0.7,1.5-1.1,3.2-1.3,5
			H793.6z"/>
		<path class="st3" d="M851.2,100.1h-8.9V76c0-4.1-0.6-7-1.9-8.8c-1.3-1.8-3.2-2.8-5.6-2.8c-1.3,0-2.6,0.2-3.9,0.7
			c-1.3,0.5-2.6,1.2-3.7,2.1c-1.1,0.9-2.1,2-3,3.2c-0.9,1.2-1.6,2.6-2.1,4.1v25.5h-8.9V57.2h8.1v8.6c1.6-2.9,4-5.2,7.1-6.9
			c3.1-1.7,6.5-2.5,10.2-2.5c2.5,0,4.6,0.5,6.3,1.4c1.6,0.9,2.9,2.2,3.9,3.8c0.9,1.6,1.6,3.5,2,5.6c0.4,2.1,0.6,4.3,0.6,6.7V100.1z"
			/>
		<path class="st3" d="M981.9,100.1H973V76c0-4-0.7-6.9-2-8.8c-1.3-1.9-3.2-2.8-5.6-2.8c-2.5,0-4.9,0.9-7,2.8
			c-2.1,1.9-3.6,4.3-4.5,7.3v25.5H945V76c0-4.1-0.6-7-1.9-8.8c-1.3-1.8-3.2-2.8-5.6-2.8c-2.5,0-4.8,0.9-6.9,2.8
			c-2.1,1.9-3.7,4.3-4.6,7.3v25.5H917V57.2h8.1v8.6c1.7-3,3.9-5.3,6.6-6.9c2.7-1.6,5.9-2.4,9.4-2.4c3.6,0,6.4,0.9,8.4,2.8
			c2,1.9,3.3,4.2,3.8,7c1.8-3.2,4-5.6,6.7-7.3c2.7-1.7,5.8-2.5,9.2-2.5c2.5,0,4.6,0.5,6.2,1.4c1.6,1,3,2.2,3.9,3.8
			c1,1.6,1.7,3.4,2.1,5.5c0.4,2.1,0.6,4.3,0.6,6.7V100.1z"/>
		<path class="st3" d="M1015.7,78.6c0-3,0.5-5.9,1.5-8.5c1-2.7,2.5-5,4.4-7.1c1.9-2,4.2-3.6,6.9-4.8c2.7-1.2,5.7-1.8,9.1-1.8
			c4.4,0,8.2,1,11.3,2.9c3.2,1.9,5.5,4.5,7.1,7.8l-8.7,2.8c-1-1.8-2.4-3.2-4.1-4.2c-1.7-1-3.7-1.5-5.8-1.5c-1.8,0-3.4,0.4-5,1.1
			c-1.5,0.7-2.9,1.7-4,3c-1.1,1.3-2,2.8-2.7,4.6c-0.6,1.8-1,3.7-1,5.8c0,2.1,0.3,4,1,5.8c0.7,1.8,1.6,3.3,2.8,4.6
			c1.2,1.3,2.5,2.3,4.1,3.1c1.5,0.7,3.2,1.1,4.9,1.1c1.1,0,2.2-0.2,3.2-0.5c1.1-0.3,2.1-0.7,3-1.3c0.9-0.5,1.7-1.2,2.4-1.9
			c0.7-0.7,1.2-1.5,1.5-2.3l8.8,2.6c-1.4,3.2-3.8,5.9-7.1,7.9c-3.3,2.1-7.2,3.1-11.7,3.1c-3.3,0-6.3-0.6-9-1.8
			c-2.7-1.2-5-2.8-6.9-4.9c-1.9-2.1-3.4-4.4-4.5-7.1C1016.2,84.4,1015.7,81.6,1015.7,78.6z"/>
		<path class="st3" d="M268.1,183.3V125h24.2c2.6,0,5,0.5,7.2,1.6c2.2,1.1,4.1,2.5,5.6,4.3c1.6,1.8,2.8,3.8,3.7,6.1
			c0.9,2.3,1.3,4.6,1.3,6.9c0,2.5-0.4,4.8-1.3,7.1c-0.8,2.3-2,4.3-3.5,6.1c-1.5,1.8-3.3,3.2-5.5,4.3c-2.1,1.1-4.5,1.6-7.1,1.6h-15.6
			v20.3H268.1z M277.1,154.9h15c1.3,0,2.5-0.3,3.5-0.8c1.1-0.5,2-1.3,2.7-2.3c0.8-1,1.4-2.1,1.8-3.4c0.4-1.3,0.6-2.8,0.6-4.4
			c0-1.6-0.2-3.1-0.7-4.4c-0.5-1.3-1.2-2.4-2-3.4c-0.9-1-1.9-1.7-3-2.2c-1.1-0.5-2.3-0.8-3.4-0.8h-14.5V154.9z"/>
		<path class="st3" d="M331.2,184.1c-2.1,0-4-0.3-5.7-1c-1.8-0.7-3.3-1.6-4.5-2.8c-1.3-1.2-2.3-2.6-3-4.3c-0.7-1.6-1.1-3.4-1.1-5.3
			c0-2,0.4-3.9,1.3-5.5c0.9-1.6,2.1-3.1,3.7-4.3c1.6-1.2,3.5-2.1,5.7-2.8c2.2-0.7,4.6-1,7.3-1c2,0,4,0.2,5.9,0.5
			c1.9,0.4,3.7,0.8,5.3,1.4v-3c0-3.2-0.9-5.7-2.7-7.4c-1.8-1.8-4.4-2.7-7.7-2.7c-2.3,0-4.5,0.4-6.7,1.3c-2.2,0.8-4.4,2.1-6.8,3.7
			l-2.8-5.7c5.5-3.7,11.1-5.6,17-5.6c5.8,0,10.4,1.5,13.6,4.5c3.2,3,4.9,7.3,4.9,13v15.5c0,1,0.2,1.8,0.6,2.2c0.4,0.4,1,0.7,1.9,0.7
			v7.7c-0.9,0.2-1.7,0.3-2.4,0.3c-0.7,0.1-1.4,0.1-2,0.1c-1.7-0.1-3-0.6-3.9-1.4c-0.9-0.8-1.4-1.9-1.7-3.3l-0.2-2.7
			c-1.9,2.5-4.2,4.4-7,5.8C337.4,183.4,334.4,184.1,331.2,184.1z M333.7,177.5c2.2,0,4.2-0.4,6.1-1.2c1.9-0.8,3.4-1.9,4.5-3.3
			c1.1-1,1.7-2,1.7-3.1v-5.7c-1.5-0.6-3.1-1.1-4.8-1.4c-1.7-0.3-3.4-0.5-5-0.5c-3.2,0-5.8,0.7-7.8,2.1c-2,1.4-3,3.2-3,5.5
			c0,2.1,0.8,3.9,2.4,5.4C329.2,176.7,331.2,177.5,333.7,177.5z"/>
		<path class="st3" d="M440.6,183.3h-8.9v-24.1c0-3.9-0.7-6.9-2.1-8.7c-1.4-1.9-3.4-2.8-6-2.8c-1.2,0-2.4,0.2-3.6,0.7
			c-1.2,0.5-2.4,1.2-3.5,2.1c-1.1,0.9-2.1,2-3,3.2c-0.9,1.2-1.6,2.6-2,4.1v25.5h-8.9v-59.9h8.9V149c1.7-3,3.9-5.3,6.7-6.9
			c2.8-1.6,5.8-2.5,9.1-2.5c2.6,0,4.8,0.5,6.5,1.4c1.7,1,3.1,2.2,4.1,3.8c1,1.6,1.7,3.4,2.1,5.5c0.4,2.1,0.6,4.3,0.6,6.7V183.3z"/>
		<path class="st3" d="M523.3,183.7c-2.9,0-5.5-0.6-7.8-1.8c-2.4-1.2-4.4-2.8-6.1-4.8c-1.7-2-3-4.4-4-7c-0.9-2.6-1.4-5.4-1.4-8.3
			c0-3.1,0.5-6,1.4-8.7c0.9-2.7,2.3-5.1,4-7.1c1.7-2,3.8-3.6,6.2-4.8c2.4-1.2,5.1-1.8,8-1.8c3.5,0,6.5,0.8,9,2.5
			c2.5,1.6,4.6,3.8,6.3,6.4v-8.1h7.9v41.7c0,3.1-0.6,5.9-1.7,8.3c-1.1,2.4-2.7,4.4-4.7,6.1c-2,1.7-4.4,2.9-7.2,3.8
			c-2.8,0.9-5.7,1.3-8.9,1.3c-4.7,0-8.6-0.8-11.7-2.4c-3.1-1.6-5.7-3.9-7.9-6.8l5-4.8c1.6,2.3,3.7,4.1,6.3,5.3
			c2.6,1.2,5.3,1.8,8.2,1.8c1.8,0,3.6-0.2,5.2-0.7c1.6-0.5,3.1-1.3,4.3-2.3c1.2-1,2.2-2.4,3-3.9c0.7-1.6,1.1-3.5,1.1-5.7v-6.6
			c-1.5,2.6-3.6,4.7-6.2,6.1C529,183,526.2,183.7,523.3,183.7z M526.2,176.4c1.4,0,2.6-0.2,3.9-0.7c1.2-0.5,2.4-1.1,3.4-1.9
			c1.1-0.8,2-1.7,2.7-2.7c0.8-1,1.3-2.1,1.6-3.2v-11.2c-1.1-2.7-2.8-5-5-6.7c-2.3-1.7-4.7-2.6-7.3-2.6c-1.9,0-3.7,0.4-5.2,1.3
			c-1.5,0.8-2.9,2-3.9,3.4c-1.1,1.4-1.9,3-2.5,4.7c-0.6,1.8-0.9,3.6-0.9,5.4c0,2,0.3,3.8,1,5.5c0.7,1.7,1.6,3.2,2.8,4.5
			c1.2,1.3,2.6,2.3,4.2,3.1C522.6,176,524.3,176.4,526.2,176.4z"/>
		<path class="st3" d="M580.1,184.1c-3.3,0-6.3-0.6-9-1.8c-2.7-1.2-5-2.8-6.9-4.8c-1.9-2-3.4-4.4-4.5-7.1c-1.1-2.7-1.6-5.5-1.6-8.5
			c0-3,0.5-5.9,1.6-8.6c1.1-2.7,2.5-5.1,4.5-7.1c1.9-2.1,4.2-3.7,6.9-4.8c2.7-1.2,5.7-1.8,9.1-1.8c3.3,0,6.3,0.6,9,1.8
			c2.7,1.2,5,2.8,6.9,4.8c1.9,2,3.3,4.3,4.3,7c1,2.7,1.5,5.4,1.5,8.3c0,0.7,0,1.3-0.1,1.8c-0.1,0.6-0.1,1.1-0.2,1.4h-34
			c0.2,1.9,0.6,3.6,1.3,5.2c0.7,1.5,1.7,2.9,2.8,4c1.2,1.1,2.5,2,4,2.6c1.5,0.6,3,0.9,4.7,0.9c1.2,0,2.4-0.2,3.5-0.5
			c1.2-0.3,2.2-0.7,3.2-1.3c1-0.6,1.8-1.3,2.6-2.1c0.8-0.8,1.4-1.7,1.8-2.7l7.6,2.2c-1.5,3.2-3.9,5.9-7.3,7.9
			C588.5,183.1,584.6,184.1,580.1,184.1z M593,158.6c-0.2-1.8-0.6-3.5-1.3-5c-0.7-1.5-1.7-2.8-2.8-3.9c-1.1-1.1-2.5-1.9-4-2.5
			c-1.5-0.6-3.1-0.9-4.8-0.9c-1.7,0-3.3,0.3-4.7,0.9c-1.5,0.6-2.8,1.4-3.9,2.5c-1.1,1.1-2.1,2.4-2.8,3.9c-0.7,1.5-1.1,3.2-1.3,5H593
			z"/>
		<path class="st3" d="M650.6,183.3h-8.9v-24.1c0-4.1-0.6-7-1.9-8.8c-1.3-1.8-3.2-2.8-5.6-2.8c-1.3,0-2.6,0.2-3.9,0.7
			c-1.3,0.5-2.6,1.2-3.7,2.1c-1.1,0.9-2.1,2-3,3.2c-0.9,1.2-1.6,2.6-2.1,4.1v25.5h-8.9v-42.9h8.1v8.6c1.6-2.9,4-5.2,7.1-6.9
			c3.1-1.7,6.5-2.5,10.2-2.5c2.5,0,4.6,0.5,6.3,1.4c1.6,0.9,2.9,2.2,3.9,3.8c0.9,1.6,1.6,3.5,2,5.6c0.4,2.1,0.6,4.3,0.6,6.7V183.3z"
			/>
		<path class="st3" d="M722.9,138.7c-0.5-0.6-1.3-1.2-2.4-1.9c-1-0.7-2.2-1.3-3.6-1.9c-1.4-0.6-2.9-1.1-4.6-1.5
			c-1.7-0.4-3.5-0.6-5.4-0.6c-3.6,0-6.3,0.7-8.1,2.1c-1.8,1.4-2.8,3.4-2.8,6c0,1.4,0.3,2.6,0.9,3.5c0.6,0.9,1.5,1.7,2.7,2.3
			c1.2,0.7,2.7,1.2,4.5,1.8c1.8,0.5,3.9,1.1,6.2,1.7c2.8,0.8,5.4,1.6,7.7,2.4c2.4,0.8,4.4,1.8,6,3.1c1.6,1.2,2.9,2.8,3.9,4.6
			c0.9,1.8,1.4,4.1,1.4,6.7c0,3.1-0.6,5.7-1.7,7.8c-1.1,2.1-2.7,3.9-4.6,5.2c-1.9,1.3-4.2,2.3-6.7,3c-2.5,0.6-5.2,0.9-8.1,0.9
			c-4.4,0-8.6-0.7-12.7-2c-4.1-1.3-7.8-3.3-11.1-5.9l4.2-7.9c0.7,0.7,1.7,1.5,3,2.4c1.3,0.9,2.8,1.7,4.6,2.4
			c1.8,0.7,3.7,1.4,5.8,1.9c2.1,0.5,4.3,0.8,6.6,0.8c3.5,0,6.2-0.6,8.1-1.9c1.9-1.3,2.9-3.2,2.9-5.6c0-1.5-0.4-2.7-1.1-3.7
			c-0.7-1-1.7-1.8-3.1-2.6c-1.4-0.7-3-1.4-4.9-2c-1.9-0.6-4.2-1.2-6.7-1.8c-2.9-0.8-5.4-1.6-7.5-2.4c-2.1-0.8-3.9-1.9-5.3-3.1
			c-1.4-1.2-2.5-2.6-3.2-4.2c-0.7-1.6-1.1-3.6-1.1-5.9c0-2.8,0.5-5.4,1.6-7.6c1.1-2.2,2.5-4.1,4.4-5.6c1.9-1.5,4.1-2.6,6.6-3.4
			c2.5-0.8,5.3-1.1,8.2-1.1c4,0,7.6,0.6,10.9,1.9c3.3,1.3,6.2,2.8,8.6,4.7L722.9,138.7z"/>
		<path class="st3" d="M753.5,184.1c-4.4,0-7.7-1.5-10-4.4c-2.3-2.9-3.4-7.3-3.4-13.1v-26.3h8.9v24.5c0,7.7,2.7,11.6,8,11.6
			c2.6,0,5-0.8,7.3-2.4c2.3-1.6,4-3.9,5.3-6.9v-26.8h8.9v32.3c0,1,0.2,1.8,0.6,2.2c0.4,0.4,1.1,0.7,2,0.7v7.7
			c-1,0.2-1.8,0.3-2.5,0.3c-0.7,0.1-1.3,0.1-1.9,0.1c-3.4-0.3-5.2-1.8-5.7-4.7l-0.2-4.4c-1.9,3.1-4.4,5.5-7.4,7.1
			C760.6,183.3,757.2,184.1,753.5,184.1z"/>
		<path class="st3" d="M817.4,148.2c-3.5,0.1-6.5,0.9-9.2,2.4c-2.6,1.5-4.6,3.7-5.8,6.4v26.3h-8.9v-42.9h8.3v9.6
			c1.5-3,3.4-5.4,5.8-7.2c2.4-1.9,4.9-2.8,7.5-2.8c0.5,0,1,0,1.3,0c0.4,0,0.7,0,0.9,0.1V148.2z"/>
		<path class="st3" d="M839.3,183.3L823,140.4h9.2l12.1,35.3l12.2-35.3h8.4l-16.2,42.9H839.3z"/>
		<path class="st3" d="M894,184.1c-3.3,0-6.3-0.6-9-1.8c-2.7-1.2-5-2.8-6.9-4.8c-1.9-2-3.4-4.4-4.5-7.1c-1.1-2.7-1.6-5.5-1.6-8.5
			c0-3,0.5-5.9,1.6-8.6c1.1-2.7,2.5-5.1,4.5-7.1c1.9-2.1,4.2-3.7,6.9-4.8c2.7-1.2,5.7-1.8,9.1-1.8c3.3,0,6.3,0.6,9,1.8
			c2.7,1.2,5,2.8,6.9,4.8c1.9,2,3.3,4.3,4.3,7c1,2.7,1.5,5.4,1.5,8.3c0,0.7,0,1.3-0.1,1.8c-0.1,0.6-0.1,1.1-0.2,1.4h-34
			c0.2,1.9,0.6,3.6,1.3,5.2c0.7,1.5,1.7,2.9,2.8,4c1.2,1.1,2.5,2,4,2.6c1.5,0.6,3,0.9,4.7,0.9c1.2,0,2.4-0.2,3.5-0.5
			c1.2-0.3,2.2-0.7,3.2-1.3s1.8-1.3,2.6-2.1c0.8-0.8,1.4-1.7,1.8-2.7l7.6,2.2c-1.5,3.2-3.9,5.9-7.3,7.9
			C902.4,183.1,898.5,184.1,894,184.1z M906.9,158.6c-0.2-1.8-0.6-3.5-1.3-5c-0.7-1.5-1.7-2.8-2.8-3.9c-1.1-1.1-2.5-1.9-4-2.5
			c-1.5-0.6-3.1-0.9-4.8-0.9c-1.7,0-3.3,0.3-4.7,0.9c-1.5,0.6-2.8,1.4-3.9,2.5c-1.1,1.1-2.1,2.4-2.8,3.9c-0.7,1.5-1.1,3.2-1.3,5
			H906.9z"/>
		<path class="st3" d="M926.4,183.5v-43.7h8.9v43.7H926.4z"/>
		<path class="st3" d="M949.5,183.5v-59.9h8.9v59.9H949.5z"/>
		<path class="st3" d="M973.2,183.6v-59.9h8.9v59.9H973.2z"/>
		<path class="st3" d="M1082.1,183.3h-8.9v-24.1c0-4.1-0.6-7-1.9-8.8c-1.3-1.8-3.2-2.8-5.6-2.8c-1.3,0-2.6,0.2-3.9,0.7
			c-1.3,0.5-2.6,1.2-3.7,2.1c-1.1,0.9-2.1,2-3,3.2c-0.9,1.2-1.6,2.6-2.1,4.1v25.5h-8.9v-42.9h8.1v8.6c1.6-2.9,4-5.2,7.1-6.9
			c3.1-1.7,6.5-2.5,10.2-2.5c2.5,0,4.6,0.5,6.3,1.4c1.6,0.9,2.9,2.2,3.9,3.8c0.9,1.6,1.6,3.5,2,5.6c0.4,2.1,0.6,4.3,0.6,6.7V183.3z"
			/>
		<path class="st3" d="M1093.1,161.8c0-3,0.5-5.9,1.5-8.5c1-2.7,2.5-5,4.4-7.1c1.9-2,4.2-3.6,6.9-4.8c2.7-1.2,5.7-1.8,9.1-1.8
			c4.4,0,8.2,1,11.3,2.9c3.2,1.9,5.5,4.5,7.1,7.8l-8.7,2.8c-1-1.8-2.4-3.2-4.1-4.2c-1.7-1-3.6-1.5-5.8-1.5c-1.8,0-3.4,0.4-5,1.1
			c-1.5,0.7-2.9,1.7-4,3c-1.1,1.3-2,2.8-2.7,4.6c-0.6,1.8-1,3.7-1,5.8c0,2.1,0.3,4,1,5.8c0.7,1.8,1.6,3.3,2.8,4.6
			c1.2,1.3,2.5,2.3,4.1,3.1c1.5,0.7,3.2,1.1,4.9,1.1c1.1,0,2.2-0.2,3.2-0.5c1.1-0.3,2.1-0.7,3-1.3c0.9-0.5,1.7-1.2,2.4-1.9
			c0.7-0.7,1.2-1.5,1.5-2.3l8.8,2.6c-1.4,3.2-3.8,5.9-7.1,7.9c-3.3,2.1-7.2,3.1-11.7,3.1c-3.3,0-6.3-0.6-9-1.8
			c-2.7-1.2-5-2.8-6.9-4.9c-1.9-2.1-3.4-4.4-4.5-7.1C1093.6,167.6,1093.1,164.8,1093.1,161.8z"/>
		<path class="st3" d="M1163.9,184.1c-3.3,0-6.3-0.6-9-1.8c-2.7-1.2-5-2.8-6.9-4.8c-1.9-2-3.4-4.4-4.5-7.1c-1.1-2.7-1.6-5.5-1.6-8.5
			c0-3,0.5-5.9,1.6-8.6c1.1-2.7,2.5-5.1,4.5-7.1c1.9-2.1,4.2-3.7,6.9-4.8c2.7-1.2,5.7-1.8,9.1-1.8c3.3,0,6.3,0.6,9,1.8
			c2.7,1.2,5,2.8,6.9,4.8c1.9,2,3.3,4.3,4.3,7c1,2.7,1.5,5.4,1.5,8.3c0,0.7,0,1.3-0.1,1.8c-0.1,0.6-0.1,1.1-0.2,1.4h-34
			c0.2,1.9,0.6,3.6,1.3,5.2c0.7,1.5,1.7,2.9,2.8,4c1.2,1.1,2.5,2,4,2.6c1.5,0.6,3,0.9,4.7,0.9c1.2,0,2.4-0.2,3.5-0.5
			c1.2-0.3,2.2-0.7,3.2-1.3s1.8-1.3,2.6-2.1c0.8-0.8,1.4-1.7,1.8-2.7l7.6,2.2c-1.5,3.2-3.9,5.9-7.3,7.9
			C1172.3,183.1,1168.3,184.1,1163.9,184.1z M1176.8,158.6c-0.2-1.8-0.6-3.5-1.3-5c-0.7-1.5-1.7-2.8-2.8-3.9c-1.1-1.1-2.5-1.9-4-2.5
			c-1.5-0.6-3.1-0.9-4.8-0.9c-1.7,0-3.3,0.3-4.7,0.9c-1.5,0.6-2.8,1.4-3.9,2.5c-1.1,1.1-2.1,2.4-2.8,3.9c-0.7,1.5-1.1,3.2-1.3,5
			H1176.8z"/>
		<path class="st3" d="M900.5,94.9c-4.4,4.3-9.8,6.5-16.3,6.5c-6.5,0-12-2.2-16.3-6.5c-4.4-4.3-6.5-9.6-6.5-15.9
			c0-6.3,2.2-11.6,6.5-15.9c4.4-4.3,9.8-6.5,16.3-6.5c6.5,0,12,2.2,16.3,6.5c4.4,4.3,6.5,9.6,6.5,15.9
			C907,85.3,904.9,90.6,900.5,94.9z M874.3,89.3c2.6,2.6,5.9,4,9.8,4c4,0,7.3-1.3,9.8-4c2.6-2.7,3.9-6.1,3.9-10.3
			c0-4.2-1.3-7.6-3.9-10.3c-2.6-2.6-5.9-4-9.8-4c-4,0-7.3,1.3-9.8,4c-2.6,2.7-3.9,6.1-3.9,10.3C870.5,83.2,871.7,86.6,874.3,89.3z"
			/>
		<path class="st3" d="M489.2,178.4c-4.3,4.3-9.7,6.5-16.1,6.5c-6.5,0-11.8-2.2-16.1-6.5c-4.3-4.3-6.5-9.6-6.5-15.9
			c0-6.3,2.2-11.6,6.5-15.9c4.3-4.3,9.7-6.5,16.1-6.5c6.4,0,11.8,2.2,16.1,6.5c4.3,4.3,6.5,9.6,6.5,15.9
			C495.7,168.7,493.5,174,489.2,178.4z M463.4,172.7c2.6,2.6,5.8,4,9.7,4c3.9,0,7.2-1.3,9.7-4c2.6-2.7,3.8-6.1,3.8-10.3
			c0-4.2-1.3-7.6-3.8-10.3c-2.5-2.6-5.8-4-9.7-4c-3.9,0-7.2,1.3-9.7,4c-2.6,2.7-3.8,6.1-3.8,10.3
			C459.6,166.7,460.8,170.1,463.4,172.7z"/>
		<ellipse class="st3" cx="930.8" cy="128.1" rx="4.4" ry="4.5"/>
		<path class="st3" d="M994.9,100.4V56.7h8.9v43.7H994.9z"/>
		<path class="st5" d="M748,68.5l-16.7,0l0,6.6l9.9,0l0,13.4c-1.8,1.5-4.1,2.7-6.8,3.8c-2.7,1.1-5.7,1.6-8.8,1.6c0,0-0.1,0-0.1,0
			c-3.3,0-6.3-0.6-8.9-1.7c-2.6-1.1-4.9-2.7-6.8-4.8c-1.9-2-3.3-4.5-4.3-7.2c-1-2.8-1.5-5.9-1.5-9.2l0-0.2c0-3,0.5-6,1.5-8.7
			c1-2.8,2.5-5.2,4.3-7.2c1.8-2,4-3.7,6.5-4.9c2.5-1.2,5.3-1.8,8.3-1.8c1.9,0,3.7,0.1,5.3,0.5c1.6,0.3,3.1,0.7,4.4,1.3
			c1.3,0.5,2.6,1.2,3.7,2c1.2,0.8,2.3,1.6,3.3,2.6l0.3,0.3l4.6-5.5l-0.3-0.3c-1.4-1.2-2.8-2.3-4.3-3.2c-1.5-0.9-3.1-1.8-4.8-2.4
			c-1.7-0.6-3.5-1.1-5.5-1.5c-2-0.3-4.1-0.4-6.5-0.5c-4.2,0-8.1,0.8-11.5,2.4c-3.4,1.6-6.4,3.8-8.9,6.5c-2.4,2.7-4.4,5.9-5.7,9.4
			c-1.4,3.5-2,7.3-2,11.2l0,0.2c0,4.1,0.7,7.9,2,11.4c1.3,3.5,3.3,6.7,5.7,9.3c2.5,2.7,5.5,4.8,9,6.3c3.5,1.5,7.5,2.3,11.8,2.3
			c0,0,0.1,0,0.1,0c4.7,0,9.1-0.9,12.9-2.6c1-0.4,2-0.9,3-1.5l0,4.1l6.8,0L748,68.5z"/>
		<path class="st3" d="M1007.2,184.3c-2.1,0-4-0.3-5.7-1c-1.8-0.7-3.3-1.6-4.5-2.8c-1.3-1.2-2.3-2.6-3-4.3c-0.7-1.6-1.1-3.4-1.1-5.3
			c0-2,0.4-3.9,1.3-5.5c0.9-1.6,2.1-3.1,3.7-4.3c1.6-1.2,3.5-2.1,5.7-2.8c2.2-0.7,4.6-1,7.3-1c2,0,4,0.2,5.9,0.5
			c1.9,0.4,3.7,0.8,5.3,1.4v-3c0-3.2-0.9-5.7-2.7-7.4c-1.8-1.8-4.4-2.7-7.7-2.7c-2.3,0-4.5,0.4-6.7,1.3c-2.2,0.8-4.4,2.1-6.8,3.7
			l-2.8-5.7c5.5-3.7,11.1-5.6,17-5.6c5.8,0,10.4,1.5,13.6,4.5c3.2,3,4.9,7.3,4.9,13v15.5c0,1,0.2,1.8,0.6,2.2c0.4,0.4,1,0.7,1.9,0.7
			v7.7c-0.9,0.2-1.7,0.3-2.4,0.3c-0.7,0.1-1.4,0.1-2,0.1c-1.7-0.1-3-0.6-3.9-1.4c-0.9-0.8-1.4-1.9-1.7-3.3l-0.2-2.7
			c-1.9,2.5-4.2,4.4-7,5.8C1013.4,183.6,1010.4,184.3,1007.2,184.3z M1009.6,177.6c2.2,0,4.2-0.4,6.1-1.2c1.9-0.8,3.4-1.9,4.5-3.3
			c1.1-1,1.7-2,1.7-3.1v-5.7c-1.5-0.6-3.1-1.1-4.8-1.4c-1.7-0.3-3.4-0.5-5-0.5c-3.2,0-5.8,0.7-7.8,2.1c-2,1.4-3,3.2-3,5.5
			c0,2.1,0.8,3.9,2.4,5.4C1005.2,176.9,1007.2,177.6,1009.6,177.6z"/>
		<ellipse class="st3" cx="999.3" cy="44.9" rx="4.4" ry="4.5"/>
	</g>
</switch>
</svg>
