<?xml version="1.0" encoding="utf-8"?>
<!-- Generator: Adobe Illustrator 19.1.0, SVG Export Plug-In . SVG Version: 6.00 Build 0)  -->
<!DOCTYPE svg PUBLIC "-//W3C//DTD SVG 1.1//EN" "http://www.w3.org/Graphics/SVG/1.1/DTD/svg11.dtd" [
	<!ENTITY ns_extend "http://ns.adobe.com/Extensibility/1.0/">
	<!ENTITY ns_ai "http://ns.adobe.com/AdobeIllustrator/10.0/">
	<!ENTITY ns_graphs "http://ns.adobe.com/Graphs/1.0/">
	<!ENTITY ns_vars "http://ns.adobe.com/Variables/1.0/">
	<!ENTITY ns_imrep "http://ns.adobe.com/ImageReplacement/1.0/">
	<!ENTITY ns_sfw "http://ns.adobe.com/SaveForWeb/1.0/">
	<!ENTITY ns_custom "http://ns.adobe.com/GenericCustomNamespace/1.0/">
	<!ENTITY ns_adobe_xpath "http://ns.adobe.com/XPath/1.0/">
]>
<svg version="1.1" id="Layer_1" xmlns:x="&ns_extend;" xmlns:i="&ns_ai;" xmlns:graph="&ns_graphs;"
	 xmlns="http://www.w3.org/2000/svg" xmlns:xlink="http://www.w3.org/1999/xlink" x="0px" y="0px" viewBox="0 0 425.3 166.7"
	 style="enable-background:new 0 0 425.3 166.7;" xml:space="preserve">
<style type="text/css">
	.st0{fill:#C2CCD4;}
	.st1{fill:#A386BD;}
	.st2{fill:#937AB2;}
	.st3{fill:#673C90;}
	.st4{fill:#B25EA1;}
	.st5{fill:#673C90;stroke:#673C90;stroke-miterlimit:10;}
	.st6{fill:#673C90;stroke:#673C90;stroke-width:2;stroke-miterlimit:10;}
</style>
<switch>
	<g i:extraneous="self">
		<path class="st0" d="M100.9,58.2c-2.1,0-4.3,0.2-6.3,0.5c0.1,2.6-0.1,5.2-0.5,7.9c-2.8,17.3-16.4,30.1-32.8,32.7
			c0.7,18.5,14.3,34.6,33.2,37.7c2.2,0.4,4.3,0.5,6.5,0.5c19.1,0,35.9-13.8,39.1-33.2c3.6-21.6-11.1-42-32.7-45.6
			C105.2,58.3,103,58.2,100.9,58.2"/>
		<path class="st1" d="M54.8,20.4c-19.1,0-35.9,13.8-39.1,33.2c-3.6,21.6,11.1,42,32.7,45.6c2.2,0.4,4.3,0.5,6.5,0.5
			c2.1,0,4.3-0.2,6.3-0.5c-0.1-2.6,0.1-5.2,0.5-7.9c2.8-17.3,16.4-30.1,32.8-32.7C93.9,40.2,80.3,24.1,61.3,21
			C59.1,20.6,57,20.4,54.8,20.4"/>
		<path class="st2" d="M94.5,58.7c-16.4,2.7-29.9,15.5-32.8,32.7c-0.4,2.7-0.6,5.3-0.5,7.9C77.6,96.6,91.2,83.8,94,66.6
			C94.5,63.9,94.6,61.3,94.5,58.7"/>
		<path class="st3" d="M121.5,97.2c0-0.2,0-0.4,0-0.7c0-0.2,0-0.4-0.1-0.6c0-0.3-0.1-0.5-0.1-0.7c0-0.3-0.1-0.6-0.1-0.8
			c0-0.2-0.1-0.3-0.1-0.5c0-0.2-0.1-0.3-0.1-0.5l-0.1-0.3c0-0.2-0.1-0.4-0.2-0.5c0-0.2-0.1-0.4-0.2-0.6l-0.1-0.2
			c-0.1-0.2-0.2-0.4-0.2-0.7l-0.1-0.2c-0.1-0.2-0.2-0.5-0.3-0.7l0-0.1c-0.1-0.2-0.2-0.4-0.3-0.6l-0.1-0.3c-0.1-0.2-0.2-0.3-0.3-0.5
			l-0.2-0.3c-0.1-0.1-0.2-0.3-0.3-0.4c-0.1-0.1-0.2-0.3-0.2-0.4c-0.1-0.1-0.2-0.3-0.3-0.4l-0.2-0.2c-0.1-0.2-0.3-0.4-0.4-0.6
			c-0.2-0.2-0.3-0.4-0.5-0.7l-0.1-0.1c-0.1-0.2-0.3-0.4-0.5-0.5l-0.2-0.2c-0.2-0.2-0.3-0.4-0.5-0.5l-0.1-0.1
			c-0.2-0.2-0.4-0.4-0.6-0.6c-0.2-0.2-0.4-0.4-0.6-0.6l-0.1-0.1c-0.2-0.2-0.4-0.4-0.6-0.5c-0.2-0.2-0.5-0.4-0.7-0.5l-0.1,0
			c-0.2-0.2-0.5-0.3-0.7-0.5c-0.3-0.2-0.5-0.3-0.8-0.5c-0.3-0.2-0.5-0.3-0.8-0.4c-0.3-0.1-0.5-0.3-0.8-0.4c-0.4-0.2-0.8-0.3-1.2-0.5
			c-0.2-0.1-0.4-0.1-0.5-0.2c-0.3-0.1-0.5-0.2-0.8-0.3c-0.3-0.1-0.6-0.2-0.9-0.3l-0.2-0.1c-0.3-0.1-0.6-0.1-0.8-0.2
			c-0.3-0.1-0.6-0.1-0.9-0.2l-0.1,0c-4.4-0.6-8.5-1.9-12.3-3.8c-4.8-2.4-9-5.7-12.4-9.7l0,0c-2.8-3.2-5-6.9-6.6-10.9
			c-0.1-0.2-0.1-0.3-0.2-0.5c-2.7-6.2-8.4-10.9-15.5-11.9c-7.1-1-14,1.9-18.2,7.1c-0.2,0.3-0.4,0.5-0.6,0.8
			c-1.9,2.6-3.2,5.7-3.7,9.1c-0.5,3.4-0.1,6.7,1,9.7l0,0c0.1,0.3,0.2,0.6,0.4,0.9l0,0C38.8,75.4,44.5,80,51.7,81l0,0
			c3.1,0.4,6,1.2,8.8,2.3c0.6,0.2,1.2,0.5,1.8,0.8l0,0c0.6,0.3,1.1,0.5,1.7,0.8l0,0l0.1,0l0,0c4.8,2.4,9,5.7,12.3,9.7
			c2.7,3.1,4.8,6.6,6.4,10.4l0,0.1c0.1,0.3,0.3,0.7,0.4,1c0.1,0.3,0.3,0.7,0.5,1c0.1,0.3,0.3,0.6,0.4,0.8l0.1,0.3l0,0
			c0.1,0.3,0.3,0.5,0.5,0.7c0.2,0.3,0.4,0.6,0.6,0.8l0.3,0.3l0,0c0.2,0.2,0.4,0.5,0.6,0.7c0.2,0.3,0.5,0.6,0.7,0.8l0,0
			c0.3,0.3,0.5,0.5,0.8,0.8c0.3,0.3,0.6,0.5,0.8,0.8c0.3,0.2,0.6,0.5,0.9,0.7c0.2,0.1,0.4,0.3,0.6,0.4c0.3,0.2,0.7,0.5,1,0.7
			c0.3,0.2,0.5,0.3,0.8,0.5c0.2,0.1,0.4,0.2,0.6,0.3c0.3,0.2,0.7,0.3,1,0.5c0.3,0.1,0.7,0.3,1,0.4c0.3,0.1,0.7,0.3,1.1,0.4
			c0.2,0.1,0.4,0.1,0.7,0.2c0.2,0,0.4,0.1,0.5,0.1l0.4,0.1c0.2,0,0.4,0.1,0.6,0.1c0.3,0.1,0.6,0.1,0.9,0.2l0.1,0
			c0.3,0,0.6,0.1,0.9,0.1c10.5,1,20-6.5,21.5-17C121.5,99.7,121.5,98.5,121.5,97.2z"/>
		<circle class="st4" cx="101.1" cy="97.9" r="20.4"/>
		<circle class="st3" cx="136.9" cy="50.6" r="19.8"/>
		<path class="st5" d="M294.7,135.5V69.7h27.6c3,0,5.7,0.6,8.2,1.9c2.5,1.2,4.6,2.9,6.4,4.9c1.8,2,3.2,4.3,4.2,6.9
			c1,2.6,1.5,5.2,1.5,7.8c0,2.8-0.5,5.5-1.4,8c-1,2.6-2.3,4.8-4,6.9c-1.7,2-3.8,3.6-6.3,4.8c-2.4,1.2-5.1,1.8-8.1,1.8h-17.8v22.9
			H294.7z M305.1,103.4h17.1c1.5,0,2.8-0.3,4-0.9c1.2-0.6,2.2-1.5,3.1-2.6c0.9-1.1,1.5-2.4,2-3.9c0.5-1.5,0.7-3.1,0.7-4.9
			c0-1.9-0.3-3.5-0.8-5c-0.6-1.5-1.3-2.8-2.3-3.8c-1-1.1-2.1-1.9-3.4-2.5c-1.3-0.6-2.6-0.9-3.9-0.9h-16.6V103.4z"/>
		<path class="st5" d="M392.1,85.2c-0.6-0.7-1.5-1.4-2.7-2.2c-1.2-0.8-2.5-1.5-4.1-2.2c-1.6-0.7-3.3-1.2-5.2-1.7
			c-1.9-0.4-4-0.6-6.1-0.6c-4.1,0-7.2,0.8-9.3,2.4c-2.1,1.6-3.2,3.9-3.2,6.8c0,1.6,0.3,2.9,1,3.9c0.7,1,1.7,1.9,3.1,2.6
			c1.4,0.7,3.1,1.4,5.1,2c2,0.6,4.4,1.2,7.1,1.9c3.2,0.9,6.2,1.8,8.8,2.7c2.7,0.9,5,2.1,6.9,3.5c1.9,1.4,3.4,3.1,4.4,5.1
			c1,2,1.6,4.6,1.6,7.6c0,3.5-0.6,6.4-1.9,8.8c-1.3,2.4-3,4.4-5.2,5.9c-2.2,1.5-4.7,2.6-7.6,3.3c-2.9,0.7-6,1.1-9.3,1.1
			c-5,0-9.9-0.8-14.5-2.3c-4.7-1.5-8.9-3.7-12.7-6.6l4.8-8.9c0.8,0.8,1.9,1.7,3.4,2.7c1.5,1,3.2,1.9,5.2,2.7c2,0.8,4.2,1.5,6.6,2.1
			c2.4,0.6,4.9,0.9,7.5,0.9c4,0,7-0.7,9.2-2.2c2.2-1.5,3.3-3.6,3.3-6.3c0-1.7-0.4-3.1-1.2-4.2c-0.8-1.1-2-2.1-3.5-2.9
			c-1.5-0.8-3.4-1.6-5.7-2.2c-2.2-0.6-4.8-1.3-7.6-2.1c-3.3-0.9-6.1-1.8-8.6-2.7c-2.4-1-4.5-2.1-6.1-3.5c-1.6-1.4-2.8-2.9-3.7-4.8
			c-0.8-1.8-1.3-4-1.3-6.6c0-3.2,0.6-6.1,1.8-8.6c1.2-2.5,2.9-4.6,5-6.3c2.1-1.7,4.6-3,7.6-3.8c2.9-0.9,6-1.3,9.4-1.3
			c4.6,0,8.7,0.7,12.5,2.1c3.7,1.4,7,3.2,9.9,5.3L392.1,85.2z"/>
		<path class="st6" d="M281.4,100l-19,0.1l0,7.4l11.2,0l0,15c-2.1,1.6-4.7,3.1-7.7,4.3c-3.1,1.2-6.5,1.8-10,1.8c0,0-0.1,0-0.1,0
			c-3.7,0-7.1-0.6-10.1-1.9c-3-1.3-5.6-3.1-7.7-5.4c-2.1-2.3-3.8-5-4.9-8.1c-1.2-3.1-1.7-6.6-1.8-10.3l0-0.2c0-3.4,0.6-6.7,1.7-9.8
			c1.2-3.1,2.8-5.8,4.8-8.1c2-2.3,4.5-4.1,7.4-5.5c2.9-1.4,6-2,9.4-2.1c2.2,0,4.2,0.2,6,0.5c1.8,0.4,3.5,0.8,5,1.4
			c1.5,0.6,2.9,1.4,4.2,2.2c1.3,0.9,2.6,1.8,3.7,2.9l0.4,0.3l5.2-6.2l-0.4-0.3c-1.6-1.3-3.2-2.5-4.9-3.6c-1.7-1.1-3.5-2-5.4-2.7
			c-1.9-0.7-4-1.3-6.2-1.6c-2.2-0.4-4.7-0.5-7.3-0.5c-4.8,0-9.2,0.9-13.1,2.7c-3.9,1.8-7.3,4.3-10.1,7.3c-2.8,3-5,6.6-6.5,10.6
			c-1.5,4-2.3,8.2-2.3,12.6l0,0.2c0,4.5,0.8,8.9,2.3,12.8c1.5,4,3.7,7.5,6.5,10.5c2.8,3,6.3,5.3,10.3,7c4,1.7,8.5,2.5,13.4,2.5
			c0,0,0.1,0,0.1,0c5.4,0,10.3-1,14.7-2.9c1.1-0.5,2.2-1,3.5-1.7l0,4.6l7.7,0L281.4,100z"/>
		<g>
			<path class="st3" d="M159.7,102.7c0-3.9,0.7-7.9,2.1-11.8c1.4-3.9,3.4-7.4,6.1-10.5c2.6-3.1,5.9-5.6,9.8-7.5
				c3.9-1.9,8.2-2.9,13.2-2.9c5.9,0,10.8,1.3,15,4c4.1,2.7,7.2,6.1,9.2,10.3l-3.9,2.2c-1.1-2.3-2.4-4.2-4-5.7
				c-1.6-1.5-3.3-2.8-5.1-3.7c-1.8-1-3.7-1.6-5.7-2.1c-2-0.4-3.9-0.6-5.8-0.6c-4.2,0-7.9,0.8-11.1,2.5c-3.2,1.7-5.9,3.9-8.1,6.6
				c-2.2,2.7-3.9,5.8-5,9.2c-1.1,3.4-1.7,6.9-1.7,10.3c0,3.9,0.7,7.6,2,11.1c1.4,3.5,3.2,6.6,5.5,9.3c2.3,2.7,5.1,4.8,8.3,6.4
				c3.2,1.6,6.7,2.4,10.4,2.4c2,0,4-0.2,6.1-0.7c2.1-0.5,4.1-1.3,6-2.3c1.9-1,3.7-2.4,5.4-4c1.7-1.6,3.1-3.6,4.2-5.8l4,1.9
				c-1.1,2.5-2.6,4.7-4.5,6.6c-1.9,1.9-4,3.5-6.3,4.8c-2.3,1.3-4.8,2.3-7.4,2.9c-2.6,0.6-5.2,1-7.7,1c-4.5,0-8.6-1-12.3-3
				c-3.7-2-6.9-4.5-9.7-7.7c-2.7-3.2-4.8-6.8-6.3-10.8C160.5,111,159.7,106.9,159.7,102.7z"/>
		</g>
	</g>
</switch>
</svg>
