<svg width="22" height="22" viewBox="0 0 22 22" version="1.1" xmlns="http://www.w3.org/2000/svg" xmlns:xlink="http://www.w3.org/1999/xlink">
    <desc>Created using Figma</desc>
    <g id="Canvas" transform="translate(537 344)">
        <g id="Hierarchical Tree">
            <g id="Vector">
                <path d="M 0 3.1875L 0 13L 0 3.1875Z" transform="matrix(6.12323e-17 1 1 -6.12323e-17 -534 -341)" fill="#C4C4C4"></path>
                <path d="M 11 0L 11 6L 11 0Z" transform="matrix(6.12323e-17 1 1 -6.12323e-17 -534 -341)" fill="#C4C4C4"></path>
                <path d="M 6 10L 6 16L 6 10Z" transform="matrix(6.12323e-17 1 1 -6.12323e-17 -534 -341)" fill="#C4C4C4"></path>
                <path d="M 6 16L 14 16L 6 16Z" transform="matrix(6.12323e-17 1 1 -6.12323e-17 -534 -341)" fill="#C4C4C4"></path>
                <path d="M 6 10L 14 10L 6 10Z" transform="matrix(6.12323e-17 1 1 -6.12323e-17 -534 -341)" fill="#C4C4C4"></path>
                <path d="M 0 13L 5 13L 0 13Z" transform="matrix(6.12323e-17 1 1 -6.12323e-17 -534 -341)" fill="#C4C4C4"></path>
                <path d="M 0 3.1875L 11 3.1875L 0 3.1875Z" transform="matrix(6.12323e-17 1 1 -6.12323e-17 -534 -341)" fill="#C4C4C4"></path>
                <path d="M 11 6L 17 6L 11 6Z" transform="matrix(6.12323e-17 1 1 -6.12323e-17 -534 -341)" fill="#C4C4C4"></path>
                <path d="M 11 0L 17 0L 11 0Z" transform="matrix(6.12323e-17 1 1 -6.12323e-17 -534 -341)" fill="#C4C4C4"></path>
                <path d="M 0 3.1875L 0 2.1875L -1 2.1875L -1 3.1875L 0 3.1875ZM 0 13L -1 13L -1 14L 0 14L 0 13ZM 11 0L 11 -1L 10 -1L 10 0L 11 0ZM 11 6L 10 6L 10 7L 11 7L 11 6ZM 6 10L 6 9L 5 9L 5 10L 6 10ZM 6 16L 5 16L 5 17L 6 17L 6 16ZM -1 3.1875L -1 13L 1 13L 1 3.1875L -1 3.1875ZM 10 0L 10 6L 12 6L 12 0L 10 0ZM 5 10L 5 16L 7 16L 7 10L 5 10ZM 6 17L 14 17L 14 15L 6 15L 6 17ZM 6 11L 14 11L 14 9L 6 9L 6 11ZM 0 14L 5 14L 5 12L 0 12L 0 14ZM 0 4.1875L 11 4.1875L 11 2.1875L 0 2.1875L 0 4.1875ZM 11 7L 17 7L 17 5L 11 5L 11 7ZM 11 1L 17 1L 17 -1L 11 -1L 11 1Z" transform="matrix(6.12323e-17 1 1 -6.12323e-17 -534 -341)" fill="#FFFFFF"></path>
            </g>
        </g>
    </g>
</svg>