<svg width="22" height="22" viewBox="0 0 22 22" version="1.1" xmlns="http://www.w3.org/2000/svg" xmlns:xlink="http://www.w3.org/1999/xlink">
    <desc>Created using Figma</desc>
    <g id="Canvas" transform="translate(577 344)">
        <g id="Diagonal Tree">
            <g id="Vector">
                <path d="M 0 9L -0.447215 8.10557L -0.447219 9.89443L 0 9ZM 2.24999 10.125L 1.80277 11.0194L 1.80278 11.0194L 2.24999 10.125ZM 6.74998 12.375L 6.30277 13.2694L 6.30277 13.2694L 6.74998 12.375ZM 9.00004 13.5L 9.44726 12.6056L 9.44724 12.6056L 9.00004 13.5ZM 13.5 15.75L 13.0528 16.6444L 13.0528 16.6444L 13.5 15.75ZM 15.75 16.875L 15.3028 17.7694L 15.3028 17.7694L 15.75 16.875ZM 0.447215 9.89443L 18.4471 0.894426L 17.5527 -0.894426L -0.447215 8.10557L 0.447215 9.89443ZM -0.447219 9.89443L 1.80277 11.0194L 2.69721 9.23059L 0.447219 8.10558L -0.447219 9.89443ZM 1.80278 11.0194L 6.30277 13.2694L 7.19719 11.4806L 2.6972 9.23059L 1.80278 11.0194ZM 6.30277 13.2694L 8.55283 14.3944L 9.44724 12.6056L 7.19718 11.4806L 6.30277 13.2694ZM 8.55282 14.3944L 13.0528 16.6444L 13.9472 14.8556L 9.44726 12.6056L 8.55282 14.3944ZM 13.0528 16.6444L 15.3028 17.7694L 16.1972 15.9806L 13.9472 14.8556L 13.0528 16.6444ZM 15.3028 17.7694L 17.5528 18.8944L 18.4472 17.1056L 16.1972 15.9806L 15.3028 17.7694Z" transform="matrix(1 0 0 -1 -576 -324)"></path>
            </g>
            <g id="Vector 2.1">
                <path d="M -0.447214 1.39443L 5.55279 4.39443L 6.44721 2.60557L 0.447214 -0.394427L -0.447214 1.39443ZM 5.55279 4.39443L 12.5528 7.89443L 13.4472 6.10557L 6.44721 2.60557L 5.55279 4.39443ZM 6.44721 4.39443L 13.4472 0.894427L 12.5528 -0.894427L 5.55279 2.60557L 6.44721 4.39443Z" transform="matrix(1 0 0 -1 -571 -329.5)"></path>
            </g>
        </g>
    </g>
</svg>